<svg width="22" height="22" viewBox="0 0 22 22" fill="none" xmlns="http://www.w3.org/2000/svg">
<g clip-path="url(#clip0_3197_5738)">
<rect x="-4" y="-4" width="30" height="30" rx="5" fill="#FF0000"/>
<path fill-rule="evenodd" clip-rule="evenodd" d="M8.80497 -4.41178e-06H7.63309L7.63281 7.79033H7.87734C8.15859 7.52986 8.46953 7.30039 8.80469 7.10814L8.80497 -4.41178e-06ZM14.8102 7.79033C13.8707 6.91706 12.6311 6.43193 11.3438 6.43371C10.8817 6.43339 10.4217 6.49546 9.97656 6.61821V0.169964L17.5937 0.852166C18.2154 0.852166 18.8115 2.80266 19.251 3.2388C19.6906 3.67494 19.9375 4.26648 19.9375 4.88328L21.0435 7.79033H14.8102ZM13.775 8.95315C14.4484 9.59308 14.838 10.4722 14.8582 11.3972C14.8783 12.3222 14.5273 13.2172 13.8824 13.8854C13.2375 14.5536 12.3515 14.9403 11.4193 14.9603C10.4871 14.9802 9.58512 14.632 8.91172 13.992C8.57828 13.6751 8.31102 13.2962 8.12519 12.8767C7.93936 12.4573 7.83859 12.0057 7.82866 11.5477C7.80858 10.6226 8.15967 9.72755 8.80469 9.05935C9.4497 8.39116 10.3358 8.00458 11.2681 7.98466C12.2003 7.96474 13.1024 8.31312 13.7758 8.95315H13.775ZM6.94531 8.95315C6.49987 9.71918 6.26545 10.588 6.26562 11.4724C6.2658 12.3568 6.50055 13.2256 6.94629 13.9915C7.39203 14.7573 8.03306 15.3933 8.80497 15.8354C9.57687 16.2776 10.4525 16.5104 11.3438 16.5104C12.235 16.5104 13.1106 16.2776 13.8825 15.8354C14.6544 15.3933 15.2955 14.7573 15.7412 13.9915C16.187 13.2256 16.4217 12.3568 16.4219 11.4724C16.422 10.588 16.1876 9.71918 15.7422 8.95315H22L21.6562 16.2014C21.6562 16.8182 19.6906 18.495 19.251 18.9312C18.8115 19.3673 16.2622 22 15.6406 22H11L4.46875 21.3178C3.84715 21.3178 3.18954 20.0485 2.75 19.6123C2.31046 19.1762 0.6875 17.5004 0.6875 16.8836L0 8.95315H6.94531ZM6.46094 0.511058V7.79033H5.28906V1.53434L6.46094 0.511058ZM4.11719 2.76849V7.79033L0.6875 7.67405L2.17569 4.49567C2.17556 4.05027 2.87865 4.00181 3.12102 3.62692C3.36338 3.25203 3.70914 2.95408 4.11719 2.76849ZM15.25 4.49567C15.25 4.39287 15.2912 4.29428 15.3644 4.22159C15.4377 4.1489 15.537 4.10806 15.6406 4.10806H17.2031C17.3067 4.10806 17.4061 4.1489 17.4793 4.22159C17.5526 4.29428 17.5937 4.39287 17.5937 4.49567V6.0461C17.5937 6.1489 17.5526 6.24749 17.4793 6.32018C17.4061 6.39287 17.3067 6.43371 17.2031 6.43371H15.6406C15.537 6.43371 15.4377 6.39287 15.3644 6.32018C15.2912 6.24749 15.25 6.1489 15.25 6.0461V4.49567Z" fill="white"/>
</g>
<rect x="0.5" y="0.5" width="21" height="21" rx="10.5" stroke="#FF0000"/>
<defs>
<clipPath id="clip0_3197_5738">
<rect x="1" y="1" width="20" height="20" rx="10" fill="white"/>
</clipPath>
</defs>
</svg>
