<svg width="35" height="36" viewBox="0 0 35 36" fill="none" xmlns="http://www.w3.org/2000/svg">
<rect x="0.75" y="1.25" width="33.5" height="33.5" rx="16.75" stroke="white" stroke-width="1.5"/>
<path d="M17.7919 22.6461L19.1055 21.2952C19.4546 20.9381 19.9269 20.7376 20.4192 20.7376C20.9116 20.7376 21.3839 20.9381 21.7329 21.2952L23.0466 22.6461C23.3939 23.005 23.5888 23.4907 23.5888 23.997C23.5888 24.5034 23.3939 24.9891 23.0466 25.348L21.7329 26.6989C21.7329 26.6989 18.4487 30.0762 12.5371 23.9959C6.62554 17.9156 9.90975 14.5394 9.90975 14.5394L11.2234 13.1884C11.5725 12.8313 12.0448 12.6309 12.5371 12.6309C13.0295 12.6309 13.5018 12.8313 13.8508 13.1884L15.1645 14.5394C15.5118 14.8983 15.7067 15.384 15.7067 15.8903C15.7067 16.3966 15.5118 16.8823 15.1645 17.2412L13.8508 18.5922L17.7919 22.6461Z" stroke="white" stroke-linejoin="round"/>
<path d="M19.1807 9.5C19.1807 9.5 26.3442 9.5 26.3442 16.8667" stroke="white" stroke-linejoin="round"/>
<path d="M18.0786 12.8999C18.0786 12.8999 22.4869 12.8999 22.4869 17.4332" stroke="white" stroke-linejoin="round"/>
</svg>
