<svg width="16" height="16" viewBox="0 0 16 16" fill="none" xmlns="http://www.w3.org/2000/svg">
<rect width="16" height="16" rx="3" fill="white"/>
<path d="M9.19336 6.41602C9.19336 6.13987 8.9695 5.91602 8.69336 5.91602C8.41722 5.91602 8.19336 6.13987 8.19336 6.41602H9.19336ZM8.19336 6.41602V7.14304H9.19336V6.41602H8.19336Z" fill="url(#paint0_linear_3948_5811)"/>
<path d="M12.9602 5.20996L12.9368 4.72087L11.9191 4.79316L11.9425 5.28225L12.9602 5.20996ZM11.9425 5.28225C11.9821 6.10876 11.9101 6.59717 11.722 6.9528C11.5412 7.29459 11.2128 7.5879 10.5468 7.93076L11.0077 8.79287C11.7548 8.40818 12.304 7.9896 12.6272 7.37841C12.9432 6.78106 13.0017 6.07539 12.9602 5.20996L11.9425 5.28225Z" fill="url(#paint1_linear_3948_5811)"/>
<path d="M3.36889 4.97412C3.38182 4.704 3.62013 4.50121 3.90116 4.52117C4.18219 4.54113 4.39953 4.77629 4.38659 5.04641L3.36889 4.97412ZM4.38659 5.04641C4.34702 5.87292 4.41903 6.36133 4.60712 6.71696C4.7879 7.05875 5.11634 7.35206 5.78226 7.69492L5.32143 8.55703C4.57425 8.17234 4.02514 7.75376 3.70188 7.14257C3.38594 6.54522 3.32745 5.83955 3.36889 4.97412L4.38659 5.04641Z" fill="url(#paint2_linear_3948_5811)"/>
<path d="M7.91992 6.41602C7.91992 6.13987 7.69606 5.91602 7.41992 5.91602C7.14378 5.91602 6.91992 6.13987 6.91992 6.41602H7.91992ZM6.91992 6.41602V7.14304H7.91992V6.41602H6.91992Z" fill="url(#paint3_linear_3948_5811)"/>
<path d="M1.21311 9.07357C1.03998 9.28658 1.07439 9.60128 1.28996 9.77649C1.50553 9.95169 1.82063 9.92105 1.99375 9.70804L1.21311 9.07357ZM4.34675 8.73502C3.75429 8.34065 3.19694 8.06534 2.63106 8.12411C2.04662 8.1848 1.61272 8.58191 1.21311 9.07357L1.99375 9.70804C2.36768 9.24798 2.5825 9.13453 2.74625 9.11752C2.92857 9.09859 3.21886 9.17845 3.79778 9.56381L4.34675 8.73502Z" fill="url(#paint4_linear_3948_5811)"/>
<path d="M14.6043 9.06527C14.7774 9.27828 14.743 9.59298 14.5274 9.76818C14.3119 9.94339 13.9968 9.91275 13.8236 9.69974L14.6043 9.06527ZM11.4706 8.72672C12.0631 8.33235 12.6204 8.05704 13.1863 8.11581C13.7708 8.1765 14.2047 8.57361 14.6043 9.06527L13.8236 9.69974C13.4497 9.23968 13.2349 9.12623 13.0711 9.10922C12.8888 9.09029 12.5985 9.17015 12.0196 9.55551L11.4706 8.72672Z" fill="url(#paint5_linear_3948_5811)"/>
<path d="M1.16107 11.3616C1.0678 11.6151 1.20676 11.8997 1.47143 11.9973C1.7361 12.0949 2.02626 11.9686 2.11953 11.7152L1.16107 11.3616ZM4.03433 10.1054C3.34169 9.90721 2.71755 9.8098 2.19541 10.0355C1.65591 10.2687 1.37589 10.7779 1.16107 11.3616L2.11953 11.7152C2.32163 11.166 2.48717 10.998 2.63197 10.9355C2.79413 10.8654 3.09304 10.8536 3.77231 11.0479L4.03433 10.1054Z" fill="url(#paint6_linear_3948_5811)"/>
<path d="M14.8399 11.349C14.9332 11.6024 14.7942 11.887 14.5295 11.9846C14.2649 12.0822 13.9747 11.9559 13.8814 11.7025L14.8399 11.349ZM11.9666 10.0927C12.6593 9.89452 13.2834 9.79711 13.8056 10.0228C14.3451 10.256 14.6251 10.7652 14.8399 11.349L13.8814 11.7025C13.6793 11.1533 13.5138 10.9854 13.369 10.9228C13.2068 10.8527 12.9079 10.8409 12.2287 11.0352L11.9666 10.0927Z" fill="url(#paint7_linear_3948_5811)"/>
<path d="M2.4835 14.0476C2.56426 14.3043 2.84886 14.4445 3.11919 14.3607C3.38952 14.2769 3.5432 14.0009 3.46244 13.7442L2.4835 14.0476ZM4.0653 11.4065C3.38526 11.6249 2.80429 11.8914 2.50983 12.3782C2.20511 12.8819 2.29915 13.4615 2.4835 14.0476L3.46244 13.7442C3.28512 13.1805 3.3225 12.9649 3.39083 12.852C3.46942 12.7221 3.6912 12.5502 4.36829 12.3328L4.0653 11.4065Z" fill="url(#paint8_linear_3948_5811)"/>
<path d="M13.5311 14.0344C13.4504 14.2911 13.1658 14.4313 12.8955 14.3475C12.6251 14.2638 12.4715 13.9878 12.5522 13.7311L13.5311 14.0344ZM11.9493 11.3933C12.6294 11.6117 13.2104 11.8782 13.5048 12.365C13.8095 12.8688 13.7155 13.4484 13.5311 14.0344L12.5522 13.7311C12.7295 13.1674 12.6921 12.9518 12.6238 12.8388C12.5452 12.7089 12.3235 12.537 11.6464 12.3196L11.9493 11.3933Z" fill="url(#paint9_linear_3948_5811)"/>
<path d="M5.7406 3.09539C5.83969 2.9845 5.91145 2.85162 5.96304 2.74095C5.98619 2.82602 6.00222 2.90561 6.00887 2.97169C6.04518 3.33225 5.95566 3.71237 5.75082 4.04407C5.54601 4.37573 5.2439 4.63004 4.90276 4.76878C4.56266 4.90709 4.20713 4.92169 3.89453 4.82191C3.58242 4.72228 3.32052 4.51116 3.15575 4.21701C2.99028 3.92164 2.93204 3.55784 3.0029 3.18593C3.07381 2.81377 3.26827 2.46521 3.55121 2.20162C3.62839 2.12972 3.74818 2.0444 3.88249 1.96389C3.86268 2.08642 3.84827 2.22061 3.84827 2.35866C3.84827 2.4156 3.84768 2.47615 3.84708 2.53806C3.84538 2.71256 3.84357 2.89792 3.85457 3.04398C3.86214 3.14442 3.87795 3.27218 3.92343 3.39116C3.96762 3.50677 4.07803 3.70852 4.33561 3.7834C4.55079 3.84595 4.7524 3.77887 4.84362 3.74417C4.96058 3.69968 5.0751 3.63606 5.17567 3.57147C5.37648 3.44249 5.58724 3.267 5.7406 3.09539ZM4.41825 1.7189C4.41823 1.71893 4.41748 1.71906 4.41603 1.71924C4.41754 1.71897 4.41827 1.71888 4.41825 1.7189ZM4.00535 1.3752C4.00507 1.367 4.00552 1.3623 4.00582 1.362C4.00612 1.3617 4.00625 1.3658 4.00535 1.3752Z" fill="url(#paint10_linear_3948_5811)" stroke="url(#paint11_linear_3948_5811)"/>
<path d="M10.3073 3.03436C10.2082 2.92347 10.1364 2.79059 10.0848 2.67991C10.0617 2.76498 10.0456 2.84458 10.039 2.91065C10.0027 3.27122 10.0922 3.65133 10.297 3.98304C10.5018 4.31469 10.804 4.569 11.1451 4.70774C11.4852 4.84605 11.8407 4.86065 12.1533 4.76087C12.4654 4.66124 12.7273 4.45013 12.8921 4.15598C13.0576 3.8606 13.1158 3.4968 13.0449 3.1249C12.974 2.75274 12.7796 2.40417 12.4966 2.14059C12.4195 2.06869 12.2997 1.98336 12.1654 1.90286C12.1852 2.02538 12.1996 2.15957 12.1996 2.29763C12.1996 2.35456 12.2002 2.41511 12.2008 2.47703C12.2025 2.65152 12.2043 2.83689 12.1933 2.98294C12.1857 3.08339 12.1699 3.21115 12.1244 3.33013C12.0802 3.44574 11.9698 3.64749 11.7122 3.72237C11.4971 3.78492 11.2955 3.71784 11.2042 3.68314C11.0873 3.63864 10.9727 3.57503 10.8722 3.51043C10.6714 3.38146 10.4606 3.20597 10.3073 3.03436ZM11.6296 1.65787C11.6296 1.65789 11.6304 1.65803 11.6318 1.65821C11.6303 1.65794 11.6296 1.65785 11.6296 1.65787ZM12.0425 1.31417C12.0428 1.30597 12.0423 1.30126 12.042 1.30096C12.0417 1.30066 12.0416 1.30476 12.0425 1.31417Z" fill="url(#paint12_linear_3948_5811)" stroke="url(#paint13_linear_3948_5811)"/>
<path d="M12.0265 10.3424C12.0265 11.069 11.6271 11.7684 10.8984 12.3043C10.17 12.8401 9.13967 13.1867 7.97954 13.1867C6.81942 13.1867 5.78906 12.8401 5.06063 12.3043C4.33198 11.7684 3.93262 11.069 3.93262 10.3424C3.93262 9.61575 4.33198 8.91629 5.06063 8.38036C5.78906 7.84459 6.81942 7.49805 7.97954 7.49805C9.13967 7.49805 10.17 7.84459 10.8984 8.38036C11.6271 8.91629 12.0265 9.61575 12.0265 10.3424Z" fill="url(#paint14_linear_3948_5811)" stroke="url(#paint15_linear_3948_5811)"/>
<defs>
<linearGradient id="paint0_linear_3948_5811" x1="8.69336" y1="6.77953" x2="7.69336" y2="6.77953" gradientUnits="userSpaceOnUse">
<stop stop-color="#FF0000"/>
<stop offset="1" stop-color="#990000"/>
</linearGradient>
<linearGradient id="paint1_linear_3948_5811" x1="12.2147" y1="7.09106" x2="11.6291" y2="6.77641" gradientUnits="userSpaceOnUse">
<stop stop-color="#FF0000"/>
<stop offset="1" stop-color="#990000"/>
</linearGradient>
<linearGradient id="paint2_linear_3948_5811" x1="4.1144" y1="6.85522" x2="4.69999" y2="6.54057" gradientUnits="userSpaceOnUse">
<stop stop-color="#FF0000"/>
<stop offset="1" stop-color="#990000"/>
</linearGradient>
<linearGradient id="paint3_linear_3948_5811" x1="7.41992" y1="6.77953" x2="6.41992" y2="6.77953" gradientUnits="userSpaceOnUse">
<stop stop-color="#FF0000"/>
<stop offset="1" stop-color="#990000"/>
</linearGradient>
<linearGradient id="paint4_linear_3948_5811" x1="2.83785" y1="9.27011" x2="2.77355" y2="8.6125" gradientUnits="userSpaceOnUse">
<stop stop-color="#FF0000"/>
<stop offset="1" stop-color="#990000"/>
</linearGradient>
<linearGradient id="paint5_linear_3948_5811" x1="12.9795" y1="9.26181" x2="13.0438" y2="8.6042" gradientUnits="userSpaceOnUse">
<stop stop-color="#FF0000"/>
<stop offset="1" stop-color="#990000"/>
</linearGradient>
<linearGradient id="paint6_linear_3948_5811" x1="2.77181" y1="11.0575" x2="2.51109" y2="10.4441" gradientUnits="userSpaceOnUse">
<stop stop-color="#FF0000"/>
<stop offset="1" stop-color="#990000"/>
</linearGradient>
<linearGradient id="paint7_linear_3948_5811" x1="13.2292" y1="11.0448" x2="13.4899" y2="10.4314" gradientUnits="userSpaceOnUse">
<stop stop-color="#FF0000"/>
<stop offset="1" stop-color="#990000"/>
</linearGradient>
<linearGradient id="paint8_linear_3948_5811" x1="3.59489" y1="12.8828" x2="3.00737" y2="12.5221" gradientUnits="userSpaceOnUse">
<stop stop-color="#FF0000"/>
<stop offset="1" stop-color="#990000"/>
</linearGradient>
<linearGradient id="paint9_linear_3948_5811" x1="12.4198" y1="12.8696" x2="13.0073" y2="12.5089" gradientUnits="userSpaceOnUse">
<stop stop-color="#FF0000"/>
<stop offset="1" stop-color="#990000"/>
</linearGradient>
<linearGradient id="paint10_linear_3948_5811" x1="5.44229" y1="1.47887" x2="3.69116" y2="5.28888" gradientUnits="userSpaceOnUse">
<stop stop-color="#FF0000"/>
<stop offset="1" stop-color="#990000"/>
</linearGradient>
<linearGradient id="paint11_linear_3948_5811" x1="5.44229" y1="1.47887" x2="3.69116" y2="5.28888" gradientUnits="userSpaceOnUse">
<stop stop-color="#FF0000"/>
<stop offset="1" stop-color="#990000"/>
</linearGradient>
<linearGradient id="paint12_linear_3948_5811" x1="10.6056" y1="1.41784" x2="12.3567" y2="5.22785" gradientUnits="userSpaceOnUse">
<stop stop-color="#FF0000"/>
<stop offset="1" stop-color="#990000"/>
</linearGradient>
<linearGradient id="paint13_linear_3948_5811" x1="10.6056" y1="1.41784" x2="12.3567" y2="5.22785" gradientUnits="userSpaceOnUse">
<stop stop-color="#FF0000"/>
<stop offset="1" stop-color="#990000"/>
</linearGradient>
<linearGradient id="paint14_linear_3948_5811" x1="7.97954" y1="6.99805" x2="7.97954" y2="13.6867" gradientUnits="userSpaceOnUse">
<stop stop-color="#FF0000"/>
<stop offset="1" stop-color="#990000"/>
</linearGradient>
<linearGradient id="paint15_linear_3948_5811" x1="7.97954" y1="6.99805" x2="7.97954" y2="13.6867" gradientUnits="userSpaceOnUse">
<stop stop-color="#FF0000"/>
<stop offset="1" stop-color="#990000"/>
</linearGradient>
</defs>
</svg>
