<svg width="331" height="24" viewBox="0 0 331 24" fill="none" xmlns="http://www.w3.org/2000/svg">
<path d="M78.5 4H143.5" stroke="black" stroke-width="2" stroke-linecap="round"/>
<path d="M37.5 12H143.5" stroke="black" stroke-width="2" stroke-linecap="round"/>
<path d="M1.5 20H143.5" stroke="black" stroke-width="2" stroke-linecap="round"/>
<path d="M157.5 22V20H173.5V22H157.5ZM165.5 19L161.5 15L162.9 13.6L164.5 15.15V8.85L162.9 10.4L161.5 9L165.5 5L169.5 9L168.1 10.4L166.5 8.85V15.15L168.1 13.6L169.5 15L165.5 19ZM157.5 4V2H173.5V4H157.5Z" fill="black"/>
<path d="M187.5 4H252.5" stroke="black" stroke-width="2" stroke-linecap="round"/>
<path d="M187.5 12H293.5" stroke="black" stroke-width="2" stroke-linecap="round"/>
<path d="M187.5 20H329.5" stroke="black" stroke-width="2" stroke-linecap="round"/>
</svg>
