<svg width="80" height="80" viewBox="0 0 80 80" fill="none" xmlns="http://www.w3.org/2000/svg">
<circle cx="40" cy="40" r="40" transform="rotate(180 40 40)" fill="white"/>
<path d="M36.5178 22.5829C35.3738 21.3844 33.4748 21.3402 32.2763 22.4842C31.0778 23.6282 31.0336 25.5272 32.1776 26.7257L36.5178 22.5829ZM32.1776 26.7257L48.7487 44.0865L53.0889 39.9437L36.5178 22.5829L32.1776 26.7257Z" fill="black"/>
<path d="M32.7784 53.7564C31.665 54.9833 31.757 56.8806 32.9839 57.994C34.2108 59.1075 36.1081 59.0155 37.2216 57.7886L32.7784 53.7564ZM37.2216 57.7886L53.3504 40.0161L48.9073 35.9839L32.7784 53.7564L37.2216 57.7886Z" fill="black"/>
</svg>
