<svg width="24" height="24" viewBox="0 0 24 24" fill="none" xmlns="http://www.w3.org/2000/svg">
<g clip-path="url(#clip0_2545_1315)">
<rect width="24" height="24" rx="12" fill="white"/>
<path d="M10 6C11.655 6 13 7.345 13 9C13 10.66 11.655 12 10 12C8.345 12 7 10.66 7 9C7 7.345 8.345 6 10 6ZM16 18H4V17C4 15 8 13.9 10 13.9C12 13.9 16 15 16 17V18Z" fill="black"/>
<path d="M19.49 13.995H17.85C17.625 13.37 17.5 12.695 17.5 11.995C17.5 11.295 17.63 10.62 17.85 9.995H19.49L21 7.995L19.01 6C17.7 6.98 16.725 8.375 16.28 9.995C16.1 10.635 16 11.3 16 11.995C16 12.69 16.1 13.355 16.275 13.995C16.725 15.615 17.7 17.01 19.005 17.99L21 15.995L19.49 13.995Z" fill="black"/>
</g>
<defs>
<clipPath id="clip0_2545_1315">
<rect width="24" height="24" rx="12" fill="white"/>
</clipPath>
</defs>
</svg>
