<svg width="24" height="24" viewBox="0 0 24 24" fill="none" xmlns="http://www.w3.org/2000/svg">
<rect width="24" height="24" rx="12" fill="white"/>
<path d="M12.0769 12.0769C12.0769 12.3955 11.8186 12.6538 11.5 12.6538C11.1814 12.6538 10.9231 12.3955 10.9231 12.0769C10.9231 11.7583 11.1814 11.5 11.5 11.5C11.8186 11.5 12.0769 11.7583 12.0769 12.0769Z" fill="black"/>
<path d="M8.03846 14.3846C8.35709 14.3846 8.61538 14.1263 8.61538 13.8077C8.61538 13.4891 8.35709 13.2308 8.03846 13.2308C7.71984 13.2308 7.46154 13.4891 7.46154 13.8077C7.46154 14.1263 7.71984 14.3846 8.03846 14.3846Z" fill="black"/>
<path d="M8.61538 15.5385C8.61538 15.8571 8.35709 16.1154 8.03846 16.1154C7.71984 16.1154 7.46154 15.8571 7.46154 15.5385C7.46154 15.2198 7.71984 14.9615 8.03846 14.9615C8.35709 14.9615 8.61538 15.2198 8.61538 15.5385Z" fill="black"/>
<path d="M9.76923 14.3846C10.0879 14.3846 10.3462 14.1263 10.3462 13.8077C10.3462 13.4891 10.0879 13.2308 9.76923 13.2308C9.4506 13.2308 9.19231 13.4891 9.19231 13.8077C9.19231 14.1263 9.4506 14.3846 9.76923 14.3846Z" fill="black"/>
<path d="M10.3462 15.5385C10.3462 15.8571 10.0879 16.1154 9.76923 16.1154C9.4506 16.1154 9.19231 15.8571 9.19231 15.5385C9.19231 15.2198 9.4506 14.9615 9.76923 14.9615C10.0879 14.9615 10.3462 15.2198 10.3462 15.5385Z" fill="black"/>
<path d="M11.5 14.3846C11.8186 14.3846 12.0769 14.1263 12.0769 13.8077C12.0769 13.4891 11.8186 13.2308 11.5 13.2308C11.1814 13.2308 10.9231 13.4891 10.9231 13.8077C10.9231 14.1263 11.1814 14.3846 11.5 14.3846Z" fill="black"/>
<path d="M12.0769 15.5385C12.0769 15.8571 11.8186 16.1154 11.5 16.1154C11.1814 16.1154 10.9231 15.8571 10.9231 15.5385C10.9231 15.2198 11.1814 14.9615 11.5 14.9615C11.8186 14.9615 12.0769 15.2198 12.0769 15.5385Z" fill="black"/>
<path d="M13.2308 14.3846C13.5494 14.3846 13.8077 14.1263 13.8077 13.8077C13.8077 13.4891 13.5494 13.2308 13.2308 13.2308C12.9121 13.2308 12.6538 13.4891 12.6538 13.8077C12.6538 14.1263 12.9121 14.3846 13.2308 14.3846Z" fill="black"/>
<path d="M13.8077 15.5385C13.8077 15.8571 13.5494 16.1154 13.2308 16.1154C12.9121 16.1154 12.6538 15.8571 12.6538 15.5385C12.6538 15.2198 12.9121 14.9615 13.2308 14.9615C13.5494 14.9615 13.8077 15.2198 13.8077 15.5385Z" fill="black"/>
<path d="M14.9615 14.3846C15.2802 14.3846 15.5385 14.1263 15.5385 13.8077C15.5385 13.4891 15.2802 13.2308 14.9615 13.2308C14.6429 13.2308 14.3846 13.4891 14.3846 13.8077C14.3846 14.1263 14.6429 14.3846 14.9615 14.3846Z" fill="black"/>
<path d="M13.8077 12.0769C13.8077 12.3955 13.5494 12.6538 13.2308 12.6538C12.9121 12.6538 12.6538 12.3955 12.6538 12.0769C12.6538 11.7583 12.9121 11.5 13.2308 11.5C13.5494 11.5 13.8077 11.7583 13.8077 12.0769Z" fill="black"/>
<path d="M14.9615 12.6538C15.2802 12.6538 15.5385 12.3955 15.5385 12.0769C15.5385 11.7583 15.2802 11.5 14.9615 11.5C14.6429 11.5 14.3846 11.7583 14.3846 12.0769C14.3846 12.3955 14.6429 12.6538 14.9615 12.6538Z" fill="black"/>
<path fill-rule="evenodd" clip-rule="evenodd" d="M7.46154 4C7.78016 4 8.03846 4.2583 8.03846 4.57692V5.73077H14.9615V4.57692C14.9615 4.2583 15.2198 4 15.5385 4C15.8571 4 16.1154 4.2583 16.1154 4.57692V5.73077H16.6923C17.9668 5.73077 19 6.76396 19 8.03846V16.6923C19 17.9668 17.9668 19 16.6923 19H6.30769C5.03319 19 4 17.9668 4 16.6923V8.03846C4 6.76396 5.03319 5.73077 6.30769 5.73077H6.88462V4.57692C6.88462 4.2583 7.14291 4 7.46154 4ZM17.8462 10.9231C17.8462 10.2858 17.3296 9.76923 16.6923 9.76923H6.30769C5.67044 9.76923 5.15385 10.2858 5.15385 10.9231V16.6923C5.15385 17.3296 5.67044 17.8462 6.30769 17.8462H16.6923C17.3296 17.8462 17.8462 17.3296 17.8462 16.6923V10.9231Z" fill="black"/>
</svg>
