<svg width="25" height="24" viewBox="0 0 25 24" fill="none" xmlns="http://www.w3.org/2000/svg">
<rect x="0.5" width="24" height="24" rx="12" fill="white"/>
<circle cx="18.5" cy="10" r="2" fill="black"/>
<circle cx="6.5" cy="10" r="2" fill="black"/>
<circle cx="12.5" cy="7" r="3" fill="black"/>
<path d="M8.5 15C8.5 12.7909 10.2909 11 12.5 11C14.7091 11 16.5 12.7909 16.5 15V19H8.5V15Z" fill="black"/>
<path d="M3.5 15.582C3.5 14.156 4.65597 13 6.08197 13.0001C6.32787 13.0001 6.69672 13.1501 6.69672 13.1501C6.69672 13.1501 6.08197 13.9001 6.08197 16.1501C6.08197 17.2631 6.08197 19.0001 6.08197 19.0001H3.5V15.582Z" fill="black"/>
<path d="M20.6968 15.582C20.6968 14.156 19.5408 13 18.1148 13.0001C17.8689 13.0001 17.5001 13.1501 17.5001 13.1501C17.5001 13.1501 18.1148 13.9001 18.1148 16.15C18.1148 17.263 18.1148 19 18.1148 19H20.6968V15.582Z" fill="black"/>
</svg>
