<svg width="25" height="24" viewBox="0 0 25 24" fill="none" xmlns="http://www.w3.org/2000/svg">
<rect x="0.5" width="24" height="24" rx="12" fill="white"/>
<path d="M13.4377 4.26684C13.0826 3.91105 12.5041 3.91105 12.149 4.26684L5.89993 10.5159C5.64212 10.774 5.5 11.1171 5.5 11.4816V18.0891C5.5 18.5914 5.90896 19 6.41121 19H11.3689C11.5013 19 11.6086 18.893 11.6086 18.7606V15.3893C11.6086 15.2348 11.637 15.089 11.6952 14.9492C11.8711 14.4971 12.3021 14.2042 12.7934 14.2042C13.1147 14.2042 13.4113 14.3273 13.6307 14.552C13.7464 14.6683 13.8366 14.8048 13.8942 14.9546C13.95 15.0883 13.9781 15.2341 13.9781 15.3893V18.7606C13.9781 18.893 14.0854 19 14.2179 19H19.1755C19.6781 19 20.087 18.5914 20.087 18.0891V11.4816C20.087 11.1165 19.9449 10.774 19.6868 10.5159L13.4377 4.26684ZM6.63492 16.8111V16.2025C6.63492 16.0701 6.74226 15.9631 6.87467 15.9631C7.00709 15.9631 7.11443 16.0701 7.11443 16.2025V16.8111C7.11443 16.9435 7.00709 17.0505 6.87467 17.0505C6.74226 17.0505 6.63492 16.9435 6.63492 16.8111ZM7.11443 15.0662C7.11443 15.1987 7.00709 15.3057 6.87467 15.3057C6.74225 15.3057 6.63491 15.1987 6.63491 15.0662V12.5316C6.63491 12.3992 6.74225 12.2922 6.87467 12.2922C7.00709 12.2922 7.11443 12.3992 7.11443 12.5316V15.0662Z" fill="black"/>
</svg>
