<svg width="25" height="24" viewBox="0 0 25 24" fill="none" xmlns="http://www.w3.org/2000/svg">
<rect x="0.5" width="24" height="24" rx="12" fill="white"/>
<path d="M19.5 11.1364C19.5 10.7747 19.3563 10.4279 19.1006 10.1721C18.8449 9.9164 18.498 9.77273 18.1364 9.77273H13.8273L14.4818 6.65682C14.4955 6.58864 14.5023 6.51364 14.5023 6.43864C14.5023 6.15909 14.3864 5.9 14.2023 5.71591L13.4795 5L8.99318 9.48636C8.74091 9.73864 8.59091 10.0795 8.59091 10.4545V17.2727C8.59091 17.6344 8.73458 17.9812 8.99031 18.237C9.24604 18.4927 9.59289 18.6364 9.95455 18.6364H16.0909C16.6568 18.6364 17.1409 18.2955 17.3455 17.8045L19.4045 12.9977C19.4659 12.8409 19.5 12.6773 19.5 12.5V11.1364ZM4.5 18.6364H7.22727V10.4545H4.5V18.6364Z" fill="black"/>
</svg>
