<svg width="25" height="24" viewBox="0 0 25 24" fill="none" xmlns="http://www.w3.org/2000/svg">
<rect x="0.5" width="24" height="24" rx="12" fill="white"/>
<path d="M16.7727 8.72727H16.5C16.2273 8.72727 16.0227 8.59091 15.8864 8.31818L15.0682 6.75C14.8636 6.27273 14.3864 6 13.8409 6H10.0909C9.61364 6 9.13636 6.27273 8.86364 6.75L8.11364 8.31818C7.97727 8.59091 7.77273 8.72727 7.5 8.72727H7.22727C5.72727 8.72727 4.5 9.95455 4.5 11.4545V15.5455C4.5 17.0455 5.72727 18.2727 7.22727 18.2727H16.7727C18.2727 18.2727 19.5 17.0455 19.5 15.5455V11.4545C19.5 9.95455 18.2727 8.72727 16.7727 8.72727ZM12 15.5455C10.5 15.5455 9.27273 14.3182 9.27273 12.8182C9.27273 11.3182 10.5 10.0909 12 10.0909C13.5 10.0909 14.7273 11.3182 14.7273 12.8182C14.7273 14.3182 13.5 15.5455 12 15.5455Z" fill="black"/>
</svg>
