<svg width="25" height="24" viewBox="0 0 25 24" fill="none" xmlns="http://www.w3.org/2000/svg">
<rect x="0.5" width="24" height="24" rx="12" fill="white"/>
<path d="M12 9C13.1046 9 14 8.10457 14 7C14 5.89543 13.1046 5 12 5C10.8954 5 10 5.89543 10 7C10 8.10457 10.8954 9 12 9Z" fill="black"/>
<path d="M14.1379 19.0356C13.6389 18.9119 13.214 18.6694 12.9339 18.3485L13.9481 11.9787C13.9481 11.9628 13.9481 11.9486 13.9481 11.9336C13.9481 11.9186 13.9574 11.9086 13.9597 11.8952C14.0216 11.5124 13.9003 11.1258 13.6158 10.7988C13.3313 10.4718 12.9004 10.2238 12.3936 10.0953C12.2231 10.0543 12.0471 10.0263 11.8684 10.0118C11.3945 9.97149 10.9147 10.0349 10.4919 10.1938C10.0692 10.3526 9.72343 10.5994 9.5 10.9018C9.62401 10.9146 9.74605 10.9358 9.86446 10.9652C10.3607 11.0916 10.7843 11.3327 11.0685 11.6506L10.0403 18.1056C9.97794 18.4872 10.0976 18.8728 10.3799 19.1995C10.6622 19.5261 11.0904 19.7747 11.5948 19.9046C11.6053 19.9138 11.6064 19.9046 11.6064 19.9046C11.7769 19.9457 11.9529 19.9736 12.1316 19.9881C12.6055 20.0286 13.0854 19.9652 13.5082 19.8063C13.9309 19.6475 14.2767 19.4006 14.5 19.0982C14.3768 19.0855 14.2556 19.0646 14.1379 19.0356Z" fill="black"/>
</svg>
