<svg width="24" height="24" viewBox="0 0 24 24" fill="none" xmlns="http://www.w3.org/2000/svg">
<path d="M12 0C9.62663 0 7.30655 0.703788 5.33316 2.02236C3.35977 3.34094 1.8217 5.21509 0.913451 7.4078C0.00519943 9.60051 -0.232441 12.0133 0.230582 14.3411C0.693605 16.6689 1.83649 18.8071 3.51472 20.4853C5.19295 22.1635 7.33115 23.3064 9.65892 23.7694C11.9867 24.2324 14.3995 23.9948 16.5922 23.0866C18.7849 22.1783 20.6591 20.6402 21.9776 18.6668C23.2962 16.6935 24 14.3734 24 12C23.9966 8.81846 22.7312 5.76821 20.4815 3.51852C18.2318 1.26883 15.1815 0.00344108 12 0ZM12 22C10.0222 22 8.08879 21.4135 6.4443 20.3147C4.79981 19.2159 3.51809 17.6541 2.76121 15.8268C2.00433 13.9996 1.8063 11.9889 2.19215 10.0491C2.578 8.10929 3.53041 6.32746 4.92894 4.92893C6.32746 3.53041 8.10929 2.578 10.0491 2.19215C11.9889 1.8063 13.9996 2.00433 15.8268 2.7612C17.6541 3.51808 19.2159 4.79981 20.3147 6.4443C21.4135 8.08879 22 10.0222 22 12C21.9971 14.6513 20.9426 17.1931 19.0679 19.0679C17.1931 20.9426 14.6513 21.9971 12 22Z" fill="white"/>
<path d="M12.893 3.07806C12.1726 2.95146 11.4321 2.97912 10.724 3.15908C10.0158 3.33903 9.35735 3.66689 8.79513 4.11945C8.23292 4.57201 7.78071 5.13821 7.47051 5.77797C7.1603 6.41774 6.99967 7.11544 7 7.82171C7 8.14127 7.13162 8.44773 7.36592 8.67369C7.60021 8.89965 7.91798 9.0266 8.24932 9.0266C8.58066 9.0266 8.89842 8.89965 9.13272 8.67369C9.36701 8.44773 9.49863 8.14127 9.49863 7.82171C9.49832 7.4672 9.57911 7.11699 9.73524 6.79606C9.89138 6.47512 10.119 6.19136 10.4019 5.96501C10.6848 5.73866 11.016 5.5753 11.3719 5.48657C11.7278 5.39784 12.0996 5.38593 12.4608 5.45169C12.9543 5.54409 13.4081 5.77627 13.7641 6.11858C14.1202 6.4609 14.3623 6.8978 14.4597 7.37349C14.558 7.8728 14.4901 8.3893 14.2657 8.84916C14.0413 9.30902 13.6719 9.68869 13.2103 9.93388C12.4666 10.3046 11.8432 10.8659 11.4088 11.5561C10.9744 12.2463 10.7457 13.0387 10.7479 13.8462C10.7492 14.0016 10.7827 14.1553 10.8466 14.2981C10.9105 14.4408 11.0035 14.5698 11.12 14.6773C11.2364 14.7848 11.3741 14.8687 11.5248 14.924C11.6755 14.9793 11.8361 15.0049 11.9973 14.9992C12.3341 14.987 12.6528 14.849 12.886 14.6142C13.1191 14.3794 13.2484 14.0664 13.2466 13.7413C13.2635 13.3838 13.3804 13.0373 13.585 12.7386C13.7895 12.4399 14.0741 12.2002 14.4084 12.0448C15.3136 11.5654 16.0425 10.8273 16.4949 9.93196C16.9473 9.03666 17.101 8.02818 16.9349 7.04519C16.7688 6.0622 16.291 5.15299 15.5672 4.44259C14.8434 3.73219 13.9092 3.2555 12.893 3.07806Z" fill="black"/>
<path d="M12.01 16H11.9901C11.4605 16.0026 10.9536 16.2152 10.5805 16.5911C10.2075 16.9669 9.99869 17.4754 10 18.005C10.0013 18.5345 10.2126 19.042 10.5875 19.416C10.9625 19.79 11.4704 20 12 20C12.5296 20 13.0375 19.79 13.4125 19.416C13.7874 19.042 13.9987 18.5345 14 18.005C14.0013 17.4754 13.7925 16.9669 13.4195 16.5911C13.0464 16.2152 12.5395 16.0026 12.01 16Z" fill="black"/>
</svg>
