<svg width="35" height="35" viewBox="0 0 35 35" fill="none" xmlns="http://www.w3.org/2000/svg">
<rect x="1" y="1" width="33" height="33" rx="16.5" fill="white"/>
<path d="M17.5 0C7.83594 0 0 7.83594 0 17.5C0 27.1641 7.83594 35 17.5 35C27.1641 35 35 27.1641 35 17.5C35 7.83594 27.1641 0 17.5 0ZM25.9609 23.3984C26.0781 23.5156 26.1406 23.6719 26.1406 23.8359C26.1406 24 26.0781 24.1641 25.9609 24.2734L24.2734 25.9688C24.1484 26.0938 23.9922 26.1484 23.8359 26.1484C23.6797 26.1484 23.5156 26.0859 23.3984 25.9688L17.5 20.0625L11.6094 25.9766C11.4922 26.1016 11.3281 26.1562 11.1719 26.1562C11.0156 26.1562 10.8516 26.0938 10.7344 25.9766L9.04688 24.2812C8.92969 24.1641 8.86719 24.0078 8.86719 23.8438C8.86719 23.6797 8.92969 23.5156 9.04688 23.4062L14.9609 17.4688L9.03125 11.6094C8.78906 11.3672 8.78906 10.9688 9.03125 10.7266L10.7188 9.03125C10.8359 8.91406 10.9922 8.85156 11.1562 8.85156C11.3203 8.85156 11.4766 8.91406 11.5938 9.03125L17.5078 14.8672L23.4219 9.03125C23.5391 8.91406 23.6953 8.85156 23.8594 8.85156C24.0234 8.85156 24.1797 8.91406 24.2969 9.03125L25.9844 10.7266C26.2266 10.9688 26.2266 11.3672 25.9844 11.6094L20.0547 17.4688L25.9609 23.3984Z" fill="black"/>
</svg>
