<svg width="36" height="35" viewBox="0 0 36 35" fill="none" xmlns="http://www.w3.org/2000/svg">
<rect x="1.25" y="0.75" width="33.5" height="33.5" rx="16.75" stroke="white" stroke-width="1.5"/>
<path fill-rule="evenodd" clip-rule="evenodd" d="M7.5 17.214C7.5 17.0652 7.59771 16.9252 7.73625 16.8727L25.7087 10.0229C25.7709 10 25.838 9.99413 25.9031 10.0059C25.9683 10.0177 26.0291 10.0468 26.0792 10.09C26.1783 10.1775 26.225 10.319 26.1929 10.4488L22.6083 25.525C22.5941 25.5833 22.566 25.6372 22.5264 25.6821C22.4867 25.7271 22.4368 25.7617 22.3808 25.7832C22.3244 25.8037 22.2639 25.8102 22.2044 25.8021C22.145 25.794 22.0884 25.7714 22.0396 25.7365L18.2202 22.9729L18.0744 23.0692C17.4947 23.4549 16.9133 23.838 16.3302 24.2184C15.8753 24.5156 15.4169 24.8073 14.955 25.0934C14.7861 25.1976 14.6149 25.2983 14.4417 25.3952C14.3748 25.4326 14.3067 25.4676 14.2375 25.5002C14.2003 25.518 14.1624 25.5341 14.1237 25.5484C13.943 25.608 13.7493 25.6172 13.5638 25.5748C13.3782 25.5324 13.2077 25.44 13.0708 25.3077C12.9189 25.1489 12.8165 24.9493 12.7762 24.7332L12.7748 24.7259L11.6037 18.9669L7.73625 17.5552C7.66741 17.5283 7.60817 17.4814 7.56609 17.4206C7.52401 17.3599 7.501 17.2879 7.5 17.214ZM13.5638 18.4587L14.955 21.9587L16.6929 18.9669L21.3119 14.869C21.35 14.8328 21.3743 14.7844 21.3804 14.7322C21.3866 14.6799 21.4092 14.6169 21.3804 14.5728C21.35 14.5303 21.2706 14.5101 21.22 14.4968C21.1694 14.4835 21.1158 14.4882 21.0683 14.5102L13.5638 18.4587Z" stroke="white"/>
</svg>
