<svg width="30" height="30" viewBox="0 0 30 30" fill="none" xmlns="http://www.w3.org/2000/svg">
<g clip-path="url(#clip0_2986_5729)">
<rect width="30" height="30" rx="5" fill="black"/>
<path fill-rule="evenodd" clip-rule="evenodd" d="M11.8072 -0.74903H10.1027L10.1023 10.6706H10.458C10.867 10.2888 11.3193 9.95241 11.8068 9.6706L11.8072 -0.74903ZM20.542 10.6706C19.1755 9.3905 17.3725 8.67935 15.5 8.68196C14.8279 8.6815 14.1589 8.77249 13.5114 8.95241V-0.499878L24.5909 0.500142C25.4951 0.500142 26.3622 3.35931 27.0015 3.99864C27.6408 4.63797 28 5.50509 28 6.40923L29.6087 10.6706H20.542ZM19.0364 12.3751C20.0159 13.3132 20.5826 14.6019 20.6119 15.9578C20.6412 17.3137 20.1307 18.6258 19.1926 19.6053C18.2546 20.5847 16.9658 21.1515 15.6099 21.1808C14.254 21.2101 12.942 20.6996 11.9625 19.7615C11.4775 19.297 11.0888 18.7414 10.8185 18.1266C10.5482 17.5118 10.4016 16.8498 10.3871 16.1784C10.3579 14.8224 10.8686 13.5103 11.8068 12.5308C12.745 11.5513 14.0339 10.9847 15.3899 10.9555C16.7459 10.9263 18.058 11.4369 19.0375 12.3751H19.0364ZM9.10227 12.3751C8.45435 13.498 8.11339 14.7717 8.11364 16.0681C8.11389 17.3645 8.45534 18.638 9.10369 19.7607C9.75205 20.8833 10.6845 21.8156 11.8072 22.4637C12.93 23.1118 14.2036 23.453 15.5 23.453C16.7964 23.453 18.07 23.1118 19.1928 22.4637C20.3155 21.8156 21.248 20.8833 21.8963 19.7607C22.5447 18.638 22.8861 17.3645 22.8864 16.0681C22.8866 14.7717 22.5456 13.498 21.8977 12.3751H31L30.5 23.0001C30.5 23.9043 27.6408 26.3623 27.0015 27.0016C26.3622 27.641 22.6541 31.5001 21.75 31.5001H15L5.5 30.5001C4.59585 30.5001 3.63933 28.6395 3 28.0001C2.36067 27.3608 0 24.9043 0 24.0001L-1 12.3751H9.10227ZM8.39773 0.00012207V10.6706H6.69318V1.50012L8.39773 0.00012207ZM4.98864 3.30923V10.6706L0 10.5001L2.16463 5.84105C2.16446 5.18815 3.18713 5.11712 3.53966 4.56757C3.89219 4.01803 4.39511 3.58127 4.98864 3.30923ZM21.1818 5.84105C21.1818 5.69036 21.2417 5.54584 21.3482 5.43929C21.4548 5.33273 21.5993 5.27287 21.75 5.27287H24.0227C24.1734 5.27287 24.3179 5.33273 24.4245 5.43929C24.531 5.54584 24.5909 5.69036 24.5909 5.84105V8.11378C24.5909 8.26447 24.531 8.40899 24.4245 8.51554C24.3179 8.6221 24.1734 8.68196 24.0227 8.68196H21.75C21.5993 8.68196 21.4548 8.6221 21.3482 8.51554C21.2417 8.40899 21.1818 8.26447 21.1818 8.11378V5.84105Z" fill="white"/>
</g>
<defs>
<clipPath id="clip0_2986_5729">
<rect width="30" height="30" rx="15" fill="white"/>
</clipPath>
</defs>
</svg>
