<svg width="145" height="41" viewBox="0 0 145 41" fill="none" xmlns="http://www.w3.org/2000/svg">
<path d="M35.5145 17.0002V6.44024H38.2345V17.0002H35.5145ZM44.4676 17.0002V6.44024H47.1876V10.3602H54.3876V6.44024H57.1076V17.0002H54.3876V12.1202H47.1876V17.0002H44.4676ZM63.3426 14.8402V8.60024C63.3426 8.36558 63.3639 8.15224 63.4066 7.96024C63.4599 7.76824 63.5239 7.60291 63.5986 7.46424C63.6733 7.31491 63.7799 7.18691 63.9186 7.08024C64.0573 6.97358 64.1853 6.88291 64.3026 6.80824C64.4199 6.73358 64.5853 6.67491 64.7986 6.63224C65.0119 6.57891 65.1879 6.54158 65.3266 6.52024C65.4653 6.49891 65.6626 6.48291 65.9186 6.47224C66.1853 6.45091 66.3879 6.44024 66.5266 6.44024C66.6759 6.44024 66.8946 6.44024 67.1826 6.44024H72.1426C72.4306 6.44024 72.6439 6.44024 72.7826 6.44024C72.9319 6.44024 73.1346 6.45091 73.3906 6.47224C73.6573 6.48291 73.8599 6.49891 73.9986 6.52024C74.1373 6.54158 74.3133 6.57891 74.5266 6.63224C74.7399 6.67491 74.9053 6.73358 75.0226 6.80824C75.1399 6.88291 75.2679 6.97358 75.4066 7.08024C75.5453 7.18691 75.6519 7.31491 75.7266 7.46424C75.8013 7.60291 75.8599 7.76824 75.9026 7.96024C75.9559 8.15224 75.9826 8.36558 75.9826 8.60024V14.8402C75.9826 15.0749 75.9559 15.2882 75.9026 15.4802C75.8599 15.6722 75.8013 15.8429 75.7266 15.9922C75.6519 16.1309 75.5453 16.2536 75.4066 16.3602C75.2679 16.4669 75.1399 16.5576 75.0226 16.6322C74.9053 16.7069 74.7399 16.7709 74.5266 16.8242C74.3133 16.8669 74.1373 16.8989 73.9986 16.9202C73.8599 16.9416 73.6573 16.9629 73.3906 16.9842C73.1346 16.9949 72.9319 17.0002 72.7826 17.0002C72.6439 17.0002 72.4306 17.0002 72.1426 17.0002H67.1826C66.8946 17.0002 66.6759 17.0002 66.5266 17.0002C66.3879 17.0002 66.1853 16.9949 65.9186 16.9842C65.6626 16.9629 65.4653 16.9416 65.3266 16.9202C65.1879 16.8989 65.0119 16.8669 64.7986 16.8242C64.5853 16.7709 64.4199 16.7069 64.3026 16.6322C64.1853 16.5576 64.0573 16.4669 63.9186 16.3602C63.7799 16.2536 63.6733 16.1309 63.5986 15.9922C63.5239 15.8429 63.4599 15.6722 63.4066 15.4802C63.3639 15.2882 63.3426 15.0749 63.3426 14.8402ZM66.0626 14.6802C66.0626 14.8509 66.1159 14.9842 66.2226 15.0802C66.3293 15.1656 66.4359 15.2136 66.5426 15.2242C66.6493 15.2349 66.8093 15.2402 67.0226 15.2402H72.3026C72.5159 15.2402 72.6759 15.2349 72.7826 15.2242C72.8893 15.2136 72.9959 15.1656 73.1026 15.0802C73.2093 14.9842 73.2626 14.8509 73.2626 14.6802V8.76024C73.2626 8.58958 73.2093 8.46158 73.1026 8.37624C72.9959 8.28024 72.8893 8.22691 72.7826 8.21624C72.6759 8.20558 72.5159 8.20024 72.3026 8.20024H67.0226C66.8093 8.20024 66.6493 8.20558 66.5426 8.21624C66.4359 8.22691 66.3293 8.28024 66.2226 8.37624C66.1159 8.46158 66.0626 8.58958 66.0626 8.76024V14.6802Z" fill="black"/>
<path d="M0.978826 33.0002V5.94024H7.94883V20.2902L22.2988 5.94024H30.9088L18.1988 18.6502L32.5488 33.0002H23.9388L13.8938 22.9552L7.94883 28.9002V33.0002H0.978826Z" fill="#FF0000"/>
<path d="M35.7723 33.0002V22.4402H44.5723C44.8603 22.4402 45.0736 22.4402 45.2123 22.4402C45.3616 22.4402 45.5643 22.4509 45.8203 22.4722C46.087 22.4829 46.2896 22.4989 46.4283 22.5202C46.567 22.5416 46.743 22.5789 46.9563 22.6322C47.1696 22.6749 47.335 22.7336 47.4523 22.8082C47.5696 22.8829 47.6976 22.9736 47.8363 23.0802C47.975 23.1869 48.0816 23.3149 48.1563 23.4642C48.231 23.6029 48.2896 23.7682 48.3323 23.9602C48.3856 24.1522 48.4123 24.3656 48.4123 24.6002V26.8402C48.4123 27.0749 48.3856 27.2882 48.3323 27.4802C48.2896 27.6722 48.231 27.8429 48.1563 27.9922C48.0816 28.1309 47.975 28.2536 47.8363 28.3602C47.6976 28.4669 47.5696 28.5576 47.4523 28.6322C47.335 28.7069 47.1696 28.7709 46.9563 28.8242C46.743 28.8669 46.567 28.8989 46.4283 28.9202C46.2896 28.9416 46.087 28.9629 45.8203 28.9842C45.5643 28.9949 45.3616 29.0002 45.2123 29.0002C45.0736 29.0002 44.8603 29.0002 44.5723 29.0002H38.4923V33.0002H35.7723ZM38.4923 27.2402H44.7323C44.9456 27.2402 45.1056 27.2349 45.2123 27.2242C45.319 27.2136 45.4256 27.1656 45.5323 27.0802C45.639 26.9842 45.6923 26.8509 45.6923 26.6802V24.7602C45.6923 24.5896 45.639 24.4616 45.5323 24.3762C45.4256 24.2802 45.319 24.2269 45.2123 24.2162C45.1056 24.2056 44.9456 24.2002 44.7323 24.2002H38.4923V27.2402ZM48.4098 33.0002L53.6898 22.4402H57.3698L62.6498 33.0002H59.7698L58.2498 29.9602H52.8098L51.2898 33.0002H48.4098ZM53.6898 28.2002H57.3698L55.5298 24.5202L53.6898 28.2002ZM64.0848 33.0002V22.4402H75.9248V24.2002H66.8048V26.3602H72.8848C73.1728 26.3602 73.3861 26.3602 73.5248 26.3602C73.6741 26.3602 73.8768 26.3709 74.1328 26.3922C74.3995 26.4029 74.6021 26.4189 74.7408 26.4402C74.8795 26.4616 75.0555 26.4989 75.2688 26.5522C75.4821 26.5949 75.6475 26.6536 75.7648 26.7282C75.8821 26.8029 76.0101 26.8936 76.1488 27.0002C76.2875 27.1069 76.3941 27.2349 76.4688 27.3842C76.5435 27.5229 76.6021 27.6882 76.6448 27.8802C76.6981 28.0722 76.7248 28.2856 76.7248 28.5202V30.8402C76.7248 31.0749 76.6981 31.2882 76.6448 31.4802C76.6021 31.6722 76.5435 31.8429 76.4688 31.9922C76.3941 32.1309 76.2875 32.2536 76.1488 32.3602C76.0101 32.4669 75.8821 32.5576 75.7648 32.6322C75.6475 32.7069 75.4821 32.7709 75.2688 32.8242C75.0555 32.8669 74.8795 32.8989 74.7408 32.9202C74.6021 32.9416 74.3995 32.9629 74.1328 32.9842C73.8768 32.9949 73.6741 33.0002 73.5248 33.0002C73.3861 33.0002 73.1728 33.0002 72.8848 33.0002H64.0848ZM66.8048 31.2402H73.0448C73.2581 31.2402 73.4181 31.2349 73.5248 31.2242C73.6315 31.2136 73.7381 31.1656 73.8448 31.0802C73.9515 30.9842 74.0048 30.8509 74.0048 30.6802V28.7602C74.0048 28.5896 73.9515 28.4616 73.8448 28.3762C73.7381 28.2802 73.6315 28.2269 73.5248 28.2162C73.4181 28.2056 73.2581 28.2002 73.0448 28.2002H66.8048V31.2402Z" fill="black"/>
<path d="M118.705 32.7165C114.142 33.1049 110.921 30.7096 111.034 29.8518L110.84 28.7351C118.687 29.5896 124.403 28.0554 126.28 27.1814C126.361 27.7155 126.309 28.9973 125.455 29.8518C124.387 30.92 122.056 32.1338 118.705 32.7165Z" stroke="#FF0000" stroke-width="0.5"/>
<path d="M114.336 33.202C115.938 33.6066 119.735 34.1537 122.105 33.1049C120.858 34.076 117.56 35.4549 114.336 33.202Z" stroke="#FF0000" stroke-width="0.5"/>
<path d="M101.809 33.9309C101.11 36.0672 102.586 38.1874 103.412 38.9804C103.412 38.592 103.441 37.5141 103.557 36.31C103.674 35.1058 104.156 34.0927 104.383 33.7366H104.043C103.962 33.7366 103.79 33.6881 103.752 33.4939C103.703 33.2511 103.557 32.7656 103.218 32.3771C102.946 32.0664 102.781 32.0535 102.732 32.0858C102.667 32.1182 102.392 32.5325 101.809 33.9309Z" fill="#FF0000" stroke="black" stroke-width="0.5"/>
<g filter="url(#filter0_i_2786_5939)">
<path d="M102.78 31.4056V32.0854C102.845 32.1016 103.033 32.2116 103.266 32.5224C103.557 32.9108 103.703 33.2507 103.849 33.6391C103.965 33.9498 104.124 33.8333 104.188 33.7362L104.577 33.8819L108.073 32.231L106.762 30.823L102.78 31.4056Z" fill="#FF0000"/>
</g>
<path d="M102.78 31.4056V32.0854C102.845 32.1016 103.033 32.2116 103.266 32.5224C103.557 32.9108 103.703 33.2507 103.849 33.6391C103.965 33.9498 104.124 33.8333 104.188 33.7362L104.577 33.8819L108.073 32.231L106.762 30.823L102.78 31.4056Z" stroke="#9B0000" stroke-width="0.5"/>
<path d="M100.838 40.0001C101.576 38.4852 104.383 36.4233 105.694 35.5817L105.5 34.3193L104.577 33.5425C104.367 33.672 103.548 34.2611 101.955 35.5817C100.363 36.9024 100.547 39.0776 100.838 40.0001Z" fill="#FF0000" stroke="black" stroke-width="0.5"/>
<path d="M106.034 36.0187C106.344 36.2129 108.235 34.028 109.141 32.9113L108.17 31.9402C108.073 31.9726 107.801 32.0567 107.49 32.1344C105.742 32.4257 104.965 33.2026 104.528 33.4453C104.091 33.6881 104.189 34.5135 104.528 34.3193C104.723 34.1736 105.5 34.5135 105.5 34.9019C105.5 35.7288 105.645 35.7759 106.034 36.0187Z" fill="#FF0000" stroke="black" stroke-width="0.5"/>
<path d="M98.7018 32.1824C97.6822 33.9303 97.8764 36.1153 97.8764 36.2609C97.8764 35.8336 100.757 32.7165 102.198 31.2114L101.227 29.5605C100.725 29.8519 99.5175 30.7841 98.7018 32.1824Z" fill="#FF0000" stroke="black" stroke-width="0.5"/>
<g filter="url(#filter1_i_2786_5939)">
<path d="M103.654 29.5609C104.315 29.7551 105.386 29.8036 105.839 29.8036L107.344 31.1146C106.325 31.4059 102.392 31.503 102.101 31.4544C101.809 31.4059 101.518 31.3088 101.47 31.0175C101.421 30.7261 101.615 30.5805 101.518 30.3377C101.421 30.0949 101.227 30.1921 101.081 29.8036C100.935 29.4152 101.518 28.9297 101.809 28.9782C102.101 29.0268 102.829 29.3181 103.654 29.5609Z" fill="#FF0000"/>
</g>
<path d="M103.654 29.5609C104.315 29.7551 105.386 29.8036 105.839 29.8036L107.344 31.1146C106.325 31.4059 102.392 31.503 102.101 31.4544C101.809 31.4059 101.518 31.3088 101.47 31.0175C101.421 30.7261 101.615 30.5805 101.518 30.3377C101.421 30.0949 101.227 30.1921 101.081 29.8036C100.935 29.4152 101.518 28.9297 101.809 28.9782C102.101 29.0268 102.829 29.3181 103.654 29.5609Z" stroke="#6D0000" stroke-width="0.5"/>
<path d="M129.179 34.5126C129.645 34.9787 129.502 38.3645 129.373 39.9991C130.15 39.6592 131.946 37.3287 131.898 35.6293C131.859 34.2698 131.267 33.671 130.975 33.5415L129.179 34.5126Z" fill="#FF0000" stroke="black" stroke-width="0.5"/>
<path d="M129.082 35.0465C128.965 34.3473 127.188 32.6512 126.314 31.8905L127.237 30.1426L128.645 31.1136C129.47 31.7934 131.16 33.1917 131.315 33.3471C131.509 33.5413 131.655 33.8326 131.509 34.0754C131.364 34.3182 130.878 34.2211 130.393 34.3182C129.907 34.4153 129.664 35.1921 129.519 35.2892C129.373 35.3863 129.13 35.2892 129.082 35.0465Z" fill="#FF0000" stroke="black" stroke-width="0.5"/>
<path d="M132.141 33.1045C134.86 34.5125 135.653 36.8755 135.685 38.5425C136.996 35.2408 136.025 33.3958 135.297 32.3276C134.714 31.4731 133.338 31.1947 132.723 31.1624L132.141 33.1045Z" fill="#FF0000" stroke="black" stroke-width="0.5"/>
<path d="M130.393 32.6185C129.965 32.0358 127.625 31.0809 126.508 30.6763L127.188 29.6082C128.434 30.1422 131.121 31.2007 131.898 31.1619C132.869 31.1133 133.257 30.7249 133.354 30.9676C133.646 31.8416 132.869 33.2982 132.578 33.541C132.286 33.7837 130.927 33.3468 130.393 32.6185Z" fill="#FF0000" stroke="black" stroke-width="0.5"/>
<path d="M131.898 30.6276C133.937 30.9189 137.967 34.3662 138.064 34.4148C137.821 31.4044 136.17 30.4819 134.568 29.6565C133.286 28.9962 132.545 29.2843 132.335 29.5109L131.898 30.6276Z" fill="#FF0000" stroke="black" stroke-width="0.5"/>
<path d="M130.732 31.0163C128.13 30.6667 127.091 29.8024 126.897 29.414L127.674 29.2683C130.043 29.9287 132.157 29.3169 132.917 28.9285C133.646 29.7053 132.966 30.3851 132.772 30.7249C132.577 31.0648 131.995 31.2105 130.732 31.0163Z" fill="#FF0000" stroke="black" stroke-width="0.5"/>
<path d="M133.84 19.0696C132.346 16.8173 134.249 14.7468 135.494 14.3193L140.287 13.5081C141.139 14.1098 142.521 15.2616 141.989 17.0828C140.598 20.9473 138.466 21.4153 137.596 21.081C136.868 21.1709 135.334 21.322 133.84 19.0696Z" fill="#FE0D0D" stroke="black" stroke-width="0.5"/>
<path d="M136.172 20.5606C136.668 20.1624 138.806 20.2756 139.812 20.382C140.279 20.5298 140.602 20.9686 140.725 21.3521C141.201 23.1015 138.171 24.8063 136.596 25.44C136.24 25.4754 135.527 25.4743 135.527 25.1871C135.437 24.4038 135.343 21.2259 136.172 20.5606Z" fill="#FF0000" stroke="black" stroke-width="0.5"/>
<path d="M135.095 24.7251C133.842 24.8996 131.506 26.5291 130.495 27.322L129.203 29.0709C129.298 29.1328 129.8 29.061 131.047 28.279C132.606 27.3016 135.415 26.5468 135.823 26.2622C136.231 25.9776 136.661 24.507 135.095 24.7251Z" fill="#FF0000" stroke="black" stroke-width="0.5"/>
<path d="M133.245 16.2567C127.127 12.9124 127.761 8.30589 128.843 6.42065C130.554 10.2764 135.704 13.6337 138.064 14.8304C136.728 15.4862 133.894 16.6895 133.245 16.2567Z" fill="#FF0000" stroke="black" stroke-width="0.5"/>
<path d="M131.437 1.13675C131.264 1.20756 131.134 1.27741 131.042 1.33378C131.256 1.61904 131.564 1.98452 131.928 2.41192C131.954 2.44168 131.979 2.47171 132.005 2.502C132.436 3.00782 132.928 3.58588 133.399 4.18968C133.897 4.82919 134.376 5.50428 134.736 6.16183C135.093 6.81504 135.346 7.47451 135.364 8.07789C135.388 8.85864 135.338 9.41553 135.159 9.91219C134.979 10.4091 134.678 10.8229 134.242 11.3293C134.037 11.5685 133.747 11.8253 133.44 12.089C133.385 12.1367 133.328 12.1848 133.272 12.2333C133.01 12.4575 132.738 12.6904 132.478 12.9358C131.836 13.5435 131.341 14.1662 131.283 14.7995C131.221 15.4686 131.692 15.9382 132.43 16.4005C132.965 16.6549 135.015 17.4326 137.163 17.3444C138.241 17.3001 139.329 17.0384 140.264 16.3967C141.195 15.7575 141.995 14.7272 142.475 13.1077C143.252 10.4843 142.675 7.39854 141.069 4.96603C139.466 2.53826 136.852 0.783025 133.572 0.783034C132.548 0.783037 131.861 0.963725 131.437 1.13675Z" fill="#FF0000" stroke="black" stroke-width="0.5"/>
<path d="M110.161 24.1709C105.927 25.4139 103.444 25.1096 102.732 24.8021C104.713 31.1723 110.128 34.2539 112.588 34.9983C117.881 36.6006 121.085 35.6295 123.222 35.2411C128.223 34.3318 131.249 27.4887 132.107 23.9767C131.427 24.1709 128.125 24.4137 124.581 23.2484C117.007 20.7237 115.453 22.6172 110.161 24.1709Z" fill="#FF0000" stroke="black" stroke-width="0.5"/>
<path d="M127.77 26.5007C120.37 29.5322 111.545 28.8092 108.058 28.0687C109.705 30.2029 113.531 32.4242 117.841 32.4242C123.315 32.4242 127.431 28.2284 127.77 26.5007Z" fill="black" stroke="black" stroke-width="0.5"/>
<path d="M125.34 29.6715C124.044 30.6674 122.33 31.9571 118.641 32.3883C116.229 32.577 113.743 32.0063 112.622 31.224C111.942 30.7496 111.457 30.189 111.36 29.9302C111.263 29.6715 110.971 28.9815 110.971 28.9815C118.9 29.7751 124.165 28.2838 126.062 27.4722C126.143 27.9681 126.28 28.9484 125.34 29.6715Z" fill="white" stroke="#060606" stroke-width="0.5"/>
<g filter="url(#filter2_d_2786_5939)">
<path d="M113.981 29.8998C113.35 31.1622 110.631 29.7056 110.631 28.7345C116.667 29.4628 124.906 28.1519 127.285 26.9866C127.042 27.4236 126.411 28.2975 126.411 28.2975C126.411 28.2975 125.877 28.8802 125.586 29.0744C125.353 29.2297 124.712 28.783 124.566 28.6374C125.197 29.8512 123.416 30.3378 122.736 30.4349C122.192 30.5126 121.896 30.0338 121.668 29.4638C121.847 30.1425 121.894 30.2697 121.653 30.5795C121.313 31.0165 119.483 31.1147 118.56 31.1147C117.723 31.1147 117.76 30.125 117.768 29.5641C117.726 29.7795 117.648 30.0329 117.549 30.2722C117.404 30.6706 117.202 31.0285 116.943 31.1147C116.298 31.3296 115.39 31.0165 114.967 30.969C113.851 30.7252 113.87 30.4814 113.981 29.8998Z" fill="white"/>
<path d="M126.411 28.2975L126.614 28.4439L126.614 28.4438L126.614 28.4437L126.614 28.4432L126.616 28.4412L126.621 28.4336L126.642 28.4047C126.66 28.3797 126.686 28.3435 126.717 28.2988C126.781 28.2094 126.868 28.0855 126.963 27.9477C127.151 27.6754 127.376 27.3384 127.504 27.108L127.89 26.4117L127.175 26.7621C126.026 27.3248 123.408 27.9404 120.299 28.3225C117.199 28.7034 113.652 28.8472 110.661 28.4863L110.381 28.4525V28.7345C110.381 29.0833 110.616 29.4187 110.893 29.6844C111.182 29.9606 111.567 30.2099 111.971 30.3842C112.372 30.5574 112.813 30.666 113.21 30.6361C113.386 30.6229 113.557 30.5818 113.712 30.5059C113.732 30.5753 113.764 30.6437 113.812 30.7093C113.909 30.8409 114.053 30.935 114.227 31.0104C114.403 31.086 114.629 31.1509 114.914 31.2132L114.927 31.216L114.939 31.2174C115.03 31.2277 115.153 31.2531 115.312 31.2866L115.325 31.2895C115.476 31.3213 115.65 31.3582 115.833 31.3871C116.201 31.4457 116.64 31.4793 117.022 31.3518C117.228 31.2831 117.383 31.1186 117.496 30.9501C117.547 30.8749 117.593 30.7928 117.636 30.7068C117.693 30.8636 117.78 31.0172 117.916 31.138C118.081 31.2853 118.298 31.3647 118.56 31.3647C119.028 31.3647 119.728 31.3399 120.357 31.2589C120.671 31.2185 120.976 31.1631 121.228 31.0868C121.466 31.0151 121.713 30.9093 121.85 30.733C121.919 30.6442 121.975 30.5593 122.012 30.4679C122.212 30.6335 122.464 30.7263 122.771 30.6824C123.126 30.6317 123.782 30.479 124.276 30.1662C124.525 30.0092 124.757 29.7962 124.873 29.5111C124.914 29.4117 124.939 29.3079 124.947 29.2004C125.054 29.2564 125.174 29.308 125.292 29.3355C125.406 29.3623 125.577 29.3803 125.724 29.2824C125.894 29.1696 126.116 28.958 126.284 28.7899C126.371 28.7029 126.449 28.6223 126.505 28.5635C126.533 28.5341 126.555 28.51 126.571 28.4932L126.589 28.4737L126.594 28.4684L126.595 28.467L126.595 28.4666L126.595 28.4665L126.595 28.4665L126.411 28.2975ZM126.411 28.2975L126.614 28.4439L126.605 28.4557L126.595 28.4664L126.411 28.2975Z" stroke="black" stroke-width="0.5"/>
</g>
<path d="M121.376 10.9648C120.211 11.4503 119.92 12.2272 119.823 12.9555C119.747 13.5263 119.975 14.0194 120.106 14.2066C120.497 13.6278 121.512 12.4797 122.445 12.5186C123.377 12.5574 124.16 13.8619 124.435 14.5092C124.565 14.3474 124.795 13.9169 124.678 13.4896C124.367 12.4797 123.836 11.8388 123.61 11.6446C123.124 11.1105 122.105 10.6614 121.376 10.9648Z" fill="#FF0000"/>
<path d="M120.114 14.2179C120.111 14.2143 120.109 14.2105 120.106 14.2066M120.106 14.2066C119.975 14.0194 119.747 13.5263 119.823 12.9555C119.92 12.2272 120.211 11.4503 121.376 10.9648C122.105 10.6614 123.124 11.1105 123.61 11.6446C123.836 11.8388 124.367 12.4797 124.678 13.4896C124.795 13.9169 124.565 14.3474 124.435 14.5092C124.16 13.8619 123.377 12.5574 122.445 12.5186C121.512 12.4797 120.497 13.6278 120.106 14.2066Z" stroke="#0E0000" stroke-width="0.5"/>
<path d="M119.954 20.1412C120.031 21.6561 119.452 22.9725 119.128 23.4904C119.373 23.1805 119.878 23.2641 120.099 23.3933C120.196 23.0534 120.745 22.0834 121.619 21.7435C122.493 21.4036 122.979 20.5782 123.222 20.2383C123.416 19.9664 123.32 19.6385 123.255 19.4604C122.98 19.768 122.289 20.2578 121.668 20.1412C121.046 20.0247 120.52 19.7194 120.342 19.509C120.213 19.5737 119.954 19.6751 119.954 20.1412Z" fill="#FF0000" stroke="#FF0000" stroke-width="0.5"/>
<path d="M119.086 23.5403C119.406 23.0454 120.022 21.6971 119.924 20.2635C119.918 19.8221 120.176 19.5856 120.306 19.5225C120.488 19.7193 121.01 20.1384 121.638 20.2402C122.267 20.342 122.971 19.7775 123.245 19.4825C123.313 19.6502 123.4 20.0507 123.207 20.3109C122.967 20.6361 122.487 21.4245 121.61 21.7583C120.733 22.0922 120.16 23.2038 120.066 23.527" stroke="black" stroke-width="0.5"/>
<path d="M114.11 21.863C114.234 22.5177 114.804 23.364 115.098 23.6849C114.192 24.0564 113.998 24.4792 114.026 24.6819C114.027 24.6894 114.029 24.697 114.03 24.7046C114.028 24.6973 114.027 24.6898 114.026 24.6819C113.913 24.1127 113.409 23.5837 113.205 23.3936C113.02 23.2225 112.541 22.8583 112.282 22.7139C112.023 22.5694 111.48 22.4213 111.117 22.2769C110.754 22.1325 110.533 21.7185 110.429 21.5741C110.326 21.4296 110.429 20.9 110.637 21.0445C111.207 21.3815 112.088 21.4778 112.658 21.0926C113.229 20.7075 113.34 20.1887 113.496 20.1405C113.755 20.0443 113.954 20.226 114.11 20.4667C114.265 20.7075 114.006 21.5259 114.11 21.863Z" fill="#F30000"/>
<path d="M115.147 23.8082C114.853 23.463 114.234 22.5965 114.11 21.8923C114.006 21.5298 114.265 20.6495 114.11 20.3906C113.954 20.1317 113.747 20.0282 113.488 20.1317C113.332 20.1835 113.229 20.6495 112.658 21.0638C112.088 21.478 111.207 21.3745 110.637 21.012C110.429 20.8567 110.326 21.4263 110.429 21.5816C110.533 21.7369 110.74 22.1512 111.103 22.3065C111.466 22.4619 112.088 22.6172 112.347 22.7726C112.607 22.9279 113.096 23.3135 113.28 23.4975C113.488 23.7046 114.006 24.326 114.11 24.9474" stroke="black" stroke-width="0.5"/>
<path d="M113.552 18.6695C113.552 20.0356 112.679 21.0414 111.714 21.0414C110.75 21.0414 109.877 20.0356 109.877 18.6695C109.877 17.3034 110.75 16.2976 111.714 16.2976C112.679 16.2976 113.552 17.3034 113.552 18.6695Z" fill="white" stroke="black" stroke-width="0.5"/>
<path d="M124.409 16.5623C124.291 17.5877 123.907 18.4729 123.394 19.0763C122.88 19.6812 122.258 19.982 121.651 19.9123C121.043 19.8427 120.506 19.4088 120.142 18.7032C119.779 17.9993 119.605 17.0501 119.723 16.0246C119.841 14.9992 120.225 14.114 120.738 13.5106C121.252 12.9057 121.874 12.6049 122.481 12.6746C123.088 12.7443 123.626 13.1781 123.99 13.8837C124.353 14.5876 124.527 15.5368 124.409 16.5623Z" fill="white" stroke="black" stroke-width="0.5"/>
<ellipse cx="122.041" cy="16.9842" rx="1.06817" ry="1.74792" fill="black"/>
<ellipse cx="121.812" cy="17.3986" rx="0.339874" ry="0.534087" fill="white"/>
<ellipse cx="111.939" cy="18.6688" rx="0.837778" ry="1.1754" transform="rotate(-1.62406 111.939 18.6688)" fill="black"/>
<ellipse cx="111.748" cy="18.966" rx="0.342654" ry="0.480742" transform="rotate(-1.62406 111.748 18.966)" fill="white"/>
<path d="M110.574 14.8686C109.349 15.1831 109.918 17.2767 109.918 17.2767C109.918 17.2767 110.525 15.9989 111.722 15.9989C112.54 15.9989 113.141 16.6542 113.349 17.031C113.732 16.9917 113.655 15.8422 113.349 15.4583C112.918 14.9177 111.798 14.5541 110.574 14.8686Z" fill="#FF0000" stroke="black" stroke-width="0.5"/>
<path d="M90.8622 29.6195C90.0148 28.4928 90.8243 27.1159 91.3349 26.5683C91.9937 25.5143 93.6348 25.0335 93.8243 25.4198C94.0138 25.8061 95.0677 28.3642 95.7981 28.4852C96.5284 28.6062 96.8701 29.0398 96.7824 29.5938C95.8444 31.3879 91.9216 31.0279 90.8622 29.6195Z" fill="#FF0000" stroke="black" stroke-width="0.5"/>
<g filter="url(#filter3_i_2786_5939)">
<path d="M95.722 30.5682C97.8538 31.0974 101.283 29.1149 103.272 28.8276C103.313 28.3323 103.205 27.4731 102.451 27.9983C101.508 28.6549 97.5856 28.6801 96.814 28.6053C96.0425 28.5305 95.7331 28.8326 95.4974 29.1999C95.2617 29.5672 95.8967 29.7972 95.7338 29.8559C95.3398 30.0996 95.5618 30.4323 95.722 30.5682Z" fill="#FF0000"/>
</g>
<path d="M95.722 30.5682C97.8538 31.0974 101.283 29.1149 103.272 28.8276C103.313 28.3323 103.205 27.4731 102.451 27.9983C101.508 28.6549 97.5856 28.6801 96.814 28.6053C96.0425 28.5305 95.7331 28.8326 95.4974 29.1999C95.2617 29.5672 95.8967 29.7972 95.7338 29.8559C95.3398 30.0996 95.5618 30.4323 95.722 30.5682Z" stroke="black" stroke-width="0.5"/>
<path d="M87.5949 24.0477C87.9312 21.2054 89.6988 18.6151 90.7099 17.6266C92.156 18.2251 95.2532 19.7614 96.0725 21.1179C96.2092 23.0389 93.5047 27.337 91.6162 27.7619C89.7364 28.1849 87.2623 26.8596 87.5949 24.0477Z" fill="#FF0B0B" stroke="black" stroke-width="0.5"/>
<path d="M103.779 26.7361C99.7384 25.5783 98.1436 20.8224 97.4176 19.3925L94.8794 19.1104L93.8409 23.3904C99.1157 29.4047 104.825 27.4583 103.779 26.7361Z" fill="#F10101" stroke="black" stroke-width="0.5"/>
<g filter="url(#filter4_i_2786_5939)">
<path d="M97.9343 22.9516C98.1464 23.482 98.0227 24.89 97.9343 25.5277L105.63 30.8899C105.707 30.9111 106.146 30.8684 107.215 30.9511C108.712 31.0667 109.687 30.5817 110.224 30.5817C110.761 30.5817 112.089 30.5519 112.644 29.9317C113.637 28.3266 113.495 22.7544 112.631 21.3911C112.553 21.4659 112.361 21.6524 112.164 21.8097C111.967 21.9669 111.586 21.9079 111.42 21.8588C110.797 21.5162 108.999 21.0553 108.178 20.8676L107.742 20.937C106.337 20.1275 104.436 20.2769 103.661 20.4528L103.623 20.2276C102.224 20.2163 99.3506 20.2005 99.045 20.2276C98.7393 20.2548 98.2214 21.1503 98.0006 21.5946C98.1161 22.0565 98.0045 22.6918 97.9343 22.9516Z" fill="black"/>
</g>
<path d="M97.9343 22.9516C98.1464 23.482 98.0227 24.89 97.9343 25.5277L105.63 30.8899C105.707 30.9111 106.146 30.8684 107.215 30.9511C108.712 31.0667 109.687 30.5817 110.224 30.5817C110.761 30.5817 112.089 30.5519 112.644 29.9317C113.637 28.3266 113.495 22.7544 112.631 21.3911C112.553 21.4659 112.361 21.6524 112.164 21.8097C111.967 21.9669 111.586 21.9079 111.42 21.8588C110.797 21.5162 108.999 21.0553 108.178 20.8676L107.742 20.937C106.337 20.1275 104.436 20.2769 103.661 20.4528L103.623 20.2276C102.224 20.2163 99.3506 20.2005 99.045 20.2276C98.7393 20.2548 98.2214 21.1503 98.0006 21.5946C98.1161 22.0565 98.0045 22.6918 97.9343 22.9516Z" stroke="black" stroke-width="0.5"/>
<g filter="url(#filter5_i_2786_5939)">
<path d="M98.0003 21.5843C98.2327 21.1894 98.7654 20.3732 99.0364 20.2678L100.066 19.8027L100.053 19.5657C100.245 19.4526 100.869 19.2503 101.826 19.3463L101.832 19.6572L101.86 19.6413L102.045 19.5657C102.475 19.4604 103.971 19.434 104.568 19.434C105.091 18.9847 105.706 18.5054 106.05 18.3589C106.204 18.274 106.681 18.3191 106.923 18.3552L107.146 18.2272C107.595 18.2648 108.443 18.3345 108.728 18.3538L108.76 18.1834C108.866 18.0298 109.162 17.7621 109.497 17.9201C109.601 17.9694 109.641 18.0342 109.64 18.1043C109.64 18.1105 109.64 18.1168 109.639 18.1232L109.601 18.743C109.653 18.7388 109.704 18.7435 109.752 18.7582C109.754 18.7568 109.755 18.7553 109.756 18.7538C109.835 18.6441 109.855 18.4028 109.855 18.2931C109.832 18.1936 109.912 18.1785 109.955 18.1834C111.071 18.2887 111.297 19.1049 111.27 19.4999L111.243 19.6136L111.214 19.6813C111.738 19.7926 112.175 20.1561 112.366 20.3775C112.388 20.402 112.429 20.4744 112.391 20.5488C112.398 20.5743 112.393 20.6123 112.356 20.6446L112.254 20.9252C112.397 21.0261 112.533 21.2006 112.655 21.4306C112.077 21.9687 111.863 22.0856 111.014 21.716C110.333 21.4197 108.724 20.9795 107.825 20.9732C107.818 20.9732 107.812 20.9732 107.805 20.9732C106.467 20.4115 105.158 20.2357 103.576 20.4772C103.6 20.3948 103.633 20.3225 103.679 20.2678H101.936C100.495 21.4179 100.053 22.0474 98.0003 21.5843Z" fill="black"/>
<path d="M113.416 22.8902C113.337 22.797 113.062 22.7232 112.761 22.8391C112.46 22.9549 112.742 23.7035 112.742 23.7035C112.815 23.822 113.32 23.5544 113.449 23.3858C113.581 23.2137 113.518 23.0097 113.416 22.8902Z" fill="black"/>
</g>
<path d="M98.0101 22.9315C98.2173 23.4581 98.0575 24.834 98.0003 25.3173L106.923 30.9463C108.336 31.1044 109.357 30.6902 110.075 30.6024C110.792 30.5147 112.448 30.6897 112.786 29.5707C113.376 27.8855 113.338 24.9152 113.172 23.6645M98.0101 22.9315C98.0765 22.6097 98.08 21.9003 98.0003 21.5843M98.0101 22.9315C98.0898 23.1436 99.2724 23.8544 100.544 23.1603M98.0003 21.5843C98.2327 21.1894 98.7654 20.3732 99.0364 20.2678M98.0003 21.5843C100.053 22.0474 100.495 21.4179 101.936 20.2678M99.0364 20.2678H103.679M99.0364 20.2678L100.066 19.8027L100.072 19.9168M103.679 20.2678C103.472 20.5136 103.526 21.1163 103.579 21.3869M103.679 20.2678C103.794 20.1316 104.152 19.7923 104.568 19.434M103.679 20.2678L104.568 19.434M106.923 18.3552C106.681 18.3191 106.204 18.274 106.05 18.3589C105.706 18.5054 105.091 18.9847 104.568 19.434M106.923 18.3552C106.931 18.3565 106.915 18.354 106.923 18.3552ZM106.923 18.3552L107.146 18.2272C107.595 18.2648 108.443 18.3345 108.728 18.3538M107.664 21.6727C107.637 20.8704 109.109 18.2574 109.875 18.8202C109.995 18.908 109.796 19.2146 110.075 19.4999C110.298 19.7281 110.393 19.6754 110.393 19.6754L110.498 19.7007M103.576 20.4772C105.158 20.2357 106.467 20.4115 107.805 20.9732C108.701 20.9732 110.328 21.4176 111.014 21.716C111.871 22.089 112.081 21.9665 112.671 21.4155M112.235 20.9119C112.596 21.1496 112.92 21.8624 113.08 22.7577M112.107 20.7067C112.505 20.6189 112.405 20.4214 112.366 20.3775C112.175 20.1561 111.738 19.7926 111.214 19.6813M112.107 20.7067C111.823 20.7692 110.709 20.3191 110.439 19.9838M112.107 20.7067C112.369 20.7067 112.406 20.6014 112.391 20.5488L112.031 21.5403C110.851 21.6105 110.261 21.0577 110.075 20.7725L110.393 19.7007C110.358 19.7605 110.317 19.9009 110.439 19.9838M108.779 22.1987C109.444 22.3523 110.824 23.2388 111.031 25.5558M111.031 26.8128C110.958 27.3759 110.577 28.7769 109.238 29.5492M110.925 19.648C110.925 18.736 110.35 18.6441 109.855 18.4532M104.568 19.434C103.971 19.434 102.475 19.4604 102.045 19.5657L101.86 19.6413L101.832 19.6572M100.053 19.5657L100.072 19.9168M100.053 19.5657C100.865 19.6184 101.573 19.4414 101.826 19.3463M100.053 19.5657C100.245 19.4526 100.869 19.2503 101.826 19.3463M100.072 19.9168C100.458 19.9387 101.354 19.9029 101.832 19.6572M101.832 19.6572L101.826 19.3463M112.249 22.6656C112.211 23.2744 112.214 23.6321 112.503 24.1583M108.728 18.3538C108.776 18.3571 108.808 18.3589 108.819 18.3589C108.919 18.3589 108.839 18.6661 108.979 18.6441C109.095 18.6258 109.197 18.6076 109.297 18.6655M108.728 18.3538L108.76 18.1834C108.866 18.0298 109.162 17.7621 109.497 17.9201C109.601 17.9694 109.641 18.0342 109.64 18.1043M109.297 18.6655C109.317 18.6771 109.337 18.6917 109.357 18.71C109.477 18.8197 109.676 18.8636 109.756 18.7538C109.835 18.6441 109.855 18.4028 109.855 18.2931C109.832 18.1936 109.912 18.1785 109.955 18.1834C111.071 18.2887 111.297 19.1049 111.27 19.4999L111.243 19.6136L111.214 19.6813M109.297 18.6655V18.5344C109.439 18.4388 109.639 18.2588 109.64 18.1043M109.64 18.1043L109.596 18.8168M111.214 19.6813C111.029 19.6419 110.833 19.6341 110.632 19.6754C110.358 19.7321 110.33 19.8486 110.439 19.9838M112.761 22.8391C113.062 22.7232 113.337 22.797 113.416 22.8902C113.518 23.0097 113.581 23.2137 113.449 23.3858C113.32 23.5544 112.815 23.822 112.742 23.7035C112.742 23.7035 112.46 22.9549 112.761 22.8391Z" stroke="black" stroke-width="0.5"/>
<g filter="url(#filter6_d_2786_5939)">
<path d="M109.295 29.5255C109.858 29.1383 110.992 28.0661 111.023 26.8755" stroke="black" stroke-width="0.5"/>
</g>
<g filter="url(#filter7_i_2786_5939)">
<path d="M104.959 31.4157C108.395 31.6855 110.627 28.8721 108.905 25.2659C106.587 20.4116 100.495 21.2044 99.7474 24.4421L104.959 31.4157Z" fill="black"/>
</g>
<path d="M108.683 25.3826C109.515 27.1252 109.373 28.6272 108.666 29.6522C107.972 30.6588 106.692 31.2663 105.091 31.1705L100.016 24.3801C100.405 22.9889 101.935 22.0691 103.729 22.0727C105.55 22.0764 107.566 23.0446 108.683 25.3826Z" stroke="black" stroke-width="0.5"/>
<path d="M107.751 25.5944C108.64 27.2891 108.486 28.8964 107.734 30.0417C106.997 31.1646 105.663 31.8789 104.076 31.7911L99.625 25.3043C100.192 23.7858 101.643 22.84 103.243 22.763C104.876 22.6844 106.66 23.5162 107.751 25.5944Z" stroke="black" stroke-width="0.5"/>
<g filter="url(#filter8_i_2786_5939)">
<path d="M102.347 34.9656C105.841 32.3621 109.251 29.6548 107.337 25.9552C104.997 21.4334 101.669 22.9759 97.4896 25.3739L102.347 34.9656Z" fill="black"/>
</g>
<path d="M107.118 26.079C107.576 26.9642 107.709 27.7753 107.612 28.5318C107.514 29.2913 107.181 30.0172 106.673 30.7253C105.696 32.088 104.108 33.3399 102.438 34.5891L97.8202 25.471C99.8301 24.3249 101.586 23.4336 103.114 23.3222C103.893 23.2653 104.606 23.4128 105.264 23.8352C105.925 24.2599 106.546 24.9735 107.118 26.079Z" stroke="black" stroke-width="0.5"/>
<path d="M103.542 27.2216C105.321 29.6031 105.13 32.7652 103.23 34.3034C101.33 35.8416 98.3391 35.2553 96.5603 32.8737C94.7814 30.4921 94.9723 27.3301 96.8723 25.7919C98.7723 24.2537 101.763 24.84 103.542 27.2216Z" fill="#00669F" stroke="black" stroke-width="0.5"/>
<g filter="url(#filter9_i_2786_5939)">
<ellipse cx="3.25682" cy="4.07192" rx="3.25682" ry="4.07192" transform="matrix(0.928191 -0.372105 0.335625 0.941996 95.5213 27.5613)" fill="black"/>
</g>
<path d="M102.702 29.0663C103.429 31.1064 102.689 33.1857 101.194 33.7854C99.6979 34.385 97.8469 33.3441 97.12 31.304C96.3931 29.2638 97.1325 27.1845 98.6282 26.5849C100.124 25.9853 101.975 27.0261 102.702 29.0663Z" stroke="black" stroke-opacity="0.77" stroke-width="0.5"/>
<path d="M102.681 20.8411C102.552 20.6349 102.352 20.6857 102.237 20.7909C102.114 20.9245 102.067 21.1383 102.187 21.3221C102.307 21.5058 102.514 21.458 102.644 21.3324C102.745 21.2149 102.798 21.0296 102.681 20.8411Z" fill="black"/>
<path d="M112.285 28.6834C112.064 28.4185 111.372 28.005 111.021 28.8553C110.64 29.7792 111.723 30.0155 111.863 29.8436M111.904 28.8123C111.362 28.2108 110.66 29.7362 111.863 29.5428M111.603 29.0272L112.385 28.9627L112.425 29.2635M112.225 29.371L111.442 29.4139V29.1131M102.237 20.7909C102.352 20.6857 102.552 20.6349 102.681 20.8411C102.798 21.0296 102.745 21.2149 102.644 21.3324C102.514 21.458 102.307 21.5058 102.187 21.3221C102.067 21.1383 102.114 20.9245 102.237 20.7909Z" stroke="black" stroke-width="0.5"/>
<g filter="url(#filter10_d_2786_5939)">
<path d="M108.781 22.1968C109.635 22.4798 110.821 23.3189 111.035 25.5636" stroke="black" stroke-width="0.5"/>
</g>
<path d="M105.856 22.247L105.847 22.2416L105.838 22.237C105.518 22.0713 105.124 21.7826 104.664 21.4316C104.581 21.3681 104.496 21.3028 104.409 21.2363C104.023 20.9401 103.605 20.6185 103.172 20.3198C102.641 19.9538 102.078 19.6136 101.508 19.3878C100.939 19.1621 100.348 19.0444 99.7689 19.143C98.9342 19.2853 98.4128 19.4638 97.9851 19.7531C97.6044 20.0107 97.3105 20.3498 96.9408 20.7764C96.9038 20.8192 96.866 20.8628 96.8273 20.9073C96.8117 20.9253 96.7959 20.9434 96.7799 20.9618C96.4003 21.3984 95.919 21.9518 95.3658 22.4401C94.7869 22.9511 94.1521 23.3696 93.5004 23.5149C93.1062 23.6028 92.836 23.6219 92.6082 23.5598C92.3904 23.5004 92.1761 23.3566 91.9197 23.0399C91.5998 22.5347 90.6494 20.6616 90.4842 18.5789C90.4013 17.5336 90.5172 16.4489 90.9972 15.4595C91.4753 14.4741 92.3235 13.5643 93.7393 12.8786C99.418 10.128 106.237 13.4212 107.849 21.105C107.982 21.7385 107.87 22.2835 107.59 22.5337C107.342 22.7564 106.822 22.8506 105.856 22.247Z" fill="#FF0000" stroke="black" stroke-width="0.5"/>
<defs>
<filter id="filter0_i_2786_5939" x="102.53" y="30.5566" width="5.95837" height="3.59644" filterUnits="userSpaceOnUse" color-interpolation-filters="sRGB">
<feFlood flood-opacity="0" result="BackgroundImageFix"/>
<feBlend mode="normal" in="SourceGraphic" in2="BackgroundImageFix" result="shape"/>
<feColorMatrix in="SourceAlpha" type="matrix" values="0 0 0 0 0 0 0 0 0 0 0 0 0 0 0 0 0 0 127 0" result="hardAlpha"/>
<feOffset dx="-3" dy="8"/>
<feGaussianBlur stdDeviation="2"/>
<feComposite in2="hardAlpha" operator="arithmetic" k2="-1" k3="1"/>
<feColorMatrix type="matrix" values="0 0 0 0 0 0 0 0 0 0 0 0 0 0 0 0 0 0 0.25 0"/>
<feBlend mode="normal" in2="shape" result="effect1_innerShadow_2786_5939"/>
</filter>
<filter id="filter1_i_2786_5939" x="100.807" y="28.7249" width="7.04848" height="6.99146" filterUnits="userSpaceOnUse" color-interpolation-filters="sRGB">
<feFlood flood-opacity="0" result="BackgroundImageFix"/>
<feBlend mode="normal" in="SourceGraphic" in2="BackgroundImageFix" result="shape"/>
<feColorMatrix in="SourceAlpha" type="matrix" values="0 0 0 0 0 0 0 0 0 0 0 0 0 0 0 0 0 0 127 0" result="hardAlpha"/>
<feOffset dy="4"/>
<feGaussianBlur stdDeviation="2"/>
<feComposite in2="hardAlpha" operator="arithmetic" k2="-1" k3="1"/>
<feColorMatrix type="matrix" values="0 0 0 0 0 0 0 0 0 0 0 0 0 0 0 0 0 0 0.25 0"/>
<feBlend mode="normal" in2="shape" result="effect1_innerShadow_2786_5939"/>
</filter>
<filter id="filter2_d_2786_5939" x="103.131" y="23.8369" width="26.3645" height="13.8523" filterUnits="userSpaceOnUse" color-interpolation-filters="sRGB">
<feFlood flood-opacity="0" result="BackgroundImageFix"/>
<feColorMatrix in="SourceAlpha" type="matrix" values="0 0 0 0 0 0 0 0 0 0 0 0 0 0 0 0 0 0 127 0" result="hardAlpha"/>
<feOffset dx="-3" dy="2"/>
<feGaussianBlur stdDeviation="2"/>
<feComposite in2="hardAlpha" operator="out"/>
<feColorMatrix type="matrix" values="0 0 0 0 0 0 0 0 0 0 0 0 0 0 0 0 0 0 0.25 0"/>
<feBlend mode="normal" in2="BackgroundImageFix" result="effect1_dropShadow_2786_5939"/>
<feBlend mode="normal" in="SourceGraphic" in2="effect1_dropShadow_2786_5939" result="shape"/>
</filter>
<filter id="filter3_i_2786_5939" x="95.1943" y="27.584" width="8.33548" height="3.32349" filterUnits="userSpaceOnUse" color-interpolation-filters="sRGB">
<feFlood flood-opacity="0" result="BackgroundImageFix"/>
<feBlend mode="normal" in="SourceGraphic" in2="BackgroundImageFix" result="shape"/>
<feColorMatrix in="SourceAlpha" type="matrix" values="0 0 0 0 0 0 0 0 0 0 0 0 0 0 0 0 0 0 127 0" result="hardAlpha"/>
<feOffset dx="3" dy="-9"/>
<feGaussianBlur stdDeviation="2.5"/>
<feComposite in2="hardAlpha" operator="arithmetic" k2="-1" k3="1"/>
<feColorMatrix type="matrix" values="0 0 0 0 0 0 0 0 0 0 0 0 0 0 0 0 0 0 0.25 0"/>
<feBlend mode="normal" in2="shape" result="effect1_innerShadow_2786_5939"/>
</filter>
<filter id="filter4_i_2786_5939" x="95.6656" y="19.9626" width="17.9191" height="12.2561" filterUnits="userSpaceOnUse" color-interpolation-filters="sRGB">
<feFlood flood-opacity="0" result="BackgroundImageFix"/>
<feBlend mode="normal" in="SourceGraphic" in2="BackgroundImageFix" result="shape"/>
<feColorMatrix in="SourceAlpha" type="matrix" values="0 0 0 0 0 0 0 0 0 0 0 0 0 0 0 0 0 0 127 0" result="hardAlpha"/>
<feOffset dx="-2" dy="1"/>
<feGaussianBlur stdDeviation="11.25"/>
<feComposite in2="hardAlpha" operator="arithmetic" k2="-1" k3="1"/>
<feColorMatrix type="matrix" values="0 0 0 0 0.0167535 0 0 0 0 0.52008 0 0 0 0 0.804167 0 0 0 1 0"/>
<feBlend mode="normal" in2="shape" result="effect1_innerShadow_2786_5939"/>
</filter>
<filter id="filter5_i_2786_5939" x="96.7328" y="17.6218" width="17.0417" height="16.6101" filterUnits="userSpaceOnUse" color-interpolation-filters="sRGB">
<feFlood flood-opacity="0" result="BackgroundImageFix"/>
<feBlend mode="normal" in="SourceGraphic" in2="BackgroundImageFix" result="shape"/>
<feColorMatrix in="SourceAlpha" type="matrix" values="0 0 0 0 0 0 0 0 0 0 0 0 0 0 0 0 0 0 127 0" result="hardAlpha"/>
<feOffset dx="-1" dy="3"/>
<feGaussianBlur stdDeviation="8.2"/>
<feComposite in2="hardAlpha" operator="arithmetic" k2="-1" k3="1"/>
<feColorMatrix type="matrix" values="0 0 0 0 0 0 0 0 0 0.447451 0 0 0 0 0.7 0 0 0 1 0"/>
<feBlend mode="normal" in2="shape" result="effect1_innerShadow_2786_5939"/>
</filter>
<filter id="filter6_d_2786_5939" x="106.153" y="22.8691" width="10.1197" height="10.8623" filterUnits="userSpaceOnUse" color-interpolation-filters="sRGB">
<feFlood flood-opacity="0" result="BackgroundImageFix"/>
<feColorMatrix in="SourceAlpha" type="matrix" values="0 0 0 0 0 0 0 0 0 0 0 0 0 0 0 0 0 0 127 0" result="hardAlpha"/>
<feOffset dx="1"/>
<feGaussianBlur stdDeviation="2"/>
<feComposite in2="hardAlpha" operator="out"/>
<feColorMatrix type="matrix" values="0 0 0 0 1 0 0 0 0 1 0 0 0 0 1 0 0 0 0.81 0"/>
<feBlend mode="normal" in2="BackgroundImageFix" result="effect1_dropShadow_2786_5939"/>
<feBlend mode="normal" in="SourceGraphic" in2="effect1_dropShadow_2786_5939" result="shape"/>
</filter>
<filter id="filter7_i_2786_5939" x="99.7474" y="21.8196" width="9.7523" height="9.61401" filterUnits="userSpaceOnUse" color-interpolation-filters="sRGB">
<feFlood flood-opacity="0" result="BackgroundImageFix"/>
<feBlend mode="normal" in="SourceGraphic" in2="BackgroundImageFix" result="shape"/>
<feColorMatrix in="SourceAlpha" type="matrix" values="0 0 0 0 0 0 0 0 0 0 0 0 0 0 0 0 0 0 127 0" result="hardAlpha"/>
<feOffset dx="-45" dy="-52"/>
<feGaussianBlur stdDeviation="19.25"/>
<feComposite in2="hardAlpha" operator="arithmetic" k2="-1" k3="1"/>
<feColorMatrix type="matrix" values="0 0 0 0 0 0 0 0 0 0.639216 0 0 0 0 1 0 0 0 0.61 0"/>
<feBlend mode="normal" in2="shape" result="effect1_innerShadow_2786_5939"/>
</filter>
<filter id="filter8_i_2786_5939" x="97.4896" y="23.0574" width="10.3991" height="13.9082" filterUnits="userSpaceOnUse" color-interpolation-filters="sRGB">
<feFlood flood-opacity="0" result="BackgroundImageFix"/>
<feBlend mode="normal" in="SourceGraphic" in2="BackgroundImageFix" result="shape"/>
<feColorMatrix in="SourceAlpha" type="matrix" values="0 0 0 0 0 0 0 0 0 0 0 0 0 0 0 0 0 0 127 0" result="hardAlpha"/>
<feOffset dy="2"/>
<feGaussianBlur stdDeviation="16.1"/>
<feComposite in2="hardAlpha" operator="arithmetic" k2="-1" k3="1"/>
<feColorMatrix type="matrix" values="0 0 0 0 0 0 0 0 0 0.4075 0 0 0 0 0.6375 0 0 0 1 0"/>
<feBlend mode="normal" in2="shape" result="effect1_innerShadow_2786_5939"/>
</filter>
<filter id="filter9_i_2786_5939" x="96.5926" y="20.1614" width="23.6367" height="14.0474" filterUnits="userSpaceOnUse" color-interpolation-filters="sRGB">
<feFlood flood-opacity="0" result="BackgroundImageFix"/>
<feBlend mode="normal" in="SourceGraphic" in2="BackgroundImageFix" result="shape"/>
<feColorMatrix in="SourceAlpha" type="matrix" values="0 0 0 0 0 0 0 0 0 0 0 0 0 0 0 0 0 0 127 0" result="hardAlpha"/>
<feOffset dx="17" dy="-6"/>
<feGaussianBlur stdDeviation="15"/>
<feComposite in2="hardAlpha" operator="arithmetic" k2="-1" k3="1"/>
<feColorMatrix type="matrix" values="0 0 0 0 0.0121528 0 0 0 0 0.270724 0 0 0 0 0.416667 0 0 0 0.33 0"/>
<feBlend mode="normal" in2="shape" result="effect1_innerShadow_2786_5939"/>
</filter>
<filter id="filter10_d_2786_5939" x="107.003" y="19.2595" width="7.98099" height="9.02793" filterUnits="userSpaceOnUse" color-interpolation-filters="sRGB">
<feFlood flood-opacity="0" result="BackgroundImageFix"/>
<feColorMatrix in="SourceAlpha" type="matrix" values="0 0 0 0 0 0 0 0 0 0 0 0 0 0 0 0 0 0 127 0" result="hardAlpha"/>
<feOffset dx="1"/>
<feGaussianBlur stdDeviation="1.35"/>
<feComposite in2="hardAlpha" operator="out"/>
<feColorMatrix type="matrix" values="0 0 0 0 1 0 0 0 0 1 0 0 0 0 1 0 0 0 0.6 0"/>
<feBlend mode="normal" in2="BackgroundImageFix" result="effect1_dropShadow_2786_5939"/>
<feBlend mode="normal" in="SourceGraphic" in2="effect1_dropShadow_2786_5939" result="shape"/>
</filter>
</defs>
</svg>
