<svg width="141" height="34" viewBox="0 0 141 34" fill="none" xmlns="http://www.w3.org/2000/svg">
<path d="M35.5145 14V3.44H38.2345V14H35.5145ZM44.4676 14V3.44H47.1876V7.36H54.3876V3.44H57.1076V14H54.3876V9.12H47.1876V14H44.4676ZM63.3426 11.84V5.6C63.3426 5.36533 63.3639 5.152 63.4066 4.96C63.4599 4.768 63.5239 4.60267 63.5986 4.464C63.6733 4.31467 63.7799 4.18667 63.9186 4.08C64.0573 3.97333 64.1853 3.88267 64.3026 3.808C64.4199 3.73333 64.5853 3.67467 64.7986 3.632C65.0119 3.57867 65.1879 3.54133 65.3266 3.52C65.4653 3.49867 65.6626 3.48267 65.9186 3.472C66.1853 3.45067 66.3879 3.44 66.5266 3.44C66.6759 3.44 66.8946 3.44 67.1826 3.44H72.1426C72.4306 3.44 72.6439 3.44 72.7826 3.44C72.9319 3.44 73.1346 3.45067 73.3906 3.472C73.6573 3.48267 73.8599 3.49867 73.9986 3.52C74.1373 3.54133 74.3133 3.57867 74.5266 3.632C74.7399 3.67467 74.9053 3.73333 75.0226 3.808C75.1399 3.88267 75.2679 3.97333 75.4066 4.08C75.5453 4.18667 75.6519 4.31467 75.7266 4.464C75.8013 4.60267 75.8599 4.768 75.9026 4.96C75.9559 5.152 75.9826 5.36533 75.9826 5.6V11.84C75.9826 12.0747 75.9559 12.288 75.9026 12.48C75.8599 12.672 75.8013 12.8427 75.7266 12.992C75.6519 13.1307 75.5453 13.2533 75.4066 13.36C75.2679 13.4667 75.1399 13.5573 75.0226 13.632C74.9053 13.7067 74.7399 13.7707 74.5266 13.824C74.3133 13.8667 74.1373 13.8987 73.9986 13.92C73.8599 13.9413 73.6573 13.9627 73.3906 13.984C73.1346 13.9947 72.9319 14 72.7826 14C72.6439 14 72.4306 14 72.1426 14H67.1826C66.8946 14 66.6759 14 66.5266 14C66.3879 14 66.1853 13.9947 65.9186 13.984C65.6626 13.9627 65.4653 13.9413 65.3266 13.92C65.1879 13.8987 65.0119 13.8667 64.7986 13.824C64.5853 13.7707 64.4199 13.7067 64.3026 13.632C64.1853 13.5573 64.0573 13.4667 63.9186 13.36C63.7799 13.2533 63.6733 13.1307 63.5986 12.992C63.5239 12.8427 63.4599 12.672 63.4066 12.48C63.3639 12.288 63.3426 12.0747 63.3426 11.84ZM66.0626 11.68C66.0626 11.8507 66.1159 11.984 66.2226 12.08C66.3293 12.1653 66.4359 12.2133 66.5426 12.224C66.6493 12.2347 66.8093 12.24 67.0226 12.24H72.3026C72.5159 12.24 72.6759 12.2347 72.7826 12.224C72.8893 12.2133 72.9959 12.1653 73.1026 12.08C73.2093 11.984 73.2626 11.8507 73.2626 11.68V5.76C73.2626 5.58933 73.2093 5.46133 73.1026 5.376C72.9959 5.28 72.8893 5.22667 72.7826 5.216C72.6759 5.20533 72.5159 5.2 72.3026 5.2H67.0226C66.8093 5.2 66.6493 5.20533 66.5426 5.216C66.4359 5.22667 66.3293 5.28 66.2226 5.376C66.1159 5.46133 66.0626 5.58933 66.0626 5.76V11.68Z" fill="white"/>
<path d="M0.978826 30V2.94H7.94883V17.29L22.2988 2.94H30.9088L18.1988 15.65L32.5488 30H23.9388L13.8938 19.955L7.94883 25.9V30H0.978826Z" fill="#FF0000"/>
<path d="M35.7723 30V19.44H44.5723C44.8603 19.44 45.0736 19.44 45.2123 19.44C45.3616 19.44 45.5643 19.4507 45.8203 19.472C46.0869 19.4827 46.2896 19.4987 46.4283 19.52C46.5669 19.5413 46.7429 19.5787 46.9563 19.632C47.1696 19.6747 47.3349 19.7333 47.4523 19.808C47.5696 19.8827 47.6976 19.9733 47.8363 20.08C47.9749 20.1867 48.0816 20.3147 48.1563 20.464C48.2309 20.6027 48.2896 20.768 48.3323 20.96C48.3856 21.152 48.4123 21.3653 48.4123 21.6V23.84C48.4123 24.0747 48.3856 24.288 48.3323 24.48C48.2896 24.672 48.2309 24.8427 48.1563 24.992C48.0816 25.1307 47.9749 25.2533 47.8363 25.36C47.6976 25.4667 47.5696 25.5573 47.4523 25.632C47.3349 25.7067 47.1696 25.7707 46.9563 25.824C46.7429 25.8667 46.5669 25.8987 46.4283 25.92C46.2896 25.9413 46.0869 25.9627 45.8203 25.984C45.5643 25.9947 45.3616 26 45.2123 26C45.0736 26 44.8603 26 44.5723 26H38.4923V30H35.7723ZM38.4923 24.24H44.7323C44.9456 24.24 45.1056 24.2347 45.2123 24.224C45.3189 24.2133 45.4256 24.1653 45.5323 24.08C45.639 23.984 45.6923 23.8507 45.6923 23.68V21.76C45.6923 21.5893 45.639 21.4613 45.5323 21.376C45.4256 21.28 45.3189 21.2267 45.2123 21.216C45.1056 21.2053 44.9456 21.2 44.7323 21.2H38.4923V24.24ZM48.4098 30L53.6898 19.44H57.3698L62.6498 30H59.7698L58.2498 26.96H52.8098L51.2898 30H48.4098ZM53.6898 25.2H57.3698L55.5298 21.52L53.6898 25.2ZM64.0848 30V19.44H75.9248V21.2H66.8048V23.36H72.8848C73.1728 23.36 73.3861 23.36 73.5248 23.36C73.6741 23.36 73.8768 23.3707 74.1328 23.392C74.3994 23.4027 74.6021 23.4187 74.7408 23.44C74.8794 23.4613 75.0554 23.4987 75.2688 23.552C75.4821 23.5947 75.6474 23.6533 75.7648 23.728C75.8821 23.8027 76.0101 23.8933 76.1488 24C76.2874 24.1067 76.3941 24.2347 76.4688 24.384C76.5434 24.5227 76.6021 24.688 76.6448 24.88C76.6981 25.072 76.7248 25.2853 76.7248 25.52V27.84C76.7248 28.0747 76.6981 28.288 76.6448 28.48C76.6021 28.672 76.5434 28.8427 76.4688 28.992C76.3941 29.1307 76.2874 29.2533 76.1488 29.36C76.0101 29.4667 75.8821 29.5573 75.7648 29.632C75.6474 29.7067 75.4821 29.7707 75.2688 29.824C75.0554 29.8667 74.8794 29.8987 74.7408 29.92C74.6021 29.9413 74.3994 29.9627 74.1328 29.984C73.8768 29.9947 73.6741 30 73.5248 30C73.3861 30 73.1728 30 72.8848 30H64.0848ZM66.8048 28.24H73.0448C73.2581 28.24 73.4181 28.2347 73.5248 28.224C73.6314 28.2133 73.7381 28.1653 73.8448 28.08C73.9515 27.984 74.0048 27.8507 74.0048 27.68V25.76C74.0048 25.5893 73.9515 25.4613 73.8448 25.376C73.7381 25.28 73.6314 25.2267 73.5248 25.216C73.4181 25.2053 73.2581 25.2 73.0448 25.2H66.8048V28.24Z" fill="white"/>
<path d="M120.075 25.8747C116.466 26.1819 113.918 24.2875 114.008 23.6091L113.855 22.7259C120.06 23.4017 124.581 22.1883 126.066 21.4971C126.13 21.9195 126.089 22.9332 125.413 23.6091C124.568 24.4539 122.725 25.4139 120.075 25.8747Z" stroke="#FF0000" stroke-width="0.5"/>
<path d="M116.62 26.2587C117.887 26.5787 120.89 27.0113 122.764 26.1819C121.778 26.9499 119.169 28.0404 116.62 26.2587Z" stroke="#FF0000" stroke-width="0.5"/>
<path d="M106.713 26.8347C106.16 28.5243 107.327 30.2011 107.98 30.8283C107.98 30.5211 108.003 29.6687 108.095 28.7163C108.187 27.764 108.569 26.9627 108.748 26.6811H108.479C108.415 26.6811 108.279 26.6427 108.249 26.4891C108.21 26.2971 108.095 25.9131 107.826 25.6059C107.611 25.3602 107.481 25.3499 107.442 25.3755C107.391 25.4011 107.173 25.7288 106.713 26.8347Z" fill="#FF0000" stroke="black" stroke-width="0.5"/>
<g filter="url(#filter0_i_2663_5582)">
<path d="M107.48 24.838V25.3756C107.532 25.3884 107.68 25.4754 107.864 25.7212C108.095 26.0284 108.21 26.2972 108.325 26.6044C108.417 26.8502 108.543 26.758 108.594 26.6812L108.901 26.7964L111.666 25.4908L110.629 24.3772L107.48 24.838Z" fill="#FF0000"/>
</g>
<path d="M107.48 24.838V25.3756C107.532 25.3884 107.68 25.4754 107.864 25.7212C108.095 26.0284 108.21 26.2972 108.325 26.6044C108.417 26.8502 108.543 26.758 108.594 26.6812L108.901 26.7964L111.666 25.4908L110.629 24.3772L107.48 24.838Z" stroke="#9B0000" stroke-width="0.5"/>
<path d="M105.945 31.635C106.528 30.437 108.748 28.8062 109.785 28.1406L109.631 27.1422L108.901 26.5278C108.735 26.6302 108.087 27.0962 106.828 28.1406C105.568 29.1851 105.714 30.9054 105.945 31.635Z" fill="#FF0000" stroke="black" stroke-width="0.5"/>
<path d="M110.053 28.4863C110.299 28.6399 111.794 26.9119 112.511 26.0287L111.743 25.2607C111.666 25.2863 111.451 25.3529 111.205 25.4143C109.823 25.6447 109.209 26.2591 108.863 26.4511C108.517 26.6431 108.594 27.2959 108.863 27.1423C109.017 27.0271 109.631 27.2959 109.631 27.6031C109.631 28.2571 109.746 28.2943 110.053 28.4863Z" fill="#FF0000" stroke="black" stroke-width="0.5"/>
<path d="M104.255 25.4525C103.448 26.8349 103.602 28.5629 103.602 28.6781C103.602 28.3402 105.88 25.8749 107.02 24.6845L106.252 23.3789C105.855 23.6093 104.9 24.3466 104.255 25.4525Z" fill="#FF0000" stroke="black" stroke-width="0.5"/>
<g filter="url(#filter1_i_2663_5582)">
<path d="M108.172 23.379C108.694 23.5326 109.541 23.571 109.9 23.571L111.09 24.6078C110.284 24.8382 107.173 24.915 106.943 24.8766C106.712 24.8382 106.482 24.7614 106.444 24.531C106.405 24.3006 106.559 24.1854 106.482 23.9934C106.405 23.8014 106.252 23.8782 106.137 23.571C106.021 23.2638 106.482 22.8798 106.713 22.9182C106.943 22.9566 107.519 23.187 108.172 23.379Z" fill="#FF0000"/>
</g>
<path d="M108.172 23.379C108.694 23.5326 109.541 23.571 109.9 23.571L111.09 24.6078C110.284 24.8382 107.173 24.915 106.943 24.8766C106.712 24.8382 106.482 24.7614 106.444 24.531C106.405 24.3006 106.559 24.1854 106.482 23.9934C106.405 23.8014 106.252 23.8782 106.137 23.571C106.021 23.2638 106.482 22.8798 106.713 22.9182C106.943 22.9566 107.519 23.187 108.172 23.379Z" stroke="#6D0000" stroke-width="0.5"/>
<path d="M128.358 27.2949C128.727 27.6635 128.614 30.3413 128.512 31.6341C129.126 31.3653 130.547 29.5221 130.509 28.1781C130.478 27.1029 130.01 26.6293 129.779 26.5269L128.358 27.2949Z" fill="#FF0000" stroke="black" stroke-width="0.5"/>
<path d="M128.282 27.7173C128.19 27.1643 126.784 25.8229 126.093 25.2213L126.822 23.8389L127.936 24.6069C128.589 25.1445 129.925 26.2504 130.048 26.3733C130.202 26.5269 130.317 26.7573 130.202 26.9493C130.086 27.1413 129.702 27.0645 129.318 27.1413C128.934 27.2181 128.742 27.8325 128.627 27.9093C128.512 27.9861 128.32 27.9093 128.282 27.7173Z" fill="#FF0000" stroke="black" stroke-width="0.5"/>
<path d="M130.701 26.1813C132.851 27.2949 133.478 29.1637 133.504 30.4821C134.541 27.8709 133.773 26.4117 133.197 25.5669C132.736 24.891 131.648 24.6709 131.162 24.6453L130.701 26.1813Z" fill="#FF0000" stroke="black" stroke-width="0.5"/>
<path d="M129.319 25.7973C128.981 25.3365 127.13 24.5813 126.247 24.2613L126.784 23.4165C127.77 23.8389 129.895 24.676 130.509 24.6453C131.277 24.6069 131.584 24.2997 131.661 24.4917C131.891 25.1829 131.277 26.3349 131.047 26.5269C130.816 26.7189 129.741 26.3733 129.319 25.7973Z" fill="#FF0000" stroke="black" stroke-width="0.5"/>
<path d="M130.509 24.2229C132.122 24.4533 135.309 27.1797 135.386 27.2181C135.194 24.8373 133.888 24.1077 132.621 23.4549C131.607 22.9326 131.021 23.1605 130.854 23.3397L130.509 24.2229Z" fill="#FF0000" stroke="black" stroke-width="0.5"/>
<path d="M129.587 24.5301C127.529 24.2536 126.707 23.5701 126.554 23.2629L127.168 23.1477C129.042 23.6699 130.714 23.1861 131.315 22.8789C131.891 23.4933 131.354 24.0309 131.2 24.2997C131.046 24.5685 130.586 24.6837 129.587 24.5301Z" fill="#FF0000" stroke="black" stroke-width="0.5"/>
<path d="M132.045 15.0817C130.864 13.3003 132.369 11.6628 133.353 11.3247L137.144 10.6831C137.818 11.159 138.91 12.07 138.49 13.5103C137.39 16.5666 135.703 16.9368 135.016 16.6724C134.44 16.7435 133.227 16.863 132.045 15.0817Z" fill="#FE0D0D" stroke="black" stroke-width="0.5"/>
<path d="M133.889 16.2607C134.281 15.9458 135.972 16.0353 136.768 16.1195C137.137 16.2363 137.393 16.5834 137.49 16.8867C137.867 18.2703 135.47 19.6186 134.225 20.1198C133.943 20.1477 133.379 20.1469 133.379 19.9197C133.308 19.3002 133.234 16.7869 133.889 16.2607Z" fill="#FF0000" stroke="black" stroke-width="0.5"/>
<path d="M133.037 19.5542C132.046 19.6922 130.199 20.981 129.4 21.6081L128.378 22.9913C128.453 23.0402 128.85 22.9834 129.836 22.365C131.069 21.5919 133.29 20.995 133.613 20.7699C133.936 20.5448 134.276 19.3818 133.037 19.5542Z" fill="#FF0000" stroke="black" stroke-width="0.5"/>
<path d="M131.574 12.8565C126.736 10.2116 127.237 6.56839 128.093 5.07739C129.447 8.12682 133.519 10.7821 135.386 11.7286C134.329 12.2472 132.088 13.1988 131.574 12.8565Z" fill="#FF0000" stroke="black" stroke-width="0.5"/>
<path d="M130.164 0.947353C130.059 0.990402 129.974 1.03286 129.909 1.06998C130.074 1.28629 130.304 1.55763 130.573 1.87357C130.593 1.89716 130.613 1.92096 130.634 1.94498C130.974 2.34488 131.364 2.80286 131.737 3.28133C132.132 3.78808 132.513 4.32452 132.799 4.84811C133.083 5.36737 133.288 5.89758 133.302 6.387C133.321 7.00685 133.282 7.45506 133.137 7.85706C132.992 8.25935 132.748 8.59248 132.403 8.99411C132.237 9.18675 132.005 9.39234 131.763 9.60051C131.719 9.63844 131.674 9.6766 131.629 9.71504C131.422 9.89231 131.208 10.0755 131.004 10.2686C130.496 10.7493 130.118 11.2298 130.074 11.7094C130.029 12.2044 130.373 12.5601 130.955 12.9249C131.378 13.1252 132.987 13.7342 134.671 13.6651C135.517 13.6303 136.367 13.4251 137.096 12.9247C137.822 12.4267 138.447 11.6225 138.824 10.3517C139.434 8.29363 138.982 5.86901 137.718 3.95627C136.459 2.04827 134.407 0.671476 131.833 0.671484C131.029 0.671486 130.493 0.813249 130.164 0.947353Z" fill="#FF0000" stroke="black" stroke-width="0.5"/>
<path d="M113.317 19.1163C109.969 20.0993 108.005 19.8587 107.442 19.6155C109.009 24.6536 113.292 27.0907 115.237 27.6795C119.423 28.9467 121.957 28.1787 123.647 27.8715C127.602 27.1524 129.996 21.7403 130.674 18.9627C130.137 19.1163 127.525 19.3083 124.722 18.3867C118.732 16.3899 117.503 17.8875 113.317 19.1163Z" fill="#FF0000" stroke="black" stroke-width="0.5"/>
<path d="M127.245 20.959C121.392 23.3565 114.412 22.7847 111.654 22.1991C112.957 23.887 115.983 25.6438 119.392 25.6438C123.721 25.6438 126.977 22.3254 127.245 20.959Z" fill="black" stroke="black" stroke-width="0.5"/>
<path d="M125.322 23.4662C124.298 24.2538 122.942 25.2739 120.024 25.6149C118.117 25.7641 116.15 25.3128 115.264 24.694C114.726 24.3189 114.342 23.8755 114.266 23.6709C114.189 23.4662 113.959 22.9205 113.959 22.9205C120.229 23.5481 124.393 22.3687 125.893 21.7268C125.958 22.1191 126.066 22.8943 125.322 23.4662Z" fill="white" stroke="#060606" stroke-width="0.5"/>
<g filter="url(#filter2_d_2663_5582)">
<path d="M116.339 23.647C115.84 24.6454 113.69 23.4934 113.69 22.7254C118.463 23.3014 124.979 22.2646 126.861 21.343C126.669 21.6886 126.17 22.3798 126.17 22.3798C126.17 22.3798 125.747 22.8406 125.517 22.9942C125.333 23.1171 124.826 22.7638 124.71 22.6486C125.21 23.6086 123.801 23.9934 123.263 24.0702C122.833 24.1317 122.598 23.753 122.418 23.3022C122.56 23.839 122.597 23.9396 122.406 24.1846C122.138 24.5302 120.69 24.6078 119.961 24.6078C119.298 24.6078 119.328 23.8252 119.334 23.3815C119.301 23.5519 119.239 23.7523 119.161 23.9415C119.046 24.2567 118.886 24.5397 118.682 24.6078C118.172 24.7778 117.453 24.5302 117.119 24.4926C116.236 24.2998 116.251 24.107 116.339 23.647Z" fill="white"/>
<path d="M126.17 22.3798L126.372 22.5262L126.372 22.5261L126.372 22.526L126.373 22.5256L126.374 22.524L126.378 22.518L126.395 22.495L126.455 22.4111C126.505 22.3402 126.574 22.242 126.649 22.1328C126.797 21.9176 126.977 21.6491 127.079 21.4644L127.466 20.7681L126.751 21.1185C125.851 21.5594 123.788 22.0456 121.329 22.3477C118.88 22.6486 116.079 22.762 113.72 22.4772L113.44 22.4434V22.7254C113.44 23.0234 113.638 23.3017 113.861 23.5144C114.094 23.7377 114.404 23.9381 114.728 24.0781C115.05 24.2171 115.407 24.306 115.733 24.2815C115.858 24.2721 115.981 24.2454 116.095 24.1976C116.112 24.2385 116.134 24.2789 116.163 24.3183C116.248 24.4327 116.37 24.5119 116.513 24.5734C116.656 24.6351 116.839 24.6874 117.066 24.7369L117.078 24.7396L117.091 24.7411C117.16 24.7488 117.254 24.7683 117.381 24.795L117.392 24.7973C117.51 24.8225 117.65 24.8519 117.795 24.875C118.088 24.9215 118.446 24.9501 118.761 24.845C118.94 24.7853 119.07 24.644 119.162 24.5069C119.184 24.4749 119.204 24.4413 119.224 24.4067C119.27 24.5003 119.332 24.5901 119.416 24.6654C119.558 24.7914 119.742 24.8578 119.961 24.8578C120.332 24.8578 120.887 24.8382 121.388 24.7738C121.638 24.7417 121.882 24.6974 122.086 24.6359C122.274 24.5789 122.484 24.4915 122.604 24.3381C122.645 24.2848 122.681 24.2322 122.71 24.1773C122.869 24.2905 123.065 24.3511 123.298 24.3177C123.582 24.2772 124.109 24.155 124.509 23.9019C124.71 23.7747 124.904 23.5989 125.002 23.3594C125.027 23.2991 125.044 23.237 125.055 23.1735C125.124 23.2058 125.198 23.2343 125.272 23.2517C125.367 23.2738 125.521 23.2921 125.656 23.2022C125.794 23.1097 125.974 22.9388 126.106 22.8062C126.176 22.737 126.237 22.6729 126.282 22.6262C126.304 22.6027 126.322 22.5836 126.334 22.5702L126.349 22.5546L126.352 22.5504L126.353 22.5492L126.354 22.5489L126.354 22.5488L126.354 22.5488L126.17 22.3798ZM126.17 22.3798L126.372 22.5262L126.364 22.538L126.354 22.5487L126.17 22.3798Z" stroke="black" stroke-width="0.5"/>
</g>
<path d="M122.188 8.6716C121.266 9.05557 121.036 9.67 120.959 10.246C120.899 10.6974 121.079 11.0874 121.183 11.2355C121.492 10.7777 122.295 9.8697 123.032 9.90042C123.77 9.93114 124.389 10.9628 124.607 11.4748C124.709 11.3468 124.891 11.0063 124.799 10.6684C124.553 9.8697 124.133 9.36281 123.954 9.2092C123.57 8.78682 122.764 8.43163 122.188 8.6716Z" fill="#FF0000"/>
<path d="M121.189 11.2444C121.187 11.2415 121.185 11.2386 121.183 11.2355M121.183 11.2355C121.079 11.0874 120.899 10.6974 120.959 10.246C121.036 9.67 121.266 9.05557 122.188 8.6716C122.764 8.43163 123.57 8.78682 123.954 9.2092C124.133 9.36281 124.553 9.8697 124.799 10.6684C124.891 11.0063 124.709 11.3468 124.607 11.4748C124.389 10.9628 123.77 9.93114 123.032 9.90042C122.295 9.8697 121.492 10.7777 121.183 11.2355Z" stroke="#0E0000" stroke-width="0.5"/>
<path d="M121.063 15.9291C121.124 17.1271 120.666 18.1682 120.41 18.5778C120.603 18.3327 121.002 18.3989 121.178 18.501C121.255 18.2322 121.689 17.4651 122.38 17.1963C123.071 16.9275 123.455 16.2747 123.647 16.0059C123.801 15.7908 123.725 15.5314 123.674 15.3906C123.456 15.6338 122.91 16.0212 122.418 15.9291C121.927 15.8369 121.511 15.5954 121.37 15.429C121.267 15.4802 121.063 15.5604 121.063 15.9291Z" fill="#FF0000" stroke="#FF0000" stroke-width="0.5"/>
<path d="M120.377 18.6176C120.63 18.2261 121.116 17.1598 121.039 16.026C121.034 15.6769 121.238 15.4898 121.341 15.4399C121.485 15.5956 121.898 15.927 122.395 16.0076C122.892 16.0881 123.449 15.6416 123.665 15.4083C123.719 15.5409 123.788 15.8577 123.636 16.0634C123.445 16.3206 123.066 16.9442 122.372 17.2082C121.678 17.4723 121.225 18.3514 121.151 18.607" stroke="black" stroke-width="0.5"/>
<path d="M116.441 17.2907C116.539 17.8086 116.99 18.4779 117.222 18.7317C116.506 19.0255 116.352 19.3599 116.374 19.5202C116.375 19.5261 116.377 19.5321 116.378 19.5381C116.376 19.5324 116.375 19.5264 116.374 19.5202C116.285 19.07 115.887 18.6516 115.725 18.5013C115.579 18.366 115.2 18.0779 114.995 17.9637C114.79 17.8495 114.361 17.7323 114.074 17.6181C113.787 17.5039 113.612 17.1765 113.53 17.0623C113.448 16.948 113.53 16.5292 113.694 16.6434C114.145 16.91 114.842 16.9861 115.293 16.6815C115.744 16.3769 115.832 15.9666 115.955 15.9285C116.16 15.8524 116.318 15.9961 116.441 16.1865C116.564 16.3769 116.359 17.0242 116.441 17.2907Z" fill="#F30000"/>
<path d="M117.261 18.8289C117.028 18.5559 116.539 17.8706 116.441 17.3137C116.359 17.027 116.564 16.3308 116.441 16.126C116.318 15.9213 116.154 15.8394 115.949 15.9213C115.826 15.9622 115.744 16.3308 115.293 16.6584C114.842 16.9861 114.145 16.9042 113.694 16.6175C113.53 16.4946 113.448 16.9451 113.53 17.068C113.612 17.1908 113.776 17.5184 114.063 17.6413C114.35 17.7642 114.842 17.887 115.047 18.0099C115.252 18.1327 115.639 18.4377 115.785 18.5832C115.949 18.747 116.359 19.2385 116.441 19.7299" stroke="black" stroke-width="0.5"/>
<path d="M115.947 14.765C115.947 15.8283 115.27 16.5886 114.546 16.5886C113.823 16.5886 113.145 15.8283 113.145 14.765C113.145 13.7017 113.823 12.9414 114.546 12.9414C115.27 12.9414 115.947 13.7017 115.947 14.765Z" fill="white" stroke="black" stroke-width="0.5"/>
<path d="M124.534 13.0928C124.442 13.895 124.142 14.585 123.744 15.0532C123.344 15.523 122.868 15.7489 122.411 15.6964C121.953 15.6439 121.541 15.3161 121.258 14.7681C120.976 14.2218 120.84 13.4817 120.932 12.6796C121.024 11.8774 121.324 11.1874 121.723 10.7192C122.122 10.2494 122.598 10.0235 123.056 10.076C123.513 10.1285 123.926 10.4563 124.208 11.0043C124.49 11.5506 124.626 12.2907 124.534 13.0928Z" fill="white" stroke="black" stroke-width="0.5"/>
<ellipse cx="122.714" cy="13.4325" rx="0.844801" ry="1.3824" fill="black"/>
<ellipse cx="122.532" cy="13.7598" rx="0.2688" ry="0.4224" fill="white"/>
<ellipse cx="114.724" cy="14.7645" rx="0.662584" ry="0.929603" transform="rotate(-1.62406 114.724 14.7645)" fill="black"/>
<ellipse cx="114.573" cy="14.9993" rx="0.270999" ry="0.380211" transform="rotate(-1.62406 114.573 14.9993)" fill="white"/>
<path d="M113.644 11.759C112.675 12.0077 113.125 13.6635 113.125 13.6635C113.125 13.6635 113.605 12.653 114.552 12.653C115.199 12.653 115.675 13.1712 115.839 13.4692C116.142 13.4381 116.081 12.529 115.839 12.2254C115.498 11.7979 114.613 11.5102 113.644 11.759Z" fill="#FF0000" stroke="black" stroke-width="0.5"/>
<path d="M98.0546 23.425C97.3844 22.5339 98.0246 21.4449 98.4285 21.0118C98.9494 20.1782 100.247 19.798 100.397 20.1035C100.547 20.409 101.381 22.4322 101.958 22.5279C102.536 22.6236 102.806 22.9665 102.737 23.4047C101.995 24.8236 98.8924 24.5388 98.0546 23.425Z" fill="#FF0000" stroke="black" stroke-width="0.5"/>
<g filter="url(#filter3_i_2663_5582)">
<path d="M101.898 24.1757C103.584 24.5942 106.296 23.0264 107.87 22.7991C107.902 22.4074 107.816 21.7279 107.22 22.1433C106.474 22.6625 103.372 22.6825 102.762 22.6233C102.152 22.5641 101.907 22.8031 101.72 23.0936C101.534 23.3841 102.036 23.5659 101.907 23.6124C101.596 23.8051 101.771 24.0683 101.898 24.1757Z" fill="#FF0000"/>
</g>
<path d="M101.898 24.1757C103.584 24.5942 106.296 23.0264 107.87 22.7991C107.902 22.4074 107.816 21.7279 107.22 22.1433C106.474 22.6625 103.372 22.6825 102.762 22.6233C102.152 22.5641 101.907 22.8031 101.72 23.0936C101.534 23.3841 102.036 23.5659 101.907 23.6124C101.596 23.8051 101.771 24.0683 101.898 24.1757Z" stroke="black" stroke-width="0.5"/>
<path d="M95.4705 19.0187C95.7365 16.7708 97.1345 14.7222 97.9341 13.9404C99.0778 14.4138 101.527 15.6287 102.175 16.7016C102.283 18.2209 100.144 21.6202 98.6509 21.9562C97.1642 22.2908 95.2074 21.2426 95.4705 19.0187Z" fill="#FF0B0B" stroke="black" stroke-width="0.5"/>
<path d="M108.27 21.1447C105.075 20.229 103.813 16.4676 103.239 15.3368L101.232 15.1137L100.41 18.4987C104.582 23.2553 109.097 21.7159 108.27 21.1447Z" fill="#F10101" stroke="black" stroke-width="0.5"/>
<g filter="url(#filter4_i_2663_5582)">
<path d="M103.648 18.1521C103.816 18.5715 103.718 19.6851 103.648 20.1894L109.734 24.4303C109.795 24.4471 110.142 24.4133 110.988 24.4787C112.171 24.5701 112.943 24.1866 113.368 24.1866C113.792 24.1866 114.843 24.163 115.281 23.6725C116.066 22.403 115.954 17.9961 115.271 16.9178C115.21 16.977 115.057 17.1245 114.902 17.2489C114.746 17.3732 114.445 17.3266 114.313 17.2877C113.82 17.0168 112.399 16.6522 111.749 16.5038L111.404 16.5587C110.293 15.9185 108.79 16.0367 108.177 16.1758L108.147 15.9977C107.04 15.9888 104.768 15.9762 104.526 15.9977C104.284 16.0192 103.875 16.7274 103.7 17.0788C103.792 17.4441 103.703 17.9465 103.648 18.1521Z" fill="black"/>
</g>
<path d="M103.648 18.1521C103.816 18.5715 103.718 19.6851 103.648 20.1894L109.734 24.4303C109.795 24.4471 110.142 24.4133 110.988 24.4787C112.171 24.5701 112.943 24.1866 113.368 24.1866C113.792 24.1866 114.843 24.163 115.281 23.6725C116.066 22.403 115.954 17.9961 115.271 16.9178C115.21 16.977 115.057 17.1245 114.902 17.2489C114.746 17.3732 114.445 17.3266 114.313 17.2877C113.82 17.0168 112.399 16.6522 111.749 16.5038L111.404 16.5587C110.293 15.9185 108.79 16.0367 108.177 16.1758L108.147 15.9977C107.04 15.9888 104.768 15.9762 104.526 15.9977C104.284 16.0192 103.875 16.7274 103.7 17.0788C103.792 17.4441 103.703 17.9465 103.648 18.1521Z" stroke="black" stroke-width="0.5"/>
<g filter="url(#filter5_i_2663_5582)">
<path d="M103.7 17.0704C103.884 16.7581 104.305 16.1125 104.519 16.0292L105.334 15.6614L105.323 15.4739C105.475 15.3845 105.969 15.2245 106.725 15.3004L106.73 15.5463L106.752 15.5338L106.899 15.4739C107.239 15.3906 108.422 15.3698 108.895 15.3698C109.308 15.0144 109.794 14.6354 110.066 14.5195C110.188 14.4524 110.565 14.488 110.756 14.5166L110.933 14.4154C111.288 14.4451 111.959 14.5002 112.184 14.5155L112.209 14.3807C112.293 14.2592 112.528 14.0475 112.792 14.1724C112.875 14.2114 112.906 14.2627 112.906 14.3181C112.906 14.3231 112.905 14.3281 112.905 14.3331L112.875 14.8233C112.916 14.8199 112.956 14.8237 112.995 14.8353C112.995 14.8342 112.996 14.833 112.997 14.8319C113.06 14.7451 113.076 14.5542 113.076 14.4674C113.057 14.3888 113.121 14.3768 113.155 14.3807C114.037 14.464 114.216 15.1095 114.195 15.4219L114.173 15.5118L114.151 15.5654C114.565 15.6534 114.91 15.9409 115.061 16.116C115.079 16.1354 115.111 16.1926 115.082 16.2514C115.087 16.2716 115.083 16.3016 115.054 16.3272L114.973 16.5492C115.086 16.6289 115.194 16.767 115.29 16.9489C114.833 17.3744 114.663 17.4669 113.992 17.1746C113.454 16.9402 112.181 16.5921 111.47 16.5871C111.721 15.921 112.294 15.0177 112.759 14.8496C112.731 14.8358 112.705 14.818 112.682 14.7971C112.666 14.7827 112.65 14.7712 112.635 14.762C112.558 14.7174 112.479 14.7299 112.39 14.7439L112.383 14.7451C112.272 14.7624 112.335 14.5195 112.256 14.5195C112.247 14.5195 112.222 14.5181 112.184 14.5155C111.959 14.5002 111.288 14.4451 110.933 14.4154L110.756 14.5166C110.565 14.488 110.188 14.4524 110.066 14.5195C109.794 14.6354 109.308 15.0144 108.895 15.3698L108.191 16.0292H106.812C105.673 16.9388 105.323 17.4366 103.7 17.0704Z" fill="black"/>
<path d="M115.892 18.1032C115.829 18.0295 115.612 17.9711 115.374 18.0628C115.136 18.1544 115.359 18.7464 115.359 18.7464C115.416 18.8402 115.816 18.6285 115.918 18.4952C116.022 18.3591 115.973 18.1977 115.892 18.1032Z" fill="black"/>
</g>
<path d="M103.708 18.1359C103.872 18.5524 103.745 19.6405 103.7 20.0228L110.757 24.4746C111.874 24.5997 112.682 24.2721 113.249 24.2027C113.817 24.1333 115.126 24.2717 115.394 23.3867C115.86 22.0539 115.831 19.7047 115.699 18.7156M103.708 18.1359C103.76 17.8814 103.763 17.3203 103.7 17.0704M103.708 18.1359C103.771 18.3037 104.706 18.8658 105.712 18.3169M103.7 17.0704C103.884 16.7581 104.305 16.1125 104.519 16.0292M103.7 17.0704C105.323 17.4366 105.673 16.9388 106.812 16.0292M104.519 16.0292H108.191M104.519 16.0292L105.334 15.6614L105.339 15.7516M108.191 16.0292C108.027 16.2236 108.07 16.7002 108.112 16.9143M108.191 16.0292C108.282 15.9215 108.565 15.6532 108.895 15.3698M108.191 16.0292L108.895 15.3698M110.756 14.5166C110.565 14.488 110.188 14.4524 110.066 14.5195C109.794 14.6354 109.308 15.0144 108.895 15.3698M110.756 14.5166C110.763 14.5176 110.75 14.5157 110.756 14.5166ZM110.756 14.5166L110.933 14.4154C111.288 14.4451 111.959 14.5002 112.184 14.5155M111.342 17.1403C111.321 16.5058 112.485 14.4392 113.092 14.8844C113.186 14.9538 113.029 15.1963 113.249 15.4219C113.426 15.6023 113.501 15.5607 113.501 15.5607L113.584 15.5807M108.11 16.1948C109.361 16.0038 110.396 16.1428 111.455 16.5871C112.163 16.5871 113.45 16.9386 113.992 17.1746C114.67 17.4696 114.836 17.3727 115.303 16.9369M114.958 16.5386C115.243 16.7266 115.5 17.2904 115.626 17.9984M114.857 16.3763C115.172 16.3069 115.093 16.1507 115.061 16.116C114.91 15.9409 114.565 15.6534 114.151 15.5654M114.857 16.3763C114.632 16.4258 113.751 16.0698 113.537 15.8046M114.857 16.3763C115.064 16.3763 115.093 16.2931 115.082 16.2514L114.796 17.0356C113.863 17.0911 113.396 16.654 113.249 16.4284L113.501 15.5807C113.473 15.628 113.441 15.7391 113.537 15.8046M112.225 17.5563C112.75 17.6778 113.842 18.3789 114.006 20.2114M114.006 21.2055C113.948 21.6509 113.646 22.7589 112.587 23.3697M113.922 15.539C113.922 14.8177 113.467 14.7451 113.076 14.5941M108.895 15.3698C108.422 15.3698 107.239 15.3906 106.899 15.4739L106.752 15.5338L106.73 15.5463M105.323 15.4739L105.339 15.7516M105.323 15.4739C105.966 15.5156 106.526 15.3756 106.725 15.3004M105.323 15.4739C105.475 15.3845 105.969 15.2245 106.725 15.3004M105.339 15.7516C105.643 15.7689 106.352 15.7406 106.73 15.5463M106.73 15.5463L106.725 15.3004M114.969 17.9256C114.939 18.4071 114.942 18.69 115.17 19.1062M112.184 14.5155C112.222 14.5181 112.247 14.5195 112.256 14.5195C112.335 14.5195 112.272 14.7624 112.383 14.7451C112.475 14.7306 112.556 14.7162 112.635 14.762M112.184 14.5155L112.209 14.3807C112.293 14.2592 112.528 14.0475 112.792 14.1724C112.875 14.2114 112.906 14.2627 112.906 14.3181M112.635 14.762C112.65 14.7712 112.666 14.7827 112.682 14.7971C112.777 14.8839 112.934 14.9186 112.997 14.8319C113.06 14.7451 113.076 14.5542 113.076 14.4674C113.057 14.3888 113.121 14.3768 113.155 14.3807C114.037 14.464 114.216 15.1095 114.195 15.4219L114.173 15.5118L114.151 15.5654M112.635 14.762V14.6583C112.747 14.5827 112.904 14.4403 112.906 14.3181M112.906 14.3181L112.871 14.8817M114.151 15.5654C114.004 15.5342 113.849 15.528 113.69 15.5607C113.473 15.6056 113.451 15.6977 113.537 15.8046M115.374 18.0628C115.612 17.9711 115.829 18.0295 115.892 18.1032C115.973 18.1977 116.022 18.3591 115.918 18.4952C115.816 18.6285 115.416 18.8402 115.359 18.7464C115.359 18.7464 115.136 18.1544 115.374 18.0628Z" stroke="black" stroke-width="0.5"/>
<g filter="url(#filter6_d_2663_5582)">
<path d="M112.633 23.3512C113.078 23.045 113.975 22.197 114 21.2554" stroke="black" stroke-width="0.5"/>
</g>
<g filter="url(#filter7_i_2663_5582)">
<path d="M109.203 24.846C111.921 25.0594 113.686 22.8344 112.324 19.9823C110.491 16.1431 105.673 16.7701 105.082 19.3307L109.203 24.846Z" fill="black"/>
</g>
<path d="M112.102 20.099C112.754 21.4644 112.639 22.6309 112.094 23.4216C111.561 24.1942 110.577 24.6684 109.335 24.6006L105.351 19.2696C105.662 18.2155 106.834 17.5069 108.229 17.5098C109.651 17.5127 111.228 18.2685 112.102 20.099Z" stroke="black" stroke-width="0.5"/>
<path d="M111.366 20.2682C112.061 21.5935 111.938 22.8434 111.356 23.7307C110.788 24.5958 109.761 25.1513 108.534 25.0914L105.043 20.0041C105.489 18.8417 106.609 18.1153 107.847 18.0557C109.119 17.9945 110.512 18.6416 111.366 20.2682Z" stroke="black" stroke-width="0.5"/>
<g filter="url(#filter8_i_2663_5582)">
<path d="M107.138 27.6535C109.901 25.5944 112.598 23.4533 111.084 20.5273C109.234 16.9511 106.601 18.1711 103.296 20.0676L107.138 27.6535Z" fill="black"/>
</g>
<path d="M110.866 20.6511C111.224 21.3429 111.326 21.9735 111.25 22.5596C111.174 23.1488 110.916 23.7144 110.518 24.2694C109.76 25.3263 108.532 26.3005 107.229 27.2769L103.627 20.1648C105.199 19.2701 106.563 18.5841 107.746 18.4977C108.353 18.4534 108.906 18.5683 109.416 18.8958C109.93 19.2255 110.416 19.7821 110.866 20.6511Z" stroke="black" stroke-width="0.5"/>
<path d="M108.042 21.5621C109.437 23.4291 109.279 25.8946 107.805 27.0883C106.33 28.2819 103.996 27.8335 102.602 25.9665C101.207 24.0996 101.365 21.634 102.839 20.4404C104.314 19.2468 106.648 19.6952 108.042 21.5621Z" fill="#00669F" stroke="black" stroke-width="0.5"/>
<g filter="url(#filter9_i_2663_5582)">
<ellipse cx="2.57577" cy="3.22041" rx="2.57577" ry="3.22041" transform="matrix(0.928191 -0.372105 0.335625 0.941996 101.739 21.7976)" fill="black"/>
</g>
<path d="M107.37 23.0073C107.939 24.6045 107.354 26.2112 106.208 26.6709C105.061 27.1305 103.621 26.3354 103.052 24.7382C102.483 23.141 103.067 21.5343 104.214 21.0746C105.361 20.615 106.801 21.4102 107.37 23.0073Z" stroke="black" stroke-opacity="0.77" stroke-width="0.5"/>
<path d="M107.402 16.4828C107.3 16.3197 107.141 16.3599 107.051 16.4431C106.953 16.5488 106.916 16.7178 107.011 16.8632C107.106 17.0085 107.27 16.9707 107.373 16.8713C107.453 16.7785 107.494 16.6319 107.402 16.4828Z" fill="black"/>
<path d="M114.997 22.6852C114.823 22.4756 114.275 22.1487 113.998 22.8211C113.696 23.5518 114.553 23.7387 114.664 23.6028M114.696 22.7871C114.268 22.3114 113.712 23.5178 114.664 23.3649M114.458 22.9571L115.077 22.9061L115.108 23.144M114.95 23.2289L114.331 23.2629V23.025M107.051 16.4431C107.141 16.3599 107.3 16.3197 107.402 16.4828C107.494 16.6319 107.453 16.7785 107.373 16.8713C107.27 16.9707 107.106 17.0085 107.011 16.8632C106.916 16.7178 106.953 16.5488 107.051 16.4431Z" stroke="black" stroke-width="0.5"/>
<g filter="url(#filter10_d_2663_5582)">
<path d="M112.227 17.5549C112.902 17.7787 113.839 18.4424 114.009 20.2177" stroke="black" stroke-width="0.5"/>
</g>
<path d="M109.94 17.5504L109.932 17.545L109.923 17.5403C109.674 17.4118 109.366 17.1863 109.002 16.9082C108.936 16.8582 108.869 16.8067 108.801 16.7542C108.496 16.5199 108.163 16.2646 107.82 16.0275C107.399 15.737 106.949 15.4655 106.494 15.2848C106.038 15.1043 105.56 15.0081 105.09 15.0883C104.427 15.2013 104.006 15.3442 103.659 15.579C103.352 15.7868 103.114 16.0604 102.823 16.3965C102.794 16.4307 102.764 16.4654 102.733 16.5009C102.721 16.5149 102.708 16.529 102.696 16.5433C102.395 16.889 102.017 17.3244 101.582 17.7083C101.126 18.1102 100.632 18.4344 100.13 18.5464C99.8199 18.6155 99.6166 18.6282 99.4492 18.5825C99.2916 18.5396 99.1313 18.435 98.9335 18.1912C98.682 17.793 97.9372 16.3224 97.8077 14.6895C97.7427 13.8692 97.8339 13.0212 98.2083 12.2494C98.5809 11.4815 99.2427 10.7701 100.353 10.2324C104.809 8.07412 110.169 10.6532 111.438 16.7023C111.542 17.1966 111.45 17.6033 111.25 17.7825C111.08 17.9341 110.7 18.0244 109.94 17.5504Z" fill="#FF0000" stroke="black" stroke-width="0.5"/>
<defs>
<filter id="filter0_i_2663_5582" x="107.23" y="24.1108" width="4.85165" height="2.95679" filterUnits="userSpaceOnUse" color-interpolation-filters="sRGB">
<feFlood flood-opacity="0" result="BackgroundImageFix"/>
<feBlend mode="normal" in="SourceGraphic" in2="BackgroundImageFix" result="shape"/>
<feColorMatrix in="SourceAlpha" type="matrix" values="0 0 0 0 0 0 0 0 0 0 0 0 0 0 0 0 0 0 127 0" result="hardAlpha"/>
<feOffset dx="-3" dy="8"/>
<feGaussianBlur stdDeviation="2"/>
<feComposite in2="hardAlpha" operator="arithmetic" k2="-1" k3="1"/>
<feColorMatrix type="matrix" values="0 0 0 0 0 0 0 0 0 0 0 0 0 0 0 0 0 0 0.25 0"/>
<feBlend mode="normal" in2="shape" result="effect1_innerShadow_2663_5582"/>
</filter>
<filter id="filter1_i_2663_5582" x="105.868" y="22.6655" width="5.73392" height="6.47046" filterUnits="userSpaceOnUse" color-interpolation-filters="sRGB">
<feFlood flood-opacity="0" result="BackgroundImageFix"/>
<feBlend mode="normal" in="SourceGraphic" in2="BackgroundImageFix" result="shape"/>
<feColorMatrix in="SourceAlpha" type="matrix" values="0 0 0 0 0 0 0 0 0 0 0 0 0 0 0 0 0 0 127 0" result="hardAlpha"/>
<feOffset dy="4"/>
<feGaussianBlur stdDeviation="2"/>
<feComposite in2="hardAlpha" operator="arithmetic" k2="-1" k3="1"/>
<feColorMatrix type="matrix" values="0 0 0 0 0 0 0 0 0 0 0 0 0 0 0 0 0 0 0.25 0"/>
<feBlend mode="normal" in2="shape" result="effect1_innerShadow_2663_5582"/>
</filter>
<filter id="filter2_d_2663_5582" x="106.19" y="18.1934" width="22.8819" height="12.9734" filterUnits="userSpaceOnUse" color-interpolation-filters="sRGB">
<feFlood flood-opacity="0" result="BackgroundImageFix"/>
<feColorMatrix in="SourceAlpha" type="matrix" values="0 0 0 0 0 0 0 0 0 0 0 0 0 0 0 0 0 0 127 0" result="hardAlpha"/>
<feOffset dx="-3" dy="2"/>
<feGaussianBlur stdDeviation="2"/>
<feComposite in2="hardAlpha" operator="out"/>
<feColorMatrix type="matrix" values="0 0 0 0 0 0 0 0 0 0 0 0 0 0 0 0 0 0 0.25 0"/>
<feBlend mode="normal" in2="BackgroundImageFix" result="effect1_dropShadow_2663_5582"/>
<feBlend mode="normal" in="SourceGraphic" in2="effect1_dropShadow_2663_5582" result="shape"/>
</filter>
<filter id="filter3_i_2663_5582" x="101.428" y="21.7634" width="6.69696" height="2.73291" filterUnits="userSpaceOnUse" color-interpolation-filters="sRGB">
<feFlood flood-opacity="0" result="BackgroundImageFix"/>
<feBlend mode="normal" in="SourceGraphic" in2="BackgroundImageFix" result="shape"/>
<feColorMatrix in="SourceAlpha" type="matrix" values="0 0 0 0 0 0 0 0 0 0 0 0 0 0 0 0 0 0 127 0" result="hardAlpha"/>
<feOffset dx="3" dy="-9"/>
<feGaussianBlur stdDeviation="2.5"/>
<feComposite in2="hardAlpha" operator="arithmetic" k2="-1" k3="1"/>
<feColorMatrix type="matrix" values="0 0 0 0 0 0 0 0 0 0 0 0 0 0 0 0 0 0 0.25 0"/>
<feBlend mode="normal" in2="shape" result="effect1_innerShadow_2663_5582"/>
</filter>
<filter id="filter4_i_2663_5582" x="101.379" y="15.7358" width="14.6986" height="10.0068" filterUnits="userSpaceOnUse" color-interpolation-filters="sRGB">
<feFlood flood-opacity="0" result="BackgroundImageFix"/>
<feBlend mode="normal" in="SourceGraphic" in2="BackgroundImageFix" result="shape"/>
<feColorMatrix in="SourceAlpha" type="matrix" values="0 0 0 0 0 0 0 0 0 0 0 0 0 0 0 0 0 0 127 0" result="hardAlpha"/>
<feOffset dx="-2" dy="1"/>
<feGaussianBlur stdDeviation="11.25"/>
<feComposite in2="hardAlpha" operator="arithmetic" k2="-1" k3="1"/>
<feColorMatrix type="matrix" values="0 0 0 0 0.0167535 0 0 0 0 0.52008 0 0 0 0 0.804167 0 0 0 1 0"/>
<feBlend mode="normal" in2="shape" result="effect1_innerShadow_2663_5582"/>
</filter>
<filter id="filter5_i_2663_5582" x="102.432" y="13.8843" width="13.7955" height="13.8684" filterUnits="userSpaceOnUse" color-interpolation-filters="sRGB">
<feFlood flood-opacity="0" result="BackgroundImageFix"/>
<feBlend mode="normal" in="SourceGraphic" in2="BackgroundImageFix" result="shape"/>
<feColorMatrix in="SourceAlpha" type="matrix" values="0 0 0 0 0 0 0 0 0 0 0 0 0 0 0 0 0 0 127 0" result="hardAlpha"/>
<feOffset dx="-1" dy="3"/>
<feGaussianBlur stdDeviation="8.2"/>
<feComposite in2="hardAlpha" operator="arithmetic" k2="-1" k3="1"/>
<feColorMatrix type="matrix" values="0 0 0 0 0 0 0 0 0 0.447451 0 0 0 0 0.7 0 0 0 1 0"/>
<feBlend mode="normal" in2="shape" result="effect1_innerShadow_2663_5582"/>
</filter>
<filter id="filter6_d_2663_5582" x="109.491" y="17.249" width="9.75836" height="10.3081" filterUnits="userSpaceOnUse" color-interpolation-filters="sRGB">
<feFlood flood-opacity="0" result="BackgroundImageFix"/>
<feColorMatrix in="SourceAlpha" type="matrix" values="0 0 0 0 0 0 0 0 0 0 0 0 0 0 0 0 0 0 127 0" result="hardAlpha"/>
<feOffset dx="1"/>
<feGaussianBlur stdDeviation="2"/>
<feComposite in2="hardAlpha" operator="out"/>
<feColorMatrix type="matrix" values="0 0 0 0 1 0 0 0 0 1 0 0 0 0 1 0 0 0 0.81 0"/>
<feBlend mode="normal" in2="BackgroundImageFix" result="effect1_dropShadow_2663_5582"/>
<feBlend mode="normal" in="SourceGraphic" in2="effect1_dropShadow_2663_5582" result="shape"/>
</filter>
<filter id="filter7_i_2663_5582" x="105.082" y="17.2566" width="7.71292" height="7.60352" filterUnits="userSpaceOnUse" color-interpolation-filters="sRGB">
<feFlood flood-opacity="0" result="BackgroundImageFix"/>
<feBlend mode="normal" in="SourceGraphic" in2="BackgroundImageFix" result="shape"/>
<feColorMatrix in="SourceAlpha" type="matrix" values="0 0 0 0 0 0 0 0 0 0 0 0 0 0 0 0 0 0 127 0" result="hardAlpha"/>
<feOffset dx="-45" dy="-52"/>
<feGaussianBlur stdDeviation="19.25"/>
<feComposite in2="hardAlpha" operator="arithmetic" k2="-1" k3="1"/>
<feColorMatrix type="matrix" values="0 0 0 0 0 0 0 0 0 0.639216 0 0 0 0 1 0 0 0 0.61 0"/>
<feBlend mode="normal" in2="shape" result="effect1_innerShadow_2663_5582"/>
</filter>
<filter id="filter8_i_2663_5582" x="103.296" y="18.2354" width="8.22443" height="11.4182" filterUnits="userSpaceOnUse" color-interpolation-filters="sRGB">
<feFlood flood-opacity="0" result="BackgroundImageFix"/>
<feBlend mode="normal" in="SourceGraphic" in2="BackgroundImageFix" result="shape"/>
<feColorMatrix in="SourceAlpha" type="matrix" values="0 0 0 0 0 0 0 0 0 0 0 0 0 0 0 0 0 0 127 0" result="hardAlpha"/>
<feOffset dy="2"/>
<feGaussianBlur stdDeviation="16.1"/>
<feComposite in2="hardAlpha" operator="arithmetic" k2="-1" k3="1"/>
<feColorMatrix type="matrix" values="0 0 0 0 0 0 0 0 0 0.4075 0 0 0 0 0.6375 0 0 0 1 0"/>
<feBlend mode="normal" in2="shape" result="effect1_innerShadow_2663_5582"/>
</filter>
<filter id="filter9_i_2663_5582" x="102.587" y="14.6904" width="22.2488" height="12.3645" filterUnits="userSpaceOnUse" color-interpolation-filters="sRGB">
<feFlood flood-opacity="0" result="BackgroundImageFix"/>
<feBlend mode="normal" in="SourceGraphic" in2="BackgroundImageFix" result="shape"/>
<feColorMatrix in="SourceAlpha" type="matrix" values="0 0 0 0 0 0 0 0 0 0 0 0 0 0 0 0 0 0 127 0" result="hardAlpha"/>
<feOffset dx="17" dy="-6"/>
<feGaussianBlur stdDeviation="15"/>
<feComposite in2="hardAlpha" operator="arithmetic" k2="-1" k3="1"/>
<feColorMatrix type="matrix" values="0 0 0 0 0.0121528 0 0 0 0 0.270724 0 0 0 0 0.416667 0 0 0 0.33 0"/>
<feBlend mode="normal" in2="shape" result="effect1_innerShadow_2663_5582"/>
</filter>
<filter id="filter10_d_2663_5582" x="110.448" y="14.6176" width="7.50974" height="8.32383" filterUnits="userSpaceOnUse" color-interpolation-filters="sRGB">
<feFlood flood-opacity="0" result="BackgroundImageFix"/>
<feColorMatrix in="SourceAlpha" type="matrix" values="0 0 0 0 0 0 0 0 0 0 0 0 0 0 0 0 0 0 127 0" result="hardAlpha"/>
<feOffset dx="1"/>
<feGaussianBlur stdDeviation="1.35"/>
<feComposite in2="hardAlpha" operator="out"/>
<feColorMatrix type="matrix" values="0 0 0 0 1 0 0 0 0 1 0 0 0 0 1 0 0 0 0.6 0"/>
<feBlend mode="normal" in2="BackgroundImageFix" result="effect1_dropShadow_2663_5582"/>
<feBlend mode="normal" in="SourceGraphic" in2="effect1_dropShadow_2663_5582" result="shape"/>
</filter>
</defs>
</svg>
