<svg width="452" height="166" viewBox="0 0 452 166" fill="none" xmlns="http://www.w3.org/2000/svg">
<path d="M0.956055 165.5V0.499993H43.4561V88L130.956 0.499993H183.456L105.956 78L193.456 165.5H140.956L79.7061 104.25L43.4561 140.5V165.5H0.956055Z" fill="#FF0000"/>
<path d="M206.158 166V102.64H258.958C260.686 102.64 261.966 102.64 262.798 102.64C263.694 102.64 264.91 102.704 266.446 102.832C268.046 102.896 269.262 102.992 270.094 103.12C270.926 103.248 271.982 103.472 273.262 103.792C274.542 104.048 275.534 104.4 276.238 104.848C276.942 105.296 277.71 105.84 278.542 106.48C279.374 107.12 280.014 107.888 280.462 108.784C280.91 109.616 281.262 110.608 281.518 111.76C281.838 112.912 281.998 114.192 281.998 115.6V129.04C281.998 130.448 281.838 131.728 281.518 132.88C281.262 134.032 280.91 135.056 280.462 135.952C280.014 136.784 279.374 137.52 278.542 138.16C277.71 138.8 276.942 139.344 276.238 139.792C275.534 140.24 274.542 140.624 273.262 140.944C271.982 141.2 270.926 141.392 270.094 141.52C269.262 141.648 268.046 141.776 266.446 141.904C264.91 141.968 263.694 142 262.798 142C261.966 142 260.686 142 258.958 142H222.478V166H206.158ZM222.478 131.44H259.918C261.198 131.44 262.158 131.408 262.798 131.344C263.438 131.28 264.078 130.992 264.718 130.48C265.358 129.904 265.678 129.104 265.678 128.08V116.56C265.678 115.536 265.358 114.768 264.718 114.256C264.078 113.68 263.438 113.36 262.798 113.296C262.158 113.232 261.198 113.2 259.918 113.2H222.478V131.44ZM281.983 166L313.663 102.64H335.743L367.423 166H350.143L341.023 147.76H308.383L299.263 166H281.983ZM313.663 137.2H335.743L324.703 115.12L313.663 137.2ZM376.033 166V102.64H447.073V113.2H392.353V126.16H428.833C430.561 126.16 431.841 126.16 432.673 126.16C433.569 126.16 434.785 126.224 436.321 126.352C437.921 126.416 439.137 126.512 439.969 126.64C440.801 126.768 441.857 126.992 443.137 127.312C444.417 127.568 445.409 127.92 446.113 128.368C446.817 128.816 447.585 129.36 448.417 130C449.249 130.64 449.889 131.408 450.337 132.304C450.785 133.136 451.137 134.128 451.393 135.28C451.713 136.432 451.873 137.712 451.873 139.12V153.04C451.873 154.448 451.713 155.728 451.393 156.88C451.137 158.032 450.785 159.056 450.337 159.952C449.889 160.784 449.249 161.52 448.417 162.16C447.585 162.8 446.817 163.344 446.113 163.792C445.409 164.24 444.417 164.624 443.137 164.944C441.857 165.2 440.801 165.392 439.969 165.52C439.137 165.648 437.921 165.776 436.321 165.904C434.785 165.968 433.569 166 432.673 166C431.841 166 430.561 166 428.833 166H376.033ZM392.353 155.44H429.793C431.073 155.44 432.033 155.408 432.673 155.344C433.313 155.28 433.953 154.992 434.593 154.48C435.233 153.904 435.553 153.104 435.553 152.08V140.56C435.553 139.536 435.233 138.768 434.593 138.256C433.953 137.68 433.313 137.36 432.673 137.296C432.033 137.232 431.073 137.2 429.793 137.2H392.353V155.44Z" fill="white"/>
<path d="M206.111 64V0.639997H222.431V64H206.111ZM259.829 64V0.639997H276.149V24.16H319.349V0.639997H335.669V64H319.349V34.72H276.149V64H259.829ZM373.079 51.04V13.6C373.079 12.192 373.207 10.912 373.463 9.76C373.783 8.608 374.167 7.616 374.615 6.784C375.063 5.888 375.703 5.12 376.535 4.48C377.367 3.84 378.135 3.296 378.839 2.848C379.543 2.4 380.535 2.048 381.815 1.792C383.095 1.472 384.151 1.248 384.983 1.12C385.815 0.991999 386.999 0.895998 388.535 0.831995C390.135 0.703997 391.351 0.639997 392.183 0.639997C393.079 0.639997 394.391 0.639997 396.119 0.639997H425.879C427.607 0.639997 428.887 0.639997 429.719 0.639997C430.615 0.639997 431.831 0.703997 433.367 0.831995C434.967 0.895998 436.183 0.991999 437.015 1.12C437.847 1.248 438.903 1.472 440.183 1.792C441.463 2.048 442.455 2.4 443.159 2.848C443.863 3.296 444.631 3.84 445.463 4.48C446.295 5.12 446.935 5.888 447.383 6.784C447.831 7.616 448.183 8.608 448.439 9.76C448.759 10.912 448.919 12.192 448.919 13.6V51.04C448.919 52.448 448.759 53.728 448.439 54.88C448.183 56.032 447.831 57.056 447.383 57.952C446.935 58.784 446.295 59.52 445.463 60.16C444.631 60.8 443.863 61.344 443.159 61.792C442.455 62.24 441.463 62.624 440.183 62.944C438.903 63.2 437.847 63.392 437.015 63.52C436.183 63.648 434.967 63.776 433.367 63.904C431.831 63.968 430.615 64 429.719 64C428.887 64 427.607 64 425.879 64H396.119C394.391 64 393.079 64 392.183 64C391.351 64 390.135 63.968 388.535 63.904C386.999 63.776 385.815 63.648 384.983 63.52C384.151 63.392 383.095 63.2 381.815 62.944C380.535 62.624 379.543 62.24 378.839 61.792C378.135 61.344 377.367 60.8 376.535 60.16C375.703 59.52 375.063 58.784 374.615 57.952C374.167 57.056 373.783 56.032 373.463 54.88C373.207 53.728 373.079 52.448 373.079 51.04ZM389.399 50.08C389.399 51.104 389.719 51.904 390.359 52.48C390.999 52.992 391.639 53.28 392.279 53.344C392.919 53.408 393.879 53.44 395.159 53.44H426.839C428.119 53.44 429.079 53.408 429.719 53.344C430.359 53.28 430.999 52.992 431.639 52.48C432.279 51.904 432.599 51.104 432.599 50.08V14.56C432.599 13.536 432.279 12.768 431.639 12.256C430.999 11.68 430.359 11.36 429.719 11.296C429.079 11.232 428.119 11.2 426.839 11.2H395.159C393.879 11.2 392.919 11.232 392.279 11.296C391.639 11.36 390.999 11.68 390.359 12.256C389.719 12.768 389.399 13.536 389.399 14.56V50.08Z" fill="white"/>
</svg>
