<svg width="40" height="40" viewBox="0 0 40 40" fill="none" xmlns="http://www.w3.org/2000/svg">
<path d="M20 2.57812C10.3359 2.57812 2.5 10.4141 2.5 20.0781C2.5 29.7422 10.3359 37.5781 20 37.5781C29.6641 37.5781 37.5 29.7422 37.5 20.0781C37.5 10.4141 29.6641 2.57812 20 2.57812ZM28.4609 25.9766C28.5781 26.0938 28.6406 26.25 28.6406 26.4141C28.6406 26.5781 28.5781 26.7422 28.4609 26.8516L26.7734 28.5469C26.6484 28.6719 26.4922 28.7266 26.3359 28.7266C26.1797 28.7266 26.0156 28.6641 25.8984 28.5469L20 22.6406L14.1094 28.5547C13.9922 28.6797 13.8281 28.7344 13.6719 28.7344C13.5156 28.7344 13.3516 28.6719 13.2344 28.5547L11.5469 26.8594C11.4297 26.7422 11.3672 26.5859 11.3672 26.4219C11.3672 26.2578 11.4297 26.0938 11.5469 25.9844L17.4609 20.0469L11.5313 14.1875C11.2891 13.9453 11.2891 13.5469 11.5313 13.3047L13.2187 11.6094C13.3359 11.4922 13.4922 11.4297 13.6563 11.4297C13.8203 11.4297 13.9766 11.4922 14.0937 11.6094L20.0078 17.4453L25.9219 11.6094C26.0391 11.4922 26.1953 11.4297 26.3594 11.4297C26.5234 11.4297 26.6797 11.4922 26.7969 11.6094L28.4844 13.3047C28.7266 13.5469 28.7266 13.9453 28.4844 14.1875L22.5547 20.0469L28.4609 25.9766Z" fill="black"/>
</svg>
