<svg width="21" height="18" viewBox="0 0 21 18" fill="none" xmlns="http://www.w3.org/2000/svg">
<path fill-rule="evenodd" clip-rule="evenodd" d="M1 8.21399C1 8.06524 1.09771 7.92524 1.23625 7.87274L19.2087 1.02295C19.2709 1.00001 19.338 0.994131 19.4031 1.00593C19.4683 1.01773 19.5291 1.04677 19.5792 1.09003C19.6783 1.17753 19.725 1.31899 19.6929 1.44878L16.1083 16.525C16.0941 16.5833 16.066 16.6372 16.0264 16.6821C15.9867 16.7271 15.9368 16.7617 15.8808 16.7832C15.8244 16.8037 15.7639 16.8102 15.7044 16.8021C15.645 16.794 15.5884 16.7714 15.5396 16.7365L11.7202 13.9729L11.5744 14.0692C10.9947 14.4549 10.4133 14.838 9.83021 15.2184C9.37535 15.5156 8.91691 15.8073 8.455 16.0934C8.28606 16.1976 8.11491 16.2983 7.94167 16.3952C7.87484 16.4326 7.80675 16.4676 7.7375 16.5002C7.70033 16.518 7.66238 16.5341 7.62375 16.5484C7.44298 16.608 7.24934 16.6172 7.06376 16.5748C6.87818 16.5324 6.70773 16.44 6.57083 16.3077C6.41885 16.1489 6.31648 15.9493 6.27625 15.7332L6.27479 15.7259L5.10375 9.96691L1.23625 8.55524C1.16741 8.52828 1.10817 8.48142 1.06609 8.42064C1.02401 8.35986 1.001 8.28791 1 8.21399ZM7.06376 9.45874L8.455 12.9587L10.1929 9.96691L14.8119 5.86899C14.85 5.83281 14.8743 5.78439 14.8804 5.73215C14.8866 5.67992 14.9092 5.61688 14.8804 5.57285C14.85 5.53033 14.7706 5.51008 14.72 5.49677C14.6694 5.48346 14.6158 5.48822 14.5683 5.51024L7.06376 9.45874Z" stroke="#FF0000"/>
</svg>
