<svg width="14" height="18" viewBox="0 0 14 18" fill="none" xmlns="http://www.w3.org/2000/svg">
<path d="M1.60626 5.04673C1.60626 7.82243 3.83751 10.0935 6.5646 10.0935C9.29168 10.0935 11.5229 7.82243 11.5229 5.04673C11.5229 2.27103 9.29168 0 6.5646 0C3.83751 0 1.60626 2.27103 1.60626 5.04673ZM10.3563 5.04673C10.3563 7.16932 8.65001 8.90599 6.5646 8.90599C4.47918 8.90599 2.77293 7.16932 2.77293 5.04673C2.77293 2.92413 4.47918 1.18747 6.5646 1.18747C8.65001 1.18747 10.3563 2.92413 10.3563 5.04673Z" fill="black"/>
<path d="M0.83125 17.9999C2.37708 15.9424 4.41876 13.9754 6.60626 13.9754C8.79376 13.9754 10.8354 15.9424 12.3812 17.9999L13.2125 16.8935C11.4479 14.5642 9.10001 12.4226 6.60626 12.4226C4.11251 12.4226 1.76458 14.5642 0 16.8935L0.83125 17.9999Z" fill="black"/>
</svg>
