<svg width="16" height="19" viewBox="0 0 16 19" fill="none" xmlns="http://www.w3.org/2000/svg">
<path d="M14.5417 7.125C14.5417 7.97694 14.1248 9.11781 13.4272 10.4019C12.739 11.6685 11.8155 13.0074 10.883 14.2358C9.95195 15.4623 9.01973 16.5685 8.31966 17.3687C7.99529 17.7394 7.72123 18.0439 7.52083 18.2636C7.32044 18.0439 7.04638 17.7394 6.722 17.3687C6.02194 16.5685 5.08972 15.4623 4.15867 14.2358C3.22618 13.0074 2.30265 11.6685 1.61447 10.4019C0.916831 9.11781 0.5 7.97694 0.5 7.125C0.5 3.49124 3.61752 0.5 7.52083 0.5C11.4241 0.5 14.5417 3.49124 14.5417 7.125Z" stroke="#FF0000"/>
<circle cx="7.521" cy="6.72925" r="3.0625" stroke="#FF0000"/>
</svg>
