<svg width="19" height="20" viewBox="0 0 19 20" fill="none" xmlns="http://www.w3.org/2000/svg">
<path d="M9.79185 14.1461L11.1055 12.7952C11.4546 12.4381 11.9269 12.2376 12.4192 12.2376C12.9116 12.2376 13.3839 12.4381 13.7329 12.7952L15.0466 14.1461C15.3939 14.505 15.5888 14.9907 15.5888 15.497C15.5888 16.0034 15.3939 16.4891 15.0466 16.848L13.7329 18.1989C13.7329 18.1989 10.4487 21.5762 4.53712 15.4959C-1.37446 9.41558 1.90975 6.03938 1.90975 6.03938L3.22344 4.68844C3.57245 4.33133 4.04477 4.13086 4.53712 4.13086C5.02947 4.13086 5.50178 4.33133 5.8508 4.68844L7.16449 6.03938C7.51175 6.39829 7.7067 6.884 7.7067 7.39031C7.7067 7.89662 7.51175 8.38233 7.16449 8.74124L5.8508 10.0922L9.79185 14.1461Z" stroke="#FF0000" stroke-linejoin="round"/>
<path d="M11.1807 1C11.1807 1 18.3442 1 18.3442 8.36667" stroke="#FF0000" stroke-linejoin="round"/>
<path d="M10.0786 4.3999C10.0786 4.3999 14.4869 4.3999 14.4869 8.93324" stroke="#FF0000" stroke-linejoin="round"/>
</svg>
