<svg width="386" height="85" viewBox="0 0 386 85" fill="none" xmlns="http://www.w3.org/2000/svg">
<path d="M67.7965 68.7053C58.0385 69.5211 51.15 64.4909 51.3923 62.6895L50.9785 60.3444C67.7565 62.1389 79.9801 58.9169 83.9946 57.0815C84.1677 58.2031 84.0569 60.895 82.2296 62.6895C79.9455 64.9327 74.9619 67.4818 67.7965 68.7053Z" stroke="#FF0000" stroke-width="0.5"/>
<path d="M58.4539 69.725C61.8801 70.5747 69.9991 71.7235 75.0658 69.5211C72.4009 71.5603 65.3478 74.4561 58.4539 69.725Z" stroke="#FF0000" stroke-width="0.5"/>
<path d="M31.6669 71.2545C30.1718 75.7409 33.3281 80.1933 35.0931 81.8587C35.0931 81.043 35.1554 78.7794 35.4046 76.2507C35.6538 73.722 36.6851 71.5944 37.1696 70.8466H36.4428C36.2698 70.8466 35.903 70.7447 35.8199 70.3368C35.7161 69.827 35.4046 68.8074 34.6778 67.9917C34.0964 67.3391 33.7434 67.3119 33.6396 67.3799C33.5012 67.4479 32.9128 68.318 31.6669 71.2545Z" fill="#FF0000" stroke="black" stroke-width="0.5"/>
<g filter="url(#filter0_i_3880_6035)">
<path d="M33.7432 65.9521V67.3796C33.8816 67.4135 34.2831 67.6447 34.7814 68.2972C35.4044 69.1129 35.7158 69.8267 36.0273 70.6424C36.2765 71.2949 36.6156 71.0502 36.7541 70.8463L37.5847 71.1522L45.06 67.6854L42.2568 64.7285L33.7432 65.9521Z" fill="#FF0000"/>
</g>
<path d="M33.7432 65.9521V67.3796C33.8816 67.4135 34.2831 67.6447 34.7814 68.2972C35.4044 69.1129 35.7158 69.8267 36.0273 70.6424C36.2765 71.2949 36.6156 71.0502 36.7541 70.8463L37.5847 71.1522L45.06 67.6854L42.2568 64.7285L33.7432 65.9521Z" stroke="#9B0000" stroke-width="0.5"/>
<path d="M29.5912 84.0001C31.1693 80.8188 37.1704 76.4888 39.9736 74.7214L39.5583 72.0704L37.5856 70.439C37.1357 70.7109 35.3846 71.948 31.9791 74.7214C28.5737 77.4948 28.9682 82.0628 29.5912 84.0001Z" fill="#FF0000" stroke="black" stroke-width="0.5"/>
<path d="M40.7014 75.6396C41.3659 76.0475 45.4081 71.4591 47.3462 69.114L45.2696 67.0747C45.062 67.1427 44.4806 67.3194 43.8161 67.4826C40.0784 68.0943 38.4172 69.7257 37.4828 70.2356C36.5484 70.7454 36.756 72.4788 37.4828 72.0709C37.8981 71.765 39.5593 72.4788 39.5593 73.2945C39.5593 75.0308 39.8708 75.1298 40.7014 75.6396Z" fill="#FF0000" stroke="black" stroke-width="0.5"/>
<path d="M25.0222 67.5841C22.8419 71.2548 23.2572 75.8432 23.2572 76.149C23.2572 75.2518 29.4175 68.7057 32.4976 65.5449L30.4211 62.0781C29.3482 62.6899 26.7665 64.6476 25.0222 67.5841Z" fill="#FF0000" stroke="black" stroke-width="0.5"/>
<g filter="url(#filter1_i_3880_6035)">
<path d="M35.6124 62.0783C37.0244 62.4861 39.3155 62.5881 40.2845 62.5881L43.503 65.3411C41.3226 65.9529 32.9129 66.1568 32.2899 66.0548C31.667 65.9529 31.044 65.749 30.9402 65.1372C30.8364 64.5254 31.2517 64.2195 31.044 63.7097C30.8364 63.1999 30.4212 63.4038 30.1097 62.5881C29.7982 61.7724 31.0441 60.7528 31.6671 60.8547C32.29 60.9567 33.8474 61.5685 35.6124 62.0783Z" fill="#FF0000"/>
</g>
<path d="M35.6124 62.0783C37.0244 62.4861 39.3155 62.5881 40.2845 62.5881L43.503 65.3411C41.3226 65.9529 32.9129 66.1568 32.2899 66.0548C31.667 65.9529 31.044 65.749 30.9402 65.1372C30.8364 64.5254 31.2517 64.2195 31.044 63.7097C30.8364 63.1999 30.4212 63.4038 30.1097 62.5881C29.7982 61.7724 31.0441 60.7528 31.6671 60.8547C32.29 60.9567 33.8474 61.5685 35.6124 62.0783Z" stroke="#6D0000" stroke-width="0.5"/>
<path d="M90.1934 72.4763C91.1901 73.4551 90.8855 80.5654 90.6087 83.9981C92.2698 83.2844 96.1113 78.3901 96.0075 74.8214C95.9245 71.9665 94.6578 70.7089 94.0349 70.437L90.1934 72.4763Z" fill="#FF0000" stroke="black" stroke-width="0.5"/>
<path d="M89.9854 73.5976C89.7362 72.1293 85.9362 68.5674 84.0674 66.97L86.04 63.2993L89.0509 65.3386C90.816 66.7661 94.429 69.7026 94.7613 70.0289C95.1766 70.4367 95.4881 71.0485 95.1766 71.5583C94.8651 72.0682 93.8269 71.8642 92.7886 72.0682C91.7504 72.2721 91.2313 73.9035 90.9198 74.1074C90.6083 74.3113 90.0892 74.1074 89.9854 73.5976Z" fill="#FF0000" stroke="black" stroke-width="0.5"/>
<path d="M96.5254 69.519C102.34 72.4759 104.035 77.4381 104.105 80.9388C106.908 74.0053 104.831 70.1307 103.274 67.8875C102.028 66.093 99.0864 65.5084 97.7713 65.4404L96.5254 69.519Z" fill="#FF0000" stroke="black" stroke-width="0.5"/>
<path d="M92.7884 68.499C91.8747 67.2754 86.8704 65.2701 84.4824 64.4204L85.936 62.1772C88.6008 63.2988 94.3457 65.5216 96.0069 65.4401C98.0834 65.3381 98.914 64.5224 99.1216 65.0322C99.7446 66.8676 98.0834 69.9264 97.4605 70.4363C96.8375 70.9461 93.9304 70.0284 92.7884 68.499Z" fill="#FF0000" stroke="black" stroke-width="0.5"/>
<path d="M96.0059 64.3189C100.366 64.9306 108.984 72.17 109.192 72.272C108.672 65.9503 105.142 64.013 101.716 62.2796C98.9752 60.8929 97.3902 61.4979 96.9403 61.9737L96.0059 64.3189Z" fill="#FF0000" stroke="black" stroke-width="0.5"/>
<path d="M93.5156 65.1344C87.9506 64.4003 85.7288 62.5853 85.3135 61.7696L86.9747 61.4637C92.0413 62.8504 96.5611 61.5657 98.1877 60.75C99.7451 62.3814 98.2915 63.8089 97.8762 64.5226C97.4609 65.2364 96.215 65.5423 93.5156 65.1344Z" fill="#FF0000" stroke="black" stroke-width="0.5"/>
<path d="M100.16 40.0457C96.9656 35.3157 101.035 30.9675 103.697 30.0699L113.945 28.3662C115.768 29.6298 118.722 32.0487 117.584 35.8734C114.611 43.9887 110.051 44.9716 108.192 44.2696C106.635 44.4584 103.355 44.7757 100.16 40.0457Z" fill="#FE0D0D" stroke="black" stroke-width="0.5"/>
<path d="M105.146 43.1774C106.207 42.3412 110.778 42.579 112.931 42.8023C113.929 43.1127 114.621 44.0342 114.882 44.8395C115.901 48.5134 109.421 52.0935 106.054 53.4244C105.292 53.4986 103.768 53.4963 103.768 52.8932C103.576 51.2482 103.374 44.5746 105.146 43.1774Z" fill="#FF0000" stroke="black" stroke-width="0.5"/>
<path d="M102.844 51.9221C100.165 52.2885 95.1717 55.7105 93.0098 57.3757L90.2471 61.0484C90.4499 61.1784 91.5224 61.0277 94.1893 59.3855C97.5231 57.3327 103.529 55.7477 104.402 55.1501C105.275 54.5525 106.193 51.4641 102.844 51.9221Z" fill="#FF0000" stroke="black" stroke-width="0.5"/>
<path d="M98.8884 34.1383C85.806 27.1153 87.1625 17.4415 89.4761 13.4824C93.1357 21.5795 104.147 28.6301 109.195 31.1432C106.338 32.5202 100.277 35.0471 98.8884 34.1383Z" fill="#FF0000" stroke="black" stroke-width="0.5"/>
<path d="M93.8985 2.64746C93.8518 2.67795 93.811 2.706 93.7759 2.7311C94.2407 3.37208 94.9803 4.23156 95.8557 5.24136C95.9096 5.30359 95.964 5.36636 96.0189 5.42964C96.9408 6.49263 97.9898 7.70231 98.9919 8.96537C100.053 10.3031 101.067 11.7075 101.826 13.0696C102.582 14.4273 103.098 15.767 103.135 16.9706C103.186 18.5979 103.079 19.7272 102.713 20.7224C102.347 21.7178 101.729 22.5559 100.804 23.6133C100.38 24.0975 99.7756 24.6239 99.1182 25.1794C99.0006 25.2788 98.8812 25.3792 98.7604 25.4807C98.2003 25.9516 97.6122 26.446 97.0519 26.9665C95.6778 28.2428 94.5433 29.6129 94.4091 31.0533C94.2616 32.6368 95.4187 33.7067 97.0077 34.6822C98.1546 35.2208 102.604 36.8872 107.28 36.6986C109.622 36.6041 112.007 36.0448 114.061 34.6595C116.113 33.2768 117.856 31.0575 118.898 27.6048C120.586 22.009 119.331 15.4465 115.857 10.2794C112.386 5.11715 106.714 1.36913 99.5871 1.36915C97.3614 1.36915 95.8551 1.75479 94.9125 2.13287C94.441 2.32202 94.1094 2.50974 93.8985 2.64746Z" fill="#FF0000" stroke="black" stroke-width="0.5"/>
<path d="M49.5267 50.7595C40.4732 53.3697 35.1644 52.7308 33.6416 52.085C37.8776 65.4626 49.4575 71.9338 54.7179 73.4972C66.0348 76.862 72.8872 74.8228 77.4555 74.0071C88.1495 72.0975 94.6211 57.7269 96.4553 50.3516C95.0018 50.7595 87.9417 51.2693 80.3625 48.8222C64.166 43.5201 60.8436 47.4966 49.5267 50.7595Z" fill="#FF0000" stroke="black" stroke-width="0.5"/>
<path d="M87.182 55.6523C71.3566 62.0184 52.4863 60.5001 45.0293 58.9452C48.5507 63.427 56.7326 68.0919 65.9503 68.0919C77.6536 68.0919 86.457 59.2805 87.182 55.6523Z" fill="black" stroke="black" stroke-width="0.5"/>
<path d="M82.2013 62.3909C79.3828 64.462 75.653 67.1441 67.6261 68.041C62.3785 68.4333 54.8754 66.4328 52.4369 64.8059C50.9583 63.8194 50.7752 63.5048 50.564 62.9667C50.3528 62.4286 49.8154 60.7597 49.8154 60.7597C67.0667 62.4101 82.3935 58.0336 86.5213 56.3457C86.6992 57.3772 84.2477 60.8871 82.2013 62.3909Z" fill="white" stroke="black" stroke-width="0.5"/>
<g filter="url(#filter2_d_3880_6035)">
<path d="M57.6971 62.7903C56.3474 65.4413 50.5332 62.3824 50.5332 60.3432C63.4391 61.8726 82.1824 58.057 87.2698 55.6099C86.7507 56.5275 84.2761 59.4255 84.2761 59.4255C84.2761 59.4255 83.134 60.6491 82.5111 61.0569C82.0127 61.3832 80.6423 60.4451 80.3308 60.1393C81.6805 62.6883 77.8706 63.7102 76.4171 63.9141C75.2543 64.0772 74.6204 63.0717 74.133 61.8748C74.5166 63.3001 74.6167 63.5671 74.1013 64.2178C73.3746 65.1355 69.4609 65.3416 67.4882 65.3416C65.6974 65.3416 65.7779 63.2634 65.7937 62.0853C65.7042 62.5378 65.5372 63.0699 65.3259 63.5723C65.0152 64.4091 64.5827 65.1607 64.0304 65.3416C62.6514 65.793 60.708 65.1355 59.8052 65.0357C57.4172 64.5237 57.4578 64.0117 57.6971 62.7903Z" fill="white"/>
<path d="M64.1117 65.578C64.4625 65.4619 64.7468 65.1771 64.975 64.8443C65.2051 64.5085 65.3981 64.0945 65.5566 63.6693L65.5566 63.6693L65.5585 63.6643C65.5697 63.6375 65.5808 63.6106 65.5918 63.5837C65.6199 63.8036 65.6619 64.0217 65.7242 64.2276C65.8334 64.5884 66.0103 64.9325 66.3012 65.1867C66.5968 65.4449 66.9884 65.5916 67.4882 65.5916C68.4808 65.5916 69.9636 65.5398 71.2933 65.3718C71.9575 65.2879 72.5915 65.174 73.11 65.0202C73.3692 64.9432 73.6054 64.8546 73.8044 64.7515C74.0012 64.6496 74.176 64.5262 74.2973 64.373C74.5534 64.0497 74.6923 63.7817 74.7039 63.4227C74.7483 63.4765 74.7941 63.5282 74.8413 63.5774C75.2512 64.0052 75.7771 64.2563 76.4518 64.1617C77.1932 64.0576 78.5487 63.7447 79.5571 63.1185C80.062 62.8049 80.5057 62.3968 80.7239 61.8717C80.8569 61.5517 80.9003 61.2025 80.8365 60.8264C80.9635 60.9065 81.0985 60.9854 81.2351 61.0567C81.4661 61.1775 81.7152 61.2842 81.9479 61.3378C82.17 61.389 82.4356 61.4052 82.648 61.2661C82.9831 61.0467 83.4408 60.6218 83.8024 60.2666C83.9861 60.0862 84.1499 59.9189 84.2679 59.7966C84.3268 59.7355 84.3744 59.6855 84.4073 59.6508L84.4453 59.6106L84.4553 59.5999L84.4579 59.5971L84.4586 59.5964L84.4588 59.5962L84.4588 59.5961L84.459 59.5963L84.4662 59.5879L84.2761 59.4255L84.4663 59.5878L84.4664 59.5877L84.4667 59.5873L84.4681 59.5857L84.4735 59.5794L84.4944 59.5548L84.5742 59.4608C84.6431 59.3795 84.742 59.2625 84.8623 59.1191C85.103 58.8325 85.4293 58.4405 85.7721 58.0197C86.4504 57.187 87.215 56.2144 87.4874 55.733L87.88 55.0389L87.1614 55.3846C84.653 56.5911 78.7264 58.1526 71.7953 59.2207C64.8708 60.2877 56.9837 60.8559 50.5626 60.0949L50.2832 60.0618V60.3432C50.2832 60.9608 50.713 61.5971 51.2915 62.1408C51.8817 62.6955 52.6764 63.2015 53.5114 63.5558C54.344 63.909 55.2386 64.1205 56.0267 64.0624C56.5152 64.0264 56.971 63.885 57.3398 63.6053C57.3426 63.8624 57.3998 64.1074 57.5659 64.329C57.7321 64.5506 57.9882 64.7229 58.3372 64.8708C58.6868 65.0189 59.1498 65.1508 59.7528 65.2801L59.7652 65.2828L59.7777 65.2842C59.9891 65.3075 60.2668 65.3644 60.6015 65.4338L60.6284 65.4394C60.9516 65.5065 61.3186 65.5827 61.7006 65.6423C62.4791 65.7639 63.3595 65.8242 64.1081 65.5792C64.1093 65.5788 64.1105 65.5784 64.1117 65.578Z" stroke="black" stroke-width="0.5"/>
</g>
<path d="M73.5081 23.0259C71.0163 24.0455 70.3934 25.6769 70.1858 27.2064C70.023 28.4051 70.5113 29.4407 70.7915 29.8338C71.6279 28.6181 73.7989 26.2072 75.7923 26.2888C77.7857 26.3703 79.4607 29.1097 80.0491 30.4693C80.3259 30.1294 80.8174 29.2253 80.5682 28.328C79.9037 26.2072 78.7686 24.8613 78.2841 24.4534C77.2458 23.3318 75.0655 22.3887 73.5081 23.0259Z" fill="#FF0000"/>
<path d="M70.8087 29.8574C70.8031 29.8498 70.7974 29.842 70.7915 29.8338M70.7915 29.8338C70.5113 29.4407 70.023 28.4051 70.1858 27.2064C70.3934 25.6769 71.0163 24.0455 73.5081 23.0259C75.0655 22.3887 77.2458 23.3318 78.2841 24.4534C78.7686 24.8613 79.9037 26.2072 80.5682 28.328C80.8174 29.2253 80.3259 30.1294 80.0491 30.4693C79.4607 29.1097 77.7857 26.3703 75.7923 26.2888C73.7989 26.2072 71.6279 28.6181 70.7915 29.8338Z" stroke="#0E0000" stroke-width="0.5"/>
<path d="M70.4662 42.2964C70.6323 45.4776 69.3933 48.242 68.7012 49.3296C69.2248 48.6788 70.3037 48.8545 70.7777 49.1257C70.9853 48.412 72.159 46.3749 74.0278 45.6612C75.8967 44.9474 76.9349 43.214 77.454 42.5003C77.8693 41.9293 77.6647 41.2406 77.5262 40.8667C76.9379 41.5125 75.4606 42.5411 74.1317 42.2964C72.8027 42.0517 71.6775 41.4105 71.2968 40.9687C71.0199 41.1046 70.4662 41.3175 70.4662 42.2964Z" fill="#FF0000" stroke="#FF0000" stroke-width="0.5"/>
<path d="M68.6115 49.4359C69.2956 48.3965 70.6114 45.5652 70.4021 42.5545C70.3893 41.6275 70.9412 41.1308 71.2187 40.9983C71.6086 41.4116 72.7244 42.2917 74.0685 42.5056C75.4126 42.7194 76.9188 41.5339 77.504 40.9143C77.6486 41.2666 77.8348 42.1076 77.4233 42.6539C76.9089 43.3369 75.8841 44.9925 74.0079 45.6936C72.1317 46.3948 70.9067 48.7292 70.7065 49.4079" stroke="black" stroke-width="0.5"/>
<path d="M57.9714 45.912C58.2374 47.2871 59.4565 49.0642 60.0846 49.7383C58.1476 50.5184 57.7311 51.4063 57.7913 51.8318C57.7945 51.8477 57.7976 51.8636 57.8005 51.8795C57.7968 51.8643 57.7937 51.8484 57.7913 51.8318C57.5501 50.6366 56.4731 49.5256 56.0355 49.1265C55.6415 48.7672 54.6171 48.0023 54.0628 47.699C53.5086 47.3957 52.347 47.0847 51.571 46.7813C50.7951 46.478 50.3224 45.6087 50.1006 45.3054C49.8789 45.0021 50.1006 43.8899 50.5441 44.1932C51.7635 44.901 53.648 45.1032 54.8674 44.2944C56.0868 43.4855 56.3259 42.3961 56.6584 42.295C57.2127 42.0927 57.6388 42.4744 57.9714 42.9799C58.3039 43.4855 57.7497 45.2043 57.9714 45.912Z" fill="#F30000"/>
<path d="M60.1885 49.9964C59.5603 49.2714 58.2374 47.4518 57.9714 45.9729C57.7497 45.2117 58.3039 43.3631 57.9714 42.8194C57.6388 42.2757 57.1953 42.0582 56.641 42.2757C56.3085 42.3845 56.0868 43.3632 54.8674 44.2331C53.648 45.103 51.7635 44.8855 50.5441 44.1243C50.1006 43.7981 49.8789 44.9943 50.1006 45.3205C50.3224 45.6467 50.7658 46.5167 51.5418 46.8429C52.3178 47.1691 53.648 47.4953 54.2023 47.8216C54.7566 48.1478 55.8037 48.9575 56.1977 49.3439C56.6411 49.7789 57.7497 51.0838 57.9714 52.3887" stroke="black" stroke-width="0.5"/>
<path d="M56.8137 39.2052C56.8137 42.073 54.9459 44.2112 52.8492 44.2112C50.7526 44.2112 48.8848 42.073 48.8848 39.2052C48.8848 36.3374 50.7526 34.1992 52.8492 34.1992C54.9459 34.1992 56.8137 36.3374 56.8137 39.2052Z" fill="white" stroke="black"/>
<path d="M80.0275 34.7847C79.7756 36.9407 78.9531 38.8033 77.8527 40.0744C76.7503 41.3478 75.41 41.9895 74.0924 41.841C72.7748 41.6926 71.6172 40.7695 70.8372 39.2839C70.0585 37.8011 69.6869 35.804 69.9387 33.648C70.1906 31.492 71.0132 29.6294 72.1135 28.3583C73.2159 27.0849 74.5562 26.4432 75.8738 26.5917C77.1914 26.7401 78.349 27.6632 79.129 29.1488C79.9077 30.6316 80.2793 32.6287 80.0275 34.7847Z" fill="white" stroke="black"/>
<ellipse cx="74.9296" cy="35.6668" rx="2.28414" ry="3.67067" fill="black"/>
<ellipse cx="74.4397" cy="36.5366" rx="0.72677" ry="1.12159" fill="white"/>
<ellipse cx="1.79144" cy="2.4684" rx="1.79144" ry="2.4684" transform="matrix(0.999613 -0.0278338 0.0288583 0.999584 51.4668 36.7861)" fill="black"/>
<ellipse cx="0.732705" cy="1.00959" rx="0.732705" ry="1.00959" transform="matrix(0.999613 -0.0278338 0.0288583 0.999584 52.1572 38.8389)" fill="white"/>
<path d="M50.4083 31.2244C47.7889 31.8849 49.0061 36.2816 49.0061 36.2816C49.0061 36.2816 50.3036 33.5982 52.8639 33.5982C54.6126 33.5982 55.8994 34.9743 56.3428 35.7656C57.1613 35.683 56.9967 33.2691 56.3428 32.4629C55.4219 31.3276 53.0277 30.5639 50.4083 31.2244Z" fill="#FF0000" stroke="black" stroke-width="0.5"/>
<path d="M8.25789 62.2004C6.44569 59.8344 8.17668 56.9428 9.2687 55.7928C10.6773 53.5793 14.1866 52.5697 14.5918 53.3809C14.9971 54.1922 17.2507 59.5643 18.8124 59.8184C20.3741 60.0724 21.1047 60.9831 20.9173 62.1464C18.9116 65.914 10.5231 65.158 8.25789 62.2004Z" fill="#FF0000" stroke="black" stroke-width="0.5"/>
<g filter="url(#filter3_i_3880_6035)">
<path d="M18.6502 64.1937C23.2087 65.3049 30.5407 61.1417 34.7959 60.5383C34.8821 59.4982 34.6514 57.6938 33.0384 58.7969C31.0221 60.1757 22.6353 60.2286 20.9854 60.0715C19.3356 59.9144 18.6739 60.5488 18.1699 61.3202C17.6659 62.0916 19.0239 62.5744 18.6756 62.6977C17.833 63.2095 18.3076 63.9083 18.6502 64.1937Z" fill="#FF0000"/>
</g>
<path d="M18.6502 64.1937C23.2087 65.3049 30.5407 61.1417 34.7959 60.5383C34.8821 59.4982 34.6514 57.6938 33.0384 58.7969C31.0221 60.1757 22.6353 60.2286 20.9854 60.0715C19.3356 59.9144 18.6739 60.5488 18.1699 61.3202C17.6659 62.0916 19.0239 62.5744 18.6756 62.6977C17.833 63.2095 18.3076 63.9083 18.6502 64.1937Z" stroke="black" stroke-width="0.5"/>
<path d="M1.27248 50.4999C1.99151 44.531 5.7714 39.0913 7.93339 37.0154C11.0258 38.2724 17.6485 41.4986 19.4005 44.3472C19.6929 48.3814 13.9098 57.4075 9.87145 58.2999C5.85173 59.1882 0.561137 56.4051 1.27248 50.4999Z" fill="#FF0B0B" stroke="black" stroke-width="0.5"/>
<path d="M35.8795 56.1461C27.2389 53.7146 23.8288 43.727 22.2762 40.7242L16.8487 40.1319L14.628 49.12C25.9074 61.7501 38.1158 57.6625 35.8795 56.1461Z" fill="#F10101" stroke="black" stroke-width="0.5"/>
<path d="M23.3828 48.1997C23.8364 49.3135 23.5718 52.2703 23.3828 53.6094L39.8387 64.8703C40.0025 64.9148 40.9413 64.8252 43.2282 64.9987C46.4283 65.2414 48.5141 64.2231 49.6627 64.2231C50.8113 64.2231 53.6512 64.1604 54.8374 62.858C56.9597 59.4872 56.6563 47.7854 54.8089 44.9225C54.6438 45.0797 54.2312 45.4713 53.811 45.8015C53.3907 46.1317 52.5751 46.0079 52.2199 45.9047C50.887 45.1853 47.043 44.2173 45.2877 43.8231L44.3542 43.969C41.3503 42.2689 37.2858 42.5827 35.629 42.9521L35.5465 42.4793C32.5559 42.4555 26.4113 42.4222 25.7577 42.4793C25.1041 42.5363 23.9966 44.4168 23.5246 45.3499C23.7715 46.3199 23.5329 47.6539 23.3828 48.1997Z" fill="black" stroke="white"/>
<path d="M23.5234 45.3276C24.0205 44.4982 25.1595 42.7841 25.7389 42.5629L27.9406 41.5862L27.9118 41.0884C28.3237 40.8508 29.6587 40.4261 31.7037 40.6276L31.717 41.2805L31.7761 41.2473L32.1724 41.0884C33.0927 40.8672 36.2903 40.8119 37.5685 40.8119C38.6861 39.8683 40.0013 38.8618 40.7361 38.5541C41.0658 38.3759 42.0861 38.4706 42.6025 38.5464L43.0795 38.2776C44.0398 38.3565 45.8533 38.5029 46.4628 38.5435L46.5305 38.1855C46.7578 37.8629 47.3912 37.3008 48.1069 37.6325C48.3303 37.7361 48.4156 37.8722 48.414 38.0193C48.4138 38.0325 48.413 38.0458 48.4115 38.0591L48.3297 39.3608C48.4414 39.3519 48.5498 39.3618 48.6538 39.3926C48.6562 39.3896 48.6585 39.3866 48.6608 39.3835C48.8312 39.1531 48.8738 38.6463 48.8738 38.4159C48.8229 38.207 48.9947 38.1752 49.0869 38.1855C51.4728 38.4067 51.9556 40.1208 51.8988 40.9502L51.8406 41.189L51.7795 41.3312C52.899 41.565 53.8331 42.3283 54.2422 42.7933C54.2892 42.8447 54.3766 42.9966 54.2966 43.1529C54.3118 43.2065 54.3012 43.2862 54.2221 43.354L54.0037 43.9435C54.308 44.1553 54.5993 44.5218 54.8607 45.0048C53.6236 46.1347 53.1663 46.3802 51.3511 45.6041C49.8959 44.9819 46.4552 44.0574 44.5316 44.0443C44.5177 44.0442 44.504 44.0441 44.4903 44.0441C41.6272 42.8645 38.8296 42.4954 35.4473 43.0025C35.4967 42.8295 35.5675 42.6777 35.6661 42.5629H31.9389C28.8583 44.978 27.9118 46.3 23.5234 45.3276Z" fill="black"/>
<path d="M56.4882 48.07C56.3181 47.8741 55.7311 47.7192 55.0876 47.9626C54.4442 48.2059 55.0462 49.7778 55.0462 49.7778C55.2022 50.0268 56.2833 49.4647 56.5588 49.1108C56.8402 48.7494 56.7061 48.3209 56.4882 48.07Z" fill="black"/>
<path d="M23.5444 48.1567C23.9875 49.2626 23.6458 52.152 23.5234 53.1669L42.6029 64.9879C45.6246 65.3199 47.8087 64.4501 49.3425 64.2658C50.8763 64.0815 54.4167 64.4491 55.141 62.0991C56.4022 58.5603 56.3217 52.3225 55.9667 49.696M23.5444 48.1567C23.6864 47.4809 23.6939 45.9912 23.5234 45.3276M23.5444 48.1567C23.7148 48.6022 26.2437 50.0949 28.9627 48.6372M23.5234 45.3276C24.0205 44.4982 25.1595 42.7841 25.7389 42.5629M23.5234 45.3276C27.9118 46.3 28.8583 44.978 31.9389 42.5629M25.7389 42.5629H35.6661M25.7389 42.5629L27.9406 41.5862L27.9544 41.8257M35.6661 42.5629C35.223 43.079 35.3394 44.3446 35.453 44.9129M35.6661 42.5629C35.9118 42.2767 36.6774 41.5644 37.5685 40.8119M35.6661 42.5629L37.5685 40.8119M42.6025 38.5464C42.0861 38.4706 41.0658 38.3759 40.7361 38.5541C40.0013 38.8618 38.6861 39.8683 37.5685 40.8119M42.6025 38.5464C42.6201 38.549 42.5861 38.5439 42.6025 38.5464ZM42.6025 38.5464L43.0795 38.2776C44.0398 38.3565 45.8533 38.5029 46.4628 38.5435M44.187 45.5131C44.1293 43.8283 47.2769 38.341 48.9162 39.5229C49.1719 39.7073 48.746 40.3512 49.3425 40.9502C49.8197 41.4294 50.0242 41.3188 50.0242 41.3188L50.247 41.3719M35.4473 43.0025C38.8296 42.4954 41.6272 42.8645 44.4903 44.0441C46.4057 44.0441 49.8854 44.9774 51.3511 45.6041C53.1831 46.3874 53.632 46.1301 54.8953 44.9731M53.9621 43.9155C54.7335 44.4147 55.4274 45.9116 55.7682 47.7916M53.6883 43.4845C54.5404 43.3002 54.3265 42.8855 54.2422 42.7933C53.8331 42.3283 52.899 41.565 51.7795 41.3312M53.6883 43.4845C53.081 43.6159 50.699 42.6705 50.1209 41.9664M53.6883 43.4845C54.2499 43.4845 54.3278 43.2634 54.2966 43.1529L53.5252 45.235C51.0029 45.3825 49.7402 44.2217 49.3425 43.6227L50.0242 41.3719C49.9477 41.4976 49.8601 41.7924 50.1209 41.9664M46.5731 46.6178C47.9933 46.9404 50.9445 48.8019 51.3876 53.6678M51.3876 56.3074C51.2314 57.4901 50.4162 60.4321 47.5531 62.0541M51.1618 41.2613C51.1618 39.346 49.9318 39.1531 48.8738 38.7521M37.5685 40.8119C36.2903 40.8119 33.0927 40.8672 32.1724 41.0884L31.7761 41.2473L31.717 41.2805M27.9118 41.0884L27.9544 41.8257M27.9118 41.0884C29.6501 41.199 31.1641 40.8273 31.7037 40.6276M27.9118 41.0884C28.3237 40.8508 29.6587 40.4261 31.7037 40.6276M27.9544 41.8257C28.7781 41.8717 30.6945 41.7966 31.717 41.2805M31.717 41.2805L31.7037 40.6276M53.9915 47.5983C53.9106 48.8768 53.918 49.628 54.5358 50.7331M46.4628 38.5435C46.5653 38.5503 46.6338 38.5541 46.6583 38.5541C46.8714 38.5541 46.7009 39.1992 46.9992 39.1531C47.2478 39.1147 47.4668 39.0763 47.6809 39.198M46.4628 38.5435L46.5305 38.1855C46.7578 37.8629 47.3912 37.3008 48.1069 37.6325C48.3303 37.7361 48.4156 37.8722 48.414 38.0193M47.6809 39.198C47.7236 39.2223 47.7662 39.253 47.8087 39.2914C48.0643 39.5218 48.4904 39.6139 48.6608 39.3835C48.8312 39.1531 48.8738 38.6463 48.8738 38.4159C48.8229 38.207 48.9947 38.1752 49.0869 38.1855C51.4728 38.4067 51.9556 40.1208 51.8988 40.9502L51.8406 41.189L51.7795 41.3312M47.6809 39.198V38.9227C47.9838 38.722 48.4103 38.3438 48.414 38.0193M48.414 38.0193L48.32 39.5158M51.7795 41.3312C51.383 41.2484 50.9633 41.232 50.5355 41.3188C49.9479 41.4379 49.8879 41.6826 50.1209 41.9664M55.0876 47.9626C55.7311 47.7192 56.3181 47.8741 56.4882 48.07C56.7061 48.3209 56.8402 48.7494 56.5588 49.1108C56.2833 49.4647 55.2022 50.0268 55.0462 49.7778C55.0462 49.7778 54.4442 48.2059 55.0876 47.9626Z" stroke="white"/>
<g filter="url(#filter4_d_3880_6035)">
<path d="M47.6758 62.0046C48.8802 61.1913 51.3055 58.9398 51.3713 56.4395" stroke="white"/>
</g>
<g filter="url(#filter5_i_3880_6035)">
<path d="M38.4028 65.974C45.7509 66.5407 50.5245 60.6326 46.8418 53.0594C41.8845 42.8652 28.8574 44.5301 27.2596 51.3294L38.4028 65.974Z" fill="black"/>
</g>
<path d="M38.4028 65.974C45.7509 66.5407 50.5245 60.6326 46.8418 53.0594C41.8845 42.8652 28.8574 44.5301 27.2596 51.3294L38.4028 65.974Z" stroke="black"/>
<path d="M36.2213 67.2772C43.5694 67.8439 48.8055 60.9068 44.839 53.4868C39.991 44.4178 28.8579 46.0687 26.4079 53.2329L36.2213 67.2772Z" fill="black" stroke="black"/>
<path d="M32.818 73.4286C40.2898 67.9612 47.5811 62.2759 43.4878 54.5065C38.4849 45.0107 31.3671 48.25 22.4304 53.2858L32.818 73.4286Z" fill="black" stroke="white"/>
<ellipse cx="10.0672" cy="11.7569" rx="10.0672" ry="11.7569" transform="matrix(0.782754 -0.622331 0.605372 0.795942 12.9111 60.0088)" fill="black" stroke="white"/>
<g filter="url(#filter6_i_3880_6035)">
<ellipse cx="6.94709" cy="8.56884" rx="6.94709" ry="8.56884" transform="matrix(0.930482 -0.366337 0.341044 0.940047 18.2227 57.8799)" fill="black"/>
</g>
<ellipse cx="6.94709" cy="8.56884" rx="6.94709" ry="8.56884" transform="matrix(0.930482 -0.366337 0.341044 0.940047 18.2227 57.8799)" stroke="white"/>
<path d="M33.5317 43.7672C33.2572 43.3341 32.828 43.4409 32.5838 43.6617C32.32 43.9424 32.2193 44.3913 32.4764 44.7772C32.7334 45.1631 33.1751 45.0628 33.4536 44.7988C33.6699 44.5523 33.7825 44.163 33.5317 43.7672Z" fill="black"/>
<path d="M54.0684 60.2363C53.5966 59.6798 52.1163 58.8116 51.3663 60.5972C50.5514 62.5374 52.8675 63.0337 53.1677 62.6727M53.2534 60.507C52.0954 59.2437 50.5943 62.4471 53.1677 62.041M52.6101 60.9582L54.2828 60.8228L54.3686 61.4545M53.9397 61.6801L52.267 61.7703V61.1387M32.5838 43.6617C32.828 43.4409 33.2572 43.3341 33.5317 43.7672C33.7825 44.163 33.6699 44.5523 33.4536 44.7988C33.1751 45.0628 32.7334 45.1631 32.4764 44.7772C32.2193 44.3913 32.32 43.9424 32.5838 43.6617Z" stroke="white"/>
<path d="M46.5771 46.6138C48.403 47.208 50.9383 48.9704 51.3959 53.6843" stroke="white"/>
<path d="M40.1673 46.9524L40.1586 46.9471L40.1495 46.9425C39.4387 46.5815 38.5761 45.9597 37.5963 45.2252C37.4173 45.091 37.2346 44.9533 37.0487 44.813C36.2244 44.1913 35.3359 43.5213 34.4168 42.8984C33.2899 42.1347 32.1053 41.4337 30.9161 40.9707C29.7271 40.5077 28.5183 40.2767 27.3504 40.4722C25.5832 40.768 24.5145 41.1338 23.6488 41.7089C22.8676 42.228 22.2645 42.9112 21.4669 43.8148C21.3893 43.9027 21.31 43.9926 21.2284 44.0846C21.1943 44.1232 21.1597 44.1622 21.1246 44.2018C20.3144 45.117 19.2744 46.2916 18.0769 47.3297C16.8252 48.4147 15.4239 49.3302 13.9604 49.6506C13.1063 49.8376 12.4715 49.8908 11.9145 49.7417C11.3685 49.5955 10.8615 49.2445 10.2874 48.545C9.59515 47.4779 7.52625 43.4878 7.16701 39.0394C6.98709 36.8115 7.23704 34.4815 8.29118 32.3475C9.34353 30.2171 11.2066 28.2631 14.2873 26.7977C26.6269 20.9279 41.3827 27.9846 44.8604 44.263C45.1518 45.6268 44.9301 46.8993 44.2189 47.5247C43.5364 48.1249 42.2615 48.2368 40.1673 46.9524Z" fill="#FF0000" stroke="black" stroke-width="0.5"/>
<path d="M150.689 40.5L153.839 38.5C157.372 41.9 160.406 44.9333 162.939 47.6C165.506 50.2667 167.672 52.4 169.439 54C169.406 54.7333 169.189 55.3167 168.789 55.75C168.389 56.15 167.889 56.35 167.289 56.35C166.722 56.35 166.206 56.1833 165.739 55.85C165.306 55.5167 164.856 55.1333 164.389 54.7L150.689 40.5ZM154.389 41.9L150.339 41L165.389 25.4C166.256 25.4333 166.906 25.65 167.339 26.05C167.772 26.45 167.989 26.9167 167.989 27.45C167.989 27.8833 167.872 28.3 167.639 28.7C167.439 29.0667 167.106 29.45 166.639 29.85L154.389 41.9ZM147.539 37.65H151.639V55.95C151.439 56.0167 151.172 56.0833 150.839 56.15C150.506 56.25 150.139 56.3 149.739 56.3C149.006 56.3 148.456 56.15 148.089 55.85C147.722 55.55 147.539 55.0833 147.539 54.45V37.65ZM151.639 41H147.539V25.7C147.706 25.6333 147.956 25.5667 148.289 25.5C148.656 25.4 149.039 25.35 149.439 25.35C150.172 25.35 150.722 25.5 151.089 25.8C151.456 26.0667 151.639 26.5333 151.639 27.2V41ZM175.909 37.85H179.959V55.9C179.793 55.9667 179.543 56.0333 179.209 56.1C178.876 56.2 178.509 56.25 178.109 56.25C177.376 56.25 176.826 56.1 176.459 55.8C176.093 55.5 175.909 55.0333 175.909 54.4V37.85ZM179.959 41.2H175.909V25.7C176.076 25.6333 176.326 25.5667 176.659 25.5C177.026 25.4 177.409 25.35 177.809 25.35C178.543 25.35 179.076 25.5 179.409 25.8C179.776 26.0667 179.959 26.5333 179.959 27.2V41.2ZM188.945 29.05L192.345 28.75C192.478 29.7833 192.595 31 192.695 32.4C192.795 33.8 192.862 35.25 192.895 36.75C192.962 38.2167 192.995 39.6167 192.995 40.95V55.9C192.828 55.9667 192.562 56.0333 192.195 56.1C191.862 56.2 191.512 56.25 191.145 56.25C190.412 56.25 189.862 56.1167 189.495 55.85C189.128 55.55 188.945 55.0833 188.945 54.45V29.05ZM213.045 52.55L209.595 52.85C209.262 50.05 209.062 47.2 208.995 44.3C208.962 41.3667 208.945 38.5333 208.945 35.8V25.7C209.145 25.6333 209.412 25.5667 209.745 25.5C210.078 25.4 210.445 25.35 210.845 25.35C211.578 25.35 212.128 25.5 212.495 25.8C212.862 26.0667 213.045 26.5167 213.045 27.15V52.55ZM213.045 51.05V55.45C212.745 55.6833 212.362 55.8833 211.895 56.05C211.428 56.2167 210.912 56.3 210.345 56.3C209.545 56.3 208.862 56.15 208.295 55.85C207.728 55.5167 207.212 54.9333 206.745 54.1L197.245 38.1C196.745 37.2 196.195 36.2167 195.595 35.15C194.995 34.05 194.428 33.0167 193.895 32.05C193.362 31.05 192.945 30.2333 192.645 29.6L188.945 30.55V26.2C189.212 25.9333 189.578 25.7167 190.045 25.55C190.545 25.3833 191.078 25.3 191.645 25.3C192.445 25.3 193.128 25.4667 193.695 25.8C194.262 26.1 194.778 26.6667 195.245 27.5L204.795 43.5C205.328 44.4 205.878 45.4 206.445 46.5C207.045 47.5667 207.595 48.6 208.095 49.6C208.595 50.5667 208.995 51.3667 209.295 52L213.045 51.05ZM249.203 40.8C249.203 44.2667 248.57 47.1833 247.303 49.55C246.036 51.8833 244.303 53.65 242.103 54.85C239.936 56.05 237.47 56.65 234.703 56.65C231.97 56.65 229.503 56.05 227.303 54.85C225.103 53.65 223.37 51.8833 222.103 49.55C220.836 47.1833 220.203 44.2667 220.203 40.8C220.203 37.3333 220.853 34.4333 222.153 32.1C223.453 29.7333 225.186 27.95 227.353 26.75C229.553 25.55 232.003 24.95 234.703 24.95C237.436 24.95 239.886 25.55 242.053 26.75C244.253 27.95 245.986 29.7333 247.253 32.1C248.553 34.4333 249.203 37.3333 249.203 40.8ZM245.053 40.8C245.053 36.8333 244.103 33.7833 242.203 31.65C240.336 29.4833 237.836 28.4 234.703 28.4C231.603 28.4 229.103 29.4833 227.203 31.65C225.336 33.7833 224.403 36.8333 224.403 40.8C224.403 44.7667 225.336 47.8333 227.203 50C229.07 52.1333 231.57 53.2 234.703 53.2C237.87 53.2 240.386 52.1333 242.253 50C244.12 47.8333 245.053 44.7667 245.053 40.8ZM274.035 44.75V55.8C273.669 55.9 273.085 56 272.285 56.1C271.485 56.2 270.702 56.25 269.935 56.25C269.169 56.25 268.485 56.1833 267.885 56.05C267.319 55.95 266.835 55.75 266.435 55.45C266.035 55.15 265.735 54.7333 265.535 54.2C265.335 53.6667 265.235 52.9667 265.235 52.1V25.7C265.602 25.6333 266.185 25.55 266.985 25.45C267.785 25.3167 268.552 25.25 269.285 25.25C270.052 25.25 270.719 25.3167 271.285 25.45C271.885 25.55 272.385 25.75 272.785 26.05C273.185 26.35 273.485 26.7667 273.685 27.3C273.885 27.8333 273.985 28.5333 273.985 29.4V37.35L284.385 25.4C286.652 25.4 288.269 25.8333 289.235 26.7C290.235 27.5333 290.735 28.5333 290.735 29.7C290.735 30.5667 290.519 31.3833 290.085 32.15C289.652 32.9167 288.952 33.7833 287.985 34.75L281.735 41C282.569 41.9333 283.435 42.9 284.335 43.9C285.269 44.9 286.169 45.8833 287.035 46.85C287.935 47.7833 288.785 48.6833 289.585 49.55C290.419 50.4167 291.135 51.1667 291.735 51.8C291.735 52.5333 291.602 53.1833 291.335 53.75C291.069 54.3167 290.702 54.8 290.235 55.2C289.802 55.6 289.302 55.9 288.735 56.1C288.169 56.3 287.569 56.4 286.935 56.4C285.569 56.4 284.452 56.0667 283.585 55.4C282.719 54.7 281.885 53.8833 281.085 52.95L274.035 44.75ZM304.697 46.2V55.8C304.33 55.9 303.747 56 302.947 56.1C302.18 56.2 301.414 56.25 300.647 56.25C299.88 56.25 299.197 56.1833 298.597 56.05C298.03 55.95 297.547 55.75 297.147 55.45C296.78 55.15 296.497 54.7333 296.297 54.2C296.097 53.6667 295.997 52.9667 295.997 52.1V28.55C295.997 27.85 296.18 27.3167 296.547 26.95C296.947 26.55 297.48 26.2333 298.147 26C299.28 25.6 300.597 25.3167 302.097 25.15C303.597 24.95 305.197 24.85 306.897 24.85C311.497 24.85 314.964 25.8167 317.297 27.75C319.63 29.6833 320.797 32.3 320.797 35.6C320.797 37.6667 320.264 39.4333 319.197 40.9C318.13 42.3667 316.864 43.5 315.397 44.3C316.597 45.9333 317.78 47.4667 318.947 48.9C320.114 50.3333 321.03 51.6333 321.697 52.8C321.364 53.9667 320.747 54.8667 319.847 55.5C318.98 56.1 317.997 56.4 316.897 56.4C316.164 56.4 315.53 56.3167 314.997 56.15C314.464 55.9833 313.997 55.75 313.597 55.45C313.197 55.15 312.83 54.7833 312.497 54.35C312.164 53.9167 311.847 53.45 311.547 52.95L307.347 46.2H304.697ZM307.847 39.55C309.114 39.55 310.114 39.2333 310.847 38.6C311.58 37.9333 311.947 36.9667 311.947 35.7C311.947 34.4333 311.53 33.4833 310.697 32.85C309.897 32.1833 308.614 31.85 306.847 31.85C306.347 31.85 305.947 31.8667 305.647 31.9C305.347 31.9333 305.014 31.9833 304.647 32.05V39.55H307.847ZM333.306 26.6C333.873 26.2667 334.723 25.95 335.856 25.65C337.023 25.35 338.19 25.2 339.356 25.2C341.023 25.2 342.49 25.45 343.756 25.95C345.056 26.4167 345.89 27.1667 346.256 28.2C346.856 29.9333 347.506 31.95 348.206 34.25C348.906 36.55 349.606 38.9333 350.306 41.4C351.006 43.8333 351.69 46.25 352.356 48.65C353.023 51.0167 353.606 53.1167 354.106 54.95C353.706 55.4167 353.106 55.7833 352.306 56.05C351.506 56.35 350.556 56.5 349.456 56.5C348.656 56.5 347.973 56.4333 347.406 56.3C346.873 56.1667 346.423 55.9667 346.056 55.7C345.723 55.4333 345.44 55.0833 345.206 54.65C345.006 54.2167 344.823 53.7167 344.656 53.15L343.756 49.7H334.706C334.44 50.7 334.173 51.7333 333.906 52.8C333.64 53.8667 333.373 54.9 333.106 55.9C332.64 56.0667 332.14 56.2 331.606 56.3C331.106 56.4333 330.49 56.5 329.756 56.5C328.056 56.5 326.79 56.2167 325.956 55.65C325.156 55.05 324.756 54.2333 324.756 53.2C324.756 52.7333 324.823 52.2667 324.956 51.8C325.09 51.3333 325.24 50.7833 325.406 50.15C325.64 49.25 325.956 48.1333 326.356 46.8C326.79 45.4667 327.256 44.0333 327.756 42.5C328.256 40.9333 328.79 39.3333 329.356 37.7C329.923 36.0667 330.456 34.5333 330.956 33.1C331.456 31.6333 331.906 30.3333 332.306 29.2C332.74 28.0667 333.073 27.2 333.306 26.6ZM339.306 33.05C338.84 34.45 338.306 36.0167 337.706 37.75C337.14 39.45 336.623 41.1833 336.156 42.95H342.356C341.89 41.15 341.406 39.4 340.906 37.7C340.44 35.9667 340.006 34.4167 339.606 33.05H339.306ZM366.704 49.75C367.171 49.8833 367.771 49.9833 368.504 50.05C369.237 50.0833 369.937 50.1 370.604 50.1C371.937 50.1 373.037 49.8333 373.904 49.3C374.804 48.7333 375.254 47.8667 375.254 46.7C375.254 45.6 374.887 44.8167 374.154 44.35C373.421 43.8833 372.304 43.65 370.804 43.65H366.704V49.75ZM366.704 37.55H370.354C371.787 37.55 372.821 37.2833 373.454 36.75C374.121 36.2167 374.454 35.4333 374.454 34.4C374.454 33.5 374.071 32.7833 373.304 32.25C372.571 31.7167 371.454 31.45 369.954 31.45C369.454 31.45 368.871 31.4667 368.204 31.5C367.571 31.5333 367.071 31.5833 366.704 31.65V37.55ZM369.954 56.8C369.387 56.8 368.721 56.7833 367.954 56.75C367.187 56.7167 366.387 56.65 365.554 56.55C364.754 56.45 363.954 56.3167 363.154 56.15C362.354 56.0167 361.621 55.8167 360.954 55.55C359.121 54.85 358.204 53.6333 358.204 51.9V28.55C358.204 27.85 358.387 27.3167 358.754 26.95C359.154 26.55 359.687 26.2333 360.354 26C361.487 25.6 362.904 25.3167 364.604 25.15C366.304 24.95 368.054 24.85 369.854 24.85C374.121 24.85 377.404 25.5667 379.704 27C382.004 28.4333 383.154 30.65 383.154 33.65C383.154 35.15 382.721 36.45 381.854 37.55C380.987 38.6167 379.821 39.4 378.354 39.9C380.021 40.3667 381.404 41.2167 382.504 42.45C383.637 43.6833 384.204 45.2333 384.204 47.1C384.204 50.4 382.971 52.85 380.504 54.45C378.071 56.0167 374.554 56.8 369.954 56.8Z" fill="white"/>
<path d="M150.689 40.5L150.421 40.0779L149.904 40.4063L150.329 40.8472L150.689 40.5ZM153.839 38.5L154.186 38.1397L153.902 37.8673L153.571 38.0779L153.839 38.5ZM162.939 47.6L162.576 47.9444L162.579 47.9467L162.939 47.6ZM169.439 54L169.938 54.0227L169.949 53.7875L169.775 53.6294L169.439 54ZM168.789 55.75L169.142 56.1036L169.149 56.0965L169.156 56.0891L168.789 55.75ZM165.739 55.85L165.434 56.2463L165.441 56.2517L165.448 56.2569L165.739 55.85ZM164.389 54.7L164.029 55.0472L164.039 55.057L164.049 55.0664L164.389 54.7ZM154.389 41.9L154.28 42.3881L154.546 42.4471L154.739 42.2565L154.389 41.9ZM150.339 41L149.979 40.6528L149.36 41.2946L150.23 41.4881L150.339 41ZM165.389 25.4L165.408 24.9004L165.184 24.8918L165.029 25.0528L165.389 25.4ZM167.339 26.05L167.678 25.6826L167.678 25.6826L167.339 26.05ZM167.639 28.7L167.207 28.4481L167.203 28.4543L167.2 28.4606L167.639 28.7ZM166.639 29.85L166.313 29.4704L166.3 29.4815L166.288 29.4935L166.639 29.85ZM147.539 37.65V37.15H147.039V37.65H147.539ZM151.639 37.65H152.139V37.15H151.639V37.65ZM151.639 55.95L151.797 56.4243L152.139 56.3104V55.95H151.639ZM150.839 56.15L150.741 55.6597L150.718 55.6643L150.695 55.6711L150.839 56.15ZM148.089 55.85L147.772 56.237L147.772 56.237L148.089 55.85ZM151.639 41V41.5H152.139V41H151.639ZM147.539 41H147.039V41.5H147.539V41ZM147.539 25.7L147.353 25.2358L147.039 25.3615V25.7H147.539ZM148.289 25.5L148.387 25.9903L148.404 25.9869L148.42 25.9824L148.289 25.5ZM151.089 25.8L150.772 26.187L150.783 26.196L150.795 26.2044L151.089 25.8ZM150.957 40.9221L154.107 38.9221L153.571 38.0779L150.421 40.0779L150.957 40.9221ZM153.492 38.8603C157.022 42.2567 160.05 45.2846 162.576 47.9444L163.301 47.2556C160.762 44.5821 157.723 41.5433 154.186 38.1397L153.492 38.8603ZM162.579 47.9467C165.149 50.6177 167.325 52.76 169.103 54.3706L169.775 53.6294C168.02 52.04 165.862 49.9157 163.299 47.2533L162.579 47.9467ZM168.939 53.9773C168.91 54.6226 168.723 55.0838 168.421 55.4109L169.156 56.0891C169.654 55.5496 169.901 54.8441 169.938 54.0227L168.939 53.9773ZM168.435 55.3964C168.135 55.6965 167.765 55.85 167.289 55.85V56.85C168.013 56.85 168.643 56.6035 169.142 56.1036L168.435 55.3964ZM167.289 55.85C166.828 55.85 166.412 55.7167 166.029 55.4431L165.448 56.2569C165.999 56.65 166.617 56.85 167.289 56.85V55.85ZM166.044 55.4537C165.624 55.1312 165.186 54.7581 164.729 54.3336L164.049 55.0664C164.525 55.5086 164.987 55.9022 165.434 56.2463L166.044 55.4537ZM164.749 54.3528L151.049 40.1528L150.329 40.8472L164.029 55.0472L164.749 54.3528ZM154.497 41.4119L150.447 40.5119L150.23 41.4881L154.28 42.3881L154.497 41.4119ZM150.699 41.3472L165.749 25.7472L165.029 25.0528L149.979 40.6528L150.699 41.3472ZM165.37 25.8996C166.172 25.9305 166.687 26.1287 167 26.4174L167.678 25.6826C167.124 25.1713 166.339 24.9362 165.408 24.9004L165.37 25.8996ZM167 26.4174C167.343 26.7339 167.489 27.0718 167.489 27.45H168.489C168.489 26.7615 168.202 26.1661 167.678 25.6826L167 26.4174ZM167.489 27.45C167.489 27.7887 167.399 28.1191 167.207 28.4481L168.071 28.9519C168.346 28.4809 168.489 27.978 168.489 27.45H167.489ZM167.2 28.4606C167.039 28.7552 166.754 29.0929 166.313 29.4704L166.964 30.2296C167.457 29.8071 167.839 29.3782 168.078 28.9394L167.2 28.4606ZM166.288 29.4935L154.038 41.5435L154.739 42.2565L166.989 30.2065L166.288 29.4935ZM147.539 38.15H151.639V37.15H147.539V38.15ZM151.139 37.65V55.95H152.139V37.65H151.139ZM151.481 55.4757C151.309 55.533 151.064 55.595 150.741 55.6597L150.937 56.6403C151.28 56.5717 151.569 56.5003 151.797 56.4243L151.481 55.4757ZM150.695 55.6711C150.415 55.7552 150.097 55.8 149.739 55.8V56.8C150.18 56.8 150.596 56.7448 150.983 56.6289L150.695 55.6711ZM149.739 55.8C149.061 55.8 148.645 55.6593 148.405 55.463L147.772 56.237C148.266 56.6407 148.95 56.8 149.739 56.8V55.8ZM148.405 55.463C148.191 55.2875 148.039 54.9873 148.039 54.45H147.039C147.039 55.1794 147.253 55.8125 147.772 56.237L148.405 55.463ZM148.039 54.45V37.65H147.039V54.45H148.039ZM151.639 40.5H147.539V41.5H151.639V40.5ZM148.039 41V25.7H147.039V41H148.039ZM147.725 26.1642C147.848 26.1149 148.062 26.0553 148.387 25.9903L148.191 25.0097C147.849 25.0781 147.563 25.1518 147.353 25.2358L147.725 26.1642ZM148.42 25.9824C148.742 25.8947 149.081 25.85 149.439 25.85V24.85C148.997 24.85 148.569 24.9053 148.157 25.0176L148.42 25.9824ZM149.439 25.85C150.117 25.85 150.532 25.9907 150.772 26.187L151.405 25.413C150.912 25.0093 150.228 24.85 149.439 24.85V25.85ZM150.795 26.2044C150.979 26.3385 151.139 26.6142 151.139 27.2H152.139C152.139 26.4524 151.932 25.7948 151.383 25.3956L150.795 26.2044ZM151.139 27.2V41H152.139V27.2H151.139ZM175.909 37.85V37.35H175.409V37.85H175.909ZM179.959 37.85H180.459V37.35H179.959V37.85ZM179.959 55.9L180.145 56.3642L180.459 56.2385V55.9H179.959ZM179.209 56.1L179.111 55.6097L179.088 55.6143L179.066 55.6211L179.209 56.1ZM176.459 55.8L176.776 55.413L176.776 55.413L176.459 55.8ZM179.959 41.2V41.7H180.459V41.2H179.959ZM175.909 41.2H175.409V41.7H175.909V41.2ZM175.909 25.7L175.723 25.2358L175.409 25.3615V25.7H175.909ZM176.659 25.5L176.757 25.9903L176.774 25.9869L176.791 25.9824L176.659 25.5ZM179.409 25.8L179.075 26.1716L179.094 26.1891L179.115 26.2044L179.409 25.8ZM175.909 38.35H179.959V37.35H175.909V38.35ZM179.459 37.85V55.9H180.459V37.85H179.459ZM179.773 55.4358C179.65 55.4851 179.436 55.5447 179.111 55.6097L179.307 56.5903C179.649 56.5219 179.935 56.4482 180.145 56.3642L179.773 55.4358ZM179.066 55.6211C178.785 55.7052 178.468 55.75 178.109 55.75V56.75C178.551 56.75 178.967 56.6948 179.353 56.5789L179.066 55.6211ZM178.109 55.75C177.431 55.75 177.016 55.6093 176.776 55.413L176.143 56.187C176.636 56.5907 177.32 56.75 178.109 56.75V55.75ZM176.776 55.413C176.561 55.2375 176.409 54.9373 176.409 54.4H175.409C175.409 55.1294 175.624 55.7625 176.143 56.187L176.776 55.413ZM176.409 54.4V37.85H175.409V54.4H176.409ZM179.959 40.7H175.909V41.7H179.959V40.7ZM176.409 41.2V25.7H175.409V41.2H176.409ZM176.095 26.1642C176.218 26.1149 176.432 26.0553 176.757 25.9903L176.561 25.0097C176.219 25.0781 175.933 25.1518 175.723 25.2358L176.095 26.1642ZM176.791 25.9824C177.112 25.8947 177.451 25.85 177.809 25.85V24.85C177.367 24.85 176.939 24.9053 176.528 25.0176L176.791 25.9824ZM177.809 25.85C178.493 25.85 178.876 25.993 179.075 26.1716L179.744 25.4284C179.276 25.007 178.592 24.85 177.809 24.85V25.85ZM179.115 26.2044C179.3 26.3385 179.459 26.6142 179.459 27.2H180.459C180.459 26.4524 180.252 25.7948 179.703 25.3956L179.115 26.2044ZM179.459 27.2V41.2H180.459V27.2H179.459ZM188.945 29.05L188.901 28.5519L188.445 28.5922V29.05H188.945ZM192.345 28.75L192.841 28.686L192.78 28.2097L192.301 28.2519L192.345 28.75ZM192.695 32.4L192.196 32.4356L192.196 32.4356L192.695 32.4ZM192.895 36.75L192.395 36.7611L192.396 36.7727L192.895 36.75ZM192.995 55.9L193.181 56.3642L193.495 56.2385V55.9H192.995ZM192.195 56.1L192.106 55.6081L192.078 55.6131L192.051 55.6211L192.195 56.1ZM189.495 55.85L189.178 56.237L189.19 56.246L189.201 56.2544L189.495 55.85ZM213.045 52.55L213.088 53.0481L213.545 53.0084V52.55H213.045ZM209.595 52.85L209.099 52.9091L209.156 53.3901L209.638 53.3481L209.595 52.85ZM208.995 44.3L208.495 44.3057L208.495 44.3115L208.995 44.3ZM208.945 25.7L208.787 25.2257L208.445 25.3396V25.7H208.945ZM209.745 25.5L209.843 25.9903L209.866 25.9857L209.889 25.9789L209.745 25.5ZM212.495 25.8L212.178 26.187L212.19 26.196L212.201 26.2044L212.495 25.8ZM213.045 51.05H213.545V50.4075L212.922 50.5653L213.045 51.05ZM213.045 55.45L213.352 55.8447L213.545 55.6945V55.45H213.045ZM211.895 56.05L212.063 56.5209L211.895 56.05ZM208.295 55.85L208.042 56.281L208.051 56.2866L208.061 56.2919L208.295 55.85ZM206.745 54.1L207.182 53.8556L207.175 53.8447L206.745 54.1ZM197.245 38.1L196.808 38.3428L196.812 38.3491L196.815 38.3553L197.245 38.1ZM195.595 35.15L195.156 35.3894L195.159 35.3951L195.595 35.15ZM193.895 32.05L193.454 32.2853L193.457 32.2915L193.895 32.05ZM192.645 29.6L193.097 29.386L192.92 29.0131L192.521 29.1157L192.645 29.6ZM188.945 30.55H188.445V31.1946L189.069 31.0343L188.945 30.55ZM188.945 26.2L188.592 25.8464L188.445 25.9929V26.2H188.945ZM190.045 25.55L189.887 25.0755L189.877 25.0791L190.045 25.55ZM193.695 25.8L193.442 26.231L193.451 26.2366L193.461 26.2419L193.695 25.8ZM195.245 27.5L194.809 27.7444L194.816 27.7563L195.245 27.5ZM204.795 43.5L205.225 43.2451L205.224 43.2437L204.795 43.5ZM206.445 46.5L206.001 46.729L206.005 46.7371L206.009 46.7451L206.445 46.5ZM208.095 49.6L207.648 49.8236L207.651 49.8297L208.095 49.6ZM209.295 52L208.843 52.214L209.019 52.5857L209.418 52.4847L209.295 52ZM188.989 29.5481L192.389 29.2481L192.301 28.2519L188.901 28.5519L188.989 29.5481ZM191.849 28.814C191.981 29.8353 192.097 31.0421 192.196 32.4356L193.194 32.3644C193.093 30.9579 192.976 29.7314 192.841 28.686L191.849 28.814ZM192.196 32.4356C192.296 33.8269 192.362 35.2687 192.395 36.7611L193.395 36.7389C193.361 35.2313 193.294 33.7731 193.194 32.3644L192.196 32.4356ZM192.396 36.7727C192.462 38.2326 192.495 39.6249 192.495 40.95H193.495C193.495 39.6084 193.462 38.2008 193.395 36.7273L192.396 36.7727ZM192.495 40.95V55.9H193.495V40.95H192.495ZM192.809 55.4358C192.692 55.4828 192.467 55.5424 192.106 55.6081L192.285 56.5919C192.657 56.5242 192.965 56.4506 193.181 56.3642L192.809 55.4358ZM192.051 55.6211C191.767 55.7064 191.466 55.75 191.145 55.75V56.75C191.558 56.75 191.956 56.6936 192.339 56.5789L192.051 55.6211ZM191.145 55.75C190.458 55.75 190.032 55.6223 189.789 55.4456L189.201 56.2544C189.691 56.611 190.366 56.75 191.145 56.75V55.75ZM189.812 55.463C189.597 55.2875 189.445 54.9873 189.445 54.45H188.445C188.445 55.1794 188.66 55.8125 189.178 56.237L189.812 55.463ZM189.445 54.45V29.05H188.445V54.45H189.445ZM213.002 52.0519L209.552 52.3519L209.638 53.3481L213.088 53.0481L213.002 52.0519ZM210.092 52.7909C209.76 50.0071 209.561 47.173 209.495 44.2885L208.495 44.3115C208.562 47.227 208.763 50.0929 209.099 52.9091L210.092 52.7909ZM209.495 44.2943C209.462 41.3627 209.445 38.5313 209.445 35.8H208.445C208.445 38.5354 208.462 41.3706 208.495 44.3057L209.495 44.2943ZM209.445 35.8V25.7H208.445V35.8H209.445ZM209.103 26.1743C209.275 26.117 209.519 26.055 209.843 25.9903L209.647 25.0097C209.304 25.0783 209.015 25.1497 208.787 25.2257L209.103 26.1743ZM209.889 25.9789C210.169 25.8948 210.487 25.85 210.845 25.85V24.85C210.404 24.85 209.988 24.9052 209.601 25.0211L209.889 25.9789ZM210.845 25.85C211.523 25.85 211.939 25.9907 212.178 26.187L212.812 25.413C212.318 25.0093 211.634 24.85 210.845 24.85V25.85ZM212.201 26.2044C212.392 26.343 212.545 26.6086 212.545 27.15H213.545C213.545 26.4248 213.332 25.7903 212.789 25.3956L212.201 26.2044ZM212.545 27.15V52.55H213.545V27.15H212.545ZM212.545 51.05V55.45H213.545V51.05H212.545ZM212.738 55.0553C212.491 55.2479 212.158 55.4252 211.727 55.5791L212.063 56.5209C212.566 56.3415 213 56.1188 213.352 55.8447L212.738 55.0553ZM211.727 55.5791C211.321 55.724 210.863 55.8 210.345 55.8V56.8C210.961 56.8 211.536 56.7094 212.063 56.5209L211.727 55.5791ZM210.345 55.8C209.607 55.8 209.008 55.6616 208.529 55.4081L208.061 56.2919C208.716 56.6384 209.483 56.8 210.345 56.8V55.8ZM208.549 55.419C208.085 55.1465 207.623 54.6446 207.181 53.8557L206.309 54.3443C206.8 55.2221 207.372 55.8868 208.042 56.281L208.549 55.419ZM207.175 53.8447L197.675 37.8447L196.815 38.3553L206.315 54.3553L207.175 53.8447ZM197.682 37.8572C197.182 36.9563 196.631 35.9722 196.031 34.9049L195.159 35.3951C195.759 36.4612 196.309 37.4437 196.808 38.3428L197.682 37.8572ZM196.034 34.9106C195.434 33.81 194.867 32.7759 194.333 31.8085L193.457 32.2915C193.99 33.2574 194.557 34.29 195.156 35.3894L196.034 34.9106ZM194.336 31.8147C193.805 30.818 193.392 30.0091 193.097 29.386L192.193 29.814C192.498 30.4575 192.919 31.282 193.454 32.2853L194.336 31.8147ZM192.521 29.1157L188.821 30.0657L189.069 31.0343L192.769 30.0843L192.521 29.1157ZM189.445 30.55V26.2H188.445V30.55H189.445ZM189.299 26.5536C189.499 26.353 189.795 26.1701 190.213 26.0209L189.877 25.0791C189.362 25.2632 188.924 25.5137 188.592 25.8464L189.299 26.5536ZM190.203 26.0243C190.649 25.8759 191.128 25.8 191.645 25.8V24.8C191.029 24.8 190.442 24.8908 189.887 25.0757L190.203 26.0243ZM191.645 25.8C192.375 25.8 192.967 25.9517 193.442 26.231L193.949 25.369C193.29 24.9816 192.515 24.8 191.645 24.8V25.8ZM193.461 26.2419C193.911 26.4799 194.368 26.9564 194.809 27.7443L195.681 27.2557C195.189 26.377 194.613 25.7201 193.929 25.3581L193.461 26.2419ZM194.816 27.7563L204.366 43.7563L205.224 43.2437L195.674 27.2437L194.816 27.7563ZM204.365 43.7549C204.892 44.645 205.438 45.6362 206.001 46.729L206.89 46.271C206.319 45.1638 205.764 44.155 205.225 43.2451L204.365 43.7549ZM206.009 46.7451C206.606 47.8054 207.152 48.8315 207.648 49.8236L208.542 49.3764C208.038 48.3685 207.485 47.328 206.881 46.2549L206.009 46.7451ZM207.651 49.8297C208.15 50.7937 208.547 51.588 208.843 52.214L209.747 51.786C209.444 51.1453 209.041 50.3396 208.539 49.3703L207.651 49.8297ZM209.418 52.4847L213.168 51.5347L212.922 50.5653L209.172 51.5153L209.418 52.4847ZM247.303 49.55L247.742 49.7885L247.744 49.7859L247.303 49.55ZM242.103 54.85L241.863 54.411L241.861 54.4126L242.103 54.85ZM227.303 54.85L227.064 55.2889L227.064 55.2889L227.303 54.85ZM222.103 49.55L221.662 49.7859L221.664 49.7885L222.103 49.55ZM222.153 32.1L222.59 32.3434L222.591 32.3407L222.153 32.1ZM227.353 26.75L227.113 26.311L227.111 26.3126L227.353 26.75ZM242.053 26.75L241.811 27.1874L241.814 27.1889L242.053 26.75ZM247.253 32.1L246.812 32.336L246.816 32.3434L247.253 32.1ZM242.203 31.65L241.824 31.9764L241.83 31.9825L242.203 31.65ZM227.203 31.65L226.827 31.3203L226.827 31.3207L227.203 31.65ZM227.203 50L226.824 50.3264L226.827 50.3293L227.203 50ZM242.253 50L242.629 50.3293L242.632 50.3264L242.253 50ZM248.703 40.8C248.703 44.2077 248.08 47.0381 246.862 49.3141L247.744 49.7859C249.059 47.3286 249.703 44.3257 249.703 40.8H248.703ZM246.864 49.3115C245.64 51.5654 243.974 53.26 241.864 54.4111L242.342 55.2889C244.632 54.04 246.433 52.2013 247.742 49.7885L246.864 49.3115ZM241.861 54.4126C239.777 55.5669 237.395 56.15 234.703 56.15V57.15C237.544 57.15 240.096 56.5331 242.345 55.2874L241.861 54.4126ZM234.703 56.15C232.045 56.15 229.662 55.5674 227.542 54.4111L227.064 55.2889C229.343 56.5326 231.894 57.15 234.703 57.15V56.15ZM227.542 54.4111C225.432 53.26 223.766 51.5654 222.542 49.3115L221.664 49.7885C222.973 52.2013 224.774 54.04 227.064 55.2889L227.542 54.4111ZM222.544 49.3141C221.326 47.0381 220.703 44.2077 220.703 40.8H219.703C219.703 44.3257 220.347 47.3286 221.662 49.7859L222.544 49.3141ZM220.703 40.8C220.703 37.3938 221.342 34.5833 222.59 32.3434L221.716 31.8566C220.364 34.2833 219.703 37.2728 219.703 40.8H220.703ZM222.591 32.3407C223.85 30.0491 225.519 28.3376 227.595 27.1874L227.111 26.3126C224.854 27.5624 223.056 29.4176 221.715 31.8593L222.591 32.3407ZM227.592 27.1889C229.713 26.0321 232.08 25.45 234.703 25.45V24.45C231.926 24.45 229.393 25.0679 227.114 26.3111L227.592 27.1889ZM234.703 25.45C237.36 25.45 239.726 26.0326 241.811 27.1874L242.295 26.3126C240.047 25.0674 237.512 24.45 234.703 24.45V25.45ZM241.814 27.1889C243.922 28.339 245.588 30.0487 246.812 32.3359L247.694 31.8641C246.385 29.418 244.584 27.561 242.292 26.3111L241.814 27.1889ZM246.816 32.3434C248.064 34.5833 248.703 37.3938 248.703 40.8H249.703C249.703 37.2728 249.042 34.2833 247.69 31.8566L246.816 32.3434ZM245.553 40.8C245.553 36.7584 244.585 33.5726 242.576 31.3175L241.83 31.9825C243.621 33.9941 244.553 36.9083 244.553 40.8H245.553ZM242.582 31.3236C240.61 29.0354 237.966 27.9 234.703 27.9V28.9C237.706 28.9 240.062 29.9313 241.824 31.9764L242.582 31.3236ZM234.703 27.9C231.471 27.9 228.83 29.0365 226.827 31.3203L227.579 31.9797C229.376 29.9302 231.735 28.9 234.703 28.9V27.9ZM226.827 31.3207C224.853 33.5759 223.903 36.7604 223.903 40.8H224.903C224.903 36.9063 225.819 33.9908 227.579 31.9793L226.827 31.3207ZM223.903 40.8C223.903 44.8403 224.854 48.0392 226.824 50.3264L227.582 49.6736C225.819 47.6275 224.903 44.6931 224.903 40.8H223.903ZM226.827 50.3293C228.799 52.5833 231.442 53.7 234.703 53.7V52.7C231.697 52.7 229.34 51.6834 227.579 49.6707L226.827 50.3293ZM234.703 53.7C237.995 53.7 240.656 52.5845 242.629 50.3293L241.877 49.6707C240.117 51.6821 237.744 52.7 234.703 52.7V53.7ZM242.632 50.3264C244.602 48.0392 245.553 44.8403 245.553 40.8H244.553C244.553 44.6931 243.637 47.6275 241.874 49.6736L242.632 50.3264ZM274.035 44.75L274.414 44.424L273.535 43.4015V44.75H274.035ZM274.035 55.8L274.167 56.2824L274.535 56.1819V55.8H274.035ZM272.285 56.1L272.347 56.5961L272.347 56.5961L272.285 56.1ZM267.885 56.05L267.994 55.5619L267.983 55.5595L267.972 55.5576L267.885 56.05ZM266.435 55.45L266.135 55.85L266.135 55.85L266.435 55.45ZM265.535 54.2L265.067 54.3756L265.067 54.3756L265.535 54.2ZM265.235 25.7L265.146 25.2081L264.735 25.2827V25.7H265.235ZM266.985 25.45L267.047 25.9461L267.057 25.9449L267.068 25.9432L266.985 25.45ZM271.285 25.45L271.171 25.9367L271.187 25.9405L271.203 25.9432L271.285 25.45ZM272.785 26.05L272.485 26.45L272.485 26.45L272.785 26.05ZM273.685 27.3L273.217 27.4756L273.217 27.4756L273.685 27.3ZM273.985 37.35H273.485V38.6861L274.363 37.6782L273.985 37.35ZM284.385 25.4V24.9H284.158L284.008 25.0718L284.385 25.4ZM289.235 26.7L288.902 27.0723L288.908 27.0783L288.915 27.0841L289.235 26.7ZM290.085 32.15L289.65 31.904L289.65 31.904L290.085 32.15ZM287.985 34.75L288.339 35.1036L288.339 35.1036L287.985 34.75ZM281.735 41L281.382 40.6464L281.048 40.9806L281.362 41.333L281.735 41ZM284.335 43.9L283.964 44.2345L283.97 44.2412L284.335 43.9ZM287.035 46.85L286.663 47.1838L286.669 47.1905L286.675 47.1971L287.035 46.85ZM289.585 49.55L289.218 49.8892L289.225 49.8966L289.585 49.55ZM291.735 51.8H292.235V51.6008L292.098 51.4561L291.735 51.8ZM291.335 53.75L290.883 53.5371L290.883 53.5371L291.335 53.75ZM290.235 55.2L289.91 54.8204L289.903 54.8264L289.896 54.8326L290.235 55.2ZM283.585 55.4L283.271 55.7891L283.28 55.7963L283.585 55.4ZM281.085 52.95L281.465 52.6246L281.464 52.624L281.085 52.95ZM273.535 44.75V55.8H274.535V44.75H273.535ZM273.904 55.3176C273.573 55.4077 273.02 55.5043 272.223 55.6039L272.347 56.5961C273.151 56.4957 273.764 56.3923 274.167 56.2824L273.904 55.3176ZM272.223 55.6039C271.443 55.7014 270.68 55.75 269.935 55.75V56.75C270.724 56.75 271.528 56.6986 272.347 56.5961L272.223 55.6039ZM269.935 55.75C269.197 55.75 268.551 55.6857 267.994 55.5619L267.777 56.5381C268.42 56.681 269.141 56.75 269.935 56.75V55.75ZM267.972 55.5576C267.471 55.4692 267.064 55.2963 266.735 55.05L266.135 55.85C266.607 56.2037 267.166 56.4308 267.798 56.5424L267.972 55.5576ZM266.735 55.05C266.422 54.8149 266.175 54.4812 266.004 54.0244L265.067 54.3756C265.296 54.9855 265.649 55.4851 266.135 55.85L266.735 55.05ZM266.004 54.0244C265.833 53.5686 265.735 52.9347 265.735 52.1H264.735C264.735 52.9986 264.838 53.7648 265.067 54.3756L266.004 54.0244ZM265.735 52.1V25.7H264.735V52.1H265.735ZM265.325 26.1919C265.677 26.1279 266.249 26.046 267.047 25.9461L266.923 24.9539C266.122 25.054 265.527 25.1387 265.146 25.2081L265.325 26.1919ZM267.068 25.9432C267.843 25.8139 268.582 25.75 269.285 25.75V24.75C268.522 24.75 267.728 24.8194 266.903 24.9568L267.068 25.9432ZM269.285 25.75C270.025 25.75 270.651 25.8145 271.171 25.9367L271.4 24.9633C270.786 24.8189 270.079 24.75 269.285 24.75V25.75ZM271.203 25.9432C271.741 26.0328 272.162 26.2074 272.485 26.45L273.085 25.65C272.609 25.2926 272.03 25.0672 271.368 24.9568L271.203 25.9432ZM272.485 26.45C272.799 26.6851 273.046 27.0188 273.217 27.4756L274.154 27.1244C273.925 26.5145 273.572 26.0149 273.085 25.65L272.485 26.45ZM273.217 27.4756C273.388 27.9314 273.485 28.5653 273.485 29.4H274.485C274.485 28.5014 274.383 27.7352 274.154 27.1244L273.217 27.4756ZM273.485 29.4V37.35H274.485V29.4H273.485ZM274.363 37.6782L284.763 25.7282L284.008 25.0718L273.608 37.0218L274.363 37.6782ZM284.385 25.9C286.613 25.9 288.074 26.3304 288.902 27.0723L289.569 26.3277C288.463 25.3362 286.691 24.9 284.385 24.9V25.9ZM288.915 27.0841C289.816 27.8348 290.235 28.7001 290.235 29.7H291.235C291.235 28.3666 290.655 27.2318 289.555 26.3159L288.915 27.0841ZM290.235 29.7C290.235 30.479 290.042 31.2111 289.65 31.904L290.521 32.396C290.996 31.5556 291.235 30.6543 291.235 29.7H290.235ZM289.65 31.904C289.248 32.6159 288.582 33.4462 287.632 34.3964L288.339 35.1036C289.322 34.1205 290.056 33.2175 290.521 32.396L289.65 31.904ZM287.632 34.3964L281.382 40.6464L282.089 41.3536L288.339 35.1036L287.632 34.3964ZM281.362 41.333C282.196 42.2669 283.063 43.234 283.964 44.2345L284.707 43.5655C283.807 42.566 282.941 41.5998 282.108 40.667L281.362 41.333ZM283.97 44.2412C284.901 45.2388 285.799 46.2197 286.663 47.1838L287.408 46.5162C286.539 45.5469 285.636 44.5612 284.701 43.5588L283.97 44.2412ZM286.675 47.1971C287.573 48.128 288.421 49.0254 289.218 49.8891L289.953 49.2109C289.15 48.3413 288.298 47.4386 287.395 46.5029L286.675 47.1971ZM289.225 49.8966C290.058 50.7626 290.773 51.5117 291.372 52.1439L292.098 51.4561C291.497 50.8216 290.78 50.0707 289.946 49.2034L289.225 49.8966ZM291.235 51.8C291.235 52.4722 291.113 53.0475 290.883 53.5371L291.788 53.9629C292.091 53.3192 292.235 52.5944 292.235 51.8H291.235ZM290.883 53.5371C290.646 54.0411 290.322 54.4672 289.91 54.8204L290.561 55.5796C291.082 55.1328 291.492 54.5922 291.788 53.9629L290.883 53.5371ZM289.896 54.8326C289.514 55.1856 289.073 55.4507 288.569 55.6285L288.902 56.5715C289.531 56.3493 290.09 56.0144 290.574 55.5674L289.896 54.8326ZM288.569 55.6285C288.059 55.8086 287.515 55.9 286.935 55.9V56.9C287.622 56.9 288.279 56.7914 288.902 56.5715L288.569 55.6285ZM286.935 55.9C285.651 55.9 284.65 55.5878 283.89 55.0037L283.28 55.7963C284.254 56.5455 285.486 56.9 286.935 56.9V55.9ZM283.9 55.011C283.059 54.332 282.247 53.5371 281.465 52.6246L280.706 53.2754C281.524 54.2295 282.379 55.068 283.271 55.789L283.9 55.011ZM281.464 52.624L274.414 44.424L273.656 45.076L280.706 53.276L281.464 52.624ZM304.697 46.2V45.7H304.197V46.2H304.697ZM304.697 55.8L304.829 56.2824L305.197 56.1819V55.8H304.697ZM302.947 56.1L302.885 55.6039L302.882 55.6042L302.947 56.1ZM298.597 56.05L298.706 55.5619L298.695 55.5595L298.684 55.5576L298.597 56.05ZM297.147 55.45L296.83 55.837L296.839 55.8437L296.847 55.85L297.147 55.45ZM296.297 54.2L295.829 54.3756L295.829 54.3756L296.297 54.2ZM296.547 26.95L296.901 27.3036L296.901 27.3036L296.547 26.95ZM298.147 26L298.312 26.4719L298.313 26.4715L298.147 26ZM302.097 25.15L302.152 25.6471L302.163 25.6456L302.097 25.15ZM317.297 27.75L316.978 28.135L316.978 28.135L317.297 27.75ZM319.197 40.9L319.601 41.1941L319.601 41.1941L319.197 40.9ZM315.397 44.3L315.158 43.8611L314.655 44.135L314.994 44.596L315.397 44.3ZM318.947 48.9L319.335 48.5844L319.335 48.5844L318.947 48.9ZM321.697 52.8L322.178 52.9374L322.236 52.7348L322.131 52.5519L321.697 52.8ZM319.847 55.5L320.132 55.9111L320.135 55.9089L319.847 55.5ZM314.997 56.15L315.146 55.6728L314.997 56.15ZM313.597 55.45L313.897 55.05L313.597 55.45ZM312.497 54.35L312.101 54.6549L312.101 54.6549L312.497 54.35ZM311.547 52.95L311.976 52.6927L311.972 52.6858L311.547 52.95ZM307.347 46.2L307.772 45.9358L307.625 45.7H307.347V46.2ZM310.847 38.6L311.174 38.9785L311.183 38.97L310.847 38.6ZM310.697 32.85L310.377 33.2341L310.386 33.2413L310.395 33.2481L310.697 32.85ZM304.647 32.05L304.558 31.5581L304.147 31.6327V32.05H304.647ZM304.647 39.55H304.147V40.05H304.647V39.55ZM304.197 46.2V55.8H305.197V46.2H304.197ZM304.566 55.3176C304.235 55.4077 303.682 55.5043 302.885 55.6039L303.009 56.5961C303.813 56.4957 304.426 56.3923 304.829 56.2824L304.566 55.3176ZM302.882 55.6042C302.137 55.7014 301.392 55.75 300.647 55.75V56.75C301.436 56.75 302.224 56.6986 303.012 56.5958L302.882 55.6042ZM300.647 55.75C299.908 55.75 299.262 55.6857 298.706 55.5619L298.489 56.5381C299.132 56.681 299.852 56.75 300.647 56.75V55.75ZM298.684 55.5576C298.183 55.4692 297.775 55.2963 297.447 55.05L296.847 55.85C297.319 56.2037 297.878 56.4308 298.51 56.5424L298.684 55.5576ZM297.464 55.063C297.178 54.8292 296.941 54.4919 296.765 54.0244L295.829 54.3756C296.054 54.9748 296.383 55.4708 296.83 55.837L297.464 55.063ZM296.765 54.0244C296.594 53.5686 296.497 52.9347 296.497 52.1H295.497C295.497 52.9986 295.6 53.7648 295.829 54.3756L296.765 54.0244ZM296.497 52.1V28.55H295.497V52.1H296.497ZM296.497 28.55C296.497 27.9349 296.657 27.5474 296.901 27.3036L296.194 26.5964C295.704 27.086 295.497 27.7651 295.497 28.55H296.497ZM296.901 27.3036C297.236 26.9682 297.699 26.6865 298.312 26.4719L297.982 25.5281C297.262 25.7802 296.658 26.1318 296.194 26.5964L296.901 27.3036ZM298.313 26.4715C299.403 26.0869 300.681 25.8104 302.152 25.6469L302.042 24.6531C300.513 24.8229 299.158 25.1131 297.981 25.5285L298.313 26.4715ZM302.163 25.6456C303.639 25.4489 305.217 25.35 306.897 25.35V24.35C305.178 24.35 303.555 24.4511 302.031 24.6544L302.163 25.6456ZM306.897 25.35C311.438 25.35 314.771 26.306 316.978 28.135L317.616 27.365C315.157 25.3273 311.556 24.35 306.897 24.35V25.35ZM316.978 28.135C319.186 29.9641 320.297 32.4338 320.297 35.6H321.297C321.297 32.1662 320.075 29.4025 317.616 27.365L316.978 28.135ZM320.297 35.6C320.297 37.5763 319.789 39.2363 318.793 40.6059L319.601 41.1941C320.739 39.6303 321.297 37.757 321.297 35.6H320.297ZM318.793 40.6059C317.766 42.0179 316.554 43.0995 315.158 43.8611L315.636 44.7389C317.174 43.9005 318.495 42.7155 319.601 41.1941L318.793 40.6059ZM314.994 44.596C316.199 46.2354 317.387 47.7753 318.559 49.2156L319.335 48.5844C318.174 47.158 316.996 45.6313 315.8 44.004L314.994 44.596ZM318.559 49.2156C319.715 50.635 320.614 51.9121 321.263 53.0481L322.131 52.5519C321.447 51.3546 320.513 50.0316 319.335 48.5844L318.559 49.2156ZM321.216 52.6626C320.911 53.7314 320.356 54.5304 319.559 55.0911L320.135 55.9089C321.138 55.2029 321.817 54.2019 322.178 52.9374L321.216 52.6626ZM319.562 55.0889C318.783 55.6284 317.9 55.9 316.897 55.9V56.9C318.094 56.9 319.178 56.5716 320.132 55.9111L319.562 55.0889ZM316.897 55.9C316.199 55.9 315.619 55.8205 315.146 55.6728L314.848 56.6272C315.442 56.8129 316.128 56.9 316.897 56.9V55.9ZM315.146 55.6728C314.661 55.5211 314.247 55.3121 313.897 55.05L313.297 55.85C313.748 56.1879 314.267 56.4456 314.848 56.6272L315.146 55.6728ZM313.897 55.05C313.537 54.7796 313.202 54.4459 312.893 54.0451L312.101 54.6549C312.459 55.1208 312.858 55.5204 313.297 55.85L313.897 55.05ZM312.893 54.0451C312.573 53.628 312.267 53.1774 311.976 52.6928L311.118 53.2072C311.428 53.7226 311.755 54.2053 312.101 54.6549L312.893 54.0451ZM311.972 52.6858L307.772 45.9358L306.923 46.4642L311.123 53.2142L311.972 52.6858ZM307.347 45.7H304.697V46.7H307.347V45.7ZM307.847 40.05C309.196 40.05 310.325 39.7117 311.174 38.9784L310.52 38.2216C309.903 38.755 309.031 39.05 307.847 39.05V40.05ZM311.183 38.97C312.048 38.1837 312.447 37.0658 312.447 35.7H311.447C311.447 36.8675 311.113 37.683 310.511 38.23L311.183 38.97ZM312.447 35.7C312.447 34.3138 311.984 33.2 311 32.4519L310.395 33.2481C311.077 33.7667 311.447 34.5529 311.447 35.7H312.447ZM311.017 32.4659C310.083 31.6875 308.656 31.35 306.847 31.35V32.35C308.571 32.35 309.711 32.6791 310.377 33.2341L311.017 32.4659ZM306.847 31.35C306.339 31.35 305.918 31.3668 305.592 31.4031L305.702 32.3969C305.976 32.3665 306.355 32.35 306.847 32.35V31.35ZM305.592 31.4031C305.278 31.4379 304.933 31.4898 304.558 31.5581L304.737 32.5419C305.094 32.4769 305.416 32.4287 305.702 32.3969L305.592 31.4031ZM304.147 32.05V39.55H305.147V32.05H304.147ZM304.647 40.05H307.847V39.05H304.647V40.05ZM333.306 26.6L333.053 26.169L332.903 26.257L332.84 26.4188L333.306 26.6ZM335.856 25.65L335.732 25.1657L335.728 25.1666L335.856 25.65ZM343.756 25.95L343.573 26.4151L343.58 26.418L343.588 26.4206L343.756 25.95ZM346.256 28.2L346.729 28.0364L346.728 28.0328L346.256 28.2ZM348.206 34.25L348.685 34.1044L348.685 34.1044L348.206 34.25ZM350.306 41.4L349.825 41.5365L349.826 41.5382L350.306 41.4ZM352.356 48.65L351.875 48.7838L351.875 48.7856L352.356 48.65ZM354.106 54.95L354.486 55.2754L354.659 55.0742L354.589 54.8184L354.106 54.95ZM352.306 56.05L352.148 55.5757L352.14 55.5786L352.131 55.5818L352.306 56.05ZM347.406 56.3L347.285 56.7851L347.292 56.7867L347.406 56.3ZM346.056 55.7L345.744 56.0904L345.753 56.0976L345.762 56.1044L346.056 55.7ZM345.206 54.65L344.752 54.8595L344.759 54.8735L344.766 54.887L345.206 54.65ZM344.656 53.15L344.173 53.2762L344.175 53.2837L344.177 53.2911L344.656 53.15ZM343.756 49.7L344.24 49.5738L344.143 49.2H343.756V49.7ZM334.706 49.7V49.2H334.322L334.223 49.5712L334.706 49.7ZM333.906 52.8L333.421 52.6787L333.421 52.6787L333.906 52.8ZM333.106 55.9L333.275 56.3709L333.522 56.2826L333.59 56.0288L333.106 55.9ZM331.606 56.3L331.514 55.8086L331.496 55.812L331.478 55.8169L331.606 56.3ZM325.956 55.65L325.656 56.05L325.666 56.0569L325.675 56.0635L325.956 55.65ZM324.956 51.8L324.476 51.6626L324.476 51.6626L324.956 51.8ZM325.406 50.15L325.89 50.2772L325.89 50.2755L325.406 50.15ZM326.356 46.8L325.881 46.6454L325.878 46.6563L326.356 46.8ZM327.756 42.5L328.232 42.655L328.233 42.652L327.756 42.5ZM329.356 37.7L328.884 37.5361L328.884 37.5361L329.356 37.7ZM330.956 33.1L331.429 33.2647L331.43 33.2613L330.956 33.1ZM332.306 29.2L331.839 29.0214L331.835 29.0336L332.306 29.2ZM339.306 33.05V32.55H338.946L338.832 32.8919L339.306 33.05ZM337.706 37.75L337.234 37.5864L337.232 37.5919L337.706 37.75ZM336.156 42.95L335.673 42.8223L335.507 43.45H336.156V42.95ZM342.356 42.95V43.45H343.003L342.84 42.8245L342.356 42.95ZM340.906 37.7L340.424 37.83L340.427 37.8411L340.906 37.7ZM339.606 33.05L340.086 32.9095L339.981 32.55H339.606V33.05ZM333.56 27.031C334.068 26.7321 334.866 26.4293 335.984 26.1333L335.728 25.1666C334.58 25.4707 333.678 25.8013 333.053 26.169L333.56 27.031ZM335.981 26.1342C337.108 25.8444 338.233 25.7 339.356 25.7V24.7C338.146 24.7 336.938 24.8556 335.732 25.1658L335.981 26.1342ZM339.356 25.7C340.974 25.7 342.376 25.9427 343.573 26.4151L343.94 25.4849C342.603 24.9573 341.072 24.7 339.356 24.7V25.7ZM343.588 26.4206C344.786 26.8509 345.481 27.5109 345.785 28.3672L346.728 28.0328C346.298 26.8225 345.327 25.9824 343.925 25.4794L343.588 26.4206ZM345.784 28.3636C346.381 30.0894 347.029 32.0999 347.728 34.3956L348.685 34.1044C347.983 31.8001 347.332 29.7772 346.729 28.0364L345.784 28.3636ZM347.728 34.3956C348.427 36.6924 349.126 39.0727 349.825 41.5365L350.787 41.2635C350.087 38.794 349.386 36.4076 348.685 34.1044L347.728 34.3956ZM349.826 41.5382C350.526 43.9701 351.208 46.3853 351.875 48.7838L352.838 48.5162C352.171 46.1147 351.487 43.6965 350.787 41.2618L349.826 41.5382ZM351.875 48.7856C352.542 51.1513 353.125 53.2499 353.624 55.0816L354.589 54.8184C354.088 52.9834 353.505 50.8821 352.838 48.5144L351.875 48.7856ZM353.727 54.6246C353.404 55.0015 352.893 55.3274 352.148 55.5757L352.465 56.5243C353.32 56.2393 354.009 55.8319 354.486 55.2754L353.727 54.6246ZM352.131 55.5818C351.401 55.8557 350.513 56 349.456 56V57C350.6 57 351.612 56.8443 352.482 56.5182L352.131 55.5818ZM349.456 56C348.682 56 348.039 55.9352 347.521 55.8133L347.292 56.7867C347.907 56.9315 348.631 57 349.456 57V56ZM347.528 55.8149C347.044 55.6939 346.656 55.5175 346.351 55.2956L345.762 56.1044C346.191 56.4159 346.702 56.6394 347.285 56.7851L347.528 55.8149ZM346.369 55.3096C346.095 55.0908 345.853 54.7961 345.647 54.413L344.766 54.887C345.027 55.3706 345.351 55.7758 345.744 56.0904L346.369 55.3096ZM345.66 54.4405C345.473 54.0338 345.297 53.5574 345.136 53.0089L344.177 53.2911C344.349 53.8759 344.54 54.3996 344.752 54.8595L345.66 54.4405ZM345.14 53.0238L344.24 49.5738L343.273 49.8262L344.173 53.2762L345.14 53.0238ZM343.756 49.2H334.706V50.2H343.756V49.2ZM334.223 49.5712C333.956 50.5738 333.689 51.6097 333.421 52.6787L334.392 52.9213C334.658 51.857 334.924 50.8262 335.19 49.8288L334.223 49.5712ZM333.421 52.6787C333.155 53.743 332.889 54.7738 332.623 55.7712L333.59 56.0288C333.857 55.0262 334.124 53.9903 334.392 52.9213L333.421 52.6787ZM332.938 55.4291C332.499 55.5862 332.024 55.713 331.514 55.8086L331.699 56.7914C332.255 56.687 332.781 56.5472 333.275 56.3709L332.938 55.4291ZM331.478 55.8169C331.033 55.9354 330.463 56 329.756 56V57C330.517 57 331.18 56.9312 331.735 56.7831L331.478 55.8169ZM329.756 56C328.095 56 326.949 55.72 326.238 55.2365L325.675 56.0635C326.631 56.7134 328.018 57 329.756 57V56ZM326.256 55.25C325.587 54.7481 325.256 54.0821 325.256 53.2H324.256C324.256 54.3846 324.726 55.3519 325.656 56.05L326.256 55.25ZM325.256 53.2C325.256 52.7816 325.316 52.3612 325.437 51.9374L324.476 51.6626C324.33 52.1722 324.256 52.685 324.256 53.2H325.256ZM325.437 51.9374C325.572 51.4664 325.723 50.9129 325.89 50.2772L324.923 50.0228C324.757 50.6538 324.608 51.2003 324.476 51.6626L325.437 51.9374ZM325.89 50.2755C326.122 49.3838 326.436 48.2736 326.835 46.9437L325.878 46.6563C325.477 47.993 325.158 49.1162 324.922 50.0245L325.89 50.2755ZM326.832 46.9545C327.265 45.6214 327.732 44.1882 328.232 42.655L327.281 42.345C326.781 43.8785 326.314 45.3119 325.881 46.6455L326.832 46.9545ZM328.233 42.652C328.731 41.0895 329.263 39.4935 329.829 37.8639L328.884 37.5361C328.316 39.1732 327.781 40.7771 327.28 42.348L328.233 42.652ZM329.829 37.8639C330.395 36.2308 330.929 34.6977 331.429 33.2647L330.484 32.9353C329.984 34.3689 329.451 35.9025 328.884 37.5361L329.829 37.8639ZM331.43 33.2613C331.929 31.7959 332.379 30.4977 332.778 29.3664L331.835 29.0336C331.434 30.169 330.984 31.4708 330.483 32.9387L331.43 33.2613ZM332.773 29.3786C333.207 28.2455 333.54 27.3799 333.772 26.7812L332.84 26.4188C332.607 27.0201 332.273 27.8878 331.839 29.0214L332.773 29.3786ZM338.832 32.8919C338.366 34.2897 337.833 35.8545 337.234 37.5864L338.179 37.9136C338.779 36.1788 339.313 34.6103 339.781 33.2081L338.832 32.8919ZM337.232 37.5919C336.662 39.3021 336.142 41.0456 335.673 42.8223L336.64 43.0777C337.104 41.3211 337.618 39.5979 338.181 37.9081L337.232 37.5919ZM336.156 43.45H342.356V42.45H336.156V43.45ZM342.84 42.8245C342.372 41.0195 341.888 39.2643 341.386 37.5589L340.427 37.8411C340.925 39.5357 341.407 41.2804 341.872 43.0755L342.84 42.8245ZM341.389 37.57C340.922 35.834 340.488 34.2804 340.086 32.9095L339.127 33.1904C339.525 34.5529 339.958 36.0993 340.424 37.83L341.389 37.57ZM339.606 32.55H339.306V33.55H339.606V32.55ZM366.704 49.75H366.204V50.1272L366.567 50.2308L366.704 49.75ZM368.504 50.05L368.459 50.5479L368.47 50.549L368.481 50.5495L368.504 50.05ZM373.904 49.3L374.166 49.7259L374.171 49.7231L373.904 49.3ZM374.154 44.35L373.886 44.7718L373.886 44.7718L374.154 44.35ZM366.704 43.65V43.15H366.204V43.65H366.704ZM366.704 37.55H366.204V38.05H366.704V37.55ZM373.454 36.75L373.142 36.3594L373.132 36.3675L373.454 36.75ZM373.304 32.25L373.01 32.6545L373.019 32.6605L373.304 32.25ZM368.204 31.5L368.179 31.0006L368.178 31.0007L368.204 31.5ZM366.704 31.65L366.615 31.1581L366.204 31.2327V31.65H366.704ZM367.954 56.75L367.932 57.2495L367.954 56.75ZM365.554 56.55L365.492 57.0461L365.495 57.0464L365.554 56.55ZM363.154 56.15L363.256 55.6605L363.246 55.6585L363.236 55.6568L363.154 56.15ZM360.954 55.55L361.14 55.0857L361.132 55.0829L360.954 55.55ZM358.754 26.95L359.108 27.3036L359.108 27.3036L358.754 26.95ZM360.354 26L360.519 26.4719L360.521 26.4715L360.354 26ZM364.604 25.15L364.653 25.6477L364.663 25.6466L364.604 25.15ZM379.704 27L379.969 26.5757L379.969 26.5757L379.704 27ZM381.854 37.55L382.242 37.8653L382.247 37.8594L381.854 37.55ZM378.354 39.9L378.193 39.4267L376.667 39.9469L378.219 40.3815L378.354 39.9ZM382.504 42.45L382.131 42.7828L382.136 42.7883L382.504 42.45ZM380.504 54.45L380.775 54.8704L380.776 54.8695L380.504 54.45ZM366.567 50.2308C367.075 50.3759 367.709 50.4797 368.459 50.5479L368.549 49.5521C367.833 49.4869 367.267 49.3908 366.841 49.2692L366.567 50.2308ZM368.481 50.5495C369.222 50.5831 369.929 50.6 370.604 50.6V49.6C369.946 49.6 369.253 49.5835 368.527 49.5505L368.481 50.5495ZM370.604 50.6C372.002 50.6 373.2 50.3205 374.166 49.7258L373.642 48.8742C372.875 49.3461 371.873 49.6 370.604 49.6V50.6ZM374.171 49.7231C375.232 49.0548 375.754 48.0186 375.754 46.7H374.754C374.754 47.7147 374.376 48.4119 373.638 48.8769L374.171 49.7231ZM375.754 46.7C375.754 45.4807 375.339 44.5113 374.423 43.9282L373.886 44.7718C374.436 45.122 374.754 45.7193 374.754 46.7H375.754ZM374.423 43.9282C373.57 43.3855 372.338 43.15 370.804 43.15V44.15C372.27 44.15 373.272 44.3812 373.886 44.7718L374.423 43.9282ZM370.804 43.15H366.704V44.15H370.804V43.15ZM366.204 43.65V49.75H367.204V43.65H366.204ZM366.704 38.05H370.354V37.05H366.704V38.05ZM370.354 38.05C371.827 38.05 373.007 37.7802 373.776 37.1325L373.132 36.3675C372.635 36.7864 371.748 37.05 370.354 37.05V38.05ZM373.766 37.1404C374.577 36.4921 374.954 35.5498 374.954 34.4H373.954C373.954 35.3168 373.665 35.9412 373.142 36.3596L373.766 37.1404ZM374.954 34.4C374.954 33.3291 374.485 32.4622 373.59 31.8395L373.019 32.6605C373.657 33.1045 373.954 33.6709 373.954 34.4H374.954ZM373.598 31.8456C372.74 31.2213 371.497 30.95 369.954 30.95V31.95C371.411 31.95 372.402 32.2121 373.01 32.6544L373.598 31.8456ZM369.954 30.95C369.444 30.95 368.852 30.967 368.179 31.0006L368.229 31.9994C368.89 31.9663 369.465 31.95 369.954 31.95V30.95ZM368.178 31.0007C367.536 31.0345 367.012 31.0859 366.615 31.1581L366.794 32.1419C367.13 32.0808 367.606 32.0322 368.23 31.9993L368.178 31.0007ZM366.204 31.65V37.55H367.204V31.65H366.204ZM369.954 56.3C369.397 56.3 368.738 56.2836 367.976 56.2505L367.932 57.2495C368.704 57.2831 369.378 57.3 369.954 57.3V56.3ZM367.976 56.2505C367.223 56.2177 366.436 56.1522 365.614 56.0536L365.495 57.0464C366.339 57.1478 367.152 57.2156 367.932 57.2495L367.976 56.2505ZM365.616 56.0539C364.83 55.9556 364.043 55.8245 363.256 55.6605L363.052 56.6395C363.865 56.8089 364.678 56.9444 365.492 57.0461L365.616 56.0539ZM363.236 55.6568C362.467 55.5286 361.769 55.3375 361.14 55.0858L360.768 56.0142C361.472 56.2958 362.241 56.5047 363.072 56.6432L363.236 55.6568ZM361.132 55.0829C360.279 54.7569 359.679 54.3261 359.291 53.8116C358.907 53.3017 358.704 52.6738 358.704 51.9H357.704C357.704 52.8596 357.96 53.7066 358.492 54.4134C359.021 55.1156 359.796 55.6431 360.776 56.0171L361.132 55.0829ZM358.704 51.9V28.55H357.704V51.9H358.704ZM358.704 28.55C358.704 27.9349 358.864 27.5474 359.108 27.3036L358.401 26.5964C357.911 27.086 357.704 27.7651 357.704 28.55H358.704ZM359.108 27.3036C359.443 26.9682 359.906 26.6865 360.519 26.4719L360.189 25.5281C359.469 25.7802 358.865 26.1318 358.401 26.5964L359.108 27.3036ZM360.521 26.4715C361.604 26.0892 362.978 25.8118 364.653 25.6476L364.555 24.6524C362.831 24.8215 361.371 25.1108 360.188 25.5285L360.521 26.4715ZM364.663 25.6466C366.342 25.449 368.073 25.35 369.854 25.35V24.35C368.036 24.35 366.266 24.451 364.546 24.6534L364.663 25.6466ZM369.854 25.35C374.076 25.35 377.252 26.0612 379.44 27.4243L379.969 26.5757C377.556 25.0721 374.165 24.35 369.854 24.35V25.35ZM379.44 27.4243C381.575 28.7553 382.654 30.8006 382.654 33.65H383.654C383.654 30.4994 382.433 28.1114 379.969 26.5757L379.44 27.4243ZM382.654 33.65C382.654 35.0463 382.253 36.2352 381.461 37.2406L382.247 37.8594C383.188 36.6648 383.654 35.2537 383.654 33.65H382.654ZM381.466 37.2347C380.666 38.2195 379.582 38.9531 378.193 39.4267L378.515 40.3733C380.059 39.8469 381.309 39.0139 382.242 37.8653L381.466 37.2347ZM378.219 40.3815C379.799 40.8237 381.098 41.6243 382.131 42.7828L382.877 42.1172C381.711 40.8091 380.243 39.9097 378.489 39.4185L378.219 40.3815ZM382.136 42.7883C383.175 43.9186 383.704 45.3431 383.704 47.1H384.704C384.704 45.1235 384.1 43.4481 382.872 42.1117L382.136 42.7883ZM383.704 47.1C383.704 50.255 382.537 52.5353 380.232 54.0305L380.776 54.8695C383.404 53.1647 384.704 50.545 384.704 47.1H383.704ZM380.233 54.0296C377.915 55.522 374.51 56.3 369.954 56.3V57.3C374.598 57.3 378.226 56.5113 380.775 54.8704L380.233 54.0296Z" fill="white"/>
<defs>
<filter id="filter0_i_3880_6035" x="30.4932" y="64.4629" width="14.9873" height="10.96" filterUnits="userSpaceOnUse" color-interpolation-filters="sRGB">
<feFlood flood-opacity="0" result="BackgroundImageFix"/>
<feBlend mode="normal" in="SourceGraphic" in2="BackgroundImageFix" result="shape"/>
<feColorMatrix in="SourceAlpha" type="matrix" values="0 0 0 0 0 0 0 0 0 0 0 0 0 0 0 0 0 0 127 0" result="hardAlpha"/>
<feOffset dx="-3" dy="8"/>
<feGaussianBlur stdDeviation="2"/>
<feComposite in2="hardAlpha" operator="arithmetic" k2="-1" k3="1"/>
<feColorMatrix type="matrix" values="0 0 0 0 0 0 0 0 0 0 0 0 0 0 0 0 0 0 0.25 0"/>
<feBlend mode="normal" in2="shape" result="effect1_innerShadow_3880_6035"/>
</filter>
<filter id="filter1_i_3880_6035" x="29.8096" y="60.5977" width="14.2119" height="9.73242" filterUnits="userSpaceOnUse" color-interpolation-filters="sRGB">
<feFlood flood-opacity="0" result="BackgroundImageFix"/>
<feBlend mode="normal" in="SourceGraphic" in2="BackgroundImageFix" result="shape"/>
<feColorMatrix in="SourceAlpha" type="matrix" values="0 0 0 0 0 0 0 0 0 0 0 0 0 0 0 0 0 0 127 0" result="hardAlpha"/>
<feOffset dy="4"/>
<feGaussianBlur stdDeviation="2"/>
<feComposite in2="hardAlpha" operator="arithmetic" k2="-1" k3="1"/>
<feColorMatrix type="matrix" values="0 0 0 0 0 0 0 0 0 0 0 0 0 0 0 0 0 0 0.25 0"/>
<feBlend mode="normal" in2="shape" result="effect1_innerShadow_3880_6035"/>
</filter>
<filter id="filter2_d_3880_6035" x="43.0332" y="52.4678" width="46.457" height="19.5303" filterUnits="userSpaceOnUse" color-interpolation-filters="sRGB">
<feFlood flood-opacity="0" result="BackgroundImageFix"/>
<feColorMatrix in="SourceAlpha" type="matrix" values="0 0 0 0 0 0 0 0 0 0 0 0 0 0 0 0 0 0 127 0" result="hardAlpha"/>
<feOffset dx="-3" dy="2"/>
<feGaussianBlur stdDeviation="2"/>
<feComposite in2="hardAlpha" operator="out"/>
<feColorMatrix type="matrix" values="0 0 0 0 0 0 0 0 0 0 0 0 0 0 0 0 0 0 0.25 0"/>
<feBlend mode="normal" in2="BackgroundImageFix" result="effect1_dropShadow_3880_6035"/>
<feBlend mode="normal" in="SourceGraphic" in2="effect1_dropShadow_3880_6035" result="shape"/>
</filter>
<filter id="filter3_i_3880_6035" x="17.8057" y="53.2026" width="20.2568" height="11.4277" filterUnits="userSpaceOnUse" color-interpolation-filters="sRGB">
<feFlood flood-opacity="0" result="BackgroundImageFix"/>
<feBlend mode="normal" in="SourceGraphic" in2="BackgroundImageFix" result="shape"/>
<feColorMatrix in="SourceAlpha" type="matrix" values="0 0 0 0 0 0 0 0 0 0 0 0 0 0 0 0 0 0 127 0" result="hardAlpha"/>
<feOffset dx="3" dy="-9"/>
<feGaussianBlur stdDeviation="2.5"/>
<feComposite in2="hardAlpha" operator="arithmetic" k2="-1" k3="1"/>
<feColorMatrix type="matrix" values="0 0 0 0 0 0 0 0 0 0 0 0 0 0 0 0 0 0 0.25 0"/>
<feBlend mode="normal" in2="shape" result="effect1_innerShadow_3880_6035"/>
</filter>
<filter id="filter4_d_3880_6035" x="44.3955" y="52.4263" width="12.4756" height="13.9927" filterUnits="userSpaceOnUse" color-interpolation-filters="sRGB">
<feFlood flood-opacity="0" result="BackgroundImageFix"/>
<feColorMatrix in="SourceAlpha" type="matrix" values="0 0 0 0 0 0 0 0 0 0 0 0 0 0 0 0 0 0 127 0" result="hardAlpha"/>
<feOffset dx="1"/>
<feGaussianBlur stdDeviation="2"/>
<feComposite in2="hardAlpha" operator="out"/>
<feColorMatrix type="matrix" values="0 0 0 0 1 0 0 0 0 1 0 0 0 0 1 0 0 0 0.81 0"/>
<feBlend mode="normal" in2="BackgroundImageFix" result="effect1_dropShadow_3880_6035"/>
<feBlend mode="normal" in="SourceGraphic" in2="effect1_dropShadow_3880_6035" result="shape"/>
</filter>
<filter id="filter5_i_3880_6035" x="-11.7773" y="6.81738" width="60.3867" height="59.6987" filterUnits="userSpaceOnUse" color-interpolation-filters="sRGB">
<feFlood flood-opacity="0" result="BackgroundImageFix"/>
<feBlend mode="normal" in="SourceGraphic" in2="BackgroundImageFix" result="shape"/>
<feColorMatrix in="SourceAlpha" type="matrix" values="0 0 0 0 0 0 0 0 0 0 0 0 0 0 0 0 0 0 127 0" result="hardAlpha"/>
<feOffset dx="-45" dy="-52"/>
<feGaussianBlur stdDeviation="19.25"/>
<feComposite in2="hardAlpha" operator="arithmetic" k2="-1" k3="1"/>
<feColorMatrix type="matrix" values="0 0 0 0 1 0 0 0 0 1 0 0 0 0 1 0 0 0 1 0"/>
<feBlend mode="normal" in2="shape" result="effect1_innerShadow_3880_6035"/>
</filter>
<filter id="filter6_i_3880_6035" x="20.0205" y="48.4326" width="32.1768" height="23.915" filterUnits="userSpaceOnUse" color-interpolation-filters="sRGB">
<feFlood flood-opacity="0" result="BackgroundImageFix"/>
<feBlend mode="normal" in="SourceGraphic" in2="BackgroundImageFix" result="shape"/>
<feColorMatrix in="SourceAlpha" type="matrix" values="0 0 0 0 0 0 0 0 0 0 0 0 0 0 0 0 0 0 127 0" result="hardAlpha"/>
<feOffset dx="17" dy="-6"/>
<feGaussianBlur stdDeviation="15"/>
<feComposite in2="hardAlpha" operator="arithmetic" k2="-1" k3="1"/>
<feColorMatrix type="matrix" values="0 0 0 0 0 0 0 0 0 0 0 0 0 0 0 0 0 0 1 0"/>
<feBlend mode="normal" in2="shape" result="effect1_innerShadow_3880_6035"/>
</filter>
</defs>
</svg>
