<svg width="62" height="84" viewBox="0 0 62 84" fill="none" xmlns="http://www.w3.org/2000/svg">
<path d="M3.82832 11.25L5.40332 10.25C7.16999 11.95 8.68665 13.4667 9.95332 14.8C11.2367 16.1333 12.32 17.2 13.2033 18C13.1867 18.3667 13.0783 18.6583 12.8783 18.875C12.6783 19.075 12.4283 19.175 12.1283 19.175C11.845 19.175 11.5867 19.0917 11.3533 18.925C11.1367 18.7583 10.9117 18.5667 10.6783 18.35L3.82832 11.25ZM5.67832 11.95L3.65332 11.5L11.1783 3.7C11.6117 3.71667 11.9367 3.825 12.1533 4.025C12.37 4.225 12.4783 4.45833 12.4783 4.725C12.4783 4.94167 12.42 5.15 12.3033 5.35C12.2033 5.53333 12.0367 5.725 11.8033 5.925L5.67832 11.95ZM2.25332 9.825H4.30332V18.975C4.20332 19.0083 4.06999 19.0417 3.90332 19.075C3.73665 19.125 3.55332 19.15 3.35332 19.15C2.98665 19.15 2.71165 19.075 2.52832 18.925C2.34499 18.775 2.25332 18.5417 2.25332 18.225V9.825ZM4.30332 11.5H2.25332V3.85C2.33665 3.81667 2.46165 3.78333 2.62832 3.75C2.81165 3.7 3.00332 3.675 3.20332 3.675C3.56999 3.675 3.84499 3.75 4.02832 3.9C4.21165 4.03333 4.30332 4.26667 4.30332 4.6V11.5ZM18.9385 9.925H20.9635V18.95C20.8801 18.9833 20.7551 19.0167 20.5885 19.05C20.4218 19.1 20.2385 19.125 20.0385 19.125C19.6718 19.125 19.3968 19.05 19.2135 18.9C19.0301 18.75 18.9385 18.5167 18.9385 18.2V9.925ZM20.9635 11.6H18.9385V3.85C19.0218 3.81667 19.1468 3.78333 19.3135 3.75C19.4968 3.7 19.6885 3.675 19.8885 3.675C20.2551 3.675 20.5218 3.75 20.6885 3.9C20.8718 4.03333 20.9635 4.26667 20.9635 4.6V11.6ZM27.9564 5.525L29.6564 5.375C29.7231 5.89167 29.7814 6.5 29.8314 7.2C29.8814 7.9 29.9148 8.625 29.9314 9.375C29.9648 10.1083 29.9814 10.8083 29.9814 11.475V18.95C29.8981 18.9833 29.7648 19.0167 29.5814 19.05C29.4148 19.1 29.2398 19.125 29.0564 19.125C28.6898 19.125 28.4148 19.0583 28.2314 18.925C28.0481 18.775 27.9564 18.5417 27.9564 18.225V5.525ZM40.0064 17.275L38.2814 17.425C38.1148 16.025 38.0148 14.6 37.9814 13.15C37.9648 11.6833 37.9564 10.2667 37.9564 8.9V3.85C38.0564 3.81667 38.1898 3.78333 38.3564 3.75C38.5231 3.7 38.7064 3.675 38.9064 3.675C39.2731 3.675 39.5481 3.75 39.7314 3.9C39.9148 4.03333 40.0064 4.25833 40.0064 4.575V17.275ZM40.0064 16.525V18.725C39.8564 18.8417 39.6648 18.9417 39.4314 19.025C39.1981 19.1083 38.9398 19.15 38.6564 19.15C38.2564 19.15 37.9148 19.075 37.6314 18.925C37.3481 18.7583 37.0898 18.4667 36.8564 18.05L32.1064 10.05C31.8564 9.6 31.5814 9.10833 31.2814 8.575C30.9814 8.025 30.6981 7.50833 30.4314 7.025C30.1648 6.525 29.9564 6.11667 29.8064 5.8L27.9564 6.275V4.1C28.0898 3.96667 28.2731 3.85833 28.5064 3.775C28.7564 3.69167 29.0231 3.65 29.3064 3.65C29.7064 3.65 30.0481 3.73333 30.3314 3.9C30.6148 4.05 30.8731 4.33333 31.1064 4.75L35.8814 12.75C36.1481 13.2 36.4231 13.7 36.7064 14.25C37.0064 14.7833 37.2814 15.3 37.5314 15.8C37.7814 16.2833 37.9814 16.6833 38.1314 17L40.0064 16.525ZM60.5854 11.4C60.5854 13.1333 60.2687 14.5917 59.6354 15.775C59.002 16.9417 58.1354 17.825 57.0354 18.425C55.952 19.025 54.7187 19.325 53.3354 19.325C51.9687 19.325 50.7354 19.025 49.6354 18.425C48.5354 17.825 47.6687 16.9417 47.0354 15.775C46.402 14.5917 46.0854 13.1333 46.0854 11.4C46.0854 9.66667 46.4104 8.21667 47.0604 7.05C47.7104 5.86667 48.577 4.975 49.6604 4.375C50.7604 3.775 51.9854 3.475 53.3354 3.475C54.702 3.475 55.927 3.775 57.0104 4.375C58.1104 4.975 58.977 5.86667 59.6104 7.05C60.2604 8.21667 60.5854 9.66667 60.5854 11.4ZM58.5104 11.4C58.5104 9.41667 58.0354 7.89167 57.0854 6.825C56.152 5.74167 54.902 5.2 53.3354 5.2C51.7854 5.2 50.5354 5.74167 49.5854 6.825C48.652 7.89167 48.1854 9.41667 48.1854 11.4C48.1854 13.3833 48.652 14.9167 49.5854 16C50.5187 17.0667 51.7687 17.6 53.3354 17.6C54.9187 17.6 56.177 17.0667 57.1104 16C58.0437 14.9167 58.5104 13.3833 58.5104 11.4Z" fill="black"/>
<path d="M6.04355 32.375V37.9C5.86022 37.95 5.56855 38 5.16856 38.05C4.76856 38.1 4.37689 38.125 3.99355 38.125C3.61022 38.125 3.26855 38.0917 2.96855 38.025C2.68522 37.975 2.44355 37.875 2.24355 37.725C2.04355 37.575 1.89355 37.3667 1.79355 37.1C1.69355 36.8333 1.64355 36.4833 1.64355 36.05V22.85C1.82689 22.8167 2.11855 22.775 2.51855 22.725C2.91855 22.6583 3.30189 22.625 3.66856 22.625C4.05189 22.625 4.38522 22.6583 4.66855 22.725C4.96855 22.775 5.21855 22.875 5.41855 23.025C5.61855 23.175 5.76856 23.3833 5.86855 23.65C5.96855 23.9167 6.01855 24.2667 6.01855 24.7V28.675L11.2186 22.7C12.3519 22.7 13.1602 22.9167 13.6436 23.35C14.1436 23.7667 14.3936 24.2667 14.3936 24.85C14.3936 25.2833 14.2852 25.6917 14.0686 26.075C13.8519 26.4583 13.5019 26.8917 13.0186 27.375L9.89355 30.5C10.3102 30.9667 10.7436 31.45 11.1936 31.95C11.6602 32.45 12.1102 32.9417 12.5436 33.425C12.9936 33.8917 13.4186 34.3417 13.8186 34.775C14.2352 35.2083 14.5936 35.5833 14.8936 35.9C14.8936 36.2667 14.8269 36.5917 14.6936 36.875C14.5602 37.1583 14.3769 37.4 14.1436 37.6C13.9269 37.8 13.6769 37.95 13.3936 38.05C13.1102 38.15 12.8102 38.2 12.4936 38.2C11.8102 38.2 11.2519 38.0333 10.8186 37.7C10.3852 37.35 9.96856 36.9417 9.56856 36.475L6.04355 32.375ZM21.3744 33.1V37.9C21.1911 37.95 20.8994 38 20.4994 38.05C20.1161 38.1 19.7327 38.125 19.3494 38.125C18.9661 38.125 18.6244 38.0917 18.3244 38.025C18.0411 37.975 17.7994 37.875 17.5994 37.725C17.4161 37.575 17.2744 37.3667 17.1744 37.1C17.0744 36.8333 17.0244 36.4833 17.0244 36.05V24.275C17.0244 23.925 17.1161 23.6583 17.2994 23.475C17.4994 23.275 17.7661 23.1167 18.0994 23C18.6661 22.8 19.3244 22.6583 20.0744 22.575C20.8244 22.475 21.6244 22.425 22.4744 22.425C24.7744 22.425 26.5077 22.9083 27.6744 23.875C28.8411 24.8417 29.4244 26.15 29.4244 27.8C29.4244 28.8333 29.1577 29.7167 28.6244 30.45C28.0911 31.1833 27.4577 31.75 26.7244 32.15C27.3244 32.9667 27.9161 33.7333 28.4994 34.45C29.0827 35.1667 29.5411 35.8167 29.8744 36.4C29.7077 36.9833 29.3994 37.4333 28.9494 37.75C28.5161 38.05 28.0244 38.2 27.4744 38.2C27.1077 38.2 26.7911 38.1583 26.5244 38.075C26.2577 37.9917 26.0244 37.875 25.8244 37.725C25.6244 37.575 25.4411 37.3917 25.2744 37.175C25.1077 36.9583 24.9494 36.725 24.7994 36.475L22.6994 33.1H21.3744ZM22.9494 29.775C23.5827 29.775 24.0827 29.6167 24.4494 29.3C24.8161 28.9667 24.9994 28.4833 24.9994 27.85C24.9994 27.2167 24.7911 26.7417 24.3744 26.425C23.9744 26.0917 23.3327 25.925 22.4494 25.925C22.1994 25.925 21.9994 25.9333 21.8494 25.95C21.6994 25.9667 21.5327 25.9917 21.3494 26.025V29.775H22.9494ZM35.6791 23.3C35.9624 23.1333 36.3874 22.975 36.9541 22.825C37.5374 22.675 38.1208 22.6 38.7041 22.6C39.5374 22.6 40.2708 22.725 40.9041 22.975C41.5541 23.2083 41.9708 23.5833 42.1541 24.1C42.4541 24.9667 42.7791 25.975 43.1291 27.125C43.4791 28.275 43.8291 29.4667 44.1791 30.7C44.5291 31.9167 44.8708 33.125 45.2041 34.325C45.5374 35.5083 45.8291 36.5583 46.0791 37.475C45.8791 37.7083 45.5791 37.8917 45.1791 38.025C44.7791 38.175 44.3041 38.25 43.7541 38.25C43.3541 38.25 43.0124 38.2167 42.7291 38.15C42.4624 38.0833 42.2374 37.9833 42.0541 37.85C41.8874 37.7167 41.7458 37.5417 41.6291 37.325C41.5291 37.1083 41.4374 36.8583 41.3541 36.575L40.9041 34.85H36.3791C36.2458 35.35 36.1124 35.8667 35.9791 36.4C35.8458 36.9333 35.7124 37.45 35.5791 37.95C35.3458 38.0333 35.0958 38.1 34.8291 38.15C34.5791 38.2167 34.2708 38.25 33.9041 38.25C33.0541 38.25 32.4208 38.1083 32.0041 37.825C31.6041 37.525 31.4041 37.1167 31.4041 36.6C31.4041 36.3667 31.4374 36.1333 31.5041 35.9C31.5708 35.6667 31.6458 35.3917 31.7291 35.075C31.8458 34.625 32.0041 34.0667 32.2041 33.4C32.4208 32.7333 32.6541 32.0167 32.9041 31.25C33.1541 30.4667 33.4208 29.6667 33.7041 28.85C33.9874 28.0333 34.2541 27.2667 34.5041 26.55C34.7541 25.8167 34.9791 25.1667 35.1791 24.6C35.3958 24.0333 35.5624 23.6 35.6791 23.3ZM38.6791 26.525C38.4458 27.225 38.1791 28.0083 37.8791 28.875C37.5958 29.725 37.3374 30.5917 37.1041 31.475H40.2041C39.9708 30.575 39.7291 29.7 39.4791 28.85C39.2458 27.9833 39.0291 27.2083 38.8291 26.525H38.6791ZM52.3779 34.875C52.6113 34.9417 52.9113 34.9917 53.2779 35.025C53.6446 35.0417 53.9946 35.05 54.3279 35.05C54.9946 35.05 55.5446 34.9167 55.9779 34.65C56.4279 34.3667 56.6529 33.9333 56.6529 33.35C56.6529 32.8 56.4696 32.4083 56.1029 32.175C55.7363 31.9417 55.1779 31.825 54.4279 31.825H52.3779V34.875ZM52.3779 28.775H54.2029C54.9196 28.775 55.4363 28.6417 55.7529 28.375C56.0863 28.1083 56.2529 27.7167 56.2529 27.2C56.2529 26.75 56.0613 26.3917 55.6779 26.125C55.3113 25.8583 54.7529 25.725 54.0029 25.725C53.7529 25.725 53.4613 25.7333 53.1279 25.75C52.8113 25.7667 52.5613 25.7917 52.3779 25.825V28.775ZM54.0029 38.4C53.7196 38.4 53.3863 38.3917 53.0029 38.375C52.6196 38.3583 52.2196 38.325 51.8029 38.275C51.4029 38.225 51.0029 38.1583 50.6029 38.075C50.2029 38.0083 49.8363 37.9083 49.5029 37.775C48.5863 37.425 48.1279 36.8167 48.1279 35.95V24.275C48.1279 23.925 48.2196 23.6583 48.4029 23.475C48.6029 23.275 48.8696 23.1167 49.2029 23C49.7696 22.8 50.4779 22.6583 51.3279 22.575C52.1779 22.475 53.0529 22.425 53.9529 22.425C56.0863 22.425 57.7279 22.7833 58.8779 23.5C60.0279 24.2167 60.6029 25.325 60.6029 26.825C60.6029 27.575 60.3863 28.225 59.9529 28.775C59.5196 29.3083 58.9363 29.7 58.2029 29.95C59.0363 30.1833 59.7279 30.6083 60.2779 31.225C60.8446 31.8417 61.1279 32.6167 61.1279 33.55C61.1279 35.2 60.5113 36.425 59.2779 37.225C58.0613 38.0083 56.3029 38.4 54.0029 38.4Z" fill="url(#paint0_linear_3901_6071)"/>
<path d="M34.0193 75.9565C29.3386 76.3478 26.0344 73.9349 26.1506 73.0709L25.9521 71.946C34.0001 72.8068 39.8635 71.2612 41.7891 70.3809C41.8721 70.9189 41.819 72.2101 40.9425 73.0709C39.8469 74.1469 37.4564 75.3696 34.0193 75.9565Z" stroke="#FF0000" stroke-width="0.5"/>
<path d="M29.5379 76.4456C31.1813 76.8532 35.0758 77.4042 37.5062 76.3478C36.2279 77.326 32.8447 78.715 29.5379 76.4456Z" stroke="#FF0000" stroke-width="0.5"/>
<path d="M16.6893 77.1793C15.9721 79.3313 17.4861 81.467 18.3327 82.2659C18.3327 81.8746 18.3626 80.7888 18.4822 79.5759C18.6017 78.3629 19.0964 77.3424 19.3288 76.9837H18.9802C18.8972 76.9837 18.7212 76.9348 18.6814 76.7391C18.6316 76.4946 18.4822 76.0055 18.1335 75.6142C17.8547 75.3012 17.6853 75.2882 17.6355 75.3208C17.5691 75.3534 17.2869 75.7707 16.6893 77.1793Z" fill="#FF0000" stroke="black" stroke-width="0.5"/>
<g filter="url(#filter0_i_3901_6071)">
<path d="M17.6855 74.6357V75.3205C17.7519 75.3368 17.9445 75.4476 18.1836 75.7606C18.4824 76.1519 18.6318 76.4943 18.7812 76.8856C18.9007 77.1986 19.0634 77.0812 19.1298 76.9834L19.5282 77.1301L23.114 75.4672L21.7693 74.0488L17.6855 74.6357Z" fill="#FF0000"/>
</g>
<path d="M17.6855 74.6357V75.3205C17.7519 75.3368 17.9445 75.4476 18.1836 75.7606C18.4824 76.1519 18.6318 76.4943 18.7812 76.8856C18.9007 77.1986 19.0634 77.0812 19.1298 76.9834L19.5282 77.1301L23.114 75.4672L21.7693 74.0488L17.6855 74.6357Z" stroke="#9B0000" stroke-width="0.5"/>
<path d="M15.6934 83.293C16.4503 81.767 19.3289 79.69 20.6735 78.8423L20.4743 77.5706L19.5281 76.7881C19.3123 76.9185 18.4723 77.5119 16.8388 78.8423C15.2053 80.1726 15.3945 82.3637 15.6934 83.293Z" fill="#FF0000" stroke="black" stroke-width="0.5"/>
<path d="M21.0235 79.2827C21.3423 79.4783 23.2812 77.2774 24.2109 76.1525L23.2148 75.1743C23.1152 75.2069 22.8363 75.2917 22.5176 75.37C20.7247 75.6634 19.9279 76.446 19.4797 76.6905C19.0314 76.935 19.131 77.7665 19.4797 77.5709C19.6789 77.4241 20.4757 77.7665 20.4757 78.1578C20.4757 78.9907 20.6251 79.0381 21.0235 79.2827Z" fill="#FF0000" stroke="black" stroke-width="0.5"/>
<path d="M13.5024 75.4189C12.4566 77.1797 12.6558 79.3806 12.6558 79.5273C12.6558 79.0969 15.6107 75.9569 17.0882 74.4407L16.0921 72.7778C15.5775 73.0713 14.3391 74.0103 13.5024 75.4189Z" fill="#FF0000" stroke="black" stroke-width="0.5"/>
<g filter="url(#filter1_i_3901_6071)">
<path d="M18.582 72.7773C19.2593 72.973 20.3583 73.0219 20.8231 73.0219L22.3669 74.3424C21.3211 74.6359 17.2871 74.7337 16.9883 74.6848C16.6895 74.6359 16.3907 74.538 16.3409 74.2446C16.2911 73.9511 16.4903 73.8044 16.3907 73.5599C16.2911 73.3153 16.0919 73.4131 15.9425 73.0219C15.7931 72.6306 16.3907 72.1415 16.6896 72.1904C16.9884 72.2393 17.7354 72.5328 18.582 72.7773Z" fill="#FF0000"/>
</g>
<path d="M18.582 72.7773C19.2593 72.973 20.3583 73.0219 20.8231 73.0219L22.3669 74.3424C21.3211 74.6359 17.2871 74.7337 16.9883 74.6848C16.6895 74.6359 16.3907 74.538 16.3409 74.2446C16.2911 73.9511 16.4903 73.8044 16.3907 73.5599C16.2911 73.3153 16.0919 73.4131 15.9425 73.0219C15.7931 72.6306 16.3907 72.1415 16.6896 72.1904C16.9884 72.2393 17.7354 72.5328 18.582 72.7773Z" stroke="#6D0000" stroke-width="0.5"/>
<path d="M44.7627 77.7653C45.2408 78.2348 45.0947 81.6454 44.9619 83.292C45.7587 82.9497 47.6014 80.602 47.5516 78.8902C47.5118 77.5207 46.9042 76.9175 46.6054 76.7871L44.7627 77.7653Z" fill="#FF0000" stroke="black" stroke-width="0.5"/>
<path d="M44.6629 78.3031C44.5434 77.5988 42.7207 75.8903 41.8242 75.124L42.7705 73.3633L44.2147 74.3415C45.0613 75.0262 46.7944 76.4348 46.9538 76.5913C47.153 76.7869 47.3024 77.0804 47.153 77.3249C47.0036 77.5695 46.5056 77.4716 46.0076 77.5695C45.5096 77.6673 45.2605 78.4498 45.1111 78.5477C44.9617 78.6455 44.7127 78.5477 44.6629 78.3031Z" fill="#FF0000" stroke="black" stroke-width="0.5"/>
<path d="M47.7998 76.347C50.5887 77.7654 51.4021 80.1456 51.4353 81.8248C52.78 78.499 51.784 76.6404 51.0369 75.5644C50.4393 74.7036 49.0283 74.4232 48.3974 74.3906L47.7998 76.347Z" fill="#FF0000" stroke="black" stroke-width="0.5"/>
<path d="M46.0076 75.8576C45.5693 75.2707 43.1689 74.3088 42.0234 73.9012L42.7207 72.8252C43.9989 73.3632 46.7546 74.4294 47.5514 74.3903C48.5475 74.3414 48.9459 73.9501 49.0455 74.1947C49.3443 75.075 48.5475 76.5423 48.2487 76.7868C47.9499 77.0314 46.5554 76.5912 46.0076 75.8576Z" fill="#FF0000" stroke="black" stroke-width="0.5"/>
<path d="M47.5508 73.8521C49.6425 74.1455 53.776 77.6181 53.8756 77.667C53.6266 74.6346 51.9333 73.7053 50.2899 72.8739C48.9751 72.2087 48.2148 72.4989 47.999 72.7271L47.5508 73.8521Z" fill="#FF0000" stroke="black" stroke-width="0.5"/>
<path d="M46.3562 74.2432C43.6868 73.8911 42.6211 73.0205 42.4219 72.6292L43.2187 72.4825C45.649 73.1477 47.8171 72.5314 48.5973 72.1401C49.3443 72.9227 48.6471 73.6074 48.4479 73.9498C48.2487 74.2921 47.6511 74.4389 46.3562 74.2432Z" fill="#FF0000" stroke="black" stroke-width="0.5"/>
<path d="M49.5442 62.2093C48.0117 59.9404 49.9638 57.8547 51.2408 57.4241L56.1564 56.6069C57.0307 57.2131 58.4479 58.3733 57.902 60.2079C56.4756 64.1006 54.2884 64.5721 53.3969 64.2354C52.6499 64.3259 51.0767 64.4781 49.5442 62.2093Z" fill="#FE0D0D" stroke="black" stroke-width="0.5"/>
<path d="M51.9357 63.7111C52.4446 63.3099 54.6373 63.424 55.67 63.5311C56.1486 63.68 56.4803 64.122 56.6059 64.5083C57.0946 66.2706 53.9862 67.9879 52.3709 68.6263C52.0055 68.6619 51.2745 68.6608 51.2745 68.3715C51.1824 67.5824 51.0855 64.3812 51.9357 63.7111Z" fill="#FF0000" stroke="black" stroke-width="0.5"/>
<path d="M50.8317 67.9059C49.5466 68.0817 47.1513 69.7231 46.1143 70.5219L44.7891 72.2836C44.8864 72.3459 45.4008 72.2736 46.6801 71.4859C48.2792 70.5013 51.1601 69.741 51.5789 69.4543C51.9977 69.1676 52.4381 67.6862 50.8317 67.9059Z" fill="#FF0000" stroke="black" stroke-width="0.5"/>
<path d="M48.9343 59.3754C42.659 56.0066 43.3097 51.3663 44.4195 49.4673C46.1749 53.3513 51.4565 56.7332 53.8779 57.9387C52.5075 58.5992 49.6002 59.8113 48.9343 59.3754Z" fill="#FF0000" stroke="black" stroke-width="0.5"/>
<path d="M47.0751 44.1439C46.8969 44.2154 46.7631 44.2859 46.6689 44.3429C46.8881 44.6304 47.2051 44.9986 47.5782 45.429C47.6042 45.459 47.6304 45.4893 47.6569 45.5198C48.0988 46.0293 48.6037 46.6115 49.0862 47.2196C49.5972 47.8637 50.0885 48.5436 50.4573 49.2058C50.8235 49.8635 51.0828 50.5278 51.1016 51.1359C51.1259 51.9225 51.0753 52.4838 50.8912 52.9845C50.7069 53.4853 50.3972 53.9021 49.951 54.4121C49.7403 54.653 49.4426 54.9116 49.1283 55.1772C49.0714 55.2252 49.0138 55.2737 48.9556 55.3226C48.687 55.5484 48.4079 55.7831 48.1418 56.0303C47.4822 56.6429 46.9747 57.27 46.9153 57.907C46.8526 58.5806 47.3356 59.0549 48.0946 59.5218C48.6439 59.7782 50.7489 60.5627 52.9549 60.4737C54.0621 60.4291 55.1801 60.165 56.14 59.5179C57.096 58.8734 57.9156 57.8354 58.4076 56.2046C59.2048 53.563 58.6136 50.4549 56.9654 48.0038C55.3205 45.5575 52.6376 43.7869 49.2687 43.7869C48.2165 43.7869 47.5106 43.9692 47.0751 44.1439Z" fill="#FF0000" stroke="black" stroke-width="0.5"/>
<path d="M25.2564 67.3479C20.9137 68.5999 18.3671 68.2934 17.6367 67.9837C19.6686 74.4006 25.2232 77.5047 27.7465 78.2546C33.1749 79.8686 36.4618 78.8904 38.6531 78.4991C43.7828 77.5832 46.887 70.69 47.7669 67.1522C47.0696 67.3478 43.6831 67.5924 40.0476 66.4186C32.2785 63.8753 30.6848 65.7828 25.2564 67.3479Z" fill="#FF0000" stroke="black" stroke-width="0.5"/>
<path d="M43.3182 69.6953C35.7272 72.749 26.6756 72.0207 23.0986 71.2748C24.7877 73.4246 28.7124 75.6622 33.1339 75.6622C38.7477 75.6622 42.9704 71.4357 43.3182 69.6953Z" fill="black" stroke="black" stroke-width="0.5"/>
<path d="M40.9302 72.9276C39.5782 73.921 37.7891 75.2076 33.9388 75.6378C31.4217 75.826 27.8226 74.8664 26.653 74.086C25.9437 73.6128 25.8559 73.4619 25.7546 73.2038C25.6533 72.9457 25.3955 72.1451 25.3955 72.1451C33.6705 72.9368 41.0224 70.8375 43.0024 70.0278C43.0877 70.5226 41.9118 72.2062 40.9302 72.9276Z" fill="white" stroke="black" stroke-width="0.5"/>
<g filter="url(#filter2_d_3901_6071)">
<path d="M29.1756 73.1191C28.5282 74.3907 25.7393 72.9234 25.7393 71.9453C31.9299 72.6789 40.9206 70.8486 43.3609 69.6748C43.1119 70.115 41.9249 71.5051 41.9249 71.5051C41.9249 71.5051 41.377 72.092 41.0782 72.2876C40.8392 72.4441 40.1818 71.9942 40.0324 71.8474C40.6798 73.0702 38.8523 73.5603 38.1551 73.6581C37.5973 73.7364 37.2933 73.2541 37.0595 72.6799C37.2435 73.3636 37.2915 73.4917 37.0443 73.8038C36.6957 74.244 34.8184 74.3429 33.8721 74.3429C33.0132 74.3429 33.0518 73.346 33.0593 72.7809C33.0164 72.998 32.9363 73.2532 32.835 73.4942C32.6859 73.8956 32.4785 74.2561 32.2135 74.3429C31.5521 74.5594 30.6198 74.244 30.1868 74.1961C29.0414 73.9505 29.0608 73.7049 29.1756 73.1191Z" fill="white"/>
<path d="M41.9249 71.5051L42.115 71.6674L42.1151 71.6673L42.1152 71.6671L42.1159 71.6663L42.1185 71.6633L42.1287 71.6514L42.1671 71.6061C42.2002 71.567 42.2478 71.5107 42.3057 71.4417C42.4214 71.3039 42.5784 71.1154 42.7433 70.9129C43.0659 70.5168 43.4411 70.0406 43.5785 69.7979L43.9711 69.1039L43.2525 69.4495C42.0677 70.0194 39.241 70.7663 35.9184 71.2782C32.6023 71.7892 28.8321 72.06 25.7687 71.697L25.4893 71.6639V71.9453C25.4893 72.2976 25.73 72.6354 26.0139 72.9023C26.3095 73.1801 26.7041 73.4308 27.117 73.606C27.5276 73.7802 27.9781 73.8889 28.3839 73.859C28.5664 73.8456 28.7439 73.8031 28.9036 73.7242C28.9243 73.7963 28.9577 73.8674 29.0086 73.9352C29.1076 74.0672 29.2537 74.1613 29.4319 74.2368C29.6107 74.3126 29.842 74.3779 30.1344 74.4406L30.1468 74.4432L30.1593 74.4446C30.2532 74.455 30.3797 74.4807 30.5424 74.5145L30.5562 74.5173C30.7106 74.5494 30.8894 74.5865 31.0759 74.6156C31.4532 74.6746 31.9014 74.7081 32.2913 74.5804C32.5 74.5121 32.6574 74.3478 32.7739 74.1779C32.8288 74.0977 32.8791 74.0098 32.925 73.9177C32.9835 74.081 33.0741 74.2415 33.2172 74.3665C33.3857 74.5138 33.6053 74.5929 33.8721 74.5929C34.3515 74.5929 35.0686 74.5679 35.7137 74.4864C36.0355 74.4458 36.3475 74.3901 36.6058 74.3134C36.735 74.275 36.8566 74.2298 36.9617 74.1753C37.0647 74.122 37.1662 74.0525 37.2403 73.959C37.313 73.8672 37.3709 73.7792 37.4096 73.684C37.6152 73.8546 37.8736 73.9501 38.1898 73.9057C38.553 73.8547 39.2239 73.7012 39.7299 73.387C39.9837 73.2294 40.2218 73.0155 40.3411 72.7284C40.3837 72.626 40.4091 72.5191 40.4166 72.4084C40.5295 72.4667 40.6559 72.5208 40.7789 72.5491C40.8952 72.5759 41.0675 72.5934 41.2152 72.4968C41.3882 72.3835 41.6163 72.1708 41.7888 72.0014C41.878 71.9138 41.9574 71.8326 42.0145 71.7734C42.0431 71.7438 42.0662 71.7195 42.0822 71.7026L42.1008 71.6829L42.1058 71.6777L42.1071 71.6762L42.1075 71.6758L42.1076 71.6757L42.1076 71.6757L41.9249 71.5051ZM41.9249 71.5051L42.115 71.6674L42.1078 71.6758L41.9249 71.5051Z" stroke="black" stroke-width="0.5"/>
</g>
<path d="M36.7596 54.0451C35.5644 54.5342 35.2656 55.3168 35.166 56.0504C35.0879 56.6254 35.3221 57.1221 35.4565 57.3107C35.8577 56.7276 36.8991 55.5711 37.8553 55.6103C38.8115 55.6494 39.6149 56.9634 39.8971 57.6155C40.0299 57.4525 40.2657 57.0188 40.1461 56.5884C39.8274 55.5711 39.2829 54.9255 39.0505 54.7299C38.5525 54.1919 37.5066 53.7395 36.7596 54.0451Z" fill="#FF0000"/>
<path d="M35.4648 57.3221C35.4621 57.3184 35.4593 57.3146 35.4565 57.3107M35.4565 57.3107C35.3221 57.1221 35.0879 56.6254 35.166 56.0504C35.2656 55.3168 35.5644 54.5342 36.7596 54.0451C37.5066 53.7395 38.5525 54.1919 39.0505 54.7299C39.2829 54.9255 39.8274 55.5711 40.1461 56.5884C40.2657 57.0188 40.0299 57.4525 39.8971 57.6155C39.6149 56.9634 38.8115 55.6494 37.8553 55.6103C36.8991 55.5711 35.8577 56.7276 35.4565 57.3107Z" stroke="#0E0000" stroke-width="0.5"/>
<path d="M35.2998 63.2888C35.3794 64.8148 34.7851 66.1408 34.4531 66.6625C34.7043 66.3503 35.2218 66.4346 35.4492 66.5647C35.5488 66.2223 36.1118 65.2452 37.0082 64.9028C37.9046 64.5604 38.4026 63.729 38.6517 63.3866C38.8509 63.1127 38.7527 62.7824 38.6863 62.603C38.4041 62.9128 37.6955 63.4062 37.058 63.2888C36.4205 63.1714 35.8808 62.8639 35.6982 62.6519C35.5654 62.7171 35.2998 62.8193 35.2998 63.2888Z" fill="#FF0000" stroke="#FF0000" stroke-width="0.5"/>
<path d="M34.4103 66.7135C34.7384 66.2149 35.3696 64.8568 35.2692 63.4126C35.2631 62.968 35.5278 62.7297 35.6609 62.6661C35.848 62.8644 36.3832 63.2866 37.0279 63.3891C37.6726 63.4917 38.3951 62.923 38.6758 62.6259C38.7452 62.7948 38.8345 63.1982 38.6371 63.4603C38.3904 63.7879 37.8988 64.5821 36.9988 64.9184C36.0988 65.2547 35.5113 66.3744 35.4153 66.7" stroke="black" stroke-width="0.5"/>
<path d="M29.3073 65.0232C29.435 65.6828 30.0197 66.5352 30.321 66.8586C29.3919 67.2328 29.1921 67.6587 29.221 67.8628C29.2225 67.8704 29.224 67.878 29.2254 67.8857C29.2236 67.8784 29.2221 67.8708 29.221 67.8628C29.1053 67.2895 28.5886 66.7566 28.3787 66.5651C28.1898 66.3928 27.6984 66.0259 27.4325 65.8804C27.1666 65.7349 26.6095 65.5857 26.2373 65.4402C25.865 65.2947 25.6383 64.8777 25.532 64.7322C25.4256 64.5867 25.532 64.0533 25.7447 64.1988C26.3296 64.5383 27.2335 64.6352 27.8184 64.2473C28.4033 63.8593 28.518 63.3367 28.6776 63.2882C28.9434 63.1912 29.1478 63.3743 29.3073 63.6168C29.4669 63.8593 29.201 64.6837 29.3073 65.0232Z" fill="#F30000"/>
<path d="M30.3708 66.9821C30.0695 66.6344 29.435 65.7616 29.3073 65.0522C29.201 64.6871 29.4669 63.8004 29.3073 63.5395C29.1478 63.2787 28.9351 63.1744 28.6692 63.2787C28.5097 63.3309 28.4033 63.8004 27.8184 64.2176C27.2335 64.6349 26.3296 64.5306 25.7447 64.1655C25.532 64.009 25.4256 64.5828 25.532 64.7392C25.6383 64.8957 25.851 65.313 26.2232 65.4695C26.5955 65.626 27.2335 65.7825 27.4994 65.9389C27.7653 66.0954 28.2676 66.4838 28.4565 66.6692C28.6692 66.8778 29.201 67.5038 29.3073 68.1297" stroke="black" stroke-width="0.5"/>
<path d="M28.741 61.8061C28.741 63.1782 27.8477 64.1972 26.8495 64.1972C25.8513 64.1972 24.958 63.1782 24.958 61.8061C24.958 60.434 25.8513 59.415 26.8495 59.415C27.8477 59.415 28.741 60.434 28.741 61.8061Z" fill="white" stroke="black" stroke-width="0.5"/>
<path d="M39.8761 59.6843C39.7555 60.7167 39.3617 61.6082 38.8354 62.2162C38.308 62.8253 37.6682 63.1308 37.0405 63.0601C36.4128 62.9894 35.86 62.5495 35.4869 61.8389C35.1144 61.1296 34.9364 60.1737 35.057 59.1413C35.1776 58.1089 35.5715 57.2175 36.0978 56.6095C36.6251 56.0004 37.2649 55.6948 37.8927 55.7656C38.5204 55.8363 39.0731 56.2762 39.4463 56.9868C39.8187 57.696 39.9967 58.6519 39.8761 59.6843Z" fill="white" stroke="black" stroke-width="0.5"/>
<ellipse cx="37.4413" cy="60.1089" rx="1.09564" ry="1.76073" fill="black"/>
<ellipse cx="37.206" cy="60.5258" rx="0.348613" ry="0.538" fill="white"/>
<ellipse cx="0.859308" cy="1.18403" rx="0.859308" ry="1.18403" transform="matrix(0.999613 -0.0278338 0.0288583 0.999584 26.1865 60.6455)" fill="black"/>
<ellipse cx="0.35146" cy="0.484272" rx="0.35146" ry="0.484272" transform="matrix(0.999613 -0.0278338 0.0288583 0.999584 26.5186 61.6304)" fill="white"/>
<path d="M25.6792 57.9778C24.4227 58.2947 25.0066 60.4036 25.0066 60.4036C25.0066 60.4036 25.629 59.1165 26.8571 59.1165C27.6959 59.1165 28.3131 59.7766 28.5258 60.1561C28.9184 60.1165 28.8395 58.9586 28.5258 58.5719C28.0841 58.0273 26.9356 57.661 25.6792 57.9778Z" fill="#FF0000" stroke="black" stroke-width="0.5"/>
<path d="M5.46046 72.836C4.5912 71.701 5.42151 70.314 5.94533 69.7624C6.62098 68.7006 8.30431 68.2164 8.4987 68.6055C8.69309 68.9946 9.7741 71.5715 10.5232 71.6934C11.2723 71.8152 11.6228 72.2521 11.5328 72.8101C10.5708 74.6173 6.54704 74.2547 5.46046 72.836Z" fill="#FF0000" stroke="black" stroke-width="0.5"/>
<g filter="url(#filter3_i_3901_6071)">
<path d="M10.4456 73.7926C12.6321 74.3256 16.1491 72.3286 18.1902 72.0392C18.2316 71.5403 18.1209 70.6747 17.3472 71.2038C16.3801 71.8652 12.3571 71.8906 11.5657 71.8152C10.7743 71.7399 10.4569 72.0442 10.2152 72.4142C9.97343 72.7842 10.6248 73.0158 10.4577 73.075C10.0535 73.3205 10.2812 73.6557 10.4456 73.7926Z" fill="#FF0000"/>
</g>
<path d="M10.4456 73.7926C12.6321 74.3256 16.1491 72.3286 18.1902 72.0392C18.2316 71.5403 18.1209 70.6747 17.3472 71.2038C16.3801 71.8652 12.3571 71.8906 11.5657 71.8152C10.7743 71.7399 10.4569 72.0442 10.2152 72.4142C9.97343 72.7842 10.6248 73.0158 10.4577 73.075C10.0535 73.3205 10.2812 73.6557 10.4456 73.7926Z" stroke="black" stroke-width="0.5"/>
<path d="M2.11004 67.224C2.45495 64.3608 4.26806 61.7516 5.30511 60.7558C6.78845 61.3588 9.9652 62.9063 10.8056 64.2727C10.9458 66.2078 8.17183 70.5374 6.23475 70.9654C4.30659 71.3915 1.76883 70.0565 2.11004 67.224Z" fill="#FF0B0B" stroke="black" stroke-width="0.5"/>
<path d="M18.7105 69.9321C14.5659 68.7658 12.9301 63.975 12.1854 62.5346L9.58197 62.2505L8.51673 66.5619C13.9272 72.6202 19.7832 70.6595 18.7105 69.9321Z" fill="#F10101" stroke="black" stroke-width="0.5"/>
<path d="M12.7158 66.1204C12.9334 66.6546 12.8065 68.0729 12.7158 68.7153L20.6093 74.1168C20.6879 74.1382 21.1382 74.0952 22.2351 74.1784C23.7701 74.2949 24.7707 73.8064 25.3216 73.8064C25.8726 73.8064 27.2348 73.7764 27.8038 73.1516C28.8218 71.5347 28.6762 65.9217 27.7901 64.5484C27.7109 64.6238 27.513 64.8117 27.3114 64.97C27.1098 65.1284 26.7186 65.069 26.5482 65.0195C25.9089 64.6745 24.065 64.2101 23.223 64.0211L22.7753 64.091C21.3344 63.2755 19.3847 63.4261 18.59 63.6032L18.5504 63.3764C17.1159 63.365 14.1685 63.3491 13.855 63.3764C13.5415 63.4038 13.0102 64.3058 12.7838 64.7534C12.9023 65.2187 12.7878 65.8586 12.7158 66.1204Z" fill="black" stroke="white" stroke-width="0.5"/>
<path d="M12.7832 64.7427C13.0216 64.3448 13.568 63.5226 13.8459 63.4165L14.902 62.948L14.8882 62.7092C15.0858 62.5952 15.7261 62.3915 16.7071 62.4882L16.7135 62.8014L16.7418 62.7854L16.9319 62.7092C17.3733 62.6031 18.9072 62.5766 19.5203 62.5766C20.0564 62.124 20.6872 61.6411 21.0397 61.4936C21.1978 61.4081 21.6872 61.4535 21.9349 61.4899L22.1637 61.361C22.6244 61.3988 23.4943 61.469 23.7866 61.4885L23.8191 61.3167C23.9281 61.162 24.2319 60.8924 24.5753 61.0515C24.6824 61.1012 24.7233 61.1665 24.7226 61.2371C24.7225 61.2434 24.7221 61.2497 24.7214 61.2561L24.6821 61.8805C24.7357 61.8762 24.7877 61.881 24.8376 61.8958C24.8387 61.8944 24.8399 61.8929 24.841 61.8914C24.9227 61.7809 24.9431 61.5378 24.9431 61.4273C24.9187 61.327 25.0011 61.3118 25.0453 61.3167C26.1898 61.4228 26.4214 62.2451 26.3942 62.6429L26.3662 62.7574L26.3369 62.8257C26.8739 62.9378 27.322 63.3039 27.5182 63.527C27.5408 63.5517 27.5827 63.6245 27.5443 63.6995C27.5516 63.7252 27.5465 63.7634 27.5086 63.796L27.4038 64.0787C27.5498 64.1803 27.6895 64.3561 27.8149 64.5878C27.2215 65.1298 27.0021 65.2476 26.1314 64.8753C25.4334 64.5768 23.783 64.1334 22.8603 64.1271C22.8536 64.127 22.847 64.127 22.8405 64.127C21.4671 63.5612 20.1252 63.3841 18.5028 63.6274C18.5265 63.5444 18.5604 63.4715 18.6077 63.4165H16.8199C15.3422 64.575 14.8882 65.2091 12.7832 64.7427Z" fill="black"/>
<path d="M28.5955 66.0581C28.514 65.9642 28.2324 65.8898 27.9237 66.0066C27.6151 66.1233 27.9038 66.8773 27.9038 66.8773C27.9787 66.9967 28.4972 66.7271 28.6294 66.5574C28.7644 66.384 28.7001 66.1785 28.5955 66.0581Z" fill="black"/>
<path d="M12.7932 66.0997C13.0058 66.6302 12.8419 68.0161 12.7832 68.5029L21.9351 74.1732C23.3846 74.3324 24.4322 73.9152 25.1679 73.8268C25.9037 73.7384 27.6019 73.9147 27.9494 72.7875C28.5543 71.09 28.5157 68.0979 28.3454 66.838M12.7932 66.0997C12.8614 65.7755 12.865 65.0609 12.7832 64.7427M12.7932 66.0997C12.875 66.3134 14.088 67.0294 15.3923 66.3302M12.7832 64.7427C13.0216 64.3448 13.568 63.5226 13.8459 63.4165M12.7832 64.7427C14.8882 65.2091 15.3422 64.575 16.8199 63.4165M13.8459 63.4165H18.6077M13.8459 63.4165L14.902 62.948L14.9086 63.0629M18.6077 63.4165C18.3952 63.664 18.451 64.2711 18.5055 64.5437M18.6077 63.4165C18.7256 63.2792 19.0928 62.9375 19.5203 62.5766M18.6077 63.4165L19.5203 62.5766M21.9349 61.4899C21.6872 61.4535 21.1978 61.4081 21.0397 61.4936C20.6872 61.6411 20.0564 62.124 19.5203 62.5766M21.9349 61.4899C21.9434 61.4911 21.9271 61.4887 21.9349 61.4899ZM21.9349 61.4899L22.1637 61.361C22.6244 61.3988 23.4943 61.469 23.7866 61.4885M22.695 64.8316C22.6673 64.0234 24.1771 61.3913 24.9635 61.9583C25.0861 62.0467 24.8818 62.3556 25.1679 62.6429C25.3968 62.8728 25.4949 62.8197 25.4949 62.8197L25.6018 62.8452M18.5028 63.6274C20.1252 63.3841 21.4671 63.5612 22.8405 64.127C23.7592 64.127 25.4284 64.5747 26.1314 64.8753C27.0102 65.251 27.2255 65.1276 27.8315 64.5726M27.3838 64.0653C27.7539 64.3048 28.0867 65.0228 28.2502 65.9246M27.2525 63.8585C27.6612 63.7701 27.5586 63.5712 27.5182 63.527C27.322 63.3039 26.8739 62.9378 26.3369 62.8257M27.2525 63.8585C26.9612 63.9216 25.8186 63.4681 25.5413 63.1304M27.2525 63.8585C27.5219 63.8585 27.5593 63.7525 27.5443 63.6995L27.1743 64.6982C25.9644 64.769 25.3587 64.2122 25.1679 63.9249L25.4949 62.8452C25.4583 62.9055 25.4162 63.0469 25.5413 63.1304M23.8396 65.3615C24.5208 65.5162 25.9364 66.4092 26.1489 68.7432M26.1489 70.0094C26.074 70.5767 25.683 71.9879 24.3096 72.7659M26.0406 62.7921C26.0406 61.8734 25.4506 61.7809 24.9431 61.5885M19.5203 62.5766C18.9072 62.5766 17.3733 62.6031 16.9319 62.7092L16.7418 62.7854L16.7135 62.8014M14.8882 62.7092L14.9086 63.0629M14.8882 62.7092C15.722 62.7623 16.4482 62.584 16.7071 62.4882M14.8882 62.7092C15.0858 62.5952 15.7261 62.3915 16.7071 62.4882M14.9086 63.0629C15.3038 63.085 16.223 63.0489 16.7135 62.8014M16.7135 62.8014L16.7071 62.4882M27.398 65.8318C27.3592 66.4451 27.3627 66.8054 27.659 67.3355M23.7866 61.4885C23.8358 61.4917 23.8686 61.4936 23.8804 61.4936C23.9826 61.4936 23.9009 61.803 24.0439 61.7809C24.1632 61.7625 24.2682 61.7441 24.3709 61.8024M23.7866 61.4885L23.8191 61.3167C23.9281 61.162 24.2319 60.8924 24.5753 61.0515C24.6824 61.1012 24.7233 61.1665 24.7226 61.2371M24.3709 61.8024C24.3914 61.8141 24.4118 61.8288 24.4322 61.8472C24.5548 61.9577 24.7592 62.0019 24.841 61.8914C24.9227 61.7809 24.9431 61.5378 24.9431 61.4273C24.9187 61.327 25.0011 61.3118 25.0453 61.3167C26.1898 61.4228 26.4214 62.2451 26.3942 62.6429L26.3662 62.7574L26.3369 62.8257M24.3709 61.8024V61.6704C24.5162 61.5741 24.7208 61.3927 24.7226 61.2371M24.7226 61.2371L24.6775 61.9549M26.3369 62.8257C26.1467 62.786 25.9454 62.7781 25.7402 62.8197C25.4584 62.8769 25.4296 62.9942 25.5413 63.1304M27.9237 66.0066C28.2324 65.8898 28.514 65.9642 28.5955 66.0581C28.7001 66.1785 28.7644 66.384 28.6294 66.5574C28.4972 66.7271 27.9787 66.9967 27.9038 66.8773C27.9038 66.8773 27.6151 66.1233 27.9237 66.0066Z" stroke="white" stroke-width="0.5"/>
<g filter="url(#filter4_d_3901_6071)">
<path d="M24.3682 72.7422C24.9459 72.3521 26.1092 71.2721 26.1408 70.0728" stroke="white" stroke-width="0.5"/>
</g>
<g filter="url(#filter5_i_3901_6071)">
<path d="M19.9204 74.6463C23.4451 74.9182 25.7349 72.0842 23.9684 68.4515C21.5905 63.5616 15.3417 64.3602 14.5753 67.6217L19.9204 74.6463Z" fill="black"/>
</g>
<path d="M19.9204 74.6463C23.4451 74.9182 25.7349 72.0842 23.9684 68.4515C21.5905 63.5616 15.3417 64.3602 14.5753 67.6217L19.9204 74.6463Z" stroke="black" stroke-width="0.5"/>
<path d="M18.8731 75.2711C22.3978 75.5429 24.9094 72.2153 23.0068 68.6561C20.6813 64.306 15.341 65.0979 14.1658 68.5344L18.8731 75.2711Z" fill="black" stroke="black" stroke-width="0.5"/>
<path d="M17.2417 78.2219C20.8257 75.5993 24.3231 72.8722 22.3597 69.1454C19.9599 64.5905 16.5457 66.1443 12.259 68.5599L17.2417 78.2219Z" fill="black" stroke="white" stroke-width="0.5"/>
<ellipse cx="4.829" cy="5.6395" rx="4.829" ry="5.6395" transform="matrix(0.782754 -0.622331 0.605372 0.795942 7.69238 71.7847)" fill="black" stroke="white" stroke-width="0.5"/>
<g filter="url(#filter6_i_3901_6071)">
<ellipse cx="3.33234" cy="4.11026" rx="3.33234" ry="4.11026" transform="matrix(0.930482 -0.366337 0.341044 0.940047 10.2402 70.7637)" fill="black"/>
</g>
<ellipse cx="3.33234" cy="4.11026" rx="3.33234" ry="4.11026" transform="matrix(0.930482 -0.366337 0.341044 0.940047 10.2402 70.7637)" stroke="white" stroke-width="0.5"/>
<path d="M17.5836 63.9945C17.452 63.7867 17.2461 63.838 17.1289 63.9439C17.0024 64.0785 16.9541 64.2938 17.0775 64.479C17.2007 64.6641 17.4126 64.6159 17.5462 64.4893C17.65 64.3711 17.7039 64.1843 17.5836 63.9945Z" fill="black"/>
<path d="M27.4346 71.8943C27.2083 71.6274 26.4982 71.2109 26.1385 72.0674C25.7476 72.9981 26.8585 73.2361 27.0025 73.063M27.0437 72.0241C26.4882 71.4182 25.7681 72.9548 27.0025 72.76M26.7351 72.2406L27.5374 72.1756L27.5786 72.4786M27.3728 72.5868L26.5705 72.6301V72.3271M17.1289 63.9439C17.2461 63.838 17.452 63.7867 17.5836 63.9945C17.7039 64.1843 17.65 64.3711 17.5462 64.4893C17.4126 64.6159 17.2007 64.6641 17.0775 64.479C16.9541 64.2938 17.0024 64.0785 17.1289 63.9439Z" stroke="white" stroke-width="0.5"/>
<path d="M23.8408 65.3599C24.7166 65.6449 25.9327 66.4903 26.1522 68.7514" stroke="white" stroke-width="0.5"/>
<path d="M20.8343 65.4119L20.8256 65.4066L20.8165 65.402C20.4875 65.2349 20.0828 64.9439 19.6112 64.5904C19.5259 64.5264 19.4387 64.4607 19.3498 64.3936C18.9543 64.0953 18.5249 63.7714 18.0809 63.4706C17.5368 63.1018 16.9592 62.7594 16.3756 62.5322C15.7921 62.305 15.1873 62.1869 14.5959 62.2859C13.7403 62.4291 13.207 62.6086 12.7699 62.899C12.3804 63.1578 12.0796 63.4987 11.7002 63.9287C11.6623 63.9717 11.6235 64.0156 11.5838 64.0604C11.5678 64.0784 11.5516 64.0967 11.5352 64.1153C11.1458 64.555 10.652 65.1128 10.0841 65.6051C9.49002 66.1201 8.83747 66.5429 8.16667 66.6897C7.76178 66.7784 7.4829 66.798 7.24729 66.7349C7.02231 66.6747 6.80214 66.5291 6.53931 66.2103C6.21122 65.7015 5.2365 63.8149 5.0671 61.7172C4.9821 60.6646 5.10088 59.5718 5.59347 58.5746C6.08428 57.581 6.95545 56.6633 8.40955 55.9716C14.2429 53.1968 21.2373 56.5218 22.8901 64.2581C23.0261 64.895 22.912 65.4451 22.6231 65.6992C22.3629 65.9281 21.825 66.0195 20.8343 65.4119Z" fill="#FF0000" stroke="black" stroke-width="0.5"/>
<defs>
<filter id="filter0_i_3901_6071" x="17.4355" y="73.7832" width="6.09961" height="3.61719" filterUnits="userSpaceOnUse" color-interpolation-filters="sRGB">
<feFlood flood-opacity="0" result="BackgroundImageFix"/>
<feBlend mode="normal" in="SourceGraphic" in2="BackgroundImageFix" result="shape"/>
<feColorMatrix in="SourceAlpha" type="matrix" values="0 0 0 0 0 0 0 0 0 0 0 0 0 0 0 0 0 0 127 0" result="hardAlpha"/>
<feOffset dx="-3" dy="8"/>
<feGaussianBlur stdDeviation="2"/>
<feComposite in2="hardAlpha" operator="arithmetic" k2="-1" k3="1"/>
<feColorMatrix type="matrix" values="0 0 0 0 0 0 0 0 0 0 0 0 0 0 0 0 0 0 0.25 0"/>
<feBlend mode="normal" in2="shape" result="effect1_innerShadow_3901_6071"/>
</filter>
<filter id="filter1_i_3901_6071" x="15.668" y="71.937" width="7.2168" height="7.00977" filterUnits="userSpaceOnUse" color-interpolation-filters="sRGB">
<feFlood flood-opacity="0" result="BackgroundImageFix"/>
<feBlend mode="normal" in="SourceGraphic" in2="BackgroundImageFix" result="shape"/>
<feColorMatrix in="SourceAlpha" type="matrix" values="0 0 0 0 0 0 0 0 0 0 0 0 0 0 0 0 0 0 127 0" result="hardAlpha"/>
<feOffset dy="4"/>
<feGaussianBlur stdDeviation="2"/>
<feComposite in2="hardAlpha" operator="arithmetic" k2="-1" k3="1"/>
<feColorMatrix type="matrix" values="0 0 0 0 0 0 0 0 0 0 0 0 0 0 0 0 0 0 0.25 0"/>
<feBlend mode="normal" in2="shape" result="effect1_innerShadow_3901_6071"/>
</filter>
<filter id="filter2_d_3901_6071" x="18.2393" y="66.5327" width="27.3418" height="14.3853" filterUnits="userSpaceOnUse" color-interpolation-filters="sRGB">
<feFlood flood-opacity="0" result="BackgroundImageFix"/>
<feColorMatrix in="SourceAlpha" type="matrix" values="0 0 0 0 0 0 0 0 0 0 0 0 0 0 0 0 0 0 127 0" result="hardAlpha"/>
<feOffset dx="-3" dy="2"/>
<feGaussianBlur stdDeviation="2"/>
<feComposite in2="hardAlpha" operator="out"/>
<feColorMatrix type="matrix" values="0 0 0 0 0 0 0 0 0 0 0 0 0 0 0 0 0 0 0.25 0"/>
<feBlend mode="normal" in2="BackgroundImageFix" result="effect1_dropShadow_3901_6071"/>
<feBlend mode="normal" in="SourceGraphic" in2="effect1_dropShadow_3901_6071" result="shape"/>
</filter>
<filter id="filter3_i_3901_6071" x="9.91016" y="70.7891" width="8.53809" height="3.34277" filterUnits="userSpaceOnUse" color-interpolation-filters="sRGB">
<feFlood flood-opacity="0" result="BackgroundImageFix"/>
<feBlend mode="normal" in="SourceGraphic" in2="BackgroundImageFix" result="shape"/>
<feColorMatrix in="SourceAlpha" type="matrix" values="0 0 0 0 0 0 0 0 0 0 0 0 0 0 0 0 0 0 127 0" result="hardAlpha"/>
<feOffset dx="3" dy="-9"/>
<feGaussianBlur stdDeviation="2.5"/>
<feComposite in2="hardAlpha" operator="arithmetic" k2="-1" k3="1"/>
<feColorMatrix type="matrix" values="0 0 0 0 0 0 0 0 0 0 0 0 0 0 0 0 0 0 0.25 0"/>
<feBlend mode="normal" in2="shape" result="effect1_innerShadow_3901_6071"/>
</filter>
<filter id="filter4_d_3901_6071" x="21.2285" y="66.0664" width="10.1621" height="10.8828" filterUnits="userSpaceOnUse" color-interpolation-filters="sRGB">
<feFlood flood-opacity="0" result="BackgroundImageFix"/>
<feColorMatrix in="SourceAlpha" type="matrix" values="0 0 0 0 0 0 0 0 0 0 0 0 0 0 0 0 0 0 127 0" result="hardAlpha"/>
<feOffset dx="1"/>
<feGaussianBlur stdDeviation="2"/>
<feComposite in2="hardAlpha" operator="out"/>
<feColorMatrix type="matrix" values="0 0 0 0 1 0 0 0 0 1 0 0 0 0 1 0 0 0 0.81 0"/>
<feBlend mode="normal" in2="BackgroundImageFix" result="effect1_dropShadow_3901_6071"/>
<feBlend mode="normal" in="SourceGraphic" in2="effect1_dropShadow_3901_6071" result="shape"/>
</filter>
<filter id="filter5_i_3901_6071" x="14.3066" y="64.7275" width="10.5195" height="10.189" filterUnits="userSpaceOnUse" color-interpolation-filters="sRGB">
<feFlood flood-opacity="0" result="BackgroundImageFix"/>
<feBlend mode="normal" in="SourceGraphic" in2="BackgroundImageFix" result="shape"/>
<feColorMatrix in="SourceAlpha" type="matrix" values="0 0 0 0 0 0 0 0 0 0 0 0 0 0 0 0 0 0 127 0" result="hardAlpha"/>
<feOffset dx="-45" dy="-52"/>
<feGaussianBlur stdDeviation="19.25"/>
<feComposite in2="hardAlpha" operator="arithmetic" k2="-1" k3="1"/>
<feColorMatrix type="matrix" values="0 0 0 0 1 0 0 0 0 1 0 0 0 0 1 0 0 0 1 0"/>
<feBlend mode="normal" in2="shape" result="effect1_innerShadow_3901_6071"/>
</filter>
<filter id="filter6_i_3901_6071" x="11.0928" y="63.0996" width="24.2998" height="14.6143" filterUnits="userSpaceOnUse" color-interpolation-filters="sRGB">
<feFlood flood-opacity="0" result="BackgroundImageFix"/>
<feBlend mode="normal" in="SourceGraphic" in2="BackgroundImageFix" result="shape"/>
<feColorMatrix in="SourceAlpha" type="matrix" values="0 0 0 0 0 0 0 0 0 0 0 0 0 0 0 0 0 0 127 0" result="hardAlpha"/>
<feOffset dx="17" dy="-6"/>
<feGaussianBlur stdDeviation="15"/>
<feComposite in2="hardAlpha" operator="arithmetic" k2="-1" k3="1"/>
<feColorMatrix type="matrix" values="0 0 0 0 0 0 0 0 0 0 0 0 0 0 0 0 0 0 1 0"/>
<feBlend mode="normal" in2="shape" result="effect1_innerShadow_3901_6071"/>
</filter>
<linearGradient id="paint0_linear_3901_6071" x1="31" y1="19" x2="31" y2="38" gradientUnits="userSpaceOnUse">
<stop stop-color="#FF0000"/>
<stop offset="1" stop-color="#990000"/>
</linearGradient>
</defs>
</svg>
