<svg width="77" height="88" viewBox="0 0 77 88" fill="none" xmlns="http://www.w3.org/2000/svg">
<path d="M35.5145 14V3.44H38.2345V14H35.5145ZM44.4676 14V3.44H47.1876V7.36H54.3876V3.44H57.1076V14H54.3876V9.12H47.1876V14H44.4676ZM63.3426 11.84V5.6C63.3426 5.36533 63.3639 5.152 63.4066 4.96C63.4599 4.768 63.5239 4.60267 63.5986 4.464C63.6733 4.31467 63.7799 4.18667 63.9186 4.08C64.0573 3.97333 64.1853 3.88267 64.3026 3.808C64.4199 3.73333 64.5853 3.67467 64.7986 3.632C65.0119 3.57867 65.1879 3.54133 65.3266 3.52C65.4653 3.49867 65.6626 3.48267 65.9186 3.472C66.1853 3.45067 66.3879 3.44 66.5266 3.44C66.6759 3.44 66.8946 3.44 67.1826 3.44H72.1426C72.4306 3.44 72.6439 3.44 72.7826 3.44C72.9319 3.44 73.1346 3.45067 73.3906 3.472C73.6573 3.48267 73.8599 3.49867 73.9986 3.52C74.1373 3.54133 74.3133 3.57867 74.5266 3.632C74.7399 3.67467 74.9053 3.73333 75.0226 3.808C75.1399 3.88267 75.2679 3.97333 75.4066 4.08C75.5453 4.18667 75.6519 4.31467 75.7266 4.464C75.8013 4.60267 75.8599 4.768 75.9026 4.96C75.9559 5.152 75.9826 5.36533 75.9826 5.6V11.84C75.9826 12.0747 75.9559 12.288 75.9026 12.48C75.8599 12.672 75.8013 12.8427 75.7266 12.992C75.6519 13.1307 75.5453 13.2533 75.4066 13.36C75.2679 13.4667 75.1399 13.5573 75.0226 13.632C74.9053 13.7067 74.7399 13.7707 74.5266 13.824C74.3133 13.8667 74.1373 13.8987 73.9986 13.92C73.8599 13.9413 73.6573 13.9627 73.3906 13.984C73.1346 13.9947 72.9319 14 72.7826 14C72.6439 14 72.4306 14 72.1426 14H67.1826C66.8946 14 66.6759 14 66.5266 14C66.3879 14 66.1853 13.9947 65.9186 13.984C65.6626 13.9627 65.4653 13.9413 65.3266 13.92C65.1879 13.8987 65.0119 13.8667 64.7986 13.824C64.5853 13.7707 64.4199 13.7067 64.3026 13.632C64.1853 13.5573 64.0573 13.4667 63.9186 13.36C63.7799 13.2533 63.6733 13.1307 63.5986 12.992C63.5239 12.8427 63.4599 12.672 63.4066 12.48C63.3639 12.288 63.3426 12.0747 63.3426 11.84ZM66.0626 11.68C66.0626 11.8507 66.1159 11.984 66.2226 12.08C66.3293 12.1653 66.4359 12.2133 66.5426 12.224C66.6493 12.2347 66.8093 12.24 67.0226 12.24H72.3026C72.5159 12.24 72.6759 12.2347 72.7826 12.224C72.8893 12.2133 72.9959 12.1653 73.1026 12.08C73.2093 11.984 73.2626 11.8507 73.2626 11.68V5.76C73.2626 5.58933 73.2093 5.46133 73.1026 5.376C72.9959 5.28 72.8893 5.22667 72.7826 5.216C72.6759 5.20533 72.5159 5.2 72.3026 5.2H67.0226C66.8093 5.2 66.6493 5.20533 66.5426 5.216C66.4359 5.22667 66.3293 5.28 66.2226 5.376C66.1159 5.46133 66.0626 5.58933 66.0626 5.76V11.68Z" fill="black"/>
<path d="M0.978826 30V2.94H7.94883V17.29L22.2988 2.94H30.9088L18.1988 15.65L32.5488 30H23.9388L13.8938 19.955L7.94883 25.9V30H0.978826Z" fill="#FF0000"/>
<path d="M35.7723 30V19.44H44.5723C44.8603 19.44 45.0736 19.44 45.2123 19.44C45.3616 19.44 45.5643 19.4507 45.8203 19.472C46.0869 19.4827 46.2896 19.4987 46.4283 19.52C46.5669 19.5413 46.7429 19.5787 46.9563 19.632C47.1696 19.6747 47.3349 19.7333 47.4523 19.808C47.5696 19.8827 47.6976 19.9733 47.8363 20.08C47.9749 20.1867 48.0816 20.3147 48.1563 20.464C48.2309 20.6027 48.2896 20.768 48.3323 20.96C48.3856 21.152 48.4123 21.3653 48.4123 21.6V23.84C48.4123 24.0747 48.3856 24.288 48.3323 24.48C48.2896 24.672 48.2309 24.8427 48.1563 24.992C48.0816 25.1307 47.9749 25.2533 47.8363 25.36C47.6976 25.4667 47.5696 25.5573 47.4523 25.632C47.3349 25.7067 47.1696 25.7707 46.9563 25.824C46.7429 25.8667 46.5669 25.8987 46.4283 25.92C46.2896 25.9413 46.0869 25.9627 45.8203 25.984C45.5643 25.9947 45.3616 26 45.2123 26C45.0736 26 44.8603 26 44.5723 26H38.4923V30H35.7723ZM38.4923 24.24H44.7323C44.9456 24.24 45.1056 24.2347 45.2123 24.224C45.3189 24.2133 45.4256 24.1653 45.5323 24.08C45.639 23.984 45.6923 23.8507 45.6923 23.68V21.76C45.6923 21.5893 45.639 21.4613 45.5323 21.376C45.4256 21.28 45.3189 21.2267 45.2123 21.216C45.1056 21.2053 44.9456 21.2 44.7323 21.2H38.4923V24.24ZM48.4098 30L53.6898 19.44H57.3698L62.6498 30H59.7698L58.2498 26.96H52.8098L51.2898 30H48.4098ZM53.6898 25.2H57.3698L55.5298 21.52L53.6898 25.2ZM64.0848 30V19.44H75.9248V21.2H66.8048V23.36H72.8848C73.1728 23.36 73.3861 23.36 73.5248 23.36C73.6741 23.36 73.8768 23.3707 74.1328 23.392C74.3994 23.4027 74.6021 23.4187 74.7408 23.44C74.8794 23.4613 75.0554 23.4987 75.2688 23.552C75.4821 23.5947 75.6474 23.6533 75.7648 23.728C75.8821 23.8027 76.0101 23.8933 76.1488 24C76.2874 24.1067 76.3941 24.2347 76.4688 24.384C76.5434 24.5227 76.6021 24.688 76.6448 24.88C76.6981 25.072 76.7248 25.2853 76.7248 25.52V27.84C76.7248 28.0747 76.6981 28.288 76.6448 28.48C76.6021 28.672 76.5434 28.8427 76.4688 28.992C76.3941 29.1307 76.2874 29.2533 76.1488 29.36C76.0101 29.4667 75.8821 29.5573 75.7648 29.632C75.6474 29.7067 75.4821 29.7707 75.2688 29.824C75.0554 29.8667 74.8794 29.8987 74.7408 29.92C74.6021 29.9413 74.3994 29.9627 74.1328 29.984C73.8768 29.9947 73.6741 30 73.5248 30C73.3861 30 73.1728 30 72.8848 30H64.0848ZM66.8048 28.24H73.0448C73.2581 28.24 73.4181 28.2347 73.5248 28.224C73.6314 28.2133 73.7381 28.1653 73.8448 28.08C73.9515 27.984 74.0048 27.8507 74.0048 27.68V25.76C74.0048 25.5893 73.9515 25.4613 73.8448 25.376C73.7381 25.28 73.6314 25.2267 73.5248 25.216C73.4181 25.2053 73.2581 25.2 73.0448 25.2H66.8048V28.24Z" fill="black"/>
<path d="M42.8553 76.8302C36.8812 77.3387 32.664 74.2029 32.8123 73.0799L32.559 71.618C42.8308 72.7367 50.3142 70.7281 52.772 69.584C52.8779 70.2832 52.8101 71.9612 51.6914 73.0799C50.2931 74.4783 47.242 76.0674 42.8553 76.8302Z" stroke="#FF0000" stroke-width="0.5"/>
<path d="M37.1355 77.4658C39.2331 77.9955 44.2037 78.7116 47.3056 77.3387C45.6742 78.6099 41.3561 80.4151 37.1355 77.4658Z" stroke="#FF0000" stroke-width="0.5"/>
<path d="M20.7365 78.4193C19.8212 81.216 21.7535 83.9916 22.8341 85.0298C22.8341 84.5213 22.8722 83.1102 23.0248 81.5338C23.1773 79.9575 23.8087 78.6311 24.1053 78.165H23.6604C23.5545 78.165 23.3299 78.1014 23.279 77.8472C23.2155 77.5294 23.0248 76.8938 22.5798 76.3852C22.2239 75.9784 22.0078 75.9615 21.9442 76.0039C21.8595 76.0462 21.4993 76.5887 20.7365 78.4193Z" fill="#FF0000" stroke="black" stroke-width="0.5"/>
<g filter="url(#filter0_i_2663_5642)">
<path d="M22.0075 75.1141V76.004C22.0923 76.0251 22.338 76.1692 22.6431 76.576C23.0245 77.0845 23.2152 77.5295 23.4059 78.038C23.5584 78.4448 23.7661 78.2922 23.8508 78.1651L24.3593 78.3558L28.9359 76.1946L27.2197 74.3513L22.0075 75.1141Z" fill="#FF0000"/>
</g>
<path d="M22.0075 75.1141V76.004C22.0923 76.0251 22.338 76.1692 22.6431 76.576C23.0245 77.0845 23.2152 77.5295 23.4059 78.038C23.5584 78.4448 23.7661 78.2922 23.8508 78.1651L24.3593 78.3558L28.9359 76.1946L27.2197 74.3513L22.0075 75.1141Z" stroke="#9B0000" stroke-width="0.5"/>
<path d="M19.4652 86.365C20.4314 84.3818 24.1053 81.6825 25.8215 80.5808L25.5672 78.9281L24.3595 77.9111C24.0841 78.0806 23.012 78.8519 20.9272 80.5808C18.8423 82.3097 19.0838 85.1573 19.4652 86.365Z" fill="#FF0000" stroke="black" stroke-width="0.5"/>
<path d="M26.2664 81.153C26.6732 81.4073 29.1479 78.5469 30.3345 77.085L29.0632 75.8137C28.936 75.8561 28.5801 75.9663 28.1733 76.068C25.885 76.4493 24.868 77.4664 24.2959 77.7842C23.7239 78.102 23.851 79.1826 24.2959 78.9283C24.5502 78.7376 25.5672 79.1826 25.5672 79.6911C25.5672 80.7735 25.7579 80.8352 26.2664 81.153Z" fill="#FF0000" stroke="black" stroke-width="0.5"/>
<path d="M16.6682 76.1311C15.3333 78.4194 15.5876 81.2797 15.5876 81.4704C15.5876 80.9111 19.359 76.8303 21.2447 74.8599L19.9734 72.6987C19.3166 73.0801 17.736 74.3005 16.6682 76.1311Z" fill="#FF0000" stroke="black" stroke-width="0.5"/>
<g filter="url(#filter1_i_2663_5642)">
<path d="M23.1518 72.6991C24.0163 72.9533 25.4189 73.0169 26.0121 73.0169L27.9825 74.7331C26.6477 75.1144 21.4991 75.2416 21.1177 75.178C20.7364 75.1144 20.355 74.9873 20.2914 74.6059C20.2279 74.2246 20.4821 74.0339 20.355 73.7161C20.2279 73.3982 19.9737 73.5254 19.783 73.0169C19.5923 72.5084 20.355 71.8727 20.7364 71.9363C21.1178 71.9999 22.0712 72.3812 23.1518 72.6991Z" fill="#FF0000"/>
</g>
<path d="M23.1518 72.6991C24.0163 72.9533 25.4189 73.0169 26.0121 73.0169L27.9825 74.7331C26.6477 75.1144 21.4991 75.2416 21.1177 75.178C20.7364 75.1144 20.355 74.9873 20.2914 74.6059C20.2279 74.2246 20.4821 74.0339 20.355 73.7161C20.2279 73.3982 19.9737 73.5254 19.783 73.0169C19.5923 72.5084 20.355 71.8727 20.7364 71.9363C21.1178 71.9999 22.0712 72.3812 23.1518 72.6991Z" stroke="#6D0000" stroke-width="0.5"/>
<path d="M56.5665 79.1809C57.1767 79.7911 56.9902 84.2236 56.8207 86.3635C57.8377 85.9186 60.1895 82.8676 60.126 80.6429C60.0751 78.8631 59.2997 78.0792 58.9183 77.9097L56.5665 79.1809Z" fill="#FF0000" stroke="black" stroke-width="0.5"/>
<path d="M56.4395 79.8801C56.2869 78.9647 53.9605 76.7443 52.8164 75.7485L54.0241 73.4602L55.8674 74.7315C56.948 75.6213 59.1599 77.452 59.3633 77.6554C59.6176 77.9096 59.8083 78.291 59.6176 78.6088C59.4269 78.9266 58.7913 78.7995 58.1557 78.9266C57.52 79.0537 57.2022 80.0707 57.0115 80.1979C56.8208 80.325 56.503 80.1979 56.4395 79.8801Z" fill="#FF0000" stroke="black" stroke-width="0.5"/>
<path d="M60.4439 77.3374C64.0034 79.1808 65.0416 82.2742 65.084 84.4565C66.8002 80.1342 65.5289 77.7188 64.5755 76.3204C63.8127 75.2017 62.0118 74.8373 61.2067 74.7949L60.4439 77.3374Z" fill="#FF0000" stroke="black" stroke-width="0.5"/>
<path d="M58.1557 76.7019C57.5963 75.9391 54.5326 74.6891 53.0706 74.1594L53.9605 72.761C55.592 73.4602 59.1091 74.8458 60.1261 74.795C61.3974 74.7314 61.9059 74.2229 62.033 74.5407C62.4144 75.6849 61.3974 77.5918 61.016 77.9096C60.6346 78.2274 58.8549 77.6553 58.1557 76.7019Z" fill="#FF0000" stroke="black" stroke-width="0.5"/>
<path d="M60.1261 74.0957C62.7957 74.4771 68.0714 78.9901 68.1986 79.0537C67.8807 75.1127 65.7196 73.9051 63.622 72.8245C61.944 71.96 60.9736 72.3372 60.6981 72.6338L60.1261 74.0957Z" fill="#FF0000" stroke="black" stroke-width="0.5"/>
<path d="M58.6004 74.6043C55.1935 74.1466 53.8332 73.0152 53.579 72.5067L54.596 72.316C57.6979 73.1805 60.465 72.3796 61.4608 71.8711C62.4142 72.8881 61.5243 73.778 61.2701 74.2229C61.0158 74.6679 60.2531 74.8585 58.6004 74.6043Z" fill="#FF0000" stroke="black" stroke-width="0.5"/>
<path d="M62.6692 58.9645C60.7133 56.0158 63.2047 53.3052 64.8346 52.7457L71.1084 51.6836C72.2244 52.4713 74.0331 53.9792 73.3364 56.3635C71.5158 61.4225 68.7242 62.0352 67.5864 61.5976C66.633 61.7153 64.6251 61.9131 62.6692 58.9645Z" fill="#FE0D0D" stroke="black" stroke-width="0.5"/>
<path d="M65.7212 60.9162C66.3707 60.3949 69.1693 60.5431 70.4873 60.6824C71.0981 60.8759 71.5216 61.4503 71.6818 61.9524C72.3056 64.2426 68.3383 66.4744 66.2767 67.3041C65.8102 67.3504 64.8773 67.3489 64.8773 66.9729C64.7598 65.9474 64.6361 61.7872 65.7212 60.9162Z" fill="#FF0000" stroke="black" stroke-width="0.5"/>
<path d="M64.3111 66.3679C62.6709 66.5963 59.6137 68.7295 58.2902 69.7676L56.5988 72.0571C56.723 72.1381 57.3795 72.0442 59.0123 71.0205C61.0533 69.7408 64.7302 68.7527 65.2648 68.3802C65.7993 68.0076 66.3614 66.0824 64.3111 66.3679Z" fill="#FF0000" stroke="black" stroke-width="0.5"/>
<path d="M61.8895 55.2814C53.8802 50.9034 54.7107 44.8728 56.1271 42.4048C58.3676 47.4524 65.1086 51.8477 68.1991 53.4143C66.45 54.2728 62.7393 55.848 61.8895 55.2814Z" fill="#FF0000" stroke="black" stroke-width="0.5"/>
<path d="M59.4936 35.4167C59.2144 35.5307 59.0184 35.6434 58.8942 35.7256C59.1772 36.1115 59.6036 36.616 60.1073 37.2077C60.1404 37.2466 60.1738 37.2858 60.2075 37.3254C60.7716 37.9878 61.4151 38.7433 62.03 39.5324C62.6812 40.3682 63.3055 41.2482 63.7735 42.1038C64.2391 42.9551 64.5631 43.8056 64.5865 44.5775C64.6174 45.5961 64.5526 46.3136 64.3227 46.9502C64.0926 47.5871 63.7051 48.12 63.1369 48.7812C62.8722 49.0893 62.4965 49.4219 62.0948 49.7676C62.0224 49.8298 61.9491 49.8926 61.875 49.956C61.5322 50.2495 61.1743 50.5559 60.8331 50.8786C59.992 51.6741 59.3225 52.507 59.2438 53.3676C59.1591 54.2941 59.8166 54.9322 60.7853 55.5384C61.4869 55.8727 64.1882 56.8998 67.0222 56.7834C68.4433 56.7251 69.8836 56.3798 71.1226 55.5293C72.3582 54.6812 73.414 53.3167 74.0467 51.1818C75.0718 47.7226 74.3105 43.6596 72.1967 40.4587C70.0861 37.2625 66.6424 34.9479 62.3182 34.9479C60.9676 34.9479 60.0581 35.1861 59.4936 35.4167Z" fill="#FF0000" stroke="black" stroke-width="0.5"/>
<path d="M31.6694 65.6429C26.1267 67.2701 22.8765 66.8718 21.9443 66.4692C24.5376 74.8087 31.627 78.8428 34.8475 79.8174C41.7759 81.915 45.971 80.6437 48.7678 80.1352C55.3149 78.9449 59.2769 69.9864 60.3998 65.3887C59.5099 65.6429 55.1877 65.9607 50.5476 64.4352C40.6318 61.13 38.5977 63.6089 31.6694 65.6429Z" fill="#FF0000" stroke="black" stroke-width="0.5"/>
<path d="M54.7229 68.6931C45.0344 72.6617 33.4817 71.7152 28.9164 70.7458C31.0722 73.5398 36.0813 76.4478 41.7245 76.4478C48.8895 76.4478 54.2791 70.9549 54.7229 68.6931Z" fill="black" stroke="black" stroke-width="0.5"/>
<path d="M51.5407 72.8433C49.8449 74.1471 47.6007 75.8355 42.7711 76.4C39.6137 76.647 36.3584 75.8999 34.8912 74.8757C34.0015 74.2547 33.366 73.5208 33.2389 73.1821C33.1118 72.8433 32.7306 71.9401 32.7306 71.9401C43.1103 72.9789 50.0022 71.0266 52.4858 69.9641C52.5929 70.6134 52.772 71.8967 51.5407 72.8433Z" fill="white" stroke="#060606" stroke-width="0.5"/>
<g filter="url(#filter2_d_2663_5642)">
<path d="M36.6713 73.1426C35.845 74.7953 32.2855 72.8884 32.2855 71.6171C40.1867 72.5706 50.973 70.8544 54.0876 69.3289C53.7697 69.9009 52.9434 71.0451 52.9434 71.0451C52.9434 71.0451 52.2442 71.8078 51.8629 72.0621C51.5577 72.2655 50.7187 71.6807 50.528 71.49C51.3543 73.0791 49.0219 73.7161 48.132 73.8432C47.4201 73.9449 47.0321 73.318 46.7336 72.5719C46.9685 73.4604 47.0298 73.6269 46.7143 74.0325C46.2693 74.6046 43.8733 74.7331 42.6656 74.7331C41.5693 74.7331 41.6185 73.4375 41.6282 72.7031C41.5734 72.9852 41.4712 73.3169 41.3418 73.6301C41.1516 74.1518 40.8868 74.6203 40.5487 74.7331C39.7044 75.0145 38.5147 74.6046 37.962 74.5424C36.5 74.2232 36.5248 73.904 36.6713 73.1426Z" fill="white"/>
<path d="M52.9434 71.0451L53.1461 71.1914L53.1461 71.1914L53.1463 71.1912L53.1468 71.1905L53.1486 71.1879L53.1557 71.1781L53.1828 71.1404C53.2062 71.1077 53.2399 71.0604 53.2814 71.002C53.3643 70.8851 53.4782 70.7233 53.6022 70.5433C53.848 70.1865 54.1406 69.7482 54.3061 69.4503L54.6929 68.754L53.9776 69.1043C52.4609 69.8472 49.0222 70.6542 44.951 71.1545C40.8894 71.6535 36.2392 71.8424 32.3154 71.3689L32.0355 71.3351V71.6171C32.0355 72.0409 32.3222 72.4608 32.6817 72.8048C33.0522 73.1594 33.5487 73.4809 34.0694 73.7058C34.5877 73.9297 35.152 74.0674 35.6562 74.0295C35.9122 74.0103 36.1573 73.9447 36.3704 73.8203C36.3906 73.9362 36.4336 74.0498 36.5122 74.1566C36.6278 74.3136 36.8017 74.4298 37.0239 74.5256C37.2465 74.6217 37.537 74.7055 37.9086 74.7866L37.9212 74.7894L37.934 74.7908C38.0576 74.8047 38.2223 74.8389 38.4289 74.8826L38.446 74.8862C38.6435 74.9279 38.8703 74.9759 39.1067 75.0135C39.5863 75.0897 40.1455 75.131 40.6277 74.9702C40.8737 74.8883 41.0635 74.6894 41.2081 74.4746C41.3067 74.328 41.3938 74.1599 41.4702 73.9838C41.4772 74.011 41.4846 74.038 41.4925 74.0647C41.5622 74.2993 41.6776 74.5317 41.8735 74.7059C42.0742 74.8846 42.3382 74.9831 42.6656 74.9831C43.2758 74.9831 44.1882 74.9507 45.0079 74.8453C45.4171 74.7926 45.8113 74.7208 46.1361 74.6226C46.4458 74.529 46.7482 74.396 46.9116 74.186C47.0261 74.0388 47.1077 73.904 47.1492 73.7511C47.41 74.0031 47.7455 74.1509 48.1674 74.0907C48.6273 74.025 49.473 73.8272 50.1072 73.4261C50.4254 73.2249 50.7151 72.9571 50.8589 72.6047C50.9239 72.4453 50.956 72.2762 50.952 72.0987C50.9795 72.1144 51.0073 72.1297 51.0351 72.1445C51.1801 72.2217 51.3411 72.2925 51.4953 72.3287C51.6391 72.3624 51.8366 72.38 52.0015 72.2701C52.2158 72.1272 52.5023 71.8556 52.7229 71.635C52.8362 71.5218 52.9371 71.4168 53.0097 71.3401C53.046 71.3018 53.0754 71.2704 53.0957 71.2486L53.1192 71.2233L53.1254 71.2165L53.1271 71.2147L53.1275 71.2142L53.1276 71.2141L53.1277 71.214L52.9434 71.0451ZM52.9434 71.0451L53.1461 71.1914L53.1376 71.2032L53.1277 71.214L52.9434 71.0451Z" stroke="black" stroke-width="0.5"/>
</g>
<path d="M46.3521 48.3541C44.8266 48.9896 44.4452 50.0067 44.3181 50.9601C44.2185 51.7074 44.5174 52.353 44.689 52.598C45.201 51.8402 46.5301 50.3372 47.7505 50.3881C48.9709 50.4389 49.9964 52.1467 50.3566 52.9942C50.5261 52.7823 50.8269 52.2187 50.6744 51.6593C50.2676 50.3372 49.5726 49.4982 49.276 49.2439C48.6404 48.5448 47.3056 47.9568 46.3521 48.3541Z" fill="#FF0000"/>
<path d="M44.6995 52.6128C44.696 52.608 44.6925 52.6031 44.689 52.598M44.689 52.598C44.5174 52.353 44.2185 51.7074 44.3181 50.9601C44.4452 50.0067 44.8266 48.9896 46.3521 48.3541C47.3056 47.9568 48.6404 48.5448 49.276 49.2439C49.5726 49.4982 50.2676 50.3372 50.6744 51.6593C50.8269 52.2187 50.5261 52.7823 50.3566 52.9942C49.9964 52.1467 48.9709 50.4389 47.7505 50.3881C46.5301 50.3372 45.201 51.8402 44.689 52.598Z" stroke="#0E0000" stroke-width="0.5"/>
<path d="M44.4897 60.3673C44.5914 62.3505 43.8329 64.0738 43.4092 64.7518C43.7298 64.3461 44.3903 64.4556 44.6804 64.6247C44.8076 64.1797 45.5261 62.9098 46.6703 62.4649C47.8144 62.02 48.45 60.9394 48.7678 60.4944C49.0221 60.1385 48.8968 59.7091 48.812 59.4761C48.4518 59.8786 47.5474 60.5199 46.7338 60.3673C45.9202 60.2148 45.2313 59.8151 44.9983 59.5396C44.8288 59.6244 44.4897 59.7571 44.4897 60.3673Z" fill="#FF0000" stroke="#FF0000" stroke-width="0.5"/>
<path d="M43.3542 64.8176C43.773 64.1696 44.5786 62.4046 44.4504 60.5278C44.4425 59.9499 44.7804 59.6402 44.9504 59.5576C45.1891 59.8153 45.8722 60.364 46.695 60.4973C47.5179 60.6306 48.4401 59.8915 48.7983 59.5053C48.8868 59.7249 49.0008 60.2492 48.7489 60.5898C48.434 61.0155 47.8066 62.0476 46.6579 62.4847C45.5093 62.9218 44.7593 64.377 44.6368 64.8001" stroke="black" stroke-width="0.5"/>
<path d="M36.8395 62.6213C37.0024 63.4785 37.7487 64.5863 38.1332 65.0065C36.9474 65.4929 36.6924 66.0464 36.7293 66.3116C36.7312 66.3215 36.7331 66.3314 36.7349 66.3414C36.7326 66.3319 36.7307 66.322 36.7293 66.3116C36.5816 65.5665 35.9222 64.874 35.6543 64.6252C35.4131 64.4012 34.7859 63.9244 34.4466 63.7353C34.1073 63.5462 33.3962 63.3523 32.9211 63.1632C32.446 62.9741 32.1566 62.4322 32.0209 62.2431C31.8852 62.0541 32.0209 61.3607 32.2924 61.5498C33.0389 61.991 34.1926 62.1171 34.9392 61.6129C35.6857 61.1086 35.8321 60.4295 36.0357 60.3665C36.375 60.2404 36.6359 60.4783 36.8395 60.7935C37.0431 61.1086 36.7037 62.1801 36.8395 62.6213Z" fill="#F30000"/>
<path d="M38.1968 65.1674C37.8122 64.7155 37.0024 63.5812 36.8395 62.6592C36.7037 62.1847 37.0431 61.0323 36.8395 60.6934C36.6359 60.3544 36.3644 60.2189 36.025 60.3544C35.8214 60.4222 35.6857 61.0323 34.9392 61.5746C34.1926 62.117 33.0389 61.9814 32.2924 61.5069C32.0209 61.3035 31.8852 62.0492 32.0209 62.2525C32.1566 62.4559 32.4281 62.9982 32.9032 63.2016C33.3783 63.4049 34.1927 63.6083 34.532 63.8117C34.8713 64.015 35.5124 64.5198 35.7536 64.7607C36.0251 65.0319 36.7038 65.8453 36.8395 66.6588" stroke="black" stroke-width="0.5"/>
<path d="M36.1866 58.4405C36.1866 60.2542 35.0247 61.6228 33.7034 61.6228C32.3821 61.6228 31.2202 60.2542 31.2202 58.4405C31.2202 56.6267 32.3821 55.2581 33.7034 55.2581C35.0247 55.2581 36.1866 56.6267 36.1866 58.4405Z" fill="white" stroke="black" stroke-width="0.5"/>
<path d="M50.399 55.6911C50.2435 57.0467 49.7353 58.2205 49.0526 59.0236C48.3685 59.8282 47.5311 60.2398 46.7026 60.1447C45.8741 60.0497 45.1517 59.4591 44.6676 58.5205C44.1845 57.5836 43.9554 56.3252 44.1109 54.9697C44.2664 53.6141 44.7746 52.4403 45.4573 51.6372C46.1414 50.8326 46.9788 50.4209 47.8073 50.516C48.6358 50.611 49.3582 51.2017 49.8423 52.1403C50.3254 53.0771 50.5545 54.3355 50.399 55.6911Z" fill="white" stroke="black" stroke-width="0.5"/>
<ellipse cx="47.2228" cy="56.2346" rx="1.39838" ry="2.28826" fill="black"/>
<ellipse cx="46.9223" cy="56.7766" rx="0.44494" ry="0.699191" fill="white"/>
<ellipse cx="33.9975" cy="58.4394" rx="1.09676" ry="1.53875" transform="rotate(-1.62406 33.9975 58.4394)" fill="black"/>
<ellipse cx="33.7475" cy="58.8283" rx="0.44858" ry="0.629356" transform="rotate(-1.62406 33.7475 58.8283)" fill="white"/>
<path d="M32.2098 53.4647C30.6062 53.8765 31.3514 56.6173 31.3514 56.6173C31.3514 56.6173 32.1457 54.9445 33.7132 54.9445C34.7838 54.9445 35.5715 55.8023 35.843 56.2956C36.3441 56.2441 36.2434 54.7394 35.843 54.2368C35.2792 53.529 33.8134 53.0529 32.2098 53.4647Z" fill="#FF0000" stroke="black" stroke-width="0.5"/>
<path d="M6.4051 72.7752C5.29565 71.3002 6.35539 69.4976 7.02394 68.7807C7.88629 67.4009 10.0347 66.7715 10.2828 67.2772C10.531 67.7829 11.9107 71.1319 12.8668 71.2903C13.8229 71.4486 14.2701 72.0163 14.1554 72.7415C12.9274 75.0902 7.79191 74.6189 6.4051 72.7752Z" fill="#FF0000" stroke="black" stroke-width="0.5"/>
<g filter="url(#filter3_i_2663_5642)">
<path d="M12.7672 74.0179C15.5579 74.7106 20.0467 72.1153 22.6518 71.7392C22.7046 71.0908 22.5633 69.966 21.5758 70.6536C20.3415 71.5131 15.2069 71.5461 14.1968 71.4482C13.1867 71.3502 12.7817 71.7458 12.4731 72.2266C12.1646 72.7075 12.9959 73.0085 12.7827 73.0853C12.2668 73.4044 12.5574 73.84 12.7672 74.0179Z" fill="#FF0000"/>
</g>
<path d="M12.7672 74.0179C15.5579 74.7106 20.0467 72.1153 22.6518 71.7392C22.7046 71.0908 22.5633 69.966 21.5758 70.6536C20.3415 71.5131 15.2069 71.5461 14.1968 71.4482C13.1867 71.3502 12.7817 71.7458 12.4731 72.2266C12.1646 72.7075 12.9959 73.0085 12.7827 73.0853C12.2668 73.4044 12.5574 73.84 12.7672 74.0179Z" stroke="black" stroke-width="0.5"/>
<path d="M2.12771 65.4814C2.56792 61.7604 4.88202 58.3694 6.20563 57.0753C8.09882 57.8589 12.1534 59.87 13.226 61.6459C13.405 64.1608 9.86446 69.7875 7.39213 70.3438C4.9312 70.8976 1.69222 69.1626 2.12771 65.4814Z" fill="#FF0B0B" stroke="black" stroke-width="0.5"/>
<path d="M23.315 69.0008C18.0251 67.4851 15.9374 61.2589 14.9869 59.387L11.6641 59.0177L10.3045 64.6208C17.2099 72.4943 24.6841 69.9462 23.315 69.0008Z" fill="#F10101" stroke="black" stroke-width="0.5"/>
<g filter="url(#filter4_i_2663_5642)">
<path d="M15.6634 64.0471C15.941 64.7414 15.7791 66.5847 15.6634 67.4195L25.7379 74.4394C25.8382 74.4672 26.413 74.4113 27.813 74.5194C29.7722 74.6708 31.0491 74.036 31.7523 74.036C32.4555 74.036 34.1941 73.9969 34.9204 73.185C36.2196 71.0836 36.0339 63.7889 34.9029 62.0041C34.8018 62.1021 34.5492 62.3463 34.2919 62.5521C34.0346 62.758 33.5354 62.6808 33.3179 62.6164C32.5019 62.168 30.1485 61.5645 29.0738 61.3188L28.5024 61.4097C26.6633 60.3499 24.175 60.5455 23.1606 60.7758L23.1102 60.4811C21.2793 60.4662 17.5175 60.4455 17.1173 60.4811C16.7172 60.5166 16.0391 61.6889 15.7501 62.2706C15.9013 62.8753 15.7553 63.7069 15.6634 64.0471Z" fill="black"/>
</g>
<path d="M15.6634 64.0471C15.941 64.7414 15.7791 66.5847 15.6634 67.4195L25.7379 74.4394C25.8382 74.4672 26.413 74.4113 27.813 74.5194C29.7722 74.6708 31.0491 74.036 31.7523 74.036C32.4555 74.036 34.1941 73.9969 34.9204 73.185C36.2196 71.0836 36.0339 63.7889 34.9029 62.0041C34.8018 62.1021 34.5492 62.3463 34.2919 62.5521C34.0346 62.758 33.5354 62.6808 33.3179 62.6164C32.5019 62.168 30.1485 61.5645 29.0738 61.3188L28.5024 61.4097C26.6633 60.3499 24.175 60.5455 23.1606 60.7758L23.1102 60.4811C21.2793 60.4662 17.5175 60.4455 17.1173 60.4811C16.7172 60.5166 16.0391 61.6889 15.7501 62.2706C15.9013 62.8753 15.7553 63.7069 15.6634 64.0471Z" stroke="black" stroke-width="0.5"/>
<g filter="url(#filter5_i_2663_5642)">
<path d="M15.7497 62.2567C16.054 61.7396 16.7513 60.6711 17.1061 60.5332L18.4539 59.9243L18.4363 59.614C18.6885 59.4659 19.5058 59.2011 20.7578 59.3267L20.7659 59.7337L20.8021 59.713L21.0447 59.614C21.6081 59.4761 23.5658 59.4416 24.3483 59.4416C25.0325 58.8534 25.8377 58.2259 26.2876 58.0341C26.4894 57.923 27.114 57.982 27.4302 58.0293L27.7222 57.8618C28.3101 57.9109 29.4204 58.0022 29.7935 58.0275L29.835 57.8043C29.9741 57.6033 30.3619 57.2528 30.8001 57.4596C30.9368 57.5242 30.9891 57.609 30.9881 57.7008C30.988 57.709 30.9875 57.7172 30.9865 57.7255L30.9365 58.537C31.0049 58.5314 31.0712 58.5376 31.1349 58.5568C31.1364 58.555 31.1378 58.5531 31.1392 58.5512C31.2435 58.4075 31.2696 58.0916 31.2696 57.9479C31.2384 57.8177 31.3436 57.7979 31.4 57.8043C32.8607 57.9422 33.1563 59.0108 33.1216 59.5278L33.0859 59.6767L33.0485 59.7654C33.7339 59.9111 34.3058 60.3869 34.5562 60.6768C34.585 60.7089 34.6385 60.8036 34.5895 60.901C34.5988 60.9344 34.5923 60.9841 34.5439 61.0264L34.4102 61.3938C34.5965 61.5259 34.7748 61.7543 34.9348 62.0554C34.1775 62.7598 33.8975 62.9128 32.7862 62.429C31.8953 62.0411 29.7889 61.4649 28.6112 61.4566C28.6027 61.4566 28.5943 61.4566 28.5859 61.4566C26.8331 60.7212 25.1204 60.4911 23.0497 60.8072C23.0799 60.6994 23.1233 60.6047 23.1836 60.5332H20.9018C19.0158 62.0387 18.4363 62.8628 15.7497 62.2567Z" fill="black"/>
<path d="M35.9312 63.9662C35.8271 63.8441 35.4677 63.7476 35.0738 63.8993C34.6799 64.0509 35.0484 65.0309 35.0484 65.0309C35.1439 65.1861 35.8058 64.8357 35.9745 64.6151C36.1468 64.3898 36.0646 64.1227 35.9312 63.9662Z" fill="black"/>
</g>
<path d="M15.7625 64.0203C16.0338 64.7097 15.8246 66.5109 15.7497 67.1436L27.4304 74.5127C29.2804 74.7197 30.6175 74.1775 31.5565 74.0626C32.4955 73.9477 34.663 74.1768 35.1065 72.7118C35.8786 70.5058 35.8293 66.6172 35.6119 64.9799M15.7625 64.0203C15.8495 63.599 15.854 62.6703 15.7497 62.2567M15.7625 64.0203C15.8668 64.298 17.4151 65.2285 19.0797 64.3199M15.7497 62.2567C16.054 61.7396 16.7513 60.6711 17.1061 60.5332M15.7497 62.2567C18.4363 62.8628 19.0158 62.0387 20.9018 60.5332M17.1061 60.5332H23.1836M17.1061 60.5332L18.4539 59.9243L18.4624 60.0736M23.1836 60.5332C22.9123 60.8549 22.9836 61.6439 23.0532 61.9981M23.1836 60.5332C23.334 60.3548 23.8027 59.9107 24.3483 59.4416M23.1836 60.5332L24.3483 59.4416M27.4302 58.0293C27.114 57.982 26.4894 57.923 26.2876 58.0341C25.8377 58.2259 25.0325 58.8534 24.3483 59.4416M27.4302 58.0293C27.4409 58.031 27.4202 58.0278 27.4302 58.0293ZM27.4302 58.0293L27.7222 57.8618C28.3101 57.9109 29.4204 58.0022 29.7935 58.0275M28.4002 62.3723C28.3649 61.322 30.2919 57.9013 31.2956 58.6381C31.4521 58.753 31.1913 59.1544 31.5565 59.5278C31.8487 59.8266 31.9739 59.7576 31.9739 59.7576L32.1103 59.7907M23.0497 60.8072C25.1204 60.4911 26.8331 60.7212 28.5859 61.4566C29.7585 61.4566 31.8889 62.0384 32.7862 62.429C33.9078 62.9173 34.1826 62.7569 34.9561 62.0357M34.3847 61.3764C34.8569 61.6876 35.2818 62.6207 35.4904 63.7927M34.2171 61.1077C34.7388 60.9928 34.6078 60.7343 34.5562 60.6768C34.3058 60.3869 33.7339 59.9111 33.0485 59.7654M34.2171 61.1077C33.8453 61.1896 32.387 60.6003 32.0331 60.1613M34.2171 61.1077C34.5609 61.1077 34.6086 60.9699 34.5895 60.901L34.1172 62.199C32.5731 62.2909 31.8 61.5673 31.5565 61.1939L31.9739 59.7907C31.9271 59.8691 31.8734 60.0529 32.0331 60.1613M29.8611 63.061C30.7305 63.262 32.5373 64.4225 32.8085 67.4559M32.8085 69.1014C32.7129 69.8386 32.2138 71.6727 30.461 72.6838M32.6703 59.7218C32.6703 58.5278 31.9173 58.4075 31.2696 58.1575M24.3483 59.4416C23.5658 59.4416 21.6081 59.4761 21.0447 59.614L20.8021 59.713L20.7659 59.7337M18.4363 59.614L18.4624 60.0736M18.4363 59.614C19.5006 59.6829 20.4274 59.4512 20.7578 59.3267M18.4363 59.614C18.6885 59.4659 19.5058 59.2011 20.7578 59.3267M18.4624 60.0736C18.9667 60.1023 20.1399 60.0555 20.7659 59.7337M20.7659 59.7337L20.7578 59.3267M34.4027 63.6722C34.3532 64.4692 34.3577 64.9375 34.7359 65.6264M29.7935 58.0275C29.8563 58.0317 29.8982 58.0341 29.9132 58.0341C30.0437 58.0341 29.9393 58.4363 30.1219 58.4075C30.2741 58.3836 30.4082 58.3597 30.5393 58.4355M29.7935 58.0275L29.835 57.8043C29.9741 57.6033 30.3619 57.2528 30.8001 57.4596C30.9368 57.5242 30.9891 57.609 30.9881 57.7008M30.5393 58.4355C30.5654 58.4507 30.5915 58.4698 30.6175 58.4937C30.774 58.6373 31.0348 58.6948 31.1392 58.5512C31.2435 58.4075 31.2696 58.0916 31.2696 57.9479C31.2384 57.8177 31.3436 57.7979 31.4 57.8043C32.8607 57.9422 33.1563 59.0108 33.1216 59.5278L33.0859 59.6767L33.0485 59.7654M30.5393 58.4355V58.2639C30.7247 58.1388 30.9858 57.903 30.9881 57.7008M30.9881 57.7008L30.9305 58.6336M33.0485 59.7654C32.8058 59.7137 32.5488 59.7035 32.2869 59.7576C31.9272 59.8319 31.8904 59.9844 32.0331 60.1613M35.0738 63.8993C35.4677 63.7476 35.8271 63.8441 35.9312 63.9662C36.0646 64.1227 36.1468 64.3898 35.9745 64.6151C35.8058 64.8357 35.1439 65.1861 35.0484 65.0309C35.0484 65.0309 34.6799 64.0509 35.0738 63.8993Z" stroke="black" stroke-width="0.5"/>
<g filter="url(#filter6_d_2663_5642)">
<path d="M30.536 72.6531C31.2734 72.1461 32.7582 70.7425 32.7985 69.1838" stroke="black" stroke-width="0.5"/>
</g>
<g filter="url(#filter7_i_2663_5642)">
<path d="M24.859 75.1275C29.3576 75.4808 32.28 71.7977 30.0254 67.0766C26.9905 60.7217 19.0151 61.7596 18.0369 65.9982L24.859 75.1275Z" fill="black"/>
</g>
<path d="M29.8032 67.1934C30.9016 69.4933 30.7199 71.4915 29.7746 72.8628C28.8421 74.2155 27.1245 75.0199 24.9913 74.8826L18.3054 65.9355C18.8103 64.045 20.8677 62.8132 23.2522 62.818C25.6619 62.8229 28.3283 64.105 29.8032 67.1934Z" stroke="black" stroke-width="0.5"/>
<path d="M28.5816 67.468C29.758 69.7088 29.558 71.8445 28.5559 73.3712C27.5686 74.8753 25.7799 75.8242 23.6618 75.695L17.7911 67.14C18.5354 65.0947 20.4771 63.8245 22.6116 63.7218C24.7791 63.6175 27.1402 64.7223 28.5816 67.468Z" stroke="black" stroke-width="0.5"/>
<g filter="url(#filter8_i_2663_5642)">
<path d="M21.4406 79.7746C26.0149 76.3662 30.4788 72.8221 27.9728 67.9787C24.9099 62.0591 20.5523 64.0785 15.0811 67.2177L21.4406 79.7746Z" fill="black"/>
</g>
<path d="M27.7541 68.1025C28.3601 69.2737 28.538 70.3515 28.408 71.3599C28.2775 72.3713 27.8344 73.3342 27.1645 74.2687C25.8634 76.0837 23.7427 77.7459 21.5313 79.3982L15.4117 67.3148C18.0684 65.7973 20.4046 64.6022 22.4404 64.4537C23.4742 64.3783 24.4245 64.5741 25.3004 65.1368C26.1798 65.7017 27.0013 66.6476 27.7541 68.1025Z" stroke="black" stroke-width="0.5"/>
<path d="M23.0646 69.5886C25.4117 72.7309 25.1714 76.9226 22.6423 78.9702C20.1131 81.0177 16.1516 80.2276 13.8045 77.0852C11.4573 73.9429 11.6976 69.7511 14.2268 67.7036C16.756 65.6561 20.7174 66.4462 23.0646 69.5886Z" fill="#00669F" stroke="black" stroke-width="0.5"/>
<g filter="url(#filter9_i_2663_5642)">
<ellipse cx="4.26362" cy="5.33069" rx="4.26362" ry="5.33069" transform="matrix(0.928191 -0.372105 0.335625 0.941996 12.5043 70.0815)" fill="black"/>
</g>
<path d="M21.9763 72.023C22.9365 74.7181 21.9679 77.496 19.9561 78.3025C17.9443 79.109 15.4857 77.705 14.5255 75.01C13.5653 72.315 14.5339 69.537 16.5457 68.7305C18.5575 67.924 21.0161 69.328 21.9763 72.023Z" stroke="black" stroke-opacity="0.77" stroke-width="0.5"/>
<path d="M21.877 61.2839C21.709 61.0139 21.4462 61.0805 21.2967 61.2181C21.1352 61.3931 21.0736 61.6729 21.231 61.9135C21.3883 62.1541 21.6587 62.0915 21.8292 61.927C21.9617 61.7733 22.0305 61.5306 21.877 61.2839Z" fill="black"/>
<path d="M34.4499 71.5506C34.1611 71.2037 33.2549 70.6624 32.7957 71.7756C32.2968 72.985 33.7147 73.2944 33.8985 73.0694M33.951 71.7193C33.2421 70.9318 32.323 72.9288 33.8985 72.6756M33.5572 72.0006L34.5812 71.9162L34.6337 72.31M34.3711 72.4506L33.3471 72.5069V72.1131M21.2967 61.2181C21.4462 61.0805 21.709 61.0139 21.877 61.2839C22.0305 61.5306 21.9617 61.7733 21.8292 61.927C21.6587 62.0915 21.3883 62.1541 21.231 61.9135C21.0736 61.6729 21.1352 61.3931 21.2967 61.2181Z" stroke="black" stroke-width="0.5"/>
<g filter="url(#filter10_d_2663_5642)">
<path d="M29.8636 63.0586C30.9814 63.429 32.5335 64.5277 32.8137 67.4663" stroke="black" stroke-width="0.5"/>
</g>
<path d="M25.9928 63.1898L25.9842 63.1844L25.9752 63.1798C25.5487 62.9592 25.0271 62.577 24.4261 62.1182C24.317 62.0348 24.2054 61.9492 24.0918 61.8619C23.587 61.4743 23.0408 61.0547 22.4759 60.6649C21.7835 60.1871 21.0514 59.7456 20.3136 59.4531C19.5761 59.1607 18.8171 59.0109 18.0781 59.1369C16.9901 59.3223 16.3199 59.5535 15.7732 59.9234C15.2836 60.2546 14.9057 60.6906 14.4199 61.2512C14.3719 61.3066 14.3228 61.3633 14.2724 61.4212C14.2517 61.4449 14.2308 61.4689 14.2097 61.4933C13.7131 62.0644 13.0801 62.7923 12.352 63.435C11.5903 64.1073 10.7475 64.6652 9.87563 64.8596C9.35659 64.9753 8.98753 65.0039 8.67037 64.9174C8.36342 64.8337 8.06949 64.6318 7.72655 64.2074C7.30548 63.5443 6.05103 61.076 5.83311 58.3283C5.72384 56.9505 5.87619 55.5158 6.51217 54.2048C7.14627 52.8977 8.27012 51.6948 10.1378 50.7901C17.6242 47.164 26.5996 51.5129 28.7188 61.6134C28.8948 62.4526 28.7527 63.2018 28.356 63.5571C27.9899 63.8849 27.2659 63.9848 25.9928 63.1898Z" fill="#FF0000" stroke="black" stroke-width="0.5"/>
<defs>
<filter id="filter0_i_2663_5642" x="18.7575" y="74.085" width="10.5944" height="8.54199" filterUnits="userSpaceOnUse" color-interpolation-filters="sRGB">
<feFlood flood-opacity="0" result="BackgroundImageFix"/>
<feBlend mode="normal" in="SourceGraphic" in2="BackgroundImageFix" result="shape"/>
<feColorMatrix in="SourceAlpha" type="matrix" values="0 0 0 0 0 0 0 0 0 0 0 0 0 0 0 0 0 0 127 0" result="hardAlpha"/>
<feOffset dx="-3" dy="8"/>
<feGaussianBlur stdDeviation="2"/>
<feComposite in2="hardAlpha" operator="arithmetic" k2="-1" k3="1"/>
<feColorMatrix type="matrix" values="0 0 0 0 0 0 0 0 0 0 0 0 0 0 0 0 0 0 0.25 0"/>
<feBlend mode="normal" in2="shape" result="effect1_innerShadow_2663_5642"/>
</filter>
<filter id="filter1_i_2663_5642" x="19.5021" y="71.6819" width="8.99182" height="7.76172" filterUnits="userSpaceOnUse" color-interpolation-filters="sRGB">
<feFlood flood-opacity="0" result="BackgroundImageFix"/>
<feBlend mode="normal" in="SourceGraphic" in2="BackgroundImageFix" result="shape"/>
<feColorMatrix in="SourceAlpha" type="matrix" values="0 0 0 0 0 0 0 0 0 0 0 0 0 0 0 0 0 0 127 0" result="hardAlpha"/>
<feOffset dy="4"/>
<feGaussianBlur stdDeviation="2"/>
<feComposite in2="hardAlpha" operator="arithmetic" k2="-1" k3="1"/>
<feColorMatrix type="matrix" values="0 0 0 0 0 0 0 0 0 0 0 0 0 0 0 0 0 0 0.25 0"/>
<feBlend mode="normal" in2="shape" result="effect1_innerShadow_2663_5642"/>
</filter>
<filter id="filter2_d_2663_5642" x="24.7855" y="66.1792" width="31.5128" height="15.1516" filterUnits="userSpaceOnUse" color-interpolation-filters="sRGB">
<feFlood flood-opacity="0" result="BackgroundImageFix"/>
<feColorMatrix in="SourceAlpha" type="matrix" values="0 0 0 0 0 0 0 0 0 0 0 0 0 0 0 0 0 0 127 0" result="hardAlpha"/>
<feOffset dx="-3" dy="2"/>
<feGaussianBlur stdDeviation="2"/>
<feComposite in2="hardAlpha" operator="out"/>
<feColorMatrix type="matrix" values="0 0 0 0 0 0 0 0 0 0 0 0 0 0 0 0 0 0 0.25 0"/>
<feBlend mode="normal" in2="BackgroundImageFix" result="effect1_dropShadow_2663_5642"/>
<feBlend mode="normal" in="SourceGraphic" in2="effect1_dropShadow_2663_5642" result="shape"/>
</filter>
<filter id="filter3_i_2663_5642" x="12.1536" y="65.1885" width="13.7577" height="9.19629" filterUnits="userSpaceOnUse" color-interpolation-filters="sRGB">
<feFlood flood-opacity="0" result="BackgroundImageFix"/>
<feBlend mode="normal" in="SourceGraphic" in2="BackgroundImageFix" result="shape"/>
<feColorMatrix in="SourceAlpha" type="matrix" values="0 0 0 0 0 0 0 0 0 0 0 0 0 0 0 0 0 0 127 0" result="hardAlpha"/>
<feOffset dx="3" dy="-9"/>
<feGaussianBlur stdDeviation="2.5"/>
<feComposite in2="hardAlpha" operator="arithmetic" k2="-1" k3="1"/>
<feColorMatrix type="matrix" values="0 0 0 0 0 0 0 0 0 0 0 0 0 0 0 0 0 0 0.25 0"/>
<feBlend mode="normal" in2="shape" result="effect1_innerShadow_2663_5642"/>
</filter>
<filter id="filter4_i_2663_5642" x="13.3947" y="60.2114" width="22.6799" height="15.5813" filterUnits="userSpaceOnUse" color-interpolation-filters="sRGB">
<feFlood flood-opacity="0" result="BackgroundImageFix"/>
<feBlend mode="normal" in="SourceGraphic" in2="BackgroundImageFix" result="shape"/>
<feColorMatrix in="SourceAlpha" type="matrix" values="0 0 0 0 0 0 0 0 0 0 0 0 0 0 0 0 0 0 127 0" result="hardAlpha"/>
<feOffset dx="-2" dy="1"/>
<feGaussianBlur stdDeviation="11.25"/>
<feComposite in2="hardAlpha" operator="arithmetic" k2="-1" k3="1"/>
<feColorMatrix type="matrix" values="0 0 0 0 0.0167535 0 0 0 0 0.52008 0 0 0 0 0.804167 0 0 0 1 0"/>
<feBlend mode="normal" in2="shape" result="effect1_innerShadow_2663_5642"/>
</filter>
<filter id="filter5_i_2663_5642" x="14.4822" y="57.1465" width="21.8406" height="20.6628" filterUnits="userSpaceOnUse" color-interpolation-filters="sRGB">
<feFlood flood-opacity="0" result="BackgroundImageFix"/>
<feBlend mode="normal" in="SourceGraphic" in2="BackgroundImageFix" result="shape"/>
<feColorMatrix in="SourceAlpha" type="matrix" values="0 0 0 0 0 0 0 0 0 0 0 0 0 0 0 0 0 0 127 0" result="hardAlpha"/>
<feOffset dx="-1" dy="3"/>
<feGaussianBlur stdDeviation="8.2"/>
<feComposite in2="hardAlpha" operator="arithmetic" k2="-1" k3="1"/>
<feColorMatrix type="matrix" values="0 0 0 0 0 0 0 0 0 0.447451 0 0 0 0 0.7 0 0 0 1 0"/>
<feBlend mode="normal" in2="shape" result="effect1_innerShadow_2663_5642"/>
</filter>
<filter id="filter6_d_2663_5642" x="27.3944" y="65.1775" width="10.654" height="11.6816" filterUnits="userSpaceOnUse" color-interpolation-filters="sRGB">
<feFlood flood-opacity="0" result="BackgroundImageFix"/>
<feColorMatrix in="SourceAlpha" type="matrix" values="0 0 0 0 0 0 0 0 0 0 0 0 0 0 0 0 0 0 127 0" result="hardAlpha"/>
<feOffset dx="1"/>
<feGaussianBlur stdDeviation="2"/>
<feComposite in2="hardAlpha" operator="out"/>
<feColorMatrix type="matrix" values="0 0 0 0 1 0 0 0 0 1 0 0 0 0 1 0 0 0 0.81 0"/>
<feBlend mode="normal" in2="BackgroundImageFix" result="effect1_dropShadow_2663_5642"/>
<feBlend mode="normal" in="SourceGraphic" in2="effect1_dropShadow_2663_5642" result="shape"/>
</filter>
<filter id="filter7_i_2663_5642" x="18.037" y="62.5647" width="12.7671" height="12.5862" filterUnits="userSpaceOnUse" color-interpolation-filters="sRGB">
<feFlood flood-opacity="0" result="BackgroundImageFix"/>
<feBlend mode="normal" in="SourceGraphic" in2="BackgroundImageFix" result="shape"/>
<feColorMatrix in="SourceAlpha" type="matrix" values="0 0 0 0 0 0 0 0 0 0 0 0 0 0 0 0 0 0 127 0" result="hardAlpha"/>
<feOffset dx="-45" dy="-52"/>
<feGaussianBlur stdDeviation="19.25"/>
<feComposite in2="hardAlpha" operator="arithmetic" k2="-1" k3="1"/>
<feColorMatrix type="matrix" values="0 0 0 0 0 0 0 0 0 0.639216 0 0 0 0 1 0 0 0 0.61 0"/>
<feBlend mode="normal" in2="shape" result="effect1_innerShadow_2663_5642"/>
</filter>
<filter id="filter8_i_2663_5642" x="15.0811" y="64.1851" width="13.6138" height="17.5896" filterUnits="userSpaceOnUse" color-interpolation-filters="sRGB">
<feFlood flood-opacity="0" result="BackgroundImageFix"/>
<feBlend mode="normal" in="SourceGraphic" in2="BackgroundImageFix" result="shape"/>
<feColorMatrix in="SourceAlpha" type="matrix" values="0 0 0 0 0 0 0 0 0 0 0 0 0 0 0 0 0 0 127 0" result="hardAlpha"/>
<feOffset dy="2"/>
<feGaussianBlur stdDeviation="16.1"/>
<feComposite in2="hardAlpha" operator="arithmetic" k2="-1" k3="1"/>
<feColorMatrix type="matrix" values="0 0 0 0 0 0 0 0 0 0.4075 0 0 0 0 0.6375 0 0 0 1 0"/>
<feBlend mode="normal" in2="shape" result="effect1_innerShadow_2663_5642"/>
</filter>
<filter id="filter9_i_2663_5642" x="13.9067" y="62.249" width="25.6883" height="16.5352" filterUnits="userSpaceOnUse" color-interpolation-filters="sRGB">
<feFlood flood-opacity="0" result="BackgroundImageFix"/>
<feBlend mode="normal" in="SourceGraphic" in2="BackgroundImageFix" result="shape"/>
<feColorMatrix in="SourceAlpha" type="matrix" values="0 0 0 0 0 0 0 0 0 0 0 0 0 0 0 0 0 0 127 0" result="hardAlpha"/>
<feOffset dx="17" dy="-6"/>
<feGaussianBlur stdDeviation="15"/>
<feComposite in2="hardAlpha" operator="arithmetic" k2="-1" k3="1"/>
<feColorMatrix type="matrix" values="0 0 0 0 0.0121528 0 0 0 0 0.270724 0 0 0 0 0.416667 0 0 0 0.33 0"/>
<feBlend mode="normal" in2="shape" result="effect1_innerShadow_2663_5642"/>
</filter>
<filter id="filter10_d_2663_5642" x="28.0849" y="60.1213" width="8.67762" height="10.0687" filterUnits="userSpaceOnUse" color-interpolation-filters="sRGB">
<feFlood flood-opacity="0" result="BackgroundImageFix"/>
<feColorMatrix in="SourceAlpha" type="matrix" values="0 0 0 0 0 0 0 0 0 0 0 0 0 0 0 0 0 0 127 0" result="hardAlpha"/>
<feOffset dx="1"/>
<feGaussianBlur stdDeviation="1.35"/>
<feComposite in2="hardAlpha" operator="out"/>
<feColorMatrix type="matrix" values="0 0 0 0 1 0 0 0 0 1 0 0 0 0 1 0 0 0 0.6 0"/>
<feBlend mode="normal" in2="BackgroundImageFix" result="effect1_dropShadow_2663_5642"/>
<feBlend mode="normal" in="SourceGraphic" in2="effect1_dropShadow_2663_5642" result="shape"/>
</filter>
</defs>
</svg>
