<svg width="131" height="41" viewBox="0 0 131 41" fill="none" xmlns="http://www.w3.org/2000/svg">
<path d="M3.82832 12.3965L5.40332 11.3965C7.16999 13.0965 8.68665 14.6132 9.95332 15.9465C11.2367 17.2798 12.32 18.3465 13.2033 19.1465C13.1867 19.5132 13.0783 19.8048 12.8783 20.0215C12.6783 20.2215 12.4283 20.3215 12.1283 20.3215C11.845 20.3215 11.5867 20.2382 11.3533 20.0715C11.1367 19.9048 10.9117 19.7132 10.6783 19.4965L3.82832 12.3965ZM5.67832 13.0965L3.65332 12.6465L11.1783 4.84648C11.6117 4.86315 11.9367 4.97148 12.1533 5.17148C12.37 5.37148 12.4783 5.60482 12.4783 5.87148C12.4783 6.08815 12.42 6.29648 12.3033 6.49648C12.2033 6.67982 12.0367 6.87148 11.8033 7.07148L5.67832 13.0965ZM2.25332 10.9715H4.30332V20.1215C4.20332 20.1548 4.06999 20.1882 3.90332 20.2215C3.73665 20.2715 3.55332 20.2965 3.35332 20.2965C2.98665 20.2965 2.71165 20.2215 2.52832 20.0715C2.34499 19.9215 2.25332 19.6882 2.25332 19.3715V10.9715ZM4.30332 12.6465H2.25332V4.99648C2.33665 4.96315 2.46165 4.92982 2.62832 4.89648C2.81165 4.84648 3.00332 4.82148 3.20332 4.82148C3.56999 4.82148 3.84499 4.89648 4.02832 5.04648C4.21165 5.17982 4.30332 5.41315 4.30332 5.74648V12.6465ZM18.9385 11.0715H20.9635V20.0965C20.8801 20.1298 20.7551 20.1632 20.5885 20.1965C20.4218 20.2465 20.2385 20.2715 20.0385 20.2715C19.6718 20.2715 19.3968 20.1965 19.2135 20.0465C19.0301 19.8965 18.9385 19.6632 18.9385 19.3465V11.0715ZM20.9635 12.7465H18.9385V4.99648C19.0218 4.96315 19.1468 4.92982 19.3135 4.89648C19.4968 4.84648 19.6885 4.82148 19.8885 4.82148C20.2551 4.82148 20.5218 4.89648 20.6885 5.04648C20.8718 5.17982 20.9635 5.41315 20.9635 5.74648V12.7465ZM27.9564 6.67148L29.6564 6.52148C29.7231 7.03815 29.7814 7.64648 29.8314 8.34648C29.8814 9.04648 29.9148 9.77148 29.9314 10.5215C29.9648 11.2548 29.9814 11.9548 29.9814 12.6215V20.0965C29.8981 20.1298 29.7648 20.1632 29.5814 20.1965C29.4148 20.2465 29.2398 20.2715 29.0564 20.2715C28.6898 20.2715 28.4148 20.2048 28.2314 20.0715C28.0481 19.9215 27.9564 19.6882 27.9564 19.3715V6.67148ZM40.0064 18.4215L38.2814 18.5715C38.1148 17.1715 38.0148 15.7465 37.9814 14.2965C37.9648 12.8298 37.9564 11.4132 37.9564 10.0465V4.99648C38.0564 4.96315 38.1898 4.92982 38.3564 4.89648C38.5231 4.84648 38.7064 4.82148 38.9064 4.82148C39.2731 4.82148 39.5481 4.89648 39.7314 5.04648C39.9148 5.17982 40.0064 5.40482 40.0064 5.72148V18.4215ZM40.0064 17.6715V19.8715C39.8564 19.9882 39.6648 20.0882 39.4314 20.1715C39.1981 20.2548 38.9398 20.2965 38.6564 20.2965C38.2564 20.2965 37.9148 20.2215 37.6314 20.0715C37.3481 19.9048 37.0898 19.6132 36.8564 19.1965L32.1064 11.1965C31.8564 10.7465 31.5814 10.2548 31.2814 9.72148C30.9814 9.17148 30.6981 8.65482 30.4314 8.17148C30.1648 7.67148 29.9564 7.26315 29.8064 6.94648L27.9564 7.42148V5.24648C28.0898 5.11315 28.2731 5.00482 28.5064 4.92148C28.7564 4.83815 29.0231 4.79648 29.3064 4.79648C29.7064 4.79648 30.0481 4.87982 30.3314 5.04648C30.6148 5.19648 30.8731 5.47982 31.1064 5.89648L35.8814 13.8965C36.1481 14.3465 36.4231 14.8465 36.7064 15.3965C37.0064 15.9298 37.2814 16.4465 37.5314 16.9465C37.7814 17.4298 37.9814 17.8298 38.1314 18.1465L40.0064 17.6715ZM60.5854 12.5465C60.5854 14.2798 60.2687 15.7382 59.6354 16.9215C59.002 18.0882 58.1354 18.9715 57.0354 19.5715C55.952 20.1715 54.7187 20.4715 53.3354 20.4715C51.9687 20.4715 50.7354 20.1715 49.6354 19.5715C48.5354 18.9715 47.6687 18.0882 47.0354 16.9215C46.402 15.7382 46.0854 14.2798 46.0854 12.5465C46.0854 10.8132 46.4104 9.36315 47.0604 8.19648C47.7104 7.01315 48.577 6.12148 49.6604 5.52148C50.7604 4.92148 51.9854 4.62148 53.3354 4.62148C54.702 4.62148 55.927 4.92148 57.0104 5.52148C58.1104 6.12148 58.977 7.01315 59.6104 8.19648C60.2604 9.36315 60.5854 10.8132 60.5854 12.5465ZM58.5104 12.5465C58.5104 10.5632 58.0354 9.03815 57.0854 7.97148C56.152 6.88815 54.902 6.34648 53.3354 6.34648C51.7854 6.34648 50.5354 6.88815 49.5854 7.97148C48.652 9.03815 48.1854 10.5632 48.1854 12.5465C48.1854 14.5298 48.652 16.0632 49.5854 17.1465C50.5187 18.2132 51.7687 18.7465 53.3354 18.7465C54.9187 18.7465 56.177 18.2132 57.1104 17.1465C58.0437 16.0632 58.5104 14.5298 58.5104 12.5465Z" fill="black"/>
<path d="M6.04355 33.5215V39.0465C5.86022 39.0965 5.56855 39.1465 5.16856 39.1965C4.76856 39.2465 4.37689 39.2715 3.99355 39.2715C3.61022 39.2715 3.26855 39.2382 2.96855 39.1715C2.68522 39.1215 2.44355 39.0215 2.24355 38.8715C2.04355 38.7215 1.89355 38.5132 1.79355 38.2465C1.69355 37.9798 1.64355 37.6298 1.64355 37.1965V23.9965C1.82689 23.9632 2.11855 23.9215 2.51855 23.8715C2.91855 23.8048 3.30189 23.7715 3.66856 23.7715C4.05189 23.7715 4.38522 23.8048 4.66855 23.8715C4.96855 23.9215 5.21855 24.0215 5.41855 24.1715C5.61855 24.3215 5.76856 24.5298 5.86855 24.7965C5.96855 25.0632 6.01855 25.4132 6.01855 25.8465V29.8215L11.2186 23.8465C12.3519 23.8465 13.1602 24.0632 13.6436 24.4965C14.1436 24.9132 14.3936 25.4132 14.3936 25.9965C14.3936 26.4298 14.2852 26.8382 14.0686 27.2215C13.8519 27.6048 13.5019 28.0382 13.0186 28.5215L9.89355 31.6465C10.3102 32.1132 10.7436 32.5965 11.1936 33.0965C11.6602 33.5965 12.1102 34.0882 12.5436 34.5715C12.9936 35.0382 13.4186 35.4882 13.8186 35.9215C14.2352 36.3548 14.5936 36.7298 14.8936 37.0465C14.8936 37.4132 14.8269 37.7382 14.6936 38.0215C14.5602 38.3048 14.3769 38.5465 14.1436 38.7465C13.9269 38.9465 13.6769 39.0965 13.3936 39.1965C13.1102 39.2965 12.8102 39.3465 12.4936 39.3465C11.8102 39.3465 11.2519 39.1798 10.8186 38.8465C10.3852 38.4965 9.96856 38.0882 9.56856 37.6215L6.04355 33.5215ZM21.3744 34.2465V39.0465C21.1911 39.0965 20.8994 39.1465 20.4994 39.1965C20.1161 39.2465 19.7327 39.2715 19.3494 39.2715C18.9661 39.2715 18.6244 39.2382 18.3244 39.1715C18.0411 39.1215 17.7994 39.0215 17.5994 38.8715C17.4161 38.7215 17.2744 38.5132 17.1744 38.2465C17.0744 37.9798 17.0244 37.6298 17.0244 37.1965V25.4215C17.0244 25.0715 17.1161 24.8048 17.2994 24.6215C17.4994 24.4215 17.7661 24.2631 18.0994 24.1465C18.6661 23.9465 19.3244 23.8048 20.0744 23.7215C20.8244 23.6215 21.6244 23.5715 22.4744 23.5715C24.7744 23.5715 26.5077 24.0548 27.6744 25.0215C28.8411 25.9882 29.4244 27.2965 29.4244 28.9465C29.4244 29.9798 29.1577 30.8632 28.6244 31.5965C28.0911 32.3298 27.4577 32.8965 26.7244 33.2965C27.3244 34.1132 27.9161 34.8798 28.4994 35.5965C29.0827 36.3132 29.5411 36.9632 29.8744 37.5465C29.7077 38.1298 29.3994 38.5798 28.9494 38.8965C28.5161 39.1965 28.0244 39.3465 27.4744 39.3465C27.1077 39.3465 26.7911 39.3048 26.5244 39.2215C26.2577 39.1382 26.0244 39.0215 25.8244 38.8715C25.6244 38.7215 25.4411 38.5382 25.2744 38.3215C25.1077 38.1048 24.9494 37.8715 24.7994 37.6215L22.6994 34.2465H21.3744ZM22.9494 30.9215C23.5827 30.9215 24.0827 30.7632 24.4494 30.4465C24.8161 30.1132 24.9994 29.6298 24.9994 28.9965C24.9994 28.3632 24.7911 27.8882 24.3744 27.5715C23.9744 27.2382 23.3327 27.0715 22.4494 27.0715C22.1994 27.0715 21.9994 27.0798 21.8494 27.0965C21.6994 27.1132 21.5327 27.1382 21.3494 27.1715V30.9215H22.9494ZM35.6791 24.4465C35.9624 24.2798 36.3874 24.1215 36.9541 23.9715C37.5374 23.8215 38.1208 23.7465 38.7041 23.7465C39.5374 23.7465 40.2708 23.8715 40.9041 24.1215C41.5541 24.3548 41.9708 24.7298 42.1541 25.2465C42.4541 26.1132 42.7791 27.1215 43.1291 28.2715C43.4791 29.4215 43.8291 30.6132 44.1791 31.8465C44.5291 33.0632 44.8708 34.2715 45.2041 35.4715C45.5374 36.6548 45.8291 37.7048 46.0791 38.6215C45.8791 38.8548 45.5791 39.0382 45.1791 39.1715C44.7791 39.3215 44.3041 39.3965 43.7541 39.3965C43.3541 39.3965 43.0124 39.3632 42.7291 39.2965C42.4624 39.2298 42.2374 39.1298 42.0541 38.9965C41.8874 38.8632 41.7458 38.6882 41.6291 38.4715C41.5291 38.2548 41.4374 38.0048 41.3541 37.7215L40.9041 35.9965H36.3791C36.2458 36.4965 36.1124 37.0132 35.9791 37.5465C35.8458 38.0798 35.7124 38.5965 35.5791 39.0965C35.3458 39.1798 35.0958 39.2465 34.8291 39.2965C34.5791 39.3632 34.2708 39.3965 33.9041 39.3965C33.0541 39.3965 32.4208 39.2548 32.0041 38.9715C31.6041 38.6715 31.4041 38.2632 31.4041 37.7465C31.4041 37.5132 31.4374 37.2798 31.5041 37.0465C31.5708 36.8132 31.6458 36.5382 31.7291 36.2215C31.8458 35.7715 32.0041 35.2132 32.2041 34.5465C32.4208 33.8798 32.6541 33.1632 32.9041 32.3965C33.1541 31.6132 33.4208 30.8132 33.7041 29.9965C33.9874 29.1798 34.2541 28.4132 34.5041 27.6965C34.7541 26.9632 34.9791 26.3132 35.1791 25.7465C35.3958 25.1798 35.5624 24.7465 35.6791 24.4465ZM38.6791 27.6715C38.4458 28.3715 38.1791 29.1548 37.8791 30.0215C37.5958 30.8715 37.3374 31.7382 37.1041 32.6215H40.2041C39.9708 31.7215 39.7291 30.8465 39.4791 29.9965C39.2458 29.1298 39.0291 28.3548 38.8291 27.6715H38.6791ZM52.3779 36.0215C52.6113 36.0882 52.9113 36.1382 53.2779 36.1715C53.6446 36.1882 53.9946 36.1965 54.3279 36.1965C54.9946 36.1965 55.5446 36.0632 55.9779 35.7965C56.4279 35.5132 56.6529 35.0798 56.6529 34.4965C56.6529 33.9465 56.4696 33.5548 56.1029 33.3215C55.7363 33.0882 55.1779 32.9715 54.4279 32.9715H52.3779V36.0215ZM52.3779 29.9215H54.2029C54.9196 29.9215 55.4363 29.7882 55.7529 29.5215C56.0863 29.2548 56.2529 28.8632 56.2529 28.3465C56.2529 27.8965 56.0613 27.5382 55.6779 27.2715C55.3113 27.0048 54.7529 26.8715 54.0029 26.8715C53.7529 26.8715 53.4613 26.8798 53.1279 26.8965C52.8113 26.9132 52.5613 26.9382 52.3779 26.9715V29.9215ZM54.0029 39.5465C53.7196 39.5465 53.3863 39.5382 53.0029 39.5215C52.6196 39.5048 52.2196 39.4715 51.8029 39.4215C51.4029 39.3715 51.0029 39.3048 50.6029 39.2215C50.2029 39.1548 49.8363 39.0548 49.5029 38.9215C48.5863 38.5715 48.1279 37.9632 48.1279 37.0965V25.4215C48.1279 25.0715 48.2196 24.8048 48.4029 24.6215C48.6029 24.4215 48.8696 24.2631 49.2029 24.1465C49.7696 23.9465 50.4779 23.8048 51.3279 23.7215C52.1779 23.6215 53.0529 23.5715 53.9529 23.5715C56.0863 23.5715 57.7279 23.9298 58.8779 24.6465C60.0279 25.3632 60.6029 26.4715 60.6029 27.9715C60.6029 28.7215 60.3863 29.3715 59.9529 29.9215C59.5196 30.4548 58.9363 30.8465 58.2029 31.0965C59.0363 31.3298 59.7279 31.7548 60.2779 32.3715C60.8446 32.9882 61.1279 33.7632 61.1279 34.6965C61.1279 36.3465 60.5113 37.5715 59.2779 38.3715C58.0613 39.1548 56.3029 39.5465 54.0029 39.5465Z" fill="url(#paint0_linear_3901_6010)"/>
<path d="M104.519 32.9565C99.8386 33.3478 96.5344 30.9349 96.6506 30.0709L96.4521 28.946C104.5 29.8068 110.363 28.2612 112.289 27.3809C112.372 27.9189 112.319 29.2101 111.443 30.0709C110.347 31.1469 107.956 32.3696 104.519 32.9565Z" stroke="#FF0000" stroke-width="0.5"/>
<path d="M100.038 33.4456C101.681 33.8532 105.576 34.4042 108.006 33.3478C106.728 34.326 103.345 35.715 100.038 33.4456Z" stroke="#FF0000" stroke-width="0.5"/>
<path d="M87.1893 34.1793C86.4721 36.3313 87.9861 38.467 88.8327 39.2659C88.8327 38.8746 88.8626 37.7888 88.9822 36.5759C89.1017 35.3629 89.5964 34.3424 89.8288 33.9837H89.4802C89.3972 33.9837 89.2212 33.9348 89.1814 33.7391C89.1316 33.4946 88.9822 33.0055 88.6335 32.6142C88.3547 32.3012 88.1853 32.2882 88.1355 32.3208C88.0691 32.3534 87.7869 32.7707 87.1893 34.1793Z" fill="#FF0000" stroke="black" stroke-width="0.5"/>
<g filter="url(#filter0_i_3901_6010)">
<path d="M88.1855 31.6357V32.3205C88.2519 32.3368 88.4445 32.4476 88.6836 32.7606C88.9824 33.1519 89.1318 33.4943 89.2812 33.8856C89.4007 34.1986 89.5634 34.0812 89.6298 33.9834L90.0282 34.1301L93.614 32.4672L92.2693 31.0488L88.1855 31.6357Z" fill="#FF0000"/>
</g>
<path d="M88.1855 31.6357V32.3205C88.2519 32.3368 88.4445 32.4476 88.6836 32.7606C88.9824 33.1519 89.1318 33.4943 89.2812 33.8856C89.4007 34.1986 89.5634 34.0812 89.6298 33.9834L90.0282 34.1301L93.614 32.4672L92.2693 31.0488L88.1855 31.6357Z" stroke="#9B0000" stroke-width="0.5"/>
<path d="M86.1934 40.293C86.9503 38.767 89.8289 36.69 91.1735 35.8423L90.9743 34.5706L90.0281 33.7881C89.8123 33.9185 88.9723 34.5119 87.3388 35.8423C85.7053 37.1726 85.8945 39.3637 86.1934 40.293Z" fill="#FF0000" stroke="black" stroke-width="0.5"/>
<path d="M91.5235 36.2827C91.8423 36.4783 93.7812 34.2774 94.7109 33.1525L93.7148 32.1743C93.6152 32.2069 93.3363 32.2917 93.0176 32.37C91.2247 32.6634 90.4279 33.446 89.9797 33.6905C89.5314 33.935 89.631 34.7665 89.9797 34.5709C90.1789 34.4241 90.9757 34.7665 90.9757 35.1578C90.9757 35.9907 91.1251 36.0381 91.5235 36.2827Z" fill="#FF0000" stroke="black" stroke-width="0.5"/>
<path d="M84.0024 32.4189C82.9566 34.1797 83.1558 36.3806 83.1558 36.5273C83.1558 36.0969 86.1107 32.9569 87.5882 31.4407L86.5921 29.7778C86.0775 30.0713 84.8391 31.0103 84.0024 32.4189Z" fill="#FF0000" stroke="black" stroke-width="0.5"/>
<g filter="url(#filter1_i_3901_6010)">
<path d="M89.082 29.7773C89.7593 29.973 90.8583 30.0219 91.3231 30.0219L92.8669 31.3424C91.8211 31.6359 87.7871 31.7337 87.4883 31.6848C87.1895 31.6359 86.8907 31.538 86.8409 31.2446C86.7911 30.9511 86.9903 30.8044 86.8907 30.5599C86.7911 30.3153 86.5919 30.4131 86.4425 30.0219C86.2931 29.6306 86.8907 29.1415 87.1896 29.1904C87.4884 29.2393 88.2354 29.5328 89.082 29.7773Z" fill="#FF0000"/>
</g>
<path d="M89.082 29.7773C89.7593 29.973 90.8583 30.0219 91.3231 30.0219L92.8669 31.3424C91.8211 31.6359 87.7871 31.7337 87.4883 31.6848C87.1895 31.6359 86.8907 31.538 86.8409 31.2446C86.7911 30.9511 86.9903 30.8044 86.8907 30.5599C86.7911 30.3153 86.5919 30.4131 86.4425 30.0219C86.2931 29.6306 86.8907 29.1415 87.1896 29.1904C87.4884 29.2393 88.2354 29.5328 89.082 29.7773Z" stroke="#6D0000" stroke-width="0.5"/>
<path d="M115.263 34.7653C115.741 35.2348 115.595 38.6454 115.462 40.292C116.259 39.9497 118.101 37.602 118.052 35.8902C118.012 34.5207 117.404 33.9175 117.105 33.7871L115.263 34.7653Z" fill="#FF0000" stroke="black" stroke-width="0.5"/>
<path d="M115.163 35.3031C115.043 34.5988 113.221 32.8903 112.324 32.124L113.27 30.3633L114.715 31.3415C115.561 32.0262 117.294 33.4348 117.454 33.5913C117.653 33.7869 117.802 34.0804 117.653 34.3249C117.504 34.5695 117.006 34.4716 116.508 34.5695C116.01 34.6673 115.761 35.4498 115.611 35.5477C115.462 35.6455 115.213 35.5477 115.163 35.3031Z" fill="#FF0000" stroke="black" stroke-width="0.5"/>
<path d="M118.3 33.347C121.089 34.7654 121.902 37.1456 121.935 38.8248C123.28 35.499 122.284 33.6404 121.537 32.5644C120.939 31.7036 119.528 31.4232 118.897 31.3906L118.3 33.347Z" fill="#FF0000" stroke="black" stroke-width="0.5"/>
<path d="M116.508 32.8576C116.069 32.2707 113.669 31.3088 112.523 30.9012L113.221 29.8252C114.499 30.3632 117.255 31.4294 118.051 31.3903C119.047 31.3414 119.446 30.9501 119.546 31.1947C119.844 32.075 119.047 33.5423 118.749 33.7868C118.45 34.0314 117.055 33.5912 116.508 32.8576Z" fill="#FF0000" stroke="black" stroke-width="0.5"/>
<path d="M118.051 30.8521C120.142 31.1455 124.276 34.6181 124.376 34.667C124.127 31.6346 122.433 30.7053 120.79 29.8739C119.475 29.2087 118.715 29.4989 118.499 29.7271L118.051 30.8521Z" fill="#FF0000" stroke="black" stroke-width="0.5"/>
<path d="M116.856 31.2432C114.187 30.8911 113.121 30.0205 112.922 29.6292L113.719 29.4825C116.149 30.1477 118.317 29.5314 119.097 29.1401C119.844 29.9227 119.147 30.6074 118.948 30.9498C118.749 31.2921 118.151 31.4389 116.856 31.2432Z" fill="#FF0000" stroke="black" stroke-width="0.5"/>
<path d="M120.044 19.2093C118.512 16.9404 120.464 14.8547 121.741 14.4241L126.656 13.6069C127.531 14.2131 128.948 15.3733 128.402 17.2079C126.976 21.1006 124.788 21.5721 123.897 21.2354C123.15 21.3259 121.577 21.4781 120.044 19.2093Z" fill="#FE0D0D" stroke="black" stroke-width="0.5"/>
<path d="M122.436 20.7111C122.945 20.3099 125.137 20.424 126.17 20.5311C126.649 20.68 126.98 21.122 127.106 21.5083C127.595 23.2706 124.486 24.9879 122.871 25.6263C122.505 25.6619 121.775 25.6608 121.775 25.3715C121.682 24.5824 121.586 21.3812 122.436 20.7111Z" fill="#FF0000" stroke="black" stroke-width="0.5"/>
<path d="M121.332 24.9059C120.047 25.0817 117.651 26.7231 116.614 27.5219L115.289 29.2836C115.386 29.3459 115.901 29.2736 117.18 28.4859C118.779 27.5013 121.66 26.741 122.079 26.4543C122.498 26.1676 122.938 24.6862 121.332 24.9059Z" fill="#FF0000" stroke="black" stroke-width="0.5"/>
<path d="M119.434 16.3754C113.159 13.0066 113.81 8.36633 114.919 6.46729C116.675 10.3513 121.957 13.7332 124.378 14.9387C123.008 15.5992 120.1 16.8113 119.434 16.3754Z" fill="#FF0000" stroke="black" stroke-width="0.5"/>
<path d="M117.575 1.14386C117.397 1.21537 117.263 1.28592 117.169 1.34286C117.388 1.63037 117.705 1.99861 118.078 2.42901C118.104 2.459 118.13 2.48926 118.157 2.51978C118.599 3.02931 119.104 3.61151 119.586 4.21964C120.097 4.86372 120.588 5.5436 120.957 6.20576C121.324 6.86346 121.583 7.52776 121.602 8.13591C121.626 8.92245 121.575 9.48379 121.391 9.98447C121.207 10.4853 120.897 10.9021 120.451 11.4121C120.24 11.653 119.943 11.9116 119.628 12.1772C119.571 12.2252 119.514 12.2737 119.456 12.3226C119.187 12.5484 118.908 12.7831 118.642 13.0303C117.982 13.6429 117.475 14.27 117.415 14.907C117.353 15.5806 117.836 16.0549 118.595 16.5218C119.144 16.7782 121.249 17.5627 123.455 17.4737C124.562 17.4291 125.68 17.165 126.64 16.5179C127.596 15.8734 128.416 14.8354 128.908 13.2046C129.705 10.563 129.114 7.45491 127.465 5.00381C125.82 2.55751 123.138 0.786918 119.769 0.786927C118.717 0.78693 118.011 0.969176 117.575 1.14386Z" fill="#FF0000" stroke="black" stroke-width="0.5"/>
<path d="M95.7564 24.3479C91.4137 25.5999 88.8671 25.2934 88.1367 24.9837C90.1686 31.4006 95.7232 34.5047 98.2465 35.2546C103.675 36.8686 106.962 35.8904 109.153 35.4991C114.283 34.5832 117.387 27.69 118.267 24.1522C117.57 24.3478 114.183 24.5924 110.548 23.4186C102.778 20.8753 101.185 22.7828 95.7564 24.3479Z" fill="#FF0000" stroke="black" stroke-width="0.5"/>
<path d="M113.818 26.6953C106.227 29.749 97.1756 29.0207 93.5986 28.2748C95.2877 30.4246 99.2124 32.6622 103.634 32.6622C109.248 32.6622 113.47 28.4357 113.818 26.6953Z" fill="black" stroke="black" stroke-width="0.5"/>
<path d="M111.43 29.9276C110.078 30.921 108.289 32.2076 104.439 32.6378C101.922 32.826 98.3226 31.8664 97.153 31.086C96.4437 30.6128 96.3559 30.4619 96.2546 30.2038C96.1533 29.9457 95.8955 29.1451 95.8955 29.1451C104.17 29.9368 111.522 27.8375 113.502 27.0278C113.588 27.5226 112.412 29.2062 111.43 29.9276Z" fill="white" stroke="black" stroke-width="0.5"/>
<g filter="url(#filter2_d_3901_6010)">
<path d="M99.6756 30.1191C99.0282 31.3907 96.2393 29.9234 96.2393 28.9453C102.43 29.6789 111.421 27.8486 113.861 26.6748C113.612 27.115 112.425 28.5051 112.425 28.5051C112.425 28.5051 111.877 29.092 111.578 29.2876C111.339 29.4441 110.682 28.9942 110.532 28.8474C111.18 30.0702 109.352 30.5603 108.655 30.6581C108.097 30.7364 107.793 30.2541 107.559 29.6799C107.743 30.3636 107.791 30.4917 107.544 30.8038C107.196 31.244 105.318 31.3429 104.372 31.3429C103.513 31.3429 103.552 30.346 103.559 29.7809C103.516 29.998 103.436 30.2532 103.335 30.4942C103.186 30.8956 102.978 31.2561 102.714 31.3429C102.052 31.5594 101.12 31.244 100.687 31.1961C99.5414 30.9505 99.5608 30.7049 99.6756 30.1191Z" fill="white"/>
<path d="M112.425 28.5051L112.615 28.6674L112.615 28.6673L112.615 28.6671L112.616 28.6663L112.619 28.6633L112.629 28.6514L112.667 28.6061C112.7 28.567 112.748 28.5107 112.806 28.4417C112.921 28.3039 113.078 28.1154 113.243 27.9129C113.566 27.5168 113.941 27.0406 114.078 26.7979L114.471 26.1039L113.752 26.4495C112.568 27.0194 109.741 27.7663 106.418 28.2782C103.102 28.7892 99.3321 29.06 96.2687 28.697L95.9893 28.6639V28.9453C95.9893 29.2976 96.23 29.6354 96.5139 29.9023C96.8095 30.1801 97.2041 30.4308 97.617 30.606C98.0276 30.7802 98.4781 30.8889 98.8839 30.859C99.0664 30.8456 99.2439 30.8031 99.4036 30.7242C99.4243 30.7963 99.4577 30.8674 99.5086 30.9352C99.6076 31.0672 99.7537 31.1613 99.9319 31.2368C100.111 31.3126 100.342 31.3779 100.634 31.4406L100.647 31.4432L100.659 31.4446C100.753 31.455 100.88 31.4807 101.042 31.5145L101.056 31.5173C101.211 31.5494 101.389 31.5865 101.576 31.6156C101.953 31.6746 102.401 31.7081 102.791 31.5804C103 31.5121 103.157 31.3478 103.274 31.1779C103.329 31.0977 103.379 31.0098 103.425 30.9177C103.483 31.081 103.574 31.2415 103.717 31.3665C103.886 31.5138 104.105 31.5929 104.372 31.5929C104.852 31.5929 105.569 31.5679 106.214 31.4864C106.536 31.4458 106.847 31.3901 107.106 31.3134C107.235 31.275 107.357 31.2298 107.462 31.1753C107.565 31.122 107.666 31.0525 107.74 30.959C107.813 30.8672 107.871 30.7792 107.91 30.684C108.115 30.8546 108.374 30.9501 108.69 30.9057C109.053 30.8547 109.724 30.7012 110.23 30.387C110.484 30.2294 110.722 30.0155 110.841 29.7284C110.884 29.626 110.909 29.5191 110.917 29.4084C111.03 29.4667 111.156 29.5208 111.279 29.5491C111.395 29.5759 111.568 29.5934 111.715 29.4968C111.888 29.3835 112.116 29.1708 112.289 29.0014C112.378 28.9138 112.457 28.8326 112.515 28.7734C112.543 28.7438 112.566 28.7195 112.582 28.7026L112.601 28.6829L112.606 28.6777L112.607 28.6762L112.607 28.6758L112.608 28.6757L112.608 28.6757L112.425 28.5051ZM112.425 28.5051L112.615 28.6674L112.608 28.6758L112.425 28.5051Z" stroke="black" stroke-width="0.5"/>
</g>
<path d="M107.26 11.0451C106.064 11.5342 105.766 12.3168 105.666 13.0504C105.588 13.6254 105.822 14.1221 105.957 14.3107C106.358 13.7276 107.399 12.5711 108.355 12.6103C109.311 12.6494 110.115 13.9634 110.397 14.6155C110.53 14.4525 110.766 14.0188 110.646 13.5884C110.327 12.5711 109.783 11.9255 109.55 11.7299C109.052 11.1919 108.007 10.7395 107.26 11.0451Z" fill="#FF0000"/>
<path d="M105.965 14.3221C105.962 14.3184 105.959 14.3146 105.957 14.3107M105.957 14.3107C105.822 14.1221 105.588 13.6254 105.666 13.0504C105.766 12.3168 106.064 11.5342 107.26 11.0451C108.007 10.7395 109.052 11.1919 109.55 11.7299C109.783 11.9255 110.327 12.5711 110.646 13.5884C110.766 14.0188 110.53 14.4525 110.397 14.6155C110.115 13.9634 109.311 12.6494 108.355 12.6103C107.399 12.5711 106.358 13.7276 105.957 14.3107Z" stroke="#0E0000" stroke-width="0.5"/>
<path d="M105.8 20.2888C105.879 21.8148 105.285 23.1408 104.953 23.6625C105.204 23.3503 105.722 23.4346 105.949 23.5647C106.049 23.2223 106.612 22.2452 107.508 21.9028C108.405 21.5604 108.903 20.729 109.152 20.3866C109.351 20.1127 109.253 19.7824 109.186 19.603C108.904 19.9128 108.195 20.4062 107.558 20.2888C106.921 20.1714 106.381 19.8639 106.198 19.6519C106.065 19.7171 105.8 19.8193 105.8 20.2888Z" fill="#FF0000" stroke="#FF0000" stroke-width="0.5"/>
<path d="M104.91 23.7135C105.238 23.2149 105.87 21.8568 105.769 20.4126C105.763 19.968 106.028 19.7297 106.161 19.6661C106.348 19.8644 106.883 20.2866 107.528 20.3891C108.173 20.4917 108.895 19.923 109.176 19.6259C109.245 19.7948 109.335 20.1982 109.137 20.4603C108.89 20.7879 108.399 21.5821 107.499 21.9184C106.599 22.2547 106.011 23.3744 105.915 23.7" stroke="black" stroke-width="0.5"/>
<path d="M99.8073 22.0232C99.935 22.6828 100.52 23.5352 100.821 23.8586C99.8919 24.2328 99.6921 24.6587 99.721 24.8628C99.7225 24.8704 99.724 24.878 99.7254 24.8857C99.7236 24.8784 99.7221 24.8708 99.721 24.8628C99.6053 24.2895 99.0886 23.7566 98.8787 23.5651C98.6898 23.3928 98.1984 23.0259 97.9325 22.8804C97.6666 22.7349 97.1095 22.5857 96.7373 22.4402C96.365 22.2947 96.1383 21.8777 96.032 21.7322C95.9256 21.5867 96.032 21.0533 96.2447 21.1988C96.8296 21.5383 97.7335 21.6352 98.3184 21.2473C98.9033 20.8593 99.018 20.3367 99.1776 20.2882C99.4434 20.1912 99.6478 20.3743 99.8073 20.6168C99.9669 20.8593 99.701 21.6837 99.8073 22.0232Z" fill="#F30000"/>
<path d="M100.871 23.9821C100.569 23.6344 99.935 22.7616 99.8073 22.0522C99.701 21.6871 99.9669 20.8004 99.8073 20.5395C99.6478 20.2787 99.4351 20.1744 99.1692 20.2787C99.0097 20.3309 98.9033 20.8004 98.3184 21.2176C97.7335 21.6349 96.8296 21.5306 96.2447 21.1655C96.032 21.009 95.9256 21.5828 96.032 21.7392C96.1383 21.8957 96.351 22.313 96.7232 22.4695C97.0955 22.626 97.7335 22.7825 97.9994 22.9389C98.2653 23.0954 98.7676 23.4838 98.9565 23.6692C99.1692 23.8778 99.701 24.5038 99.8073 25.1297" stroke="black" stroke-width="0.5"/>
<path d="M99.241 18.8061C99.241 20.1782 98.3477 21.1972 97.3495 21.1972C96.3513 21.1972 95.458 20.1782 95.458 18.8061C95.458 17.434 96.3513 16.415 97.3495 16.415C98.3477 16.415 99.241 17.434 99.241 18.8061Z" fill="white" stroke="black" stroke-width="0.5"/>
<path d="M110.376 16.6843C110.256 17.7167 109.862 18.6082 109.335 19.2162C108.808 19.8253 108.168 20.1308 107.54 20.0601C106.913 19.9894 106.36 19.5495 105.987 18.8389C105.614 18.1296 105.436 17.1737 105.557 16.1413C105.678 15.1089 106.071 14.2175 106.598 13.6095C107.125 13.0004 107.765 12.6948 108.393 12.7656C109.02 12.8363 109.573 13.2762 109.946 13.9868C110.319 14.696 110.497 15.6519 110.376 16.6843Z" fill="white" stroke="black" stroke-width="0.5"/>
<ellipse cx="107.941" cy="17.1089" rx="1.09564" ry="1.76073" fill="black"/>
<ellipse cx="107.706" cy="17.5258" rx="0.348613" ry="0.538" fill="white"/>
<ellipse cx="0.859308" cy="1.18403" rx="0.859308" ry="1.18403" transform="matrix(0.999613 -0.0278338 0.0288583 0.999584 96.6865 17.6455)" fill="black"/>
<ellipse cx="0.35146" cy="0.484272" rx="0.35146" ry="0.484272" transform="matrix(0.999613 -0.0278338 0.0288583 0.999584 97.0186 18.6304)" fill="white"/>
<path d="M96.1792 14.9778C94.9227 15.2947 95.5066 17.4036 95.5066 17.4036C95.5066 17.4036 96.129 16.1165 97.3571 16.1165C98.1959 16.1165 98.8131 16.7766 99.0258 17.1561C99.4184 17.1165 99.3395 15.9586 99.0258 15.5719C98.5841 15.0273 97.4356 14.661 96.1792 14.9778Z" fill="#FF0000" stroke="black" stroke-width="0.5"/>
<path d="M75.9605 29.836C75.0912 28.701 75.9215 27.314 76.4453 26.7624C77.121 25.7006 78.8043 25.2164 78.9987 25.6055C79.1931 25.9946 80.2741 28.5715 81.0232 28.6934C81.7723 28.8152 82.1228 29.2521 82.0328 29.8101C81.0708 31.6173 77.047 31.2547 75.9605 29.836Z" fill="#FF0000" stroke="black" stroke-width="0.5"/>
<g filter="url(#filter3_i_3901_6010)">
<path d="M80.9456 30.7926C83.1321 31.3256 86.6491 29.3286 88.6902 29.0392C88.7316 28.5403 88.6209 27.6747 87.8472 28.2038C86.8801 28.8652 82.8571 28.8906 82.0657 28.8152C81.2743 28.7399 80.9569 29.0442 80.7152 29.4142C80.4734 29.7842 81.1248 30.0158 80.9577 30.075C80.5535 30.3205 80.7812 30.6557 80.9456 30.7926Z" fill="#FF0000"/>
</g>
<path d="M80.9456 30.7926C83.1321 31.3256 86.6491 29.3286 88.6902 29.0392C88.7316 28.5403 88.6209 27.6747 87.8472 28.2038C86.8801 28.8652 82.8571 28.8906 82.0657 28.8152C81.2743 28.7399 80.9569 29.0442 80.7152 29.4142C80.4734 29.7842 81.1248 30.0158 80.9577 30.075C80.5535 30.3205 80.7812 30.6557 80.9456 30.7926Z" stroke="black" stroke-width="0.5"/>
<path d="M72.61 24.224C72.9549 21.3608 74.7681 18.7516 75.8051 17.7558C77.2884 18.3588 80.4652 19.9063 81.3056 21.2727C81.4458 23.2078 78.6718 27.5374 76.7347 27.9654C74.8066 28.3915 72.2688 27.0565 72.61 24.224Z" fill="#FF0B0B" stroke="black" stroke-width="0.5"/>
<path d="M89.2105 26.9321C85.0659 25.7658 83.4301 20.975 82.6854 19.5346L80.082 19.2505L79.0167 23.5619C84.4272 29.6202 90.2832 27.6595 89.2105 26.9321Z" fill="#F10101" stroke="black" stroke-width="0.5"/>
<path d="M83.2158 23.1204C83.4334 23.6546 83.3065 25.0729 83.2158 25.7153L91.1093 31.1168C91.1879 31.1382 91.6382 31.0952 92.7351 31.1784C94.2701 31.2949 95.2707 30.8064 95.8216 30.8064C96.3726 30.8064 97.7348 30.7764 98.3038 30.1516C99.3218 28.5347 99.1762 22.9217 98.2901 21.5484C98.2109 21.6238 98.013 21.8117 97.8114 21.97C97.6098 22.1284 97.2186 22.069 97.0482 22.0195C96.4089 21.6745 94.565 21.2101 93.723 21.0211L93.2753 21.091C91.8344 20.2755 89.8847 20.4261 89.09 20.6032L89.0504 20.3764C87.6159 20.365 84.6685 20.3491 84.355 20.3764C84.0415 20.4038 83.5102 21.3058 83.2838 21.7534C83.4023 22.2187 83.2878 22.8586 83.2158 23.1204Z" fill="black" stroke="white" stroke-width="0.5"/>
<path d="M83.2832 21.7427C83.5216 21.3448 84.068 20.5226 84.3459 20.4165L85.402 19.948L85.3882 19.7092C85.5858 19.5952 86.2261 19.3915 87.2071 19.4882L87.2135 19.8014L87.2418 19.7854L87.4319 19.7092C87.8733 19.6031 89.4072 19.5766 90.0203 19.5766C90.5564 19.124 91.1872 18.6411 91.5397 18.4936C91.6978 18.4081 92.1872 18.4535 92.4349 18.4899L92.6637 18.361C93.1244 18.3988 93.9943 18.469 94.2866 18.4885L94.3191 18.3167C94.4281 18.162 94.7319 17.8924 95.0753 18.0515C95.1824 18.1012 95.2233 18.1665 95.2226 18.2371C95.2225 18.2434 95.2221 18.2497 95.2214 18.2561L95.1821 18.8805C95.2357 18.8762 95.2877 18.881 95.3376 18.8958C95.3387 18.8944 95.3399 18.8929 95.341 18.8914C95.4227 18.7809 95.4431 18.5378 95.4431 18.4273C95.4187 18.327 95.5011 18.3118 95.5453 18.3167C96.6898 18.4228 96.9214 19.2451 96.8942 19.6429L96.8662 19.7574L96.8369 19.8257C97.3739 19.9378 97.822 20.3039 98.0182 20.527C98.0408 20.5517 98.0827 20.6245 98.0443 20.6995C98.0516 20.7252 98.0465 20.7634 98.0086 20.796L97.9038 21.0787C98.0498 21.1803 98.1895 21.3561 98.3149 21.5878C97.7215 22.1298 97.5021 22.2476 96.6314 21.8753C95.9334 21.5768 94.283 21.1334 93.3603 21.1271C93.3536 21.127 93.347 21.127 93.3405 21.127C91.9671 20.5612 90.6252 20.3841 89.0028 20.6274C89.0265 20.5444 89.0604 20.4715 89.1077 20.4165H87.3199C85.8422 21.575 85.3882 22.2091 83.2832 21.7427Z" fill="black"/>
<path d="M99.0955 23.0581C99.014 22.9642 98.7324 22.8898 98.4237 23.0066C98.1151 23.1233 98.4038 23.8773 98.4038 23.8773C98.4787 23.9967 98.9972 23.7271 99.1294 23.5574C99.2644 23.384 99.2001 23.1785 99.0955 23.0581Z" fill="black"/>
<path d="M83.2932 23.0997C83.5058 23.6302 83.3419 25.0161 83.2832 25.5029L92.4351 31.1732C93.8846 31.3324 94.9322 30.9152 95.6679 30.8268C96.4037 30.7384 98.1019 30.9147 98.4494 29.7875C99.0543 28.09 99.0157 25.0979 98.8454 23.838M83.2932 23.0997C83.3614 22.7755 83.365 22.0609 83.2832 21.7427M83.2932 23.0997C83.375 23.3134 84.588 24.0294 85.8923 23.3302M83.2832 21.7427C83.5216 21.3448 84.068 20.5226 84.3459 20.4165M83.2832 21.7427C85.3882 22.2091 85.8422 21.575 87.3199 20.4165M84.3459 20.4165H89.1077M84.3459 20.4165L85.402 19.948L85.4086 20.0629M89.1077 20.4165C88.8952 20.664 88.951 21.2711 89.0055 21.5437M89.1077 20.4165C89.2256 20.2792 89.5928 19.9375 90.0203 19.5766M89.1077 20.4165L90.0203 19.5766M92.4349 18.4899C92.1872 18.4535 91.6978 18.4081 91.5397 18.4936C91.1872 18.6411 90.5564 19.124 90.0203 19.5766M92.4349 18.4899C92.4434 18.4911 92.4271 18.4887 92.4349 18.4899ZM92.4349 18.4899L92.6637 18.361C93.1244 18.3988 93.9943 18.469 94.2866 18.4885M93.195 21.8316C93.1673 21.0234 94.6771 18.3913 95.4635 18.9583C95.5861 19.0467 95.3818 19.3556 95.6679 19.6429C95.8968 19.8728 95.9949 19.8197 95.9949 19.8197L96.1018 19.8452M89.0028 20.6274C90.6252 20.3841 91.9671 20.5612 93.3405 21.127C94.2592 21.127 95.9284 21.5747 96.6314 21.8753C97.5102 22.251 97.7255 22.1276 98.3315 21.5726M97.8838 21.0653C98.2539 21.3048 98.5867 22.0228 98.7502 22.9246M97.7525 20.8585C98.1612 20.7701 98.0586 20.5712 98.0182 20.527C97.822 20.3039 97.3739 19.9378 96.8369 19.8257M97.7525 20.8585C97.4612 20.9216 96.3186 20.4681 96.0413 20.1304M97.7525 20.8585C98.0219 20.8585 98.0593 20.7525 98.0443 20.6995L97.6743 21.6982C96.4644 21.769 95.8587 21.2122 95.6679 20.9249L95.9949 19.8452C95.9583 19.9055 95.9162 20.0469 96.0413 20.1304M94.3396 22.3615C95.0208 22.5162 96.4364 23.4092 96.6489 25.7432M96.6489 27.0094C96.574 27.5767 96.183 28.9879 94.8096 29.7659M96.5406 19.7921C96.5406 18.8734 95.9506 18.7809 95.4431 18.5885M90.0203 19.5766C89.4072 19.5766 87.8733 19.6031 87.4319 19.7092L87.2418 19.7854L87.2135 19.8014M85.3882 19.7092L85.4086 20.0629M85.3882 19.7092C86.222 19.7623 86.9482 19.584 87.2071 19.4882M85.3882 19.7092C85.5858 19.5952 86.2261 19.3915 87.2071 19.4882M85.4086 20.0629C85.8038 20.085 86.723 20.0489 87.2135 19.8014M87.2135 19.8014L87.2071 19.4882M97.898 22.8318C97.8592 23.4451 97.8627 23.8054 98.159 24.3355M94.2866 18.4885C94.3358 18.4917 94.3686 18.4936 94.3804 18.4936C94.4826 18.4936 94.4009 18.803 94.5439 18.7809C94.6632 18.7625 94.7682 18.7441 94.8709 18.8024M94.2866 18.4885L94.3191 18.3167C94.4281 18.162 94.7319 17.8924 95.0753 18.0515C95.1824 18.1012 95.2233 18.1665 95.2226 18.2371M94.8709 18.8024C94.8914 18.8141 94.9118 18.8288 94.9322 18.8472C95.0548 18.9577 95.2592 19.0019 95.341 18.8914C95.4227 18.7809 95.4431 18.5378 95.4431 18.4273C95.4187 18.327 95.5011 18.3118 95.5453 18.3167C96.6898 18.4228 96.9214 19.2451 96.8942 19.6429L96.8662 19.7574L96.8369 19.8257M94.8709 18.8024V18.6704C95.0162 18.5741 95.2208 18.3927 95.2226 18.2371M95.2226 18.2371L95.1775 18.9549M96.8369 19.8257C96.6467 19.786 96.4454 19.7781 96.2402 19.8197C95.9584 19.8769 95.9296 19.9942 96.0413 20.1304M98.4237 23.0066C98.7324 22.8898 99.014 22.9642 99.0955 23.0581C99.2001 23.1785 99.2644 23.384 99.1294 23.5574C98.9972 23.7271 98.4787 23.9967 98.4038 23.8773C98.4038 23.8773 98.1151 23.1233 98.4237 23.0066Z" stroke="white" stroke-width="0.5"/>
<g filter="url(#filter4_d_3901_6010)">
<path d="M94.8682 29.7422C95.4459 29.3521 96.6092 28.2721 96.6408 27.0728" stroke="white" stroke-width="0.5"/>
</g>
<g filter="url(#filter5_i_3901_6010)">
<path d="M90.4204 31.6463C93.9451 31.9182 96.2349 29.0842 94.4684 25.4515C92.0905 20.5616 85.8417 21.3602 85.0753 24.6217L90.4204 31.6463Z" fill="black"/>
</g>
<path d="M90.4204 31.6463C93.9451 31.9182 96.2349 29.0842 94.4684 25.4515C92.0905 20.5616 85.8417 21.3602 85.0753 24.6217L90.4204 31.6463Z" stroke="black" stroke-width="0.5"/>
<path d="M89.3731 32.2711C92.8978 32.5429 95.4094 29.2153 93.5068 25.6561C91.1813 21.306 85.841 22.0979 84.6658 25.5344L89.3731 32.2711Z" fill="black" stroke="black" stroke-width="0.5"/>
<path d="M87.7417 35.2219C91.3257 32.5993 94.8231 29.8722 92.8597 26.1454C90.4599 21.5905 87.0457 23.1443 82.759 25.5599L87.7417 35.2219Z" fill="black" stroke="white" stroke-width="0.5"/>
<ellipse cx="4.829" cy="5.6395" rx="4.829" ry="5.6395" transform="matrix(0.782754 -0.622331 0.605372 0.795942 78.1924 28.7847)" fill="black" stroke="white" stroke-width="0.5"/>
<g filter="url(#filter6_i_3901_6010)">
<ellipse cx="3.33234" cy="4.11026" rx="3.33234" ry="4.11026" transform="matrix(0.930482 -0.366337 0.341044 0.940047 80.7402 27.7637)" fill="black"/>
</g>
<ellipse cx="3.33234" cy="4.11026" rx="3.33234" ry="4.11026" transform="matrix(0.930482 -0.366337 0.341044 0.940047 80.7402 27.7637)" stroke="white" stroke-width="0.5"/>
<path d="M88.0836 20.9945C87.952 20.7867 87.7461 20.838 87.6289 20.9439C87.5024 21.0785 87.4541 21.2938 87.5775 21.479C87.7007 21.6641 87.9126 21.6159 88.0462 21.4893C88.15 21.3711 88.2039 21.1843 88.0836 20.9945Z" fill="black"/>
<path d="M97.9346 28.8943C97.7083 28.6274 96.9982 28.2109 96.6385 29.0674C96.2476 29.9981 97.3585 30.2361 97.5025 30.063M97.5437 29.0241C96.9882 28.4182 96.2681 29.9548 97.5025 29.76M97.2351 29.2406L98.0374 29.1756L98.0786 29.4786M97.8728 29.5868L97.0705 29.6301V29.3271M87.6289 20.9439C87.7461 20.838 87.952 20.7867 88.0836 20.9945C88.2039 21.1843 88.15 21.3711 88.0462 21.4893C87.9126 21.6159 87.7007 21.6641 87.5775 21.479C87.4541 21.2938 87.5024 21.0785 87.6289 20.9439Z" stroke="white" stroke-width="0.5"/>
<path d="M94.3408 22.3599C95.2166 22.6449 96.4327 23.4903 96.6522 25.7514" stroke="white" stroke-width="0.5"/>
<path d="M91.3343 22.4119L91.3256 22.4066L91.3165 22.402C90.9875 22.2349 90.5828 21.9439 90.1112 21.5904C90.0259 21.5264 89.9387 21.4607 89.8498 21.3936C89.4543 21.0953 89.0249 20.7714 88.5809 20.4706C88.0368 20.1018 87.4592 19.7594 86.8756 19.5322C86.2921 19.305 85.6873 19.1869 85.0959 19.2859C84.2403 19.4291 83.707 19.6086 83.2699 19.899C82.8804 20.1578 82.5796 20.4987 82.2002 20.9287C82.1623 20.9717 82.1235 21.0156 82.0838 21.0604C82.0678 21.0784 82.0516 21.0967 82.0352 21.1153C81.6458 21.555 81.152 22.1128 80.5841 22.6051C79.99 23.1201 79.3375 23.5429 78.6667 23.6897C78.2618 23.7784 77.9829 23.798 77.7473 23.7349C77.5223 23.6747 77.3021 23.5291 77.0393 23.2103C76.7112 22.7015 75.7365 20.8149 75.5671 18.7172C75.4821 17.6646 75.6009 16.5718 76.0935 15.5746C76.5843 14.581 77.4555 13.6633 78.9096 12.9716C84.7429 10.1968 91.7373 13.5218 93.3901 21.2581C93.5261 21.895 93.412 22.4451 93.1231 22.6992C92.8629 22.9281 92.325 23.0195 91.3343 22.4119Z" fill="#FF0000" stroke="black" stroke-width="0.5"/>
<defs>
<filter id="filter0_i_3901_6010" x="87.9355" y="30.7832" width="6.09961" height="3.61719" filterUnits="userSpaceOnUse" color-interpolation-filters="sRGB">
<feFlood flood-opacity="0" result="BackgroundImageFix"/>
<feBlend mode="normal" in="SourceGraphic" in2="BackgroundImageFix" result="shape"/>
<feColorMatrix in="SourceAlpha" type="matrix" values="0 0 0 0 0 0 0 0 0 0 0 0 0 0 0 0 0 0 127 0" result="hardAlpha"/>
<feOffset dx="-3" dy="8"/>
<feGaussianBlur stdDeviation="2"/>
<feComposite in2="hardAlpha" operator="arithmetic" k2="-1" k3="1"/>
<feColorMatrix type="matrix" values="0 0 0 0 0 0 0 0 0 0 0 0 0 0 0 0 0 0 0.25 0"/>
<feBlend mode="normal" in2="shape" result="effect1_innerShadow_3901_6010"/>
</filter>
<filter id="filter1_i_3901_6010" x="86.168" y="28.937" width="7.2168" height="7.00977" filterUnits="userSpaceOnUse" color-interpolation-filters="sRGB">
<feFlood flood-opacity="0" result="BackgroundImageFix"/>
<feBlend mode="normal" in="SourceGraphic" in2="BackgroundImageFix" result="shape"/>
<feColorMatrix in="SourceAlpha" type="matrix" values="0 0 0 0 0 0 0 0 0 0 0 0 0 0 0 0 0 0 127 0" result="hardAlpha"/>
<feOffset dy="4"/>
<feGaussianBlur stdDeviation="2"/>
<feComposite in2="hardAlpha" operator="arithmetic" k2="-1" k3="1"/>
<feColorMatrix type="matrix" values="0 0 0 0 0 0 0 0 0 0 0 0 0 0 0 0 0 0 0.25 0"/>
<feBlend mode="normal" in2="shape" result="effect1_innerShadow_3901_6010"/>
</filter>
<filter id="filter2_d_3901_6010" x="88.7393" y="23.5327" width="27.3418" height="14.3853" filterUnits="userSpaceOnUse" color-interpolation-filters="sRGB">
<feFlood flood-opacity="0" result="BackgroundImageFix"/>
<feColorMatrix in="SourceAlpha" type="matrix" values="0 0 0 0 0 0 0 0 0 0 0 0 0 0 0 0 0 0 127 0" result="hardAlpha"/>
<feOffset dx="-3" dy="2"/>
<feGaussianBlur stdDeviation="2"/>
<feComposite in2="hardAlpha" operator="out"/>
<feColorMatrix type="matrix" values="0 0 0 0 0 0 0 0 0 0 0 0 0 0 0 0 0 0 0.25 0"/>
<feBlend mode="normal" in2="BackgroundImageFix" result="effect1_dropShadow_3901_6010"/>
<feBlend mode="normal" in="SourceGraphic" in2="effect1_dropShadow_3901_6010" result="shape"/>
</filter>
<filter id="filter3_i_3901_6010" x="80.4102" y="27.7891" width="8.53809" height="3.34277" filterUnits="userSpaceOnUse" color-interpolation-filters="sRGB">
<feFlood flood-opacity="0" result="BackgroundImageFix"/>
<feBlend mode="normal" in="SourceGraphic" in2="BackgroundImageFix" result="shape"/>
<feColorMatrix in="SourceAlpha" type="matrix" values="0 0 0 0 0 0 0 0 0 0 0 0 0 0 0 0 0 0 127 0" result="hardAlpha"/>
<feOffset dx="3" dy="-9"/>
<feGaussianBlur stdDeviation="2.5"/>
<feComposite in2="hardAlpha" operator="arithmetic" k2="-1" k3="1"/>
<feColorMatrix type="matrix" values="0 0 0 0 0 0 0 0 0 0 0 0 0 0 0 0 0 0 0.25 0"/>
<feBlend mode="normal" in2="shape" result="effect1_innerShadow_3901_6010"/>
</filter>
<filter id="filter4_d_3901_6010" x="91.7285" y="23.0664" width="10.1621" height="10.8828" filterUnits="userSpaceOnUse" color-interpolation-filters="sRGB">
<feFlood flood-opacity="0" result="BackgroundImageFix"/>
<feColorMatrix in="SourceAlpha" type="matrix" values="0 0 0 0 0 0 0 0 0 0 0 0 0 0 0 0 0 0 127 0" result="hardAlpha"/>
<feOffset dx="1"/>
<feGaussianBlur stdDeviation="2"/>
<feComposite in2="hardAlpha" operator="out"/>
<feColorMatrix type="matrix" values="0 0 0 0 1 0 0 0 0 1 0 0 0 0 1 0 0 0 0.81 0"/>
<feBlend mode="normal" in2="BackgroundImageFix" result="effect1_dropShadow_3901_6010"/>
<feBlend mode="normal" in="SourceGraphic" in2="effect1_dropShadow_3901_6010" result="shape"/>
</filter>
<filter id="filter5_i_3901_6010" x="84.8066" y="21.7275" width="10.5195" height="10.189" filterUnits="userSpaceOnUse" color-interpolation-filters="sRGB">
<feFlood flood-opacity="0" result="BackgroundImageFix"/>
<feBlend mode="normal" in="SourceGraphic" in2="BackgroundImageFix" result="shape"/>
<feColorMatrix in="SourceAlpha" type="matrix" values="0 0 0 0 0 0 0 0 0 0 0 0 0 0 0 0 0 0 127 0" result="hardAlpha"/>
<feOffset dx="-45" dy="-52"/>
<feGaussianBlur stdDeviation="19.25"/>
<feComposite in2="hardAlpha" operator="arithmetic" k2="-1" k3="1"/>
<feColorMatrix type="matrix" values="0 0 0 0 1 0 0 0 0 1 0 0 0 0 1 0 0 0 1 0"/>
<feBlend mode="normal" in2="shape" result="effect1_innerShadow_3901_6010"/>
</filter>
<filter id="filter6_i_3901_6010" x="81.5928" y="20.0996" width="24.2998" height="14.6143" filterUnits="userSpaceOnUse" color-interpolation-filters="sRGB">
<feFlood flood-opacity="0" result="BackgroundImageFix"/>
<feBlend mode="normal" in="SourceGraphic" in2="BackgroundImageFix" result="shape"/>
<feColorMatrix in="SourceAlpha" type="matrix" values="0 0 0 0 0 0 0 0 0 0 0 0 0 0 0 0 0 0 127 0" result="hardAlpha"/>
<feOffset dx="17" dy="-6"/>
<feGaussianBlur stdDeviation="15"/>
<feComposite in2="hardAlpha" operator="arithmetic" k2="-1" k3="1"/>
<feColorMatrix type="matrix" values="0 0 0 0 0 0 0 0 0 0 0 0 0 0 0 0 0 0 1 0"/>
<feBlend mode="normal" in2="shape" result="effect1_innerShadow_3901_6010"/>
</filter>
<linearGradient id="paint0_linear_3901_6010" x1="31" y1="20.1465" x2="31" y2="39.1465" gradientUnits="userSpaceOnUse">
<stop stop-color="#FF0000"/>
<stop offset="1" stop-color="#990000"/>
</linearGradient>
</defs>
</svg>
