<svg width="189" height="98" viewBox="0 0 189 98" fill="none" xmlns="http://www.w3.org/2000/svg">
<path d="M17.272 80.25V95.72C16.7586 95.86 15.942 96 14.822 96.14C13.702 96.28 12.6053 96.35 11.532 96.35C10.4586 96.35 9.50196 96.2567 8.66196 96.07C7.86862 95.93 7.19195 95.65 6.63195 95.23C6.07196 94.81 5.65196 94.2267 5.37195 93.48C5.09195 92.7333 4.95196 91.7533 4.95196 90.54V53.58C5.46529 53.4867 6.28195 53.37 7.40195 53.23C8.52195 53.0433 9.59529 52.95 10.622 52.95C11.6953 52.95 12.6286 53.0433 13.422 53.23C14.262 53.37 14.962 53.65 15.522 54.07C16.082 54.49 16.502 55.0733 16.782 55.82C17.062 56.5667 17.202 57.5467 17.202 58.76V69.89L31.762 53.16C34.9353 53.16 37.1986 53.7667 38.552 54.98C39.952 56.1467 40.652 57.5467 40.652 59.18C40.652 60.3933 40.3486 61.5367 39.742 62.61C39.1353 63.6833 38.1553 64.8967 36.802 66.25L28.052 75C29.2186 76.3067 30.432 77.66 31.692 79.06C32.9986 80.46 34.2586 81.8367 35.472 83.19C36.732 84.4967 37.922 85.7567 39.042 86.97C40.2086 88.1833 41.212 89.2333 42.052 90.12C42.052 91.1467 41.8653 92.0567 41.492 92.85C41.1186 93.6433 40.6053 94.32 39.952 94.88C39.3453 95.44 38.6453 95.86 37.852 96.14C37.0586 96.42 36.2186 96.56 35.332 96.56C33.4186 96.56 31.8553 96.0933 30.642 95.16C29.4286 94.18 28.262 93.0367 27.142 91.73L17.272 80.25ZM65.0984 82.28V95.72C64.585 95.86 63.7684 96 62.6484 96.14C61.575 96.28 60.5017 96.35 59.4284 96.35C58.355 96.35 57.3984 96.2567 56.5584 96.07C55.765 95.93 55.0884 95.65 54.5284 95.23C54.015 94.81 53.6184 94.2267 53.3384 93.48C53.0584 92.7333 52.9184 91.7533 52.9184 90.54V57.57C52.9184 56.59 53.175 55.8433 53.6884 55.33C54.2484 54.77 54.995 54.3267 55.9284 54C57.515 53.44 59.3584 53.0433 61.4584 52.81C63.5584 52.53 65.7984 52.39 68.1784 52.39C74.6184 52.39 79.4717 53.7433 82.7384 56.45C86.005 59.1567 87.6384 62.82 87.6384 67.44C87.6384 70.3333 86.8917 72.8067 85.3984 74.86C83.905 76.9133 82.1317 78.5 80.0784 79.62C81.7584 81.9067 83.415 84.0533 85.0484 86.06C86.6817 88.0667 87.965 89.8867 88.8984 91.52C88.4317 93.1533 87.5684 94.4133 86.3084 95.3C85.095 96.14 83.7184 96.56 82.1784 96.56C81.1517 96.56 80.265 96.4433 79.5184 96.21C78.7717 95.9767 78.1184 95.65 77.5584 95.23C76.9984 94.81 76.485 94.2967 76.0184 93.69C75.5517 93.0833 75.1084 92.43 74.6884 91.73L68.8084 82.28H65.0984ZM69.5084 72.97C71.2817 72.97 72.6817 72.5267 73.7084 71.64C74.735 70.7067 75.2484 69.3533 75.2484 67.58C75.2484 65.8067 74.665 64.4767 73.4984 63.59C72.3784 62.6567 70.5817 62.19 68.1084 62.19C67.4084 62.19 66.8484 62.2133 66.4284 62.26C66.0084 62.3067 65.5417 62.3767 65.0284 62.47V72.97H69.5084ZM110.051 54.84C110.845 54.3733 112.035 53.93 113.621 53.51C115.255 53.09 116.888 52.88 118.521 52.88C120.855 52.88 122.908 53.23 124.681 53.93C126.501 54.5833 127.668 55.6333 128.181 57.08C129.021 59.5067 129.931 62.33 130.911 65.55C131.891 68.77 132.871 72.1067 133.851 75.56C134.831 78.9667 135.788 82.35 136.721 85.71C137.655 89.0233 138.471 91.9633 139.171 94.53C138.611 95.1833 137.771 95.6967 136.651 96.07C135.531 96.49 134.201 96.7 132.661 96.7C131.541 96.7 130.585 96.6067 129.791 96.42C129.045 96.2333 128.415 95.9533 127.901 95.58C127.435 95.2067 127.038 94.7167 126.711 94.11C126.431 93.5033 126.175 92.8033 125.941 92.01L124.681 87.18H112.011C111.638 88.58 111.265 90.0267 110.891 91.52C110.518 93.0133 110.145 94.46 109.771 95.86C109.118 96.0933 108.418 96.28 107.671 96.42C106.971 96.6067 106.108 96.7 105.081 96.7C102.701 96.7 100.928 96.3033 99.7615 95.51C98.6415 94.67 98.0815 93.5267 98.0815 92.08C98.0815 91.4267 98.1748 90.7733 98.3615 90.12C98.5482 89.4667 98.7582 88.6967 98.9915 87.81C99.3182 86.55 99.7615 84.9867 100.321 83.12C100.928 81.2533 101.581 79.2467 102.281 77.1C102.981 74.9067 103.728 72.6667 104.521 70.38C105.315 68.0933 106.061 65.9467 106.761 63.94C107.461 61.8867 108.091 60.0667 108.651 58.48C109.258 56.8933 109.725 55.68 110.051 54.84ZM118.451 63.87C117.798 65.83 117.051 68.0233 116.211 70.45C115.418 72.83 114.695 75.2567 114.041 77.73H122.721C122.068 75.21 121.391 72.76 120.691 70.38C120.038 67.9533 119.431 65.7833 118.871 63.87H118.451ZM161.708 87.25C162.362 87.4367 163.202 87.5767 164.228 87.67C165.255 87.7167 166.235 87.74 167.168 87.74C169.035 87.74 170.575 87.3667 171.788 86.62C173.048 85.8267 173.678 84.6133 173.678 82.98C173.678 81.44 173.165 80.3433 172.138 79.69C171.112 79.0367 169.548 78.71 167.448 78.71H161.708V87.25ZM161.708 70.17H166.818C168.825 70.17 170.272 69.7967 171.158 69.05C172.092 68.3033 172.558 67.2067 172.558 65.76C172.558 64.5 172.022 63.4967 170.948 62.75C169.922 62.0033 168.358 61.63 166.258 61.63C165.558 61.63 164.742 61.6533 163.808 61.7C162.922 61.7467 162.222 61.8167 161.708 61.91V70.17ZM166.258 97.12C165.465 97.12 164.532 97.0967 163.458 97.05C162.385 97.0033 161.265 96.91 160.098 96.77C158.978 96.63 157.858 96.4433 156.738 96.21C155.618 96.0233 154.592 95.7433 153.658 95.37C151.092 94.39 149.808 92.6867 149.808 90.26V57.57C149.808 56.59 150.065 55.8433 150.578 55.33C151.138 54.77 151.885 54.3267 152.818 54C154.405 53.44 156.388 53.0433 158.768 52.81C161.148 52.53 163.598 52.39 166.118 52.39C172.092 52.39 176.688 53.3933 179.908 55.4C183.128 57.4067 184.738 60.51 184.738 64.71C184.738 66.81 184.132 68.63 182.918 70.17C181.705 71.6633 180.072 72.76 178.018 73.46C180.352 74.1133 182.288 75.3033 183.828 77.03C185.415 78.7567 186.208 80.9267 186.208 83.54C186.208 88.16 184.482 91.59 181.028 93.83C177.622 96.0233 172.698 97.12 166.258 97.12Z" fill="url(#paint0_linear_3882_6168)"/>
<path d="M14.1278 28.4L17.9078 26C22.1478 30.08 25.7878 33.72 28.8278 36.92C31.9078 40.12 34.5078 42.68 36.6278 44.6C36.5878 45.48 36.3278 46.18 35.8478 46.7C35.3678 47.18 34.7678 47.42 34.0478 47.42C33.3678 47.42 32.7478 47.22 32.1878 46.82C31.6678 46.42 31.1278 45.96 30.5678 45.44L14.1278 28.4ZM18.5678 30.08L13.7078 29L31.7678 10.28C32.8078 10.32 33.5878 10.58 34.1078 11.06C34.6278 11.54 34.8878 12.1 34.8878 12.74C34.8878 13.26 34.7478 13.76 34.4678 14.24C34.2278 14.68 33.8278 15.14 33.2678 15.62L18.5678 30.08ZM10.3478 24.98H15.2678V46.94C15.0278 47.02 14.7078 47.1 14.3078 47.18C13.9078 47.3 13.4678 47.36 12.9878 47.36C12.1078 47.36 11.4478 47.18 11.0078 46.82C10.5678 46.46 10.3478 45.9 10.3478 45.14V24.98ZM15.2678 29H10.3478V10.64C10.5478 10.56 10.8478 10.48 11.2478 10.4C11.6878 10.28 12.1478 10.22 12.6278 10.22C13.5078 10.22 14.1678 10.4 14.6078 10.76C15.0478 11.08 15.2678 11.64 15.2678 12.44V29Z" fill="white"/>
<path d="M66.5484 25.22H71.4084V46.88C71.2084 46.96 70.9084 47.04 70.5084 47.12C70.1084 47.24 69.6684 47.3 69.1884 47.3C68.3084 47.3 67.6484 47.12 67.2084 46.76C66.7684 46.4 66.5484 45.84 66.5484 45.08V25.22ZM71.4084 29.24H66.5484V10.64C66.7484 10.56 67.0484 10.48 67.4484 10.4C67.8884 10.28 68.3484 10.22 68.8284 10.22C69.7084 10.22 70.3484 10.4 70.7484 10.76C71.1884 11.08 71.4084 11.64 71.4084 12.44V29.24Z" fill="white"/>
<path d="M99.5353 14.66L103.615 14.3C103.775 15.54 103.915 17 104.035 18.68C104.155 20.36 104.235 22.1 104.275 23.9C104.355 25.66 104.395 27.34 104.395 28.94V46.88C104.195 46.96 103.875 47.04 103.435 47.12C103.035 47.24 102.615 47.3 102.175 47.3C101.295 47.3 100.635 47.14 100.195 46.82C99.7553 46.46 99.5353 45.9 99.5353 45.14V14.66ZM128.455 42.86L124.315 43.22C123.915 39.86 123.675 36.44 123.595 32.96C123.555 29.44 123.535 26.04 123.535 22.76V10.64C123.775 10.56 124.095 10.48 124.495 10.4C124.895 10.28 125.335 10.22 125.815 10.22C126.695 10.22 127.355 10.4 127.795 10.76C128.235 11.08 128.455 11.62 128.455 12.38V42.86ZM128.455 41.06V46.34C128.095 46.62 127.635 46.86 127.075 47.06C126.515 47.26 125.895 47.36 125.215 47.36C124.255 47.36 123.435 47.18 122.755 46.82C122.075 46.42 121.455 45.72 120.895 44.72L109.495 25.52C108.895 24.44 108.235 23.26 107.515 21.98C106.795 20.66 106.115 19.42 105.475 18.26C104.835 17.06 104.335 16.08 103.975 15.32L99.5353 16.46V11.24C99.8553 10.92 100.295 10.66 100.855 10.46C101.455 10.26 102.095 10.16 102.775 10.16C103.735 10.16 104.555 10.36 105.235 10.76C105.915 11.12 106.535 11.8 107.095 12.8L118.555 32C119.195 33.08 119.855 34.28 120.535 35.6C121.255 36.88 121.915 38.12 122.515 39.32C123.115 40.48 123.595 41.44 123.955 42.2L128.455 41.06Z" fill="white"/>
<path d="M183.356 28.76C183.356 32.92 182.596 36.42 181.076 39.26C179.556 42.06 177.476 44.18 174.836 45.62C172.236 47.06 169.276 47.78 165.956 47.78C162.676 47.78 159.716 47.06 157.076 45.62C154.436 44.18 152.356 42.06 150.836 39.26C149.316 36.42 148.556 32.92 148.556 28.76C148.556 24.6 149.336 21.12 150.896 18.32C152.456 15.48 154.536 13.34 157.136 11.9C159.776 10.46 162.716 9.74 165.956 9.74C169.236 9.74 172.176 10.46 174.776 11.9C177.416 13.34 179.496 15.48 181.016 18.32C182.576 21.12 183.356 24.6 183.356 28.76ZM178.376 28.76C178.376 24 177.236 20.34 174.956 17.78C172.716 15.18 169.716 13.88 165.956 13.88C162.236 13.88 159.236 15.18 156.956 17.78C154.716 20.34 153.596 24 153.596 28.76C153.596 33.52 154.716 37.2 156.956 39.8C159.196 42.36 162.196 43.64 165.956 43.64C169.756 43.64 172.776 42.36 175.016 39.8C177.256 37.2 178.376 33.52 178.376 28.76Z" fill="white"/>
<defs>
<linearGradient id="paint0_linear_3882_6168" x1="94.5" y1="43" x2="94.5" y2="128.5" gradientUnits="userSpaceOnUse">
<stop stop-color="#FF0000"/>
<stop offset="1" stop-color="#990000"/>
</linearGradient>
</defs>
</svg>
